<?xml version="1.0" encoding="utf-8"?>
<!-- Generator: Adobe Illustrator 21.0.2, SVG Export Plug-In . SVG Version: 6.00 Build 0)  -->
<svg version="1.1" id="Layer_1" xmlns="http://www.w3.org/2000/svg" xmlns:xlink="http://www.w3.org/1999/xlink" x="0px" y="0px"
	 viewBox="0 0 33.1 20.6" style="enable-background:new 0 0 33.1 20.6;" xml:space="preserve">
<style type="text/css">
	.st0{opacity:0.5;}
	.st1{fill:#ABBACD;}
</style>
<g class="st0">
	<rect x="21.5" y="0.8" class="st1" width="8.5" height="2.5"/>
	<path class="st1" d="M25.9,4.8c-7.9,0-7.9,7.9-7.9,7.9s-0.5,7.9,7.9,7.9c0,0,7,0.4,7-5.5h-3.6c0,0,0.1,2.2-3.3,2.2
		c0,0-3.6,0.2-3.6-3.6H33C33.1,13.7,34.2,4.8,25.9,4.8z M22.4,11c0,0,0.4-3.2,3.6-3.2s3.1,3.2,3.1,3.2H22.4z"/>
	<path class="st1" d="M13.4,9.4c0,0,3.1-0.2,3.1-3.9S13.9,0,10.7,0h-6H4.5H0v20.5h4.5h0.2h6c0,0,6.5,0.2,6.5-6.1
		C17.2,14.5,17.5,9.4,13.4,9.4z M4.7,3.7h5.2h0.8c0,0,1.5,0,1.5,2.1s-0.9,2.4-1.8,2.4H4.7V3.7z M10.4,16.9c-0.2,0-0.3,0-0.4,0H4.7
		v-5.5h6c0,0,2.2,0,2.2,2.8C12.9,16.6,11.2,16.9,10.4,16.9z"/>
</g>
</svg>
