<?xml version="1.0" encoding="utf-8"?>
<!-- Generator: Adobe Illustrator 21.0.2, SVG Export Plug-In . SVG Version: 6.00 Build 0)  -->
<svg version="1.1" id="Layer_1" xmlns="http://www.w3.org/2000/svg" xmlns:xlink="http://www.w3.org/1999/xlink" x="0px" y="0px"
	 viewBox="0 0 34.8 33.3" style="enable-background:new 0 0 34.8 33.3;" xml:space="preserve">
<style type="text/css">
	.st0{opacity:0.5;}
	.st1{fill:#ABBACD;}
</style>
<g class="st0">
	<rect x="0.4" y="10.8" class="st1" width="7.5" height="22.5"/>
	<path class="st1" d="M4.1,7.8L4.1,7.8c2.7,0,4.3-1.7,4.3-3.9C8.3,1.7,6.8,0,4.2,0C1.7,0,0,1.7,0,3.9C0,6,1.6,7.8,4.1,7.8z"/>
	<path class="st1" d="M26.2,10.3c-4,0-5.7,2.2-6.7,3.7v-3.2H12c0.1,2.1,0,22.5,0,22.5h7.5V20.7c0-0.7,0-1.3,0.2-1.8
		c0.5-1.3,1.8-2.7,3.8-2.7c2.7,0,3.8,2.1,3.8,5.1v12h7.5l0,0V20.4C34.8,13.5,31.1,10.3,26.2,10.3z M19.5,14.1L19.5,14.1
		C19.5,14.1,19.5,14,19.5,14.1L19.5,14.1z"/>
</g>
</svg>
