<?xml version="1.0" encoding="utf-8"?>
<!-- Generator: Adobe Illustrator 21.0.2, SVG Export Plug-In . SVG Version: 6.00 Build 0)  -->
<svg version="1.1" id="Layer_1" xmlns="http://www.w3.org/2000/svg" xmlns:xlink="http://www.w3.org/1999/xlink" x="0px" y="0px"
	 viewBox="0 0 304 647" style="enable-background:new 0 0 304 647;" xml:space="preserve">
<style type="text/css">
	.st0{fill:none;}
	.st1{fill:#ABBACD;}
	.st2{fill:#596066;}
	.st3{fill:#161F26;}
</style>
<g id="torso">
	<path class="st0" d="M75,99c-0.8,2.4-2.9,3.5-4.2,4.4c-0.3,0.2-0.6,0.4-0.8,0.6c-1,1-1,1-1,3s-1,5-2,6s-2,0-2,2s-1,3-2,4s-3,3-1,4
		s4,3,6,2s3-1,5-2s3-2,6-2s6-1,8-1s4,2,4-2s0-7,1-8s1.5-2.2,0-5c-2.1-3.9-4.6-12.2-5-15c-0.5-3.8-1.8-4.8-3.6-3.4
		c-0.1,0.1-0.3,0.2-0.4,0.4C81,89,76,96,75,99z"/>
	<path class="st1" d="M168,105C168,105,168,105,168,105c-0.3,0-0.6,0-1,0c-4,0-5-2-7,0s-3,2-6,2s-5-1-3-2s0-2-5-2
		c-1.5,0-2.8,0.3-3.7,0.7c-0.9,1-1.4,1.9-1.6,2.7c0.2,0.5,0.6,1.1,1.3,1.6c3,2,6,4,7,6c0.8,1.6,2.2,3.2,3.8,3.8c0.1,0,0.1,0,0.2,0
		c0.1-1.6,1,0.2,2-0.8c1-1,2-1,3-1s-6,6-10,8s-8,5-14,6s-2,3-6,3c-2.4,0-6.4,0.3-10,0c3.6,0.8,7.9,1.2,13,1c20-1,38-24,41-28
		c1.7-2.3,1.8-3.9,1.4-5.6c-1.7,2-5.4,6.6-6.4,7.6C166,109,167,106,168,105z"/>
	<path class="st1" d="M148,119c-4,2-5,2-8,0c-0.6-0.4-1.2-0.7-1.8-1c-0.1,0-0.1,0-0.2,0c-3,0-3-2-5,0c0,1.6,1.3,1.9-1.5,2.5
		c-0.4,0.2-1,0.3-2.2,0.4c-0.1,0-0.2,0-0.3,0.1c-3.8,0.6-6,1.3-7.9,1.7c1.5,1.3,2.2,2.3,2.9,2.3c1,0,4,0,4,1s0,3,2,3s2-1,4-1
		s1,1,4,0s8-3,10-5s5-3,5-5c0-0.1,0-0.1,0-0.2c-0.1,0-0.1,0-0.2-0.1C151.6,117.8,149.8,118.1,148,119z"/>
	<path class="st1" d="M123,33l2,1l5.8,1.9c0.1,0,0.2,0,0.3,0l1-1.9c1.3,0.5,2.7,1.1,4.1,1.9c1.3,0.2,2.6,0.5,3.9,1.1c4,2,8,4,9,6
		s3,2,5,3s4,2,3,4s3,6,5,7s4,2,2-2s-4-5-4-7s0-2-3-4s-8-6-10-8s-11-8-25-8s-20,6-22,9s-6,10-2,6s5-6,7-7c1.3-0.6,2.1-0.9,1.8-0.2
		c0.3-0.1,0.6-0.3,0.9-0.4C113,33,118,33,123,33z"/>
	<path class="st1" d="M118,115c-3-4-10-10-10-10c-3-4-7-6-2-9s7-2,5-5s-2-6,1-7s5-5,3-6s-2-3-1-4s2,0,1-7s-1-9,1-9s2,2,2-3s2-6,0-9
		s-3-5-10-3c-3.7,1.1-6.6,1.8-8,1.7c-0.9,1.3-1.6,2.3-2,2.3c-1,0-2,2-1,3s2,1,2,2s1,2,3,2s5,2,2,5s-3,6-1,5s2,0,3,2s1,3,3,4s4,7,1,7
		s-12-1-11,3s1,6-1,7s-2,0-1,4c0.8,3.2,6,15.1,14.5,23.9c1.5,0.3,4.9,4.1,7.5,4.1C122,119,121,119,118,115z"/>
	<path class="st1" d="M154,77c3,0,4,0,0,2s-1.4,3.2,1.3,3.1C158,82,163,85,157,87s-2,4,1,4s3,0,2,4s0,5,1,6s3-1,5,0c2,1,1,0,3,1
		c0-0.6,0-1.3,0-2c0-2,1-11,1-15s0-8-2-9s-2-1-3,0s-2,1-4-1s-2-1-3-1s-1-2-3-3c-1.9-1-3.8-1-8.4-2.8c0.2,0.9,0.6,1.8,1.4,2.8
		C152,76,151,77,154,77z"/>
	<path class="st1" d="M111.9,130.9c-1.2-1.2-2.3-1.6-3.2-1.9C109.6,129.7,110.7,130.3,111.9,130.9z"/>
	<path class="st1" d="M180,283c0-4-3-8,0-8s6,2,7,0s9-10,7-14s0-5-4-6s-8-4-11-5s-3,0-6-2s-7-6-7-9s-1-4-10-6
		c-7.2-1.6-9.9-3.2-10.7-5.3c-0.7,0.4-1.4,0.8-2.3,1.3c-11,6-12,11-5,16s7,7,18,12s18,8,23,10s-17-3-28-4s-15-5-16,3s0,11,9,12
		s14,6,21,7s4,4,12,1c1.5-0.5,2.7-0.9,3.6-1.2C180.2,284.4,180,283.9,180,283z"/>
	<path class="st1" d="M303,298c-3-7-5-25-5-30s-2-44-2-52s-1-33-2-41s-2-28-3-38c-0.2-1.5-0.2-3-0.3-4.4c-4.9,0.4-7.8,0.4-12.7,1.4
		c-5,1-6,1-9,1s-2-1,1-1s6-3,6-5s1-6,1-8s-1-4,1-4s3,0,3,3s0,5,1,8s0,4,2,4c1.4,0,4.8-0.3,6.7-0.4c0-6.9,1.1-11.5,0.3-15.6
		c-1-5-4-6-4-10s3-5-3-5s-8-1-16-1s-19,0-11-2s17-2,19-2s6-1,7-4s4,0,3-14s-2-26-2-34s0-16-4-18s-9-7-11-9s-3-4-16-4s-41,3-48,4
		s-15,1-18,1c5,6,11,10,13,15c-5-3-8-8-17-7s-9,3-4,2s10,0,12,2s8,6,8,12s0,7-2,7s-3-1-2,2s4,5,2,7s-6,2-5,6s1,4,2,7s0,8-2,2
		s-6-17-9-20s-4-6-5-4s-1,2-6-3s-12-10-14-11s-3-5-1-5c1.5,0-0.3-2.8-3-5c-0.3,0.3-0.6,0.4-1,0c-0.6-0.6-1.6-1.6-2.5-2.2
		c-0.5-0.3-1-0.5-1.3-0.7c-0.1,0-0.2,0-0.2,0c-1,0-2-1-1-1c0.2,0,0.3,0,0.4,0c0.3-0.3,1.2-0.6,2.6-1c3-1,0-2,4-7s12.3-10.3,0.7-10.7
		C144,2,133,6,129,13l-13-1c4-3,14.3-8,7.7-6.5c-1.3,0.3-2.6,0.5-3.7,0.5c-4.7,2-9.7,4.6-14.9,8c-6,1-12,2-8,6c2,2,0,3-3,7
		s-7,12-6,14c1,1.9,1,4.7,1,5.8c0.9-0.3,1.6-0.7,2-1.8c1-3,7-10,11-13s10-5,20-5s23,4,32,11c6.6,5.1,7.8,6,8,6v0c0,0,0.1,0.1,0,0v2
		l10,9h2c1,1,3,3,3,8c0,2-0.2,6.5-0.4,11.4c0.9,3.6,1.4,13.2,1.4,16.6c0,5-2,10-2,13s0,5-2,4s-6,5-9,9s-3,6-4,8s-4,4-7,4s-5,0-9,2
		c-9,6-27,7-32,5s-1,0-1,1s1,6,3,10s3,3,7,5s4,2,9,3s4-2,4-4s-2-5-3-8s6-3,6-1s2,6,4,10s3,4,8,3s4,1,2,2s-5,3-7,5s-3-1-7-2s-4,2-6,4
		s-7,1-11,1s-6,2-8,2s-8,1-14,3s-2,7,0,11s5,11,6,17s2,7,5,8s3,5,2,8s-5-2-5,2s2,4,2,6s-1,2-3,2s0,1,0,3s-3,2-6,1s0,2,1,6s-2,0-4-3
		s0,5,0,6s-4,7-4,12s-4,7-8,16s-4,13-5,17s-5,7-6,11c-0.6,2.5,2.9,2.6,6.9,2.2c1.4-1.5,2.6-3.2,3.1-4.2c0.6-1.2,2.3-5.3,3.5-9
		c0.3-2.7,0.8-5.2,1.5-7.4c0.1-2,0.5-3.3,3-6.6c4-6,5-13,5-18s-1-9,6-13c3.5-2,5.8-3.5,7.1-5.3c-0.1-0.5,0.1-1.1,0.9-2.1
		c0.2-0.3,0.4-0.6,0.6-0.9c0.3-1.1,0.4-2.3,0.4-3.7c0-6,0-8,6-8c4.3,0,10.5-0.5,14.9,0.3c0,0,0,0,0,0c1.9-1.7,4.1,1.7,6.2,3.7
		c1.7,1.5,3,2,5.9,2c2.5,0,5.4,0,4.5,1.5c2.2,0,4.5-0.1,5.5-1.5c2-3,4-4,5-4s2,0,1-7s-2-15-2-18c0-2.2-0.6-3.9-1.2-5.9
		c-1-1-1.3-2.3-1.2-3.9c-0.5-2.1-0.5-3.7-0.5-5.3c0-1.5,0-2.5,1.3-2.8c1.1-2.9,4.8-2.5,5.7-4.2c1-2,0-2-1-2s-2-1-4-4s-3-3,0-2
		s5,3,7,5s3,1,5-2c0.8-1.2,4.8-7.1,9.8-14.2c-1.8-1.8-2-2.6-6.8,1.2c-5,4-8,6-8,6s-4,0-1-2c7.8-5.2,12-10,15-10s4-3,5-6s5-9,0-6
		s-11,6-13,6s-2-4,6-7s8,0,13-7s8-11,12-11s1,6,4,3s3-3,5-1s-2,5,2,4s12-4,1,2s-3,4,0,3s9-2,8-3s-3-1,0-2s3,2,6,2s4,1,4,1s-2,1-3,2
		s-3,4,2,3s2,2,5,2s11,0,15,3s5,5,7,3s3-6,6-6s3,2,2,6s-2,12-1,13s-1-1-3-1s-4-3-2,2s4,8,4,10s2,4-3,3s-6-3-9-3s-5-4-2-4s7-4,3-4
		s-9,1-6-1s3-2-2-3s1-4-7-4s-6,3-11,5s-12,0-12-1s-2-1,3-2s13-3,9-4s-5.3-3.7-13.2-3.4C206,142,202,143,201,143s-1-1,1-3s3-5-2,0
		s-6,6-7,8s-4,6-4,1s3-6,4-8s2-5-3,1s-7,7-7,10s-1,3-3,1c0,0,0,0,0,0c-4.5,6-7.7,11.6-9,16c-2,7-1,6,2,6c0.3,0,0.6,0,0.8,0
		c1.6-0.5,2.9-0.7,4.2,0c4,2,6,4,11,6s7,4,7,6s1,3,2,3s3,0,2,6s0,10,2,16s3,7,4,7s2,0,1,3s2,1,0,7s-3,13-6,17s-5,8-4,12s3,4-1,8
		s-10,10-9,12s2,5,0,6c-0.5,0.3-1.3,0.6-2,0.9c0,0.1,0,0.1,0,0.1c-9,9-11,9-14,20s-5,10-26,3c-17.1-5.7-23.6-10.7-31.3-12.9
		c0.7,1.6,1.7,3.6,0.3,6.9c-2,5-7,14-7,18s-3,3,0,9s26,45,34,49s20,4,36,6s65,1,68-4s3-12,3-12c0-6,0-5,1-11c0.5-2.8,0.5-5,0.4-7
		H249c-7,2-6,4-11,4s-8,0-10,0s0,3-5,1s-7-3-2-3s7,0,11-1s7-1,12-2c2.4-0.5,4.1-1.2,5.2-1.8c-0.1-1.3-0.2-2.7-0.2-4.2c0-5,0-5,1-10
		c1-10,0-28-2-35c-0.2-0.7-0.3-1.3-0.4-1.9c-0.5-1.4-0.3-2.3,0.3-3c1-2.8,4.3-3.7,7.1-5.1c0.9-0.4,1.9-1.2,3-2.2
		c1.7-2,3.6-4.4,5-5.8c0.4-0.4,0.7-0.5,1-0.6c2-2.4,3.8-4.8,5-6.4c0.5-0.7,0.9-1.2,1.2-1.6c-0.4-0.4-0.5-1.4-0.2-3.4c1-6,1-12-1-9
		s-7,13-9,13s-3,0-3-6s2-4,3-7s2-6,3-10s3-4-1-5s2-2-3-4s-1,1-1,6c0,4.2,2.1,18-1.3,13.3c0,0,0,0,0-0.1c-0.7-1-1.5-2.6-2.7-5.3
		c-7-16-5-9-5-1c0,8-1,27.8-2,29c0.1,2.2,0,4.4,0,6l-1,3l1,2l-1,1v-1l-1-1c0,0,0-1,0-2s0-2-2,0s0,3,0,8s-9,12-11,13s-2,4-4,5
		s-3,3-5,6s-2,2-3,1s-6,3-10,5s-6,1-7-1s-1-1-4,1s-6-2-7-4s-3,0-5,0s0-2,3-5s-4-2-6-4s-3-3-2-4s11-13,12-15s3,0,4-3s3,1,4,3s2,1,3,0
		s-1-3-3-5s-1-3,0-2s2,2,4,3s4-2,4-3s0-4,1-6s-1-3-4-3s-5-1-2-1s9,0,13,0s1-2,3-5s6-6,9-10c1.5-2,3.1-2.8,4.5-2.6l6.4-24.5
		c-0.9-0.8,1.1-2,1.1-4.9c0-1.1,0.1-1.5,0.6-1.4l0.4-1.6c4,0,4-3,0-3s-2-9,1-10c0.9-0.3,1.9-0.8,2.8-1.4c-0.7-0.6-0.5-1.6,0.2-1.6
		c0.9,0,1.7,0,2-1.3c-0.1-0.3-0.4-0.5-1-0.7c-3-1-4,1-3-4s9-8-2-8s-13,2-19-1c-2-1-2,0-4,1s-4-1,0-3s7-3,15-5s9-5,15-4s10,1,13,7
		s4,6,4,10s1,4,2,12s1,20,0,23s-1,5-1,9s-1,5,1,4s3-1,3,2c0,0.6,0,1.2,0,2c0,3.4,0,8.4,0,10c0,0.5,0,0.8,0,1c0,0.4,0,0.9,0,1.3
		c0.2,0.2,0.8,0.1,2-0.3c1-0.3,1.8-0.3,2.2-0.1c0.4,0,0.6,0.1,0.4,0.3c0.4,0.5-0.1,1.3-1.7,1.9c-1.3,0.4-2.6,1.2-3.5,1.5
		c0.1,0.8,0.2,1.9,0.5,3.5c1,5,4,22,5,31c0.7,6.1,0,12.1-2.7,16.9c1.8-0.4,3.6-0.8,5.3-1.2c4.3-3.4,8.4-5.4,8.4-8.7c0-4,1-15,1-18
		s-2-4-4-5s-3-1-3-5s0-5,2-8s1-6,1-12s2-10,1-21s-4-10-3-17s-3-13-3-17s1-5,2-8s1-6,1-9s-1-13-2-17s-1-4-3-5s-3-3-2-5s1-3,0-5
		s-3-2-2-5s1-4,3-4s6-1,6,3s2,20,3,27s1,13,1,18s1,18,2,30s2,14,2,21s2,9.3,2,14.2c0,4.8,0,8.8,1,11.8s0,3,0,6s0,5,0,8s1,6,1,9
		s-4,4.7-2,7.3c1.2,1.6,2,4.1,2.3,6.6c1.5-0.9,2.7-1.7,3.7-2C302,311,306,305,303,298z M115,204c-3-5-5-24-5-31l2,16l4,14L115,204z
		 M120,202c-2,0-1-3-1-9s-3-10-3-14s0.6-2.7,1-4c1-3,2-1,1,1s0,3,2,4s0,5,0,7s0,6,2,11S122,202,120,202z M203,106c-7,3-9,3-11,5
		s-5,1-1-3c4.5-4.5,7-8,8-13s2-6,4,0S210,103,203,106z M222,119c-4,0-6-9-8-14s-7.9-15.9-16-24c-2-2,0-2,1-4s2-2,4,1s5,7,10,12
		s7,13,7,16s4,7,7,11S226,119,222,119z M241,41c-7,1-3-4,2-5s2-3,2-6s1-8,3-12c3-6,7-1,7,6s5,6,11,4s3-3,3,2s0,8,5,16s-1,14-3,20
		s1,5,3,14s-2,11-5,12s-4,1-7-1s1-8,1-17s-1-16,1-19s-1-5-4-11S248,40,241,41z M248,333c-1,2-1,2-1,2c-3,4-14,6-21,5s-10-1-3-2
		s14-1,18-3S249,331,248,333z M212,331c9-3,16-7,22-9s8-3,6-1c-3,3-21,15-67,14c-4,0-7-1,0-1S203,334,212,331z M246,177c0-1,0-2-2-4
		s-2-2,1-1s3,1,5,0s1,1,1,2s-2,3-3,4C246,180,246,178,246,177z M263.8,189.2c-6.2-4.8-12.9-4.9-16.8-6.2c-3-1,7-4,10-7c1,3,5,6,9,11
		S270,194,263.8,189.2z M279,281c1,0,0,2,1,4s0,5,1,8s1,2-1,3s-2-2-2-4s-1-3-1-6s-1-4,0-5C277,281,278,281,279,281z"/>
	<path class="st1" d="M100,218c2-2-1-2-2-5s-2-16-3-22s-2-5-3-3s-5-1-8-5s-4,1-9-4s-5-2-12-6s-5-2-6,1c-0.7,2-3.5,4.4-6.5,6.4
		c4.6,0.8,9.7,1.2,12.5,2.6c4,2,6,1,10,3s4,0,11,2s10,7,10,14s2,12,1,14s-1,4,0,8c0.1,0.2,0.1,0.4,0.1,0.6c0.5-1.1,0.7-1.9,1.9-3.6
		C99,218,98,220,100,218z"/>
	<path class="st1" d="M84,247c-0.4,1.4-0.8,3.6-1.4,5.9c3.1-5.2,5.2-11.3,6.9-16.3C87.3,240,84.7,244.2,84,247z"/>
	<path class="st1" d="M33,172c8,0,9-6,12-9s8-24,11-24s5,1,10,3s5,1,8,0s10.2-3.9,14-9c3-4,2,0,2,3s-5,3-8,5s-1,4,1,8s3-3,3-6
		s2-2,3-1s3,1,4-2s2,0,3,2s4,3,10,5s-1-6-2-9s1-4-2-4s-2-1-6-7s0-4,0-8s4-3,6,2c0.5,1.3,1.4,2.9,2.8,4.5c-1.9-3.8-3.8-7.6-4.8-9.5
		c-1-2-2-4-2-7s0-7-2-9s-5-4-6-7s-2-6-2-7c0-0.9-3.2-2.6-4.6,0.6c1.8-1.5,3-0.4,3.6,3.4c0.4,2.8,2.9,11.1,5,15c1.5,2.8,1,4,0,5
		s-1,4-1,8s-2,2-4,2s-5,1-8,1s-4,1-6,2s-3,1-5,2s-4-1-6-2s0-3,1-4s2-2,2-4c-5-1-3-3-6-4s-6,1-9-1s-3-3-4,2s-14,10-16,9
		c-4.5-2.2-5-5-6-8s-2-5-2-8s1-11,1-7s3,10,6,13s4,4,6,4s3,0,3-4s-1-3,0-7c0.6-2.3,0.8-4.9,1.9-6.7c0-0.1,0.1-0.2,0.1-0.3
		c0,0,0,0,0.1-0.1c0.3-0.4,0.7-0.8,1.1-1.1c0.8-0.9,1-1.7,2.8-0.8c3.9,0,8.3,1.2,12.9,2.7c-4.7-1.7-9-3.2-9.9-3.7c-2-1-4-4-5-5
		s-1-2,0-3s3-2,2-3s-2-3-1-4s1,0,2-1s1-2,1-3s2-1,3-1s7,0,7,0s4-3,2-5s-4-4-5-5s-3-3-1-3s1-1,2,1s2-1,3-1s2,1,3,0s2,0,2-3s0-4,2-4
		s1,0,4,1s4,1,5,1s2,0,2-2s0-2,2-1s4,1,5,1s2,0,3-4c0.4-1.8,1.5-2.4,2.5-2.7c-0.2-0.1-0.3-0.2-0.5-0.3c-2-1-2-1-5-1s-9,0-13,2
		c-3-1-5-2-13,2c-3,0-10,2-15,12c-3,3-9,10-11,12s0,7,0,8s-1,4-2,5c-1-2-1-4-1-6s-1-2-2-1s-2,3-2,6s-1,4-3,8c0,0,0,0,0,0
		c-0.9,6-1.7,12-1,17c1,7,1,9,13,16s16,2,19-1s2-1,4-1s3,1,3,2s-3,2-7,5s-2,2-2,5s0,4-3,6s-4,0-7,0s-3,0-4,3s-3,1-2,6s-2,4-5,4
		s-1-2-1-5s2-4,0-7s0-7,3-6s1-2,0-3s-2-4-7-7s-5-6-8-10s-3-2-5,0s-5,7-6,13s-1,10,1,20s9,15,16,19c0,0-1.5,0.4-3.5,0.9
		c0.6,0.3,1.4,0.7,2.5,1.1c0.4,0.2,0.8,0.3,1.2,0.5C23.1,171.4,26.9,172,33,172z M36,96c1-1,2-2,3-3s1,1,1,1s-2,2-3,3S35,97,36,96z"
		/>
	<path class="st2" d="M74,293c1-4,5-7,6-11s1-8,5-17s8-11,8-16s4-11,4-12s-2-9,0-6s5,7,4,3s-4-7-1-6s6,1,6-1s-2-3,0-3s3,0,3-2
		s-2-2-2-6s4,1,5-2s1-7-2-8s-4-2-5-8s-4-13-6-17s-6-9,0-11s12-3,14-3s4-2,8-2s9,1,11-1s2-5,6-4s5,4,7,2s5-4,7-5s3-3-2-2s-6,1-8-3
		s-4-8-4-10s-7-2-6,1s3,6,3,8s1,5-4,4s-5-1-9-3s-5-1-7-5s-3-9-3-10s-4-3,1-1s23,1,32-5c4-2,6-2,9-2s6-2,7-4s1-4,4-8s7-10,9-9
		s2-1,2-4s2-8,2-13c0-3.4-0.5-13.1-1.4-16.6c-0.3,7.2-0.6,15.2-0.6,17.6c0,4-0.8,6.3-2.4,8.2c-0.1,0.1-0.1,0.2-0.2,0.2
		c0.4,1.7,0.3,3.3-1.4,5.6c-3,4-21,27-41,28c-5.2,0.3-9.4-0.2-13-1c-2.5-0.2-4.8-0.8-6-2c0,0-0.1-0.1-0.1-0.1
		c-1.2-0.6-2.3-1.2-3.2-1.9c-1.4-0.4-2.5-0.7-3.7-3.1c-0.1-0.2-0.2-0.3-0.2-0.5c-1.4-1.6-2.2-3.2-2.8-4.5c-2-5-6-6-6-2s-4,2,0,8
		s3,7,6,7s1,1,2,4s8,11,2,9s-9-3-10-5s-2-5-3-2s-3,3-4,2s-3-2-3,1s-1,10-3,6s-4-6-1-8s8-2,8-5s1-7-2-3c-3.8,5.1-11,8-14,9s-3,2-8,0
		s-7-3-10-3s-8,21-11,24s-4,9-12,9c-6.1,0-9.9-0.6-11.8,0.5C26,174.3,31.3,176,35,176c4,0,5,1,10,3c1.5,0.6,3.5,1,5.5,1.4
		c3-2,5.9-4.4,6.5-6.4c1-3-1-5,6-1s7,1,12,6s6,0,9,4s7,7,8,5s2-3,3,3s2,19,3,22s4,3,2,5s-1,0-3,3c-1.2,1.8-1.3,2.5-1.9,3.6
		c0.6,3.6-1.2,5.5-3.1,8.4c-0.6,0.9-1.5,2.2-2.4,3.6c-1.7,4.9-3.8,11-6.9,16.3c-0.9,4.2-2,8.8-2.6,10.1c-1,2-1,5-4,6s-8,5-9,8
		s-4,4-4,7s0,5,1,5s1,2,0,4s0,2,2,2s4,0,6,1s3,2,5,2c1,0,2.5-1.3,3.9-2.8C76.9,295.6,73.4,295.5,74,293z"/>
	<path class="st2" d="M171,305c3-11,5-11,14-20c0,0,0-0.1,0-0.1c-1.6,0.5-3.4,0.9-4.3,0c-1,0.3-2.2,0.6-3.6,1.2c-8,3-5,0-12-1
		s-12-6-21-7s-10-4-9-12s5-4,16-3s33,6,28,4s-12-5-23-10s-11-7-18-12s-6-10,5-16c0.9-0.5,1.6-0.9,2.3-1.3c-0.2-0.5-0.3-1.1-0.3-1.7
		c0-1.6,2.1-1.5,4.5-1.5c0.9-1.5-2-1.5-4.5-1.5c-2.9,0-4.2-0.5-5.9-2c0,0,0,0,0,0c2.1,2-4,0-8.1,0c-4,0,0-2,1.9-3.7
		c-4.4-0.8-10.6-0.3-14.9-0.3c-6,0-6,2-6,8c0,1.4-0.1,2.7-0.4,3.7c1.4-2.3,1.7-4.6,4.4-3.7c3,1,3,0,3-2s1-7,2-4s0,9,3,8s6-2,8,0
		s3,1,2,5s1,6-2,6s-5,0-5,4s-1,6,1,6s2,0,5,3s5,5,2,5s-1,2-5,1s-7-2-11-1s-6-3-2-4s5,0,6-4s0-6-2-6s-2-1-2-3s-1-3-4-3s-4,0-4-2
		c0-1.2-0.7-1.6-0.9-2.3c-1.4,1.8-3.6,3.3-7.1,5.3c-7,4-6,8-6,13s-1,12-5,18c3-4,4-7,8-9s9-7,11-2s1,9,3,12s4,7,4,10s0,6-1,8
		s-4,4-4,6c0,0.7,0.3,1.3,0.7,2.1c7.7,2.2,14.2,7.2,31.3,12.9C166,315,168,316,171,305z"/>
	<path class="st2" d="M89,276c0-0.5,0-1,0-1.4c-0.7,2.2-1.2,4.7-1.5,7.4C88.4,279.5,89,277.2,89,276z"/>
	<path class="st2" d="M5,151c-2-10-2-14-1-20s4-11,6-13s2-4,5,0s3,7,8,10s6,6,7,7s3,4,0,3s-5,3-3,6s0,4,0,7s-2,5,1,5s6,1,5-4
		s1-3,2-6s1-3,4-3s4,2,7,0s3-3,3-6s-2-2,2-5s7-4,7-5s-1-2-3-2s-1-2-4,1s-7,8-19,1s-12-9-13-16c-0.7-5,0.1-11,1-17c-2,4-4,6-6,13
		c-2,7-11,16-12,20s-3,12,0,22s5,15,10,18c3.8,2.3,3.6,2.8,5.5,3.9c2-0.5,3.5-0.9,3.5-0.9C14,166,7,161,5,151z"/>
	<path class="st2" d="M202,124c7-6,11-4,8-2s-12,10-21,20c-3.3,3.7-6.4,7.4-9,11c0,0,0,0,0,0c2,2,3,2,3-1s2-4,7-10s4-3,3-1s-4,3-4,8
		s3,1,4-1s2-3,7-8s4-2,2,0s-2,3-1,3s5-1,12.8-1.4c7.8-0.4,9.2,2.4,13.2,3.4s-4,3-9,4s-3,1-3,2s7,3,12,1s3-5,11-5s2,3,7,4s5,1,2,3
		s2,1,6,1s0,4-3,4s-1,4,2,4s4,2,9,3s3-1,3-3s-2-5-4-10s0-2,2-2s4,2,3,1s0-9,1-13s1-6-2-6s-4,4-6,6s-3,0-7-3s-12-3-15-3s0-3-5-2
		s-3-2-2-3s3-2,3-2s-1-1-4-1s-3-3-6-2s-1,1,0,2s-5,2-8,3s-11,3,0-3s3-3-1-2s0-2-2-4s-2-2-5,1s0-3-4-3s-7,4-12,11s-5,4-13,7s-8,7-6,7
		s8-3,13-6s1,3,0,6s-2,6-5,6s-7.2,4.8-15,10c-3,2,1,2,1,2s3-2,8-6c4.8-3.8,5-3.1,6.8-1.2C187.6,141.7,197.7,127.7,202,124z"/>
	<path class="st2" d="M150.5,22.8c-0.5-0.4-0.9-0.6-1.3-0.7C149.6,22.3,150,22.5,150.5,22.8z"/>
	<path class="st2" d="M190,23c1,1,1,1-1,1s-31,0-33,0c-1.1,0-1.6,0.6-2,1c2.7,2.2,4.5,5,3,5c-2,0-1,4,1,5s9,6,14,11s5,5,6,3s2,1,5,4
		s7,14,9,20s3,1,2-2s-1-3-2-7s3-4,5-6s-1-4-2-7s0-2,2-2s2-1,2-7s-6-10-8-12s-7-3-12-2s-5-1,4-2s12,4,17,7c-2-5-8-9-13-15
		c-0.4-0.4-0.9-0.8-1.4-1.2c0.1,0.4,0.2,0.7,0.4,1.2C187,20,189,22,190,23z"/>
	<path class="st2" d="M116,12l13,1c4-7,15-11,26.7-10.7C167.3,2.7,159,8,155,13s-1,6-4,7c-1.3,0.4-2.3,0.7-2.6,1
		c2.7,0.1,3.7,0.8,5.6-2c2-3,4-9,6-11c1.3-1.3,3.6-2.7,5.2-3.7c-11.7-4.6-26.7-6.1-45.3,1.7c1.2-0.1,2.4-0.2,3.7-0.5
		C130.3,4,120,9,116,12z"/>
	<path class="st2" d="M271.5,271.5c1-0.3,2.3-1.1,3.5-1.5c1.6-0.5,2.1-1.4,1.7-1.9c-0.2,0.2-0.7,0.5-1.7,0.9c-3,1-4,4-4-1s1-14-2-10
		s-7,7-8,10s-3,4-3,2s0-3,0-5s1-4,2-5s2-1,3,0s2,1,2-1s1-2,2-3s0-2,2-3s3,0,3,3c0-0.8,0-1.4,0-2c0-3-1-3-3-2s-1,0-1-4s0-6,1-9
		s1-15,0-23s-2-8-2-12s-1-4-4-10s-7-6-13-7s-7,2-15,4s-11,3-15,5s-2,4,0,3s2-2,4-1c6,3,8,1,19,1s3,3,2,8s0,3,3,4
		c0.5,0.2,0.8,0.4,1,0.7c0-0.2,0-0.4,0-0.7c0-2,0-1-2-2s-2-2,0-3c2.5-1.3,1-4,4-4s5,1,7,3s4,4,6,5s5,5,5,10s0,6,0,11s0,9-1,11
		s-1,2-3,1s-2,2-4-2s-2-2-3-6s-1-5,1-3s4,5,4,2s2-2,0-6s-1-4-3-3s-3-1-1-3s3-1,3-3s0-4-1-6s0-4-2-4s-4-1-4,1s-2,3,0,5s5,6,2,5
		s-3-2-4,0s-3,4-1,5s4,3,0,3s-6-1-5-2s-1-1-2-2s0-3,1-4s1-1,3-1s2-1,1-2s0-2-2-2c-0.5,0-0.9-0.2-1.2-0.4c-0.9,0.6-1.9,1.1-2.8,1.4
		c-3,1-5,10-1,10s4,3,0,3l-0.4,1.6c0.8,0.2,2.6,2.2,6.4,5.4c6,5,7,10,8,15c0.7,3.7,0.4,9.1-0.3,8.3c3.3,4.7,1.3-9.2,1.3-13.3
		c0-5-4-8,1-6s-1,3,3,4s2,1,1,5s-2,7-3,10s-3,1-3,7s1,6,3,6s7-10,9-13s2,3,1,9c-0.3,2-0.2,3,0.2,3.4
		C271.1,270.2,271.3,270.3,271.5,271.5z M263,202c-1,1-4,2-6,0s-2-3-6-3s-4-2-6-6s0-4,3-4c5,0,9,2,14,6S264,201,263,202z"/>
	<path class="st2" d="M241,237C241,237,240.9,236.9,241,237l-6.5,24.4c1.3,0.2,2.5,1.1,3.5,2.6c0,0,0,5,5,9c2.9,2.4,3.8,5.8,4,9
		c1-1.2,2-21,2-29c0-8-2-15,5,1c1.2,2.6,2,4.3,2.7,5.3c-0.2-0.3-0.5-1.3-0.7-3.3C255,248,248,242,241,237z"/>
	<path class="st2" d="M273,269c1.6-0.8,2.7-1.1,3.2-1.1c-0.5-0.2-1.3-0.2-2.2,0.1c-1.2,0.4-1.8,0.5-2,0.3
		C272,268.9,272.2,269.4,273,269z"/>
	<path class="st2" d="M232,351c-4,1-6,1-11,1s-3,1,2,3s3-1,5-1s5,0,10,0s4-2,11-4h0.4c0-0.9-0.1-1.9-0.2-2.8
		c-1.1,0.6-2.8,1.3-5.2,1.8C239,350,236,350,232,351z"/>
	<path class="st2" d="M226,340c7,1,18-1,21-5c0,0,0,0,1-2s-3,0-7,2s-11,2-18,3S219,339,226,340z"/>
	<path class="st2" d="M41.2,95.8c-0.4,0.3-0.8,0.7-1.1,1.1c0.1-0.1,0.4-0.4,0.9-0.9C41.1,95.9,41.1,95.9,41.2,95.8z"/>
	<path class="st2" d="M67,113c1-1,2-4,2-6s0-2,1-3c0.2-0.2,0.5-0.4,0.8-0.6c-0.3-0.1-0.6-0.2-0.8-0.4c-1.4-1-7.5-3.3-13.1-5.3
		c-4.6-1.5-9-2.7-12.9-2.7c2,1,5,3,6,3s7,5,9,6s5,1,7,3s-1,3-1,5s-3,0-4-1s-1-1-3-1s-4-2-6-3s-3-1-5-2s-6-4-7-5
		c-0.9-0.9-1-1-0.1-2.7c-1,1.8-1.3,4.4-1.9,6.7c-1,4,0,3,0,7s-1,4-3,4s-3-1-6-4s-6-9-6-13s-1,4-1,7s1,5,2,8s1.5,5.8,6,8
		c2,1,15-4,16-9s1-4,4-2s6,0,9,1s1,3,6,4C65,113,66,114,67,113z"/>
	<path class="st2" d="M129.3,120.9c-0.6,0-1.4,0.1-2.3,0.1c-2,0-4,0-4-2s0-4,1-4s1-1,0-3s0-2-2-3s-3,0-3-2s-1-5,0-6s1-1,3-1s3,1,4,0
		s2-2,3-1s1,3,4,3s4,1,6,0s4-2,0-3s-7-1-10-3s-2-1-4-3s0-2,1-1s2-3,3-1s2,4,5,5s4,0,7,2s3,1,6,1s5,1,5,2s2,2-1,1s-5-2-8,1
		c-0.3,0.3-0.5,0.5-0.7,0.7c0.9-0.4,2.2-0.7,3.7-0.7c5,0,7,1,5,2s0,2,3,2s4,0,6-2s3,0,7,0c0.4,0,0.7,0,1-0.1c0.6-0.7,0.8-1.7,0.9-3
		c-1.9-1-1,0-3-1c-2-1-4,1-5,0s-2-2-1-6s1-4-2-4s-7-2-1-4s1-5-1.7-4.9c-2.7,0.1-5.3-1.1-1.3-3.1s3-2,0-2s-2-1-6-6
		c-0.8-0.9-1.2-1.9-1.4-2.8c-0.2-0.1-0.4-0.2-0.6-0.2c-5-2-4-1-9,0s-6,1-9,2s-6,1-4,2s0,4-2,4s-5-1-5-3s2,0,2-3s-3-2-2-5s2-4,2-7
		s0-3,2-2s4-1,1-2s-5-1-3-2s3.7-2.3,2.8-4.2C121,46,119,45,122,44s6-5,9-5s3-1,1-1s-6-2-3-2c0.6,0,1.1,0,1.8-0.1L125,34l-2-1
		c-5,0-10,0-15.2,2.4c-0.3,0.1-0.6,0.3-0.9,0.4c-0.2,0.4-0.7,1.1-1.8,2.2c-1.8,1.8-3.6,4.7-5,6.7c1.4,0.1,4.3-0.7,8-1.7
		c7-2,8,0,10,3s0,4,0,9s0,3-2,3s-2,2-1,9s0,6-1,7s-1,3,1,4s0,5-3,6s-3,4-1,7s0,2-5,5s-1,5,2,9c0,0,7,6,10,10s4,4,1,4
		c-2.6,0-6-3.8-7.5-4.1c2.3,2.3,4.8,4.4,7.5,6.1c0.9,0.6,1.5,1.1,2.1,1.7c1.9-0.4,4.1-1,7.9-1.7C129.1,121,129.2,121,129.3,120.9z"
		/>
	<path class="st2" d="M131.5,120.5c2.8-0.6,1.5-0.9,1.5-2.5C131.8,119.2,132.4,120.1,131.5,120.5z"/>
	<path class="st2" d="M153,117.8C153,117.8,153,117.8,153,117.8c-0.1-0.1-0.1-0.1-0.2-0.1C152.9,117.8,152.9,117.8,153,117.8z"/>
	<path class="st2" d="M131,35.9c1.6-0.1,3.3-0.3,5.1,0c-1.4-0.8-2.9-1.4-4.1-1.9L131,35.9z"/>
	<path class="st2" d="M142,109c2,1,4,2,4,5s-2,3-3,1s-5-3-5-4s-2,0-1,2c1,1.9,3.8,4.8,1.2,5c0.6,0.3,1.2,0.6,1.8,1c3,2,4,2,8,0
		c1.8-0.9,3.6-1.2,4.8-1.2c-1.6-0.6-3-2.2-3.8-3.8c-1-2-4-4-7-6c-0.7-0.5-1.1-1-1.3-1.6C140.4,107.6,140.9,108.5,142,109z"/>
	<path class="st3" d="M85,50c-1,4-2,4-3,4s-3,0-5-1s-2-1-2,1s-1,2-2,2s-2,0-5-1s-2-1-4-1s-2,1-2,4s-1,2-2,3s-2,0-3,0s-2,3-3,1
		s0-1-2-1s0,2,1,3s3,3,5,5s-2,5-2,5s-6,0-7,0s-3,0-3,1s0,2-1,3s-1,0-2,1s0,3,1,4s-1,2-2,3s-1,2,0,3s3,4,5,5c0.9,0.5,5.2,2,9.9,3.7
		c5.6,2,11.7,4.3,13.1,5.3c0.3,0.2,0.5,0.3,0.8,0.4c1.3-0.9,3.4-2,4.2-4.4c1-3,6-10,8-12c0.1-0.1,0.3-0.3,0.4-0.4
		c1.4-3.2,4.6-1.5,4.6-0.6c0,1,1,4,2,7s4,5,6,7s2,6,2,9s1,5,2,7c1,1.9,2.8,5.7,4.8,9.5c0.1,0.2,0.2,0.3,0.2,0.5
		c1.2,2.3,2.3,2.6,3.7,3.1c1,0.3,2,0.7,3.2,1.9c0,0,0.1,0.1,0.1,0.1c1.2,1.2,3.5,1.8,6,2c3.6,0.3,7.7,0,10,0c4,0,0-2,6-3s10-4,14-6
		s11-8,10-8s-2,0-3,1c-1,1-1.9-0.8-2,0.8c0,0,0,0,0,0.1c0,0.1,0,0.1,0,0.2c0,2-3,3-5,5s-7,4-10,5s-2,0-4,0s-2,1-4,1s-2-2-2-3
		s-3-1-4-1c-0.7,0-1.4-1-2.9-2.3c-0.6-0.5-1.3-1.1-2.1-1.7c-2.7-1.7-5.2-3.8-7.5-6.1C103,106.1,97.8,94.2,97,91c-1-4-1-3,1-4
		s2-3,1-7s8-3,11-3s1-6-1-7s-2-2-3-4s-1-3-3-2s-2-2,1-5s0-5-2-5s-3-1-3-2s-1-1-2-2s0-3,1-3c0.4,0,1.1-0.9,2-2.3c1.4-2,3.2-4.9,5-6.7
		c1.1-1.1,1.7-1.8,1.8-2.2c0.3-0.6-0.6-0.4-1.8,0.2c-2,1-3,3-7,7s0-3,2-6s8-9,22-9s23,6,25,8s7,6,10,8s3,2,3,4s2,3,4,7s0,3-2,2
		s-6-5-5-7s-1-3-3-4s-4-1-5-3s-5-4-9-6c-1.3-0.7-2.6-1-3.9-1.1c-1.8-0.2-3.5-0.1-5.1,0c-0.1,0-0.2,0-0.3,0c-0.6,0-1.2,0.1-1.8,0.1
		c-3,0,1,2,3,2s2,1-1,1s-6,4-9,5s-1,2-0.2,3.8c0.8,1.8-0.8,3.2-2.8,4.2s0,1,3,2s1,3-1,2s-2-1-2,2s-1,4-2,7s2,2,2,5s-2,1-2,3s3,3,5,3
		s4-3,2-4s1-1,4-2s4-1,9-2s4-2,9,0c0.2,0.1,0.4,0.2,0.6,0.2c4.5,1.8,6.5,1.8,8.4,2.8c2,1,2,3,3,3s1-1,3,1s3,2,4,1s1-1,3,0s2,5,2,9
		s-1,13-1,15c0,0.7,0,1.3,0,2c-0.1,1.2-0.3,2.3-0.9,3c0,0,0,0,0,0.1c-1,1-2,4-1,3c1-1,4.7-5.6,6.4-7.6c0.1-0.1,0.1-0.2,0.2-0.2
		c1.6-1.8,2.4-4.2,2.4-8.2c0-2.4,0.4-10.4,0.6-17.6c0.2-4.9,0.4-9.4,0.4-11.4c0-5-2-7-3-8h-2l-10-9v-2c-0.2-0.1-1.4-0.9-8-6
		c-9-7-22-11-32-11s-16,2-20,5S92,42,91,45c-0.4,1.1-1.1,1.5-2,1.8c0,0.1,0,0.1,0,0.2c0,0.9,0,1-1.5,0.3C86.5,47.6,85.4,48.2,85,50z
		"/>
	<path class="st3" d="M162,44L162,44C162.1,44.1,162,44,162,44z"/>
	<path class="st2" d="M220,106c0-3-2-11-7-16s-8-9-10-12s-3-3-4-1s-3,2-1,4c8.1,8.1,14,19,16,24s4,14,8,14s8,2,5-2S220,109,220,106z
		"/>
	<path class="st2" d="M277,306c-1-9-4-26-5-31c-0.3-1.6-0.4-2.7-0.5-3.5c-0.2-1.2-0.3-1.3-1.3-0.1c-0.3,0.4-0.7,0.9-1.2,1.6
		c-1.2,1.6-3,4-5,6.4c1.4-0.3,2,2.1,2,4.6c0,3-1,9-3,13s-3,5-5,8s-1,1,0,3s0,2-1,2s-1,1,0,1s1,2-1,2s-2,2-3,4s0-1-1-4s0-5,0-7
		s-2-5-4-9c-0.2-0.3-0.3-0.6-0.4-0.9c0.1,0.6,0.2,1.2,0.4,1.9c2,7,3,25,2,35c1-5,4-7,12-8c3.9-0.5,8.3-1.2,12.3-2.1
		C277,318.1,277.7,312.1,277,306z"/>
	<path class="st2" d="M251,292c2,0,4-3,5-4c0.6-0.6,1.3-1.4,2-2.2c-1.1,1-2.1,1.8-3,2.2c-2.8,1.4-6.1,2.3-7.1,5.1
		C248.6,292.3,249.9,292,251,292z"/>
	<path class="st2" d="M295,300c0-3-1-6-1-9s0-5,0-8s1-3,0-6s-1-7-1-11.8c0-4.8-2-7.2-2-14.2s-1-9-2-21s-2-25-2-30s0-11-1-18
		s-3-23-3-27s-4-3-6-3s-2,1-3,4s1,3,2,5s1,3,0,5s0,4,2,5s2,1,3,5s2,14,2,17s0,6-1,9s-2,4-2,8s4,10,3,17s2,6,3,17s-1,15-1,21
		s1,9-1,12s-2,4-2,8s1,4,3,5s4,2,4,5s-1,14-1,18c0,3.3-4.1,5.3-8.4,8.7c2.1-0.6,4-1.1,5.4-1.7c3.4-1.4,7.2-4.1,10.3-6
		c-0.3-2.6-1.1-5-2.3-6.6C291,304.7,295,303,295,300z"/>
	<path class="st2" d="M257,176c-3,3-13,6-10,7c3.9,1.3,10.7,1.3,16.8,6.2c6.2,4.8,6.2,2.8,2.2-2.2S258,179,257,176z"/>
	<path class="st2" d="M157.3,176.2c-1.3,0.4-1.3,1.3-1.3,2.8c0,1.6,0,3.2,0.5,5.3c0.1-1.8,0.5-3.9,0.5-6.3
		C157,177.3,157.1,176.7,157.3,176.2z"/>
	<path class="st2" d="M145,226c0,0.6,0.1,1.2,0.3,1.7c0.8,2.1,3.5,3.7,10.7,5.3c9,2,10,3,10,6s4,7,7,9s3,1,6,2s7,4,11,5s2,2,4,6
		s-6,12-7,14s-4,0-7,0s0,4,0,8c0,0.9,0.2,1.4,0.6,1.8c0.9,0.9,2.7,0.6,4.3,0c0.8-0.3,1.5-0.6,2-0.9c2-1,1-4,0-6s5-8,9-12s2-4,1-8
		s1-8,4-12s4-11,6-17s-1-4,0-7s0-3-1-3s-2-1-4-7s-3-10-2-16s-1-6-2-6s-2-1-2-3s-2-4-7-6s-7-4-11-6c-1.3-0.6-2.6-0.5-4.2,0
		c2.4,0.2,3.3,1.3,4.2,4c1,3-1,6-5,6s-2,2,1,3s0,2-3,4s-8-1-12-3c-0.5-0.3-0.9-0.5-1.2-0.9c0.7,1.9,1.2,3.6,1.2,5.9c0,3,1,11,2,18
		s0,7-1,7s-3,1-5,4c-1,1.4-3.3,1.5-5.5,1.5C147.1,224.5,145,224.4,145,226z"/>
	<path class="st2" d="M199,95c-1,5-3.5,8.5-8,13c-4,4-1,5,1,3s4-2,11-5s2-5,0-11S200,90,199,95z"/>
	<path class="st2" d="M260,44c3,6,6,8,4,11s-1,10-1,19s-4,15-1,17s4,2,7,1s7-3,5-12s-5-8-3-14s8-12,3-20s-5-11-5-16s3-4-3-2
		s-11,3-11-4s-4-12-7-6c-2,4-3,9-3,12s3,5-2,6s-9,6-2,5S257,38,260,44z"/>
	<path class="st3" d="M154,19c-1.9,2.8-2.9,2.1-5.6,2c-0.1,0-0.3,0-0.4,0c-1,0,0,1,1,1c0.1,0,0.2,0,0.2,0c0.4,0.1,0.8,0.4,1.3,0.7
		c0.9,0.7,1.8,1.6,2.5,2.2c0.4,0.4,0.7,0.3,1,0c0.4-0.4,0.9-1,2-1c2,0,31,0,33,0s2,0,1-1s-3-3-4-5c-0.2-0.4-0.3-0.8-0.4-1.2
		c-5-4.1-11.8-9.2-20.4-12.5c-1.6,1-3.9,2.4-5.2,3.7C158,10,156,16,154,19z"/>
	<path class="st3" d="M151,102c3,1,1,0,1-1s-2-2-5-2s-3,1-6-1s-4-1-7-2s-4-3-5-5s-2,2-3,1s-3-1-1,1s1,1,4,3s6,2,10,3s2,2,0,3
		s-3,0-6,0s-3-2-4-3s-2,0-3,1s-2,0-4,0s-2,0-3,1s0,4,0,6s1,1,3,2s1,1,2,3s1,3,0,3s-1,2-1,4s2,2,4,2c0.9,0,1.7,0,2.3-0.1
		c1.2-0.1,1.8-0.2,2.2-0.4c0.9-0.5,0.3-1.3,1.5-2.5c2-2,2,0,5,0c0.1,0,0.1,0,0.2,0c2.6-0.2-0.2-3-1.2-5c-1-2,1-3,1-2s4,2,5,4
		s3,2,3-1s-2-4-4-5c-1.1-0.5-1.6-1.4-1.3-2.6c0.2-0.8,0.7-1.7,1.6-2.7c0.2-0.2,0.4-0.5,0.7-0.7C146,100,148,101,151,102z"/>
	<path class="st3" d="M40,100c1,1,5,4,7,5s3,1,5,2s4,3,6,3s2,0,3,1s4,3,4,1s3-3,1-5s-5-2-7-3s-8-6-9-6s-4-2-6-3
		c-1.9-0.9-2-0.1-2.8,0.8c-0.1,0.1-0.1,0.1-0.2,0.2c-0.5,0.5-0.8,0.8-0.9,0.9C40,97,40,97,40,97c-0.1,0.1-0.1,0.2-0.1,0.3
		C39,99,39.1,99.1,40,100z"/>
	<path class="st3" d="M159,189c4,2,9,5,12,3s6-3,3-4s-5-3-1-3s6-3,5-6c-0.9-2.7-1.8-3.8-4.2-4c-0.3,0-0.5,0-0.8,0c-3,0-4,1-2-6
		c1.3-4.4,4.5-10,9-16c2.6-3.6,5.7-7.3,9-11c9-10,18-18,21-20s-1-4-8,2c-4.3,3.7-14.4,17.7-22.2,28.8c-5,7.1-9,13.1-9.8,14.2
		c-2,3-3,4-5,2s-4-4-7-5s-2-1,0,2s3,4,4,4s2,0,1,2c-0.9,1.7-4.6,1.2-5.7,4.2c-0.2,0.5-0.3,1.1-0.3,1.8c0,2.3-0.4,4.5-0.5,6.3
		c0,1.5,0.2,2.9,1.2,3.9C158.1,188.5,158.5,188.7,159,189z"/>
	<path class="st3" d="M243,273c-5-4-5-9-5-9c-1-1.5-2.2-2.4-3.5-2.6c-1.4-0.2-2.9,0.6-4.5,2.6c-3,4-7,7-9,10s1,5-3,5s-10,0-13,0
		s-1,1,2,1s5,1,4,3s-1,5-1,6s-2,4-4,3s-3-2-4-3s-2,0,0,2s4,4,3,5s-2,2-3,0s-3-6-4-3s-3,1-4,3s-11,14-12,15s0,2,2,4s9,1,6,4s-5,5-3,5
		s4-2,5,0s4,6,7,4s3-3,4-1s3,3,7,1s9-6,10-5s1,2,3-1s3-5,5-6s2-4,4-5s11-8,11-13s-2-6,0-8s2-1,2,0s0,2,0,2l1,1v1l1-1l-1-2l1-3
		c0-1.6,0.2-3.8,0-6C246.8,278.8,245.9,275.4,243,273z"/>
	<path class="st3" d="M120,187c0-2,2-6,0-7s-3-2-2-4s0-4-1-1c-0.4,1.3-1,0-1,4s3,8,3,14s-1,9,1,9s4,1,2-4S120,189,120,187z"/>
	<path class="st3" d="M110,173c0,7,2,26,5,31l1-1l-4-14L110,173z"/>
	<path class="st3" d="M37,97c1-1,3-3,3-3s0-2-1-1s-2,2-3,3S36,98,37,97z"/>
	<path class="st3" d="M282,128c-1-3-1-5-1-8s-1-3-3-3s-1,2-1,4s-1,6-1,8s-3,5-6,5s-4,1-1,1s4,0,9-1c4.9-1,7.9-1,12.7-1.4
		c0-0.4,0-0.7,0-1.1c-1.9,0.2-5.3,0.4-6.7,0.4C282,132,283,131,282,128z"/>
	<path class="st3" d="M277,286c0,3,1,4,1,6s0,5,2,4s2,0,1-3s0-6-1-8s0-4-1-4s-2,0-2,0C276,282,277,283,277,286z"/>
	<path class="st3" d="M262,195c-5-4-9-6-14-6c-3,0-5,0-3,4s2,6,6,6s4,1,6,3s5,1,6,0S267,199,262,195z"/>
	<path class="st3" d="M248,215c2,0,1,1,2,2s1,2-1,2s-2,0-3,1s-2,3-1,4s3,1,2,2s1,2,5,2s2-2,0-3s0-3,1-5s1-1,4,0s0-3-2-5s0-3,0-5
		s2-1,4-1s1,2,2,4s1,4,1,6s-1,1-3,3s-1,4,1,3s1-1,3,3s0,3,0,6s-2,0-4-2s-2-1-1,3s1,2,3,6s2,1,4,2s2,1,3-1s1-6,1-11s0-6,0-11
		s-3-9-5-10s-4-3-6-5s-4-3-7-3s-1.5,2.7-4,4c-2,1-2,2,0,3s2,0,2,2c0,0.3,0,0.5,0,0.7c-0.2,1.3-1.1,1.3-2,1.3c-0.7,0-0.9,1.1-0.2,1.6
		C247.1,214.8,247.5,215,248,215z"/>
	<path class="st3" d="M257,251c-1-5-2-10-8-15c-3.9-3.2-5.6-5.2-6.4-5.4c-0.4-0.1-0.6,0.3-0.6,1.4c0,2.9-2,4.1-1.1,4.9
		c0,0,0.1,0.1,0.1,0.1c7,5,14,11,15,19c0.2,1.9,0.5,2.9,0.7,3.3c0,0,0,0,0,0.1C257.4,260.1,257.7,254.7,257,251z"/>
	<path class="st3" d="M269,253c-2,1-1,2-2,3s-2,1-2,3s-1,2-2,1s-2-1-3,0s-2,3-2,5s0,3,0,5s2,1,3-2s5-6,8-10s2,5,2,10s1,2,4,1
		c0.9-0.3,1.5-0.6,1.7-0.9c0.2-0.2,0-0.3-0.4-0.3c-0.6,0-1.7,0.4-3.2,1.1c-0.8,0.4-1-0.1-1-0.7c0-0.4,0-0.9,0-1.3c0-0.2,0-0.5,0-1
		c0-1.6,0-6.6,0-10C272,253,271,252,269,253z"/>
	<path class="st3" d="M252,306c0,2-1,4,0,7s0,6,1,4s1-4,3-4s2-2,1-2s-1-1,0-1s2,0,1-2s-2,0,0-3s3-4,5-8s3-10,3-13
		c0-2.5-0.7-4.9-2-4.6c-0.3,0.1-0.6,0.3-1,0.6c-1.4,1.4-3.3,3.8-5,5.8c-0.7,0.8-1.4,1.6-2,2.2c-1,1-3,4-5,4c-1.1,0-2.4,0.3-3.1,1.1
		c-0.5,0.6-0.7,1.6-0.3,3c0.1,0.3,0.2,0.6,0.4,0.9C250,301,252,304,252,306z"/>
	<path class="st3" d="M248,178c1-1,3-3,3-4s1-3-1-2s-2,1-5,0s-3-1-1,1s2,3,2,4S246,180,248,178z"/>
	<path class="st3" d="M115,236c3,0,4,1,4,3s0,3,2,3s3,2,2,6s-2,3-6,4s-2,5,2,4s7,0,11,1s2-1,5-1s1-2-2-5s-3-3-5-3s-1-2-1-6s2-4,5-4
		s1-2,2-6s0-3-2-5s-5-1-8,0s-2-5-3-8s-2,2-2,4s0,3-3,2c-2.7-0.9-3,1.4-4.4,3.7c-0.2,0.3-0.4,0.6-0.6,0.9c-0.8,1.1-1,1.6-0.9,2.1
		c0.1,0.7,0.9,1.1,0.9,2.3C111,236,112,236,115,236z"/>
	<path class="st3" d="M131,221c4.1,0,10.2,2,8.1,0c0,0,0,0,0,0c-2.1-2-4.3-5.4-6.2-3.7c0,0,0,0,0,0C131,219,127,221,131,221z"/>
	<path class="st2" d="M173,335c46,1,64-11,67-14c2-2,0-1-6,1s-13,6-22,9s-32,3-39,3S169,335,173,335z"/>
</g>
<g id="right_leg">
	<path class="st1" d="M254.3,645.8c0,0-0.1,0-0.1,0C254.2,645.8,254.3,645.8,254.3,645.8z"/>
	<path class="st1" d="M255.2,642.5c3.9-0.9,2.5-2.6,0.3-7.3c-2.1-4.6-6.6-14.9-4.7-15.3c1.9-0.5,9.5-3.3,11.2-4.7
		c1.7-1.4,2-4.6,6.3-3.6c4.4,1,6.1-0.4,2.2-3.6s-2.6-6.6-9.2-4c-6.6,2.6-12.2,5-16.1,5.9c-3.9,0.9-3.2-0.3-6.6,2.6
		c-3.4,2.9-2.9,0.7-4.4,3.1s-5.9,5.5-1.9,0.5c3.9-5.1,9.5-7.4,11-9.8c1.5-2.4,0.3-3.2,4.4-3.1c4.1,0,3.9-0.9,6.8-1.6
		c2.9-0.7,4.2-4.1-0.7-2.9c-4.9,1.2-9.7,2.3-5.3-0.8c4.4-3.1,4.4-3.1,4.4-3.1s-0.5-1.9,3.4-2.9c3.9-0.9,6.3,0.6,7.5-2.8
		c1.2-3.4,2.7-1.7-1.7-2.7s-0.9-3.9-2.6-6.6s-1.4-1.7-3.4-1.2c-1.9,0.5-2.5,2.6-4.1,0c-1.7-2.7,0.3-3.2-3.6-2.2
		c-3.9,0.9-13.4,4.2-7,0.7c6.3-3.6,12.7-7.1,6.6-6.7c-6.1,0.4-11.9,1.8-7.5-1.3c4.4-3.1,9.3-4.3,9.3-4.3c-5.8,1.4-7.9-0.7-8.3-2.6
		c-0.5-1.9,1.3-7.5,4.2-8.2c2.9-0.7,7.8-1.9,1.2-3.4c-0.4-0.1-0.8-0.2-1.2-0.3c-0.1,0-0.3-0.1-0.4-0.1c-0.3-0.1-0.6-0.1-0.9-0.2
		c-0.2,0-0.4-0.1-0.5-0.1c-0.3-0.1-0.5-0.1-0.8-0.2c-0.2,0-0.4-0.1-0.6-0.1c-0.2,0-0.5-0.1-0.7-0.1c-0.2,0-0.5-0.1-0.7-0.1
		c-0.2,0-0.5-0.1-0.7-0.1c-0.3,0-0.5-0.1-0.8-0.1c-0.2,0-0.4-0.1-0.6-0.1c-0.3,0-0.6-0.1-0.8-0.1c-0.2,0-0.3-0.1-0.5-0.1
		c-0.3-0.1-0.6-0.1-1-0.2c-0.1,0-0.2,0-0.2,0c-3.6-0.5-7-1-9.3-1.1l0,0c-0.5,0-1-0.1-1.4-0.1c-1.5,0-3.6-0.3-5.6-0.8
		c0,0-0.1,0-0.1,0c-0.5-0.1-0.9-0.2-1.3-0.3c0,0,0,0-0.1,0c-0.2,0-0.4-0.1-0.6-0.1c0,0-0.1,0-0.1,0c-0.4-0.1-0.8-0.2-1.1-0.3
		c0,0-0.1,0-0.1,0c-0.1,0-0.3-0.1-0.4-0.1c0,0-0.1,0-0.1,0c-0.2-0.1-0.3-0.1-0.4-0.2c0,0,0,0,0,0c-0.1-0.1-0.2-0.1-0.3-0.1
		c0,0-0.1,0-0.1,0c-0.1,0-0.2-0.1-0.2-0.1c0,0,0,0-0.1,0c-0.1,0-0.2-0.1-0.2-0.1c0,0,0,0,0,0c0,0-0.1-0.1-0.1-0.1c0,0,0,0,0,0
		c0,0,0-0.1,0-0.1c0,0,0,0,0,0c0,0,0-0.1,0.1-0.1c0,0,0,0,0,0c0,0,0.1-0.1,0.1-0.1c0,0,0,0,0.1,0c0.1,0,0.2-0.1,0.3-0.1
		c2.9-0.7,2.2-3.6-1.9-3.7c-4.1,0-1.2-0.7-4.4-1c-3.2-0.3-3.2-0.3-5.8-2.7c-2.6-2.5-3.4-1.2-5.5-5.9c-2.1-4.6-9.8-11-3-12.6
		s12.9-2,16.8-3c3.9-0.9,4.2-4.1-0.9-3.9c-5.1,0.2-5.3-0.8-2.4-1.5c2.9-0.7,1.2-3.4-0.7-2.9c-1.9,0.5-5.1,0.2,2.7-1.7
		c7.8-1.9-3.4-1.2,4.2-4.1c0.4-0.2,0.8-0.3,1.2-0.5c0.4-0.2,0.7-0.3,1-0.5c0.1,0,0.1-0.1,0.2-0.1c0.2-0.1,0.4-0.2,0.6-0.3
		c0.2-0.1,0.4-0.2,0.6-0.3c0.1,0,0.1-0.1,0.2-0.1c0.3-0.2,0.5-0.3,0.7-0.5c0,0,0,0,0,0c0,0,0.1-0.1,0.1-0.1c0,0,0,0,0,0
		c0,0,0.1-0.1,0.1-0.1c0,0,0,0,0,0c0,0,0.1-0.1,0.1-0.1c0,0,0,0,0,0c0,0,0-0.1,0-0.1c0,0,0,0,0,0c0,0,0-0.1,0-0.1c0,0,0,0,0,0
		c0,0,0-0.1,0-0.1c0,0,0,0-0.1-0.1c0,0,0,0,0,0c0,0-0.1,0-0.1-0.1c0,0,0,0,0,0c0,0-0.1,0-0.1-0.1c0,0,0,0,0,0c-0.1,0-0.1,0-0.2-0.1
		c0,0,0,0,0,0c-0.1,0-0.1,0-0.2,0c0,0,0,0,0,0c-0.1,0-0.3,0-0.5,0c0,0-0.1,0-0.1,0c-0.1,0-0.2,0-0.2,0c0,0-0.1,0-0.1,0
		c-0.1,0-0.2,0-0.2,0c0,0-0.1,0-0.1,0c-0.1,0-0.2,0-0.4,0c0,0,0,0,0,0c-0.1,0-0.2,0-0.4,0c0,0,0,0,0,0c-0.1,0-0.3,0-0.4,0.1
		c0,0,0,0,0,0c-0.6,0.1-1.3,0.2-2,0.4l0,0c0,0,0,0,0,0c-5.8,1.4-24.1,6.8-16.3,0.8c0,0,3.9-0.9,1.8-5.6c-2.1-4.6-2.1-4.6,3.7-6
		c0.6-0.1,1.3-0.4,2-0.6h0c1.5-0.5,3.1-1.3,4.5-2c0,0,0,0,0.1,0c0.2-0.1,0.3-0.2,0.5-0.2c0,0,0.1,0,0.1,0c0.1-0.1,0.3-0.2,0.4-0.2
		c0,0,0.1,0,0.1-0.1c0.1-0.1,0.3-0.2,0.4-0.2c0,0,0.1,0,0.1-0.1c0.1-0.1,0.2-0.2,0.4-0.2c0,0,0,0,0.1,0c0.3-0.2,0.7-0.4,0.9-0.6
		c0.1,0,0.1-0.1,0.2-0.1c0.1,0,0.1-0.1,0.1-0.1c0.1,0,0.1-0.1,0.2-0.1c0,0,0.1-0.1,0.1-0.1c0,0,0.1-0.1,0.1-0.1c0,0,0.1-0.1,0.1-0.1
		c0,0,0.1-0.1,0.1-0.1c0,0,0-0.1,0.1-0.1c0,0,0-0.1,0.1-0.1c0,0,0,0,0-0.1c0,0,0-0.1,0-0.1c0,0,0,0,0-0.1c0,0,0-0.1-0.1-0.1
		c0,0,0,0,0,0c0,0-0.1-0.1-0.2-0.1c0,0,0,0,0,0c-0.1,0-0.1,0-0.2-0.1c0,0-0.1,0-0.1,0c-0.1,0-0.2,0-0.2,0c0,0-0.1,0-0.2,0
		c-0.1,0-0.2,0-0.3,0c-0.1,0-0.1,0-0.2,0c-0.1,0-0.2,0-0.3,0c-0.1,0-0.2,0-0.3,0c-0.1,0-0.3,0-0.4,0.1c-0.1,0-0.2,0-0.3,0
		c-0.2,0-0.3,0.1-0.5,0.1c-0.1,0-0.2,0-0.3,0.1c-0.2,0-0.4,0.1-0.6,0.1c-0.1,0-0.2,0-0.3,0.1c-0.3,0.1-0.7,0.2-1.1,0.2
		c-12.6,3-13.8,2.3-15.8,2.7c-1.9,0.5-8.2-0.1-0.5-1.9c7.8-1.9,17-6.1,8.8-6.2c0,0-1.9,0.5-4.9,1.2c-2.9,0.7-5.6-1.8,0.3-3.2
		c5.8-1.4,12.2-5,13.6-3.2s7-0.7,3.4-2.9c-0.1-0.1-0.2-0.1-0.3-0.2c0,0-0.1,0-0.1,0c-0.1,0-0.2-0.1-0.2-0.1c0,0,0,0,0,0
		c-3.2-1.6-5.4-0.4-4.4-12.5c1-12.9,1.7-27.5,4.1-30.1c2.5-2.6-1.5-15.1-1.5-19.2c0-4.1-0.6-15.3,2.8-14c3.4,1.2,6,3.7,7.7,2.3
		c1.7-1.4,2-4.6,1.1-8.5c-0.9-3.9-28.8-4.4-39.7-2.9c-10.9,1.6,16.2-18.3,37.6-23.4c4.5-1.1,8.2-1.9,11.3-2.6
		c-3.1,0.4-5.8-0.3-8.3-1.5c-6-2.1-13.4-6-20.1-9.1c-9.4-0.6-22.9,0.6-29.2,1.8c-1,0.4-2.1,0.7-3.2,1.1
		c-4.8,2.7-12.3,11.4-18.4,19.4c-2,15,3.8,43.4,4.1,54.3c0.4,13.1,5.6,42,6.7,46.9c1.2,4.9-0.6,6.3,4.3,9.3c4.8,3,3.3,5.4,6.9,11.7
		c3.6,6.3,5.9,11.9,7.1,16.8c1.2,4.9,2.6,6.6,3.3,9.5s2.1,4.6,5.2,9s7.2,8.6,9.8,11c2.6,2.5-1,4.4-1,4.4l3.6,6.3
		c3.2,0.3,5.1,3.9,7.2,8.6c2.1,4.6,2.1,4.6,5.5,5.9c3.4,1.2,2.6,2.5,3.8,7.3c1.2,4.9,1.2,4.9-1.5,6.5c-2.7,1.7-1,4.4-0.1,8.2
		c0.9,3.9,4.8,7.1,6.2,12.9c1.4,5.8,1.9,3.7,6.5,5.6c4.6,2,0.7,7-1.1,8.5c-1.7,1.4-2.7,5.8-0.3,7.3s4.3,5.1,2.8,7.5
		s0.2,5.1,2.3,13.8c2.1,8.8,5.5,5.9,10.6,5.7c3.2-0.1,5.6-0.1,9.2-0.8C251.9,644.9,252.4,643.2,255.2,642.5z M162.9,460.5
		c-0.9,1.1,1.8-5.6,2.5-10.9c0.5-3.1,1.2-3.4,1.7-1.4C167.6,450.1,166.1,456.6,162.9,460.5z M191.4,515.4c-1.2-0.7-2.4-1.5-2.6-2.5
		c-0.2-1-1.4-1.7-2.6-2.5c-1.2-0.7-2.6-2.5-2.9-3.4c-0.2-1-0.2-1-1.7-2.7s-1.7-2.7-0.9-3.9s-0.5-1.9-0.9-3.9
		c-0.5-1.9-1.7-2.7-1.9-3.7s-1.9-3.7-2.6-6.6s1.9-0.6,2.6,2.5c0.2,1,0.2,1,1.4,1.7s0.5,1.9,0.7,2.9c0.2,1,1.7,2.7,2.1,4.6
		c0.5,1.9,1.7,2.7,0.9,3.9s0.5,1.9,0.7,2.9s3.1,4.4,4.5,6.1S192.6,516.1,191.4,515.4z"/>
	<path class="st1" d="M253.8,645.8C253.8,645.8,253.7,645.8,253.8,645.8C253.7,645.8,253.8,645.8,253.8,645.8z"/>
	<path class="st1" d="M195.9,521.5c-1.5,2.4,2.6,2.5,5,8.1c2.4,5.6,1.9,3.7,4.5,6.1c2.6,2.5,5.6,1.8,9.5,0.8
		c2.9-0.7,3.7-1.9,6.1-4.5c2.5-2.6,0.5-2.2-0.2-5.1s2-4.6,4.4-7.2c2.5-2.6,3.4-2.9,6.3-3.6s0-4.1-2.9-3.4
		c-2.9,0.7-18.2,5.4-22.4,5.3C202.3,517.9,197.4,519.1,195.9,521.5z"/>
	<path class="st1" d="M246.1,354.8C246.1,354.8,246.1,354.8,246.1,354.8C246.1,354.8,246.1,354.8,246.1,354.8z"/>
	<path class="st1" d="M253.3,645.7C253.3,645.7,253.3,645.7,253.3,645.7C253.3,645.7,253.3,645.7,253.3,645.7z"/>
	<path class="st1" d="M246,354.8C246,354.8,246,354.8,246,354.8C246,354.8,246,354.8,246,354.8z"/>
	<path class="st2" d="M208.7,481.9c-0.3,0.1-0.7,0.2-1.1,0.2C208,482.1,208.4,482,208.7,481.9z"/>
	<path class="st2" d="M216.9,497.7c0,0-0.1,0-0.1,0C216.8,497.7,216.9,497.7,216.9,497.7z"/>
	<path class="st2" d="M218.6,498.9c0,0,0.1-0.1,0.1-0.1C218.7,498.8,218.7,498.9,218.6,498.9z"/>
	<path class="st2" d="M218.8,498.8c0,0,0.1-0.1,0.1-0.1C218.8,498.7,218.8,498.7,218.8,498.8z"/>
	<path class="st2" d="M216.5,500.3c0.1,0,0.1-0.1,0.2-0.1C216.6,500.2,216.5,500.2,216.5,500.3z"/>
	<path class="st2" d="M217.2,499.9c0.2-0.1,0.4-0.2,0.6-0.3C217.6,499.7,217.4,499.8,217.2,499.9z"/>
	<path class="st2" d="M214.8,544.3c0,0,0.1-0.1,0.1-0.1C214.8,544.3,214.8,544.3,214.8,544.3z"/>
	<path class="st2" d="M214.2,501.2c0.4-0.2,0.8-0.3,1.2-0.5C215.1,500.9,214.7,501,214.2,501.2z"/>
	<path class="st2" d="M214.9,544.2c0.1,0,0.2-0.1,0.3-0.1C215.1,544.1,215,544.2,214.9,544.2z"/>
	<path class="st2" d="M219,498.3C219,498.3,219,498.3,219,498.3C219,498.3,219,498.3,219,498.3z"/>
	<path class="st2" d="M218.3,497.8C218.3,497.8,218.3,497.8,218.3,497.8C218.3,497.8,218.3,497.8,218.3,497.8z"/>
	<path class="st2" d="M218.1,497.8C218.1,497.8,218.1,497.8,218.1,497.8C218.1,497.8,218.1,497.8,218.1,497.8z"/>
	<path class="st2" d="M217.6,497.7C217.6,497.7,217.5,497.7,217.6,497.7C217.5,497.7,217.6,497.7,217.6,497.7z"/>
	<path class="st2" d="M218.7,498C218.7,498,218.7,498,218.7,498C218.7,498,218.7,498,218.7,498z"/>
	<path class="st2" d="M218.9,498.2C218.9,498.2,218.9,498.2,218.9,498.2C218.9,498.2,218.9,498.2,218.9,498.2z"/>
	<path class="st2" d="M218.5,497.9C218.5,497.9,218.5,497.9,218.5,497.9C218.5,497.9,218.5,497.9,218.5,497.9z"/>
	<path class="st2" d="M214.7,544.5c0,0,0-0.1,0.1-0.1C214.7,544.4,214.7,544.4,214.7,544.5z"/>
	<path class="st2" d="M218.9,498.6c0,0,0.1-0.1,0.1-0.1C218.9,498.5,218.9,498.6,218.9,498.6z"/>
	<path class="st2" d="M244.5,549.9c0.3,0.1,0.6,0.1,0.9,0.2C245.1,550,244.8,549.9,244.5,549.9z"/>
	<path class="st2" d="M245.8,550.1c0.4,0.1,0.8,0.2,1.2,0.3C246.7,550.3,246.3,550.2,245.8,550.1z"/>
	<path class="st2" d="M218.6,546.1c-0.2,0-0.4-0.1-0.6-0.1C218.3,546.1,218.4,546.1,218.6,546.1z"/>
	<path class="st2" d="M220,546.5c-0.5-0.1-0.9-0.2-1.3-0.3C219.1,546.3,219.6,546.4,220,546.5z"/>
	<path class="st2" d="M243.2,549.6c0.3,0.1,0.5,0.1,0.8,0.2C243.7,549.7,243.5,549.6,243.2,549.6z"/>
	<path class="st2" d="M241.8,549.3c0.3,0,0.5,0.1,0.7,0.1C242.3,549.4,242.1,549.4,241.8,549.3z"/>
	<path class="st2" d="M239,548.8c0.2,0,0.4,0.1,0.6,0.1C239.5,548.9,239.3,548.9,239,548.8z"/>
	<path class="st2" d="M240.4,549.1c0.2,0,0.5,0.1,0.7,0.1C240.9,549.2,240.7,549.1,240.4,549.1z"/>
	<path class="st2" d="M214.8,544.7c0,0-0.1-0.1-0.1-0.1C214.8,544.7,214.8,544.7,214.8,544.7z"/>
	<path class="st2" d="M215.1,544.9c-0.1,0-0.2-0.1-0.2-0.1C214.9,544.8,215,544.9,215.1,544.9z"/>
	<path class="st2" d="M215.4,545.1c-0.1,0-0.2-0.1-0.2-0.1C215.2,545,215.3,545,215.4,545.1z"/>
	<path class="st2" d="M214.7,544.6c0,0,0-0.1,0-0.1C214.7,544.5,214.7,544.6,214.7,544.6z"/>
	<path class="st2" d="M218,546c-0.4-0.1-0.8-0.2-1.1-0.3C217.2,545.8,217.6,545.9,218,546z"/>
	<path class="st2" d="M216.8,545.6c-0.1,0-0.3-0.1-0.4-0.1C216.5,545.5,216.6,545.6,216.8,545.6z"/>
	<path class="st2" d="M216.3,545.4c-0.2-0.1-0.3-0.1-0.4-0.2C216,545.3,216.1,545.4,216.3,545.4z"/>
	<path class="st2" d="M215.8,545.3c-0.1,0-0.2-0.1-0.3-0.1C215.6,545.2,215.7,545.2,215.8,545.3z"/>
	<path class="st2" d="M216,497.8C216,497.8,216,497.8,216,497.8C216,497.8,216,497.8,216,497.8z"/>
	<path class="st2" d="M213,481.5c0.1,0,0.1,0.1,0.2,0.1C213.2,481.6,213.1,481.6,213,481.5z"/>
	<path class="st2" d="M212.2,468.4c-0.1,0-0.2-0.1-0.2-0.1C212.1,468.3,212.1,468.4,212.2,468.4z"/>
	<path class="st2" d="M212,481.4c0.1,0,0.2,0,0.3,0C212.2,481.4,212.1,481.4,212,481.4z"/>
	<path class="st2" d="M213.3,481.8c0,0,0,0.1,0,0.1C213.3,481.9,213.3,481.9,213.3,481.8z"/>
	<path class="st2" d="M209.6,481.8c-0.2,0-0.4,0.1-0.6,0.1C209.2,481.8,209.4,481.8,209.6,481.8z"/>
	<path class="st2" d="M210.5,481.6c-0.2,0-0.3,0.1-0.5,0.1C210.1,481.7,210.3,481.6,210.5,481.6z"/>
	<path class="st2" d="M212.6,468.7c-0.1-0.1-0.2-0.1-0.3-0.2C212.4,468.5,212.5,468.6,212.6,468.7z"/>
	<path class="st2" d="M213,482.4c0,0-0.1,0.1-0.1,0.1C212.9,482.5,212.9,482.5,213,482.4z"/>
	<path class="st2" d="M219,498.4c0,0,0,0.1,0,0.1C219,498.4,219,498.4,219,498.4z"/>
	<path class="st2" d="M218.6,499c-0.2,0.2-0.4,0.3-0.7,0.5C218.2,499.3,218.4,499.1,218.6,499z"/>
	<path class="st2" d="M211.4,493.6c0.6-1-2.8-4.5-6.6-6.8c-0.7,0.3-1.4,0.5-2,0.6c-5.8,1.4-5.8,1.4-3.7,6c2.1,4.6-1.8,5.6-1.8,5.6
		c-7.8,6,10.4,0.6,16.3-0.8c0,0,0,0,0,0C212.3,497,210.9,494.5,211.4,493.6z"/>
	<path class="st2" d="M182,383.4c10.9-1.6,38.8-1,39.7,2.9c0.9,3.9,0.7,7-1.1,8.5c-1.7,1.4-4.4-1-7.7-2.3c-3.4-1.2-2.8,9.9-2.8,14
		c0,4.1,3.9,16.5,1.5,19.2c-2.5,2.6-3.1,17.2-4.1,30.1c-1,12.1,1.2,10.8,4.4,12.5c-3.2-1.6-5.4-0.4-4.5-12.2l12.4,12.9
		c0,0-4.4,3.1-9,5.2c-4.6,2.1-0.5,2.2,1.4,1.7c1.9-0.5-3.4,2.9,5.3,0.8c7.5-1.8,16.9-11.6,24.8-18.9c-0.1,0.2-0.2,0.5-0.4,0.7
		c2.2-3.6-0.7-7-1.6-10.9s1-4.4,2.7-5.8c1.7-1.4,2.5-2.6,3.5-7c1-4.4-0.8-16.3,0.7-18.7c1.5-2.4,2-4.6,1.3-7.5s-2.2-18-0.5-23.5
		c1.8-5.6-0.1-17.5-2.1-30.3c0,0,0,0,0,0c0,0,0,0,0,0c0,0-0.1,0-0.1,0c0,0,0,0,0,0c-0.8,0.1-4.5,0.4-15,2.7c0,0,0,0,0,0c0,0,0,0,0,0
		c-3.1,0.7-6.9,1.5-11.3,2.6C198.2,365.2,171.1,385,182,383.4z M237,437.1c1.9,3.7-2.2,3.6-4.4,3.1s0.7,2.9,1.4,5.8s1.7,2.7,1.4,5.8
		c-0.3,3.2,0,4.1,1.2,4.9c1.2,0.7,0.5,1.9-1.5,2.4c0,0-1,0.2-2.9,0.7c-1.9,0.5-1.2-0.7-1.7-2.7c-0.5-1.9,0.3-3.2,1.9-0.5
		c1.7,2.7,1-0.2,0.7-1.2c-0.2-1-0.2-1,0-4.1c0.3-3.2-1.2-0.7-1,0.2c0.2,1-2.9,0.7-4.9,1.2c-1.9,0.5-3.4-1.2-3.8-3.2
		c-0.5-1.9-0.7-2.9,1-4.4c1.7-1.4,3.2,0.3,4.6,2c1.4,1.7,1.9-0.5,1.2-3.4s-0.9-3.9-0.9-8c0-4.1-0.7-2.9,3.2-3.8
		C236.6,431.1,235.1,433.5,237,437.1z M228,416.7c1.7-1.4,2.9-0.7,3.4,1.2c0.5,1.9,3.4,1.2,0.7,2.9c-2.7,1.7-0.3,3.2-2.2,3.6
		c-1.9,0.5-3.4-1.2-4.1,0c-0.7,1.2-2.9,0.7-1.2-0.7c1.7-1.4,2.7-1.7,2.7-1.7c1.7-1.4,2.5-2.6,1.2-3.4
		C227.3,417.9,226.3,418.1,228,416.7z M223.3,405.5c2.5-6.8,1.9-0.5,1.4,1.7l-1.9,0.5L223.3,405.5z M223.2,456.9
		c0.3-3.2,1-0.2,2.6,2.5c1.7,2.7,3.2,0.3,3.4,1.2c0.2,1,0.5,1.9-0.3,3.2c-0.7,1.2-1.2-0.7-1.4-1.7c-0.2-1-1.2-0.7-3.2-0.3
		c-1.9,0.5-0.3,3.2-0.1,8.2c0,0,0,0-0.7,1.2c-0.7,1.2-2.2-0.5-1.2-0.7c1-0.2-0.2-1-0.2-5.1c0-4.1-1,0.2-1.9-3.7
		S222.9,460,223.2,456.9z"/>
	<path class="st2" d="M236.3,481.5c-2.7,1.7-2.2,3.6,0.5,1.9c2.7-1.7,8-7.6,8.7-8.8c0.7-1.2,0.5,1.9-1,4.4s-3.9,5.1-4.4,7.2
		c-0.5,2.2-1.8,5.6,0.7,2.9c2.5-2.6,5.1-4.3,5.6-6.5s0.1-1.6,0.5-3.5c0.3-1.9,0.3-1.9,1,1s-1,4.4,0,4.1c1-0.2,2.2,0.5,1.7,2.7
		s-2.5,6.8-4.2,8.2c-1.7,1.4-2.7,1.7-2.9,0.7c-0.2-1,1.5-2.4-0.5-1.9c-1.9,0.5-2.5,2.6-5.6,2.4c-3.2-0.3-0.5,2.2-2.7,1.7
		c-2.2-0.5-4.6-2-3.9,0.9s0,4.1-0.8,5.3s-2.5,2.6,0.5,1.9s5.8-1.4,9.3-4.3c3.4-2.9,4.4-3.1,8.1-5c3.7-1.9,4.2-4.1,5.1-4.3
		c1-0.2,0.2,1-0.5,2.2c-0.7,1.2-0.5,2.2-3.9,5.1c-3.4,2.9-8.1,9.1-10,9.6s-2.2-0.5-2.7,1.7c-0.5,2.2-1.5,2.4,0.7,2.9
		s3.2,0.3,4.9-1.2s0.7-1.2,2.5-2.6s1.2,0.7-1.2,3.4c-2.5,2.6-1.5,2.4-2,4.6c-0.5,2.2,0.7-1.2,1.2,0.7c0.5,1.9-0.7,1.2-1.5,2.4
		s-3.4,2.9-1,4.4s3.6,2.2,3.8,3.2c0.2,1,1.4,1.7,1.7,2.7c0.2,1-0.5,2.2-1.5,2.4c-1,0.2-4.1,0-3.6-2.2c0.5-2.2,1.5-2.4-0.7-2.9
		s-5.3-0.8-5.6-1.8c-0.2-1-3.6-2.2-3.2-0.3c0.5,1.9,1.2,0.7,1.7,2.7c0.5,1.9-0.7,1.2,1.7,2.7c2.4,1.5,2.6,2.5,1.9,3.7
		c-0.7,1.2-0.5,2.2-2.2,3.6c-1.4,1.2-7.6,4.8-11.3,7.1c-0.2,0-0.5-0.1-0.7-0.1c2,0.4,4.1,0.8,5.6,0.8c0.4,0,0.9,0,1.4,0.1
		c6.6-5.3,18.3-14.2,20.6-15.6c2.7-1.7,0.7,2.9-1,4.4c-1.7,1.4-1.5,2.4,0.5,1.9c1.9-0.5,5.1-0.2,2.4,1.5c-2.7,1.7-2.2-0.5-2.5,2.6
		c-0.3,3.2,2.4,5.6,4.8,7.1c2.4,1.5,2.6,2.5,4.8,3s3.6,2.2,1.7-1.4c-1.9-3.7-2.1-4.6-1.2-4.9c1-0.2,2.5-2.6,0.5-2.2
		c-1.9,0.5-4.1,0-2.4-1.5c1.7-1.4,1.9-0.5,0.3-3.2c-1.7-2.7-4.1-4.2-0.4-6.1c3.7-1.9,2.2-3.6,5.6-2.4c3.4,1.2-2.2-0.5-1.5,2.4
		c0.7,2.9,0.9,3.9,2.8,7.5c1.9,3.7-0.8,5.3,3.3,5.4c2.9,0,4.9,0.3,6.8,0.2c0,0.3,0,0.5,0.1,0.8c-0.4-3.5,1-7.1,2-8.8
		c1.5-2.4,4.4-3.1,1.8-5.6c-2.6-2.5-8.6-10.3-9.3-13.2s-7.6-14.6-9.5-18.3c-1.9-3.7-1.6-6.8-3.1-8.5c-1.4-1.7-5-8.1-5.4-14.1
		c-0.3-4.3-1-6-2.3-8.6C243.9,473.8,238.7,480,236.3,481.5z M255.7,509.3c0.5-2.2,3-4.8-0.3,3.2c-3.2,8-5.2,12.6-6.7,15
		s-4.9,7.7-2.7,1.7c2.5-6.8,5-9.4,6.2-12.8C253.5,512.9,255.2,511.4,255.7,509.3z"/>
	<path class="st2" d="M217.2,497.7C217.2,497.7,217.2,497.7,217.2,497.7C217.2,497.7,217.2,497.7,217.2,497.7z"/>
	<path class="st2" d="M218.8,498C218.8,498.1,218.8,498.1,218.8,498C218.8,498.1,218.8,498.1,218.8,498z"/>
	<path class="st2" d="M211.2,481.5c-0.1,0-0.3,0-0.4,0.1C210.9,481.5,211,481.5,211.2,481.5z"/>
	<path class="st2" d="M210.8,484C210.9,484,210.9,484,210.8,484C210.9,484,210.9,484,210.8,484z"/>
	<path class="st2" d="M210.3,484.3c0,0,0.1,0,0.1-0.1C210.4,484.3,210.4,484.3,210.3,484.3z"/>
	<path class="st2" d="M209.8,484.6C209.9,484.6,209.9,484.5,209.8,484.6C209.9,484.5,209.9,484.6,209.8,484.6z"/>
	<path class="st2" d="M211.3,483.7C211.3,483.7,211.3,483.7,211.3,483.7C211.3,483.7,211.3,483.7,211.3,483.7z"/>
	<path class="st2" d="M216.4,497.8C216.4,497.8,216.4,497.8,216.4,497.8C216.4,497.8,216.4,497.8,216.4,497.8z"/>
	<path class="st2" d="M209.3,484.9C209.3,484.8,209.4,484.8,209.3,484.9C209.4,484.8,209.3,484.8,209.3,484.9z"/>
	<path class="st2" d="M237.7,548.6c0.2,0,0.3,0.1,0.5,0.1C238,548.7,237.9,548.6,237.7,548.6z"/>
	<path class="st2" d="M215.6,497.9C215.6,497.9,215.6,497.9,215.6,497.9C215.6,497.9,215.6,497.9,215.6,497.9z"/>
	<path class="st2" d="M213,481.5c-0.1,0-0.1,0-0.2-0.1C212.9,481.5,212.9,481.5,213,481.5z"/>
	<path class="st2" d="M211.8,481.5c-0.1,0-0.2,0-0.3,0C211.5,481.5,211.7,481.5,211.8,481.5z"/>
	<path class="st2" d="M212.7,481.5c-0.1,0-0.2,0-0.2,0C212.5,481.4,212.6,481.5,212.7,481.5z"/>
	<path class="st2" d="M213.3,481.8c0,0,0-0.1-0.1-0.1C213.2,481.7,213.3,481.7,213.3,481.8z"/>
	<path class="st2" d="M212.6,482.8c0.1,0,0.1-0.1,0.2-0.1C212.7,482.7,212.6,482.8,212.6,482.8z"/>
	<path class="st2" d="M212.3,483.1c0.1,0,0.1-0.1,0.2-0.1C212.4,483,212.3,483,212.3,483.1z"/>
	<path class="st2" d="M213.1,482.3c0,0,0.1-0.1,0.1-0.1C213.1,482.3,213.1,482.3,213.1,482.3z"/>
	<path class="st2" d="M213.2,482.1c0,0,0-0.1,0.1-0.1C213.2,482.1,213.2,482.1,213.2,482.1z"/>
	<path class="st2" d="M236.5,548.4c0.1,0,0.2,0,0.2,0C236.6,548.5,236.6,548.4,236.5,548.4z"/>
	<path class="st2" d="M245.4,467.2c0.1,0.1,0.1,0.3,0.2,0.4C245.5,467.4,245.4,467.3,245.4,467.2z"/>
	<path class="st2" d="M272.9,549c0.1,0.3,0.2,0.5,0.4,0.8C273.2,549.5,273,549.3,272.9,549z"/>
	<path class="st2" d="M272.5,547.3c0,0.2,0.1,0.4,0.1,0.5C272.5,547.7,272.5,547.5,272.5,547.3z"/>
	<path class="st2" d="M273.9,550.8c0.2,0.2,0.4,0.5,0.6,0.7C274.3,551.3,274.1,551.1,273.9,550.8z"/>
	<path class="st2" d="M272.7,548.2c0.1,0.2,0.1,0.5,0.2,0.7C272.8,548.6,272.7,548.4,272.7,548.2z"/>
	<path class="st2" d="M245.8,468.1c0.1,0.2,0.1,0.3,0.2,0.4C246,468.4,245.9,468.3,245.8,468.1z"/>
	<path class="st2" d="M246.2,469c0.2,0.3,0.3,0.6,0.4,0.9C246.5,469.6,246.4,469.3,246.2,469z"/>
	<path class="st2" d="M273.4,550c0.1,0.2,0.2,0.4,0.4,0.6C273.7,550.4,273.5,550.2,273.4,550z"/>
	<path class="st3" d="M217.6,476.7c-8.8,2.1-3.4-1.2-5.3-0.8c-1.9,0.5-6.1,0.4-1.4-1.7c4.6-2.1,9-5.2,9-5.2l-12.4-12.9
		c-0.9,11.8,1.2,10.6,4.5,12.2c0,0,0,0,0,0c0.1,0,0.2,0.1,0.2,0.1c0,0,0.1,0,0.1,0c0.1,0.1,0.2,0.1,0.3,0.2c3.6,2.2-2,4.6-3.4,2.9
		s-7.8,1.9-13.6,3.2c-5.8,1.4-3.2,3.8-0.3,3.2c2.9-0.7,4.9-1.2,4.9-1.2c8.2,0.1-1,4.4-8.8,6.2c-7.8,1.9-1.5,2.4,0.5,1.9
		c1.9-0.5,3.2,0.3,15.8-2.7c0.4-0.1,0.7-0.2,1.1-0.2c0.1,0,0.2,0,0.3-0.1c0.2,0,0.4-0.1,0.6-0.1c0.1,0,0.2,0,0.3-0.1
		c0.2,0,0.3-0.1,0.5-0.1c0.1,0,0.2,0,0.3,0c0.1,0,0.3,0,0.4-0.1c0.1,0,0.2,0,0.3,0c0.1,0,0.2,0,0.3,0c0.1,0,0.1,0,0.2,0
		c0.1,0,0.2,0,0.3,0c0.1,0,0.1,0,0.2,0c0.1,0,0.2,0,0.2,0c0,0,0.1,0,0.1,0c0.1,0,0.2,0,0.2,0.1c0,0,0,0,0,0c0.1,0,0.1,0.1,0.2,0.1
		c0,0,0,0,0,0c0,0,0,0.1,0.1,0.1c0,0,0,0,0,0.1c0,0,0,0.1,0,0.1c0,0,0,0,0,0.1c0,0,0,0.1-0.1,0.1c0,0,0,0.1-0.1,0.1
		c0,0-0.1,0.1-0.1,0.1c0,0-0.1,0.1-0.1,0.1c0,0-0.1,0.1-0.1,0.1c0,0-0.1,0.1-0.1,0.1c0,0-0.1,0.1-0.2,0.1c0,0-0.1,0.1-0.1,0.1
		c0,0-0.1,0.1-0.2,0.1c-0.3,0.2-0.6,0.4-0.9,0.6c0,0,0,0-0.1,0c-0.1,0.1-0.2,0.1-0.4,0.2c0,0-0.1,0-0.1,0.1
		c-0.1,0.1-0.3,0.2-0.4,0.2c0,0-0.1,0-0.1,0.1c-0.1,0.1-0.3,0.2-0.4,0.2c0,0-0.1,0-0.1,0c-0.2,0.1-0.3,0.2-0.5,0.2c0,0,0,0-0.1,0
		c-1.4,0.7-3,1.5-4.5,2h0c3.8,2.3,7.2,5.8,6.6,6.8c-0.5,0.9,0.9,3.4,2.1,4.6l0,0c0.7-0.2,1.4-0.3,2-0.4c0,0,0,0,0,0
		c0.1,0,0.3,0,0.4-0.1c0,0,0,0,0,0c0.1,0,0.3,0,0.4,0c0,0,0,0,0,0c0.1,0,0.3,0,0.4,0c0,0,0.1,0,0.1,0c0.1,0,0.2,0,0.2,0
		c0,0,0.1,0,0.1,0c0.1,0,0.2,0,0.2,0c0,0,0.1,0,0.1,0c0.2,0,0.3,0,0.5,0c0,0,0,0,0,0c0.1,0,0.2,0,0.2,0c0,0,0,0,0,0
		c0.1,0,0.1,0,0.2,0.1c0,0,0,0,0,0c0,0,0.1,0,0.1,0.1c0,0,0,0,0,0c0,0,0.1,0,0.1,0.1c0,0,0,0,0,0c0,0,0,0,0.1,0.1c0,0,0,0.1,0,0.1
		c0,0,0,0,0,0c0,0,0,0.1,0,0.1c0,0,0,0,0,0c0,0,0,0.1,0,0.1c0,0,0,0,0,0c0,0,0,0.1-0.1,0.1c0,0,0,0,0,0c0,0-0.1,0.1-0.1,0.1
		c0,0,0,0,0,0c0,0-0.1,0.1-0.1,0.1c0,0,0,0,0,0c-0.2,0.2-0.4,0.3-0.7,0.5c-0.1,0-0.1,0.1-0.2,0.1c-0.2,0.1-0.4,0.2-0.6,0.3
		c-0.2,0.1-0.4,0.2-0.6,0.3c-0.1,0-0.1,0.1-0.2,0.1c-0.3,0.1-0.7,0.3-1,0.5c-0.4,0.2-0.8,0.3-1.2,0.5c-7.5,2.8,3.6,2.2-4.2,4.1
		c-7.8,1.9-4.6,2.1-2.7,1.7c1.9-0.5,3.6,2.2,0.7,2.9c-2.9,0.7-2.7,1.7,2.4,1.5c5.1-0.2,4.8,3,0.9,3.9c-3.9,0.9-10,1.3-16.8,3
		s0.9,8,3,12.6c2.1,4.6,2.9,3.4,5.5,5.9c2.6,2.5,2.6,2.5,5.8,2.7c3.2,0.3,0.2,1,4.4,1c4.1,0,4.8,3,1.9,3.7c-0.1,0-0.2,0.1-0.3,0.1
		c0,0,0,0-0.1,0c-0.1,0-0.1,0.1-0.1,0.1c0,0,0,0,0,0c0,0-0.1,0.1-0.1,0.1c0,0,0,0,0,0c0,0,0,0.1,0,0.1c0,0,0,0,0,0
		c0,0,0.1,0.1,0.1,0.1c0,0,0,0,0,0c0.1,0,0.1,0.1,0.2,0.1c0,0,0,0,0.1,0c0.1,0,0.2,0.1,0.2,0.1c0,0,0.1,0,0.1,0
		c0.1,0,0.2,0.1,0.3,0.1c0,0,0,0,0,0c0.1,0.1,0.3,0.1,0.4,0.2c0,0,0.1,0,0.1,0c0.1,0,0.3,0.1,0.4,0.1c0,0,0.1,0,0.1,0
		c0.3,0.1,0.7,0.2,1.1,0.3c0,0,0.1,0,0.1,0c0.2,0,0.4,0.1,0.6,0.1c0,0,0,0,0.1,0c0.4,0.1,0.9,0.2,1.3,0.3c0,0,0.1,0,0.1,0
		c0.2,0,0.4,0.1,0.7,0.1c3.7-2.2,9.9-5.9,11.3-7.1c1.7-1.4,1.5-2.4,2.2-3.6c0.7-1.2,0.5-2.2-1.9-3.7c-2.4-1.5-1.2-0.7-1.7-2.7
		c-0.5-1.9-1.2-0.7-1.7-2.7c-0.5-1.9,2.9-0.7,3.2,0.3c0.2,1,3.4,1.2,5.6,1.8s1.2,0.7,0.7,2.9c-0.5,2.2,2.6,2.5,3.6,2.2
		c1-0.2,1.7-1.4,1.5-2.4c-0.2-1-1.4-1.7-1.7-2.7c-0.2-1-1.4-1.7-3.8-3.2s0.3-3.2,1-4.4s1.9-0.5,1.5-2.4c-0.5-1.9-1.7,1.4-1.2-0.7
		c0.5-2.2-0.5-1.9,2-4.6c2.5-2.6,3-4.8,1.2-3.4s-0.7,1.2-2.5,2.6s-2.7,1.7-4.9,1.2s-1.2-0.7-0.7-2.9c0.5-2.2,0.7-1.2,2.7-1.7
		s6.6-6.7,10-9.6c3.4-2.9,3.2-3.8,3.9-5.1c0.7-1.2,1.5-2.4,0.5-2.2c-1,0.2-1.5,2.4-5.1,4.3c-3.7,1.9-4.6,2.1-8.1,5
		c-3.4,2.9-6.3,3.6-9.3,4.3s-1.2-0.7-0.5-1.9s1.5-2.4,0.8-5.3s1.7-1.4,3.9-0.9c2.2,0.5-0.5-1.9,2.7-1.7c3.2,0.3,3.7-1.9,5.6-2.4
		c1.9-0.5,0.2,1,0.5,1.9c0.2,1,1.2,0.7,2.9-0.7c1.7-1.4,3.7-6,4.2-8.2s-0.7-2.9-1.7-2.7c-1,0.2,0.7-1.2,0-4.1s-0.7-2.9-1-1
		c-0.3,1.9,0,1.3-0.5,3.5s-3.2,3.8-5.6,6.5c-2.5,2.6-1.2-0.7-0.7-2.9c0.5-2.2,3-4.8,4.4-7.2s1.8-5.6,1-4.4c-0.7,1.2-6,7.1-8.7,8.8
		c-2.7,1.7-3.2-0.3-0.5-1.9c2.4-1.5,7.7-7.7,10.4-11.6c0,0,0,0,0,0c-0.1-0.3-0.3-0.6-0.4-0.9c-0.1-0.1-0.1-0.3-0.2-0.4
		c-0.1-0.1-0.1-0.3-0.2-0.4c-0.1-0.2-0.2-0.4-0.3-0.6c-0.1-0.1-0.1-0.2-0.2-0.4c-0.1-0.3-0.3-0.7-0.5-1.1c-2.4-5.6-5.1-3.9-2.8-7.5
		c0.1-0.2,0.3-0.5,0.4-0.7C234.5,465.1,225.2,474.9,217.6,476.7z M228.8,512.6c2.9-0.7,5.8,2.7,2.9,3.4s-3.9,0.9-6.3,3.6
		c-2.5,2.6-5.1,4.3-4.4,7.2s2.6,2.5,0.2,5.1c-2.5,2.6-3.2,3.8-6.1,4.5c-3.9,0.9-6.8,1.6-9.5-0.8c-2.6-2.5-2.2-0.5-4.5-6.1
		c-2.4-5.6-6.5-5.6-5-8.1s6.3-3.6,10.5-3.5C210.5,518,225.9,513.3,228.8,512.6z"/>
	<path class="st3" d="M293.3,617c-0.7-2.9-0.4-6.1-1.3-10c-0.9-3.9-2.1-8.8-3.5-14.6s-3.7-15.6-7.5-22.9c-3.8-7.3-2.8-7.5-2.8-11.7
		c0-4.1,0.5-2.2-3.6-6.3c-0.2-0.2-0.4-0.5-0.6-0.7c-0.1-0.1-0.1-0.2-0.2-0.2c-0.1-0.2-0.2-0.4-0.4-0.6c0-0.1-0.1-0.2-0.1-0.2
		c-0.1-0.3-0.3-0.5-0.4-0.8c0,0,0-0.1,0-0.1c-0.1-0.2-0.2-0.5-0.2-0.7c0-0.1-0.1-0.2-0.1-0.3c0-0.2-0.1-0.4-0.1-0.5
		c0-0.1,0-0.2-0.1-0.3c0-0.3-0.1-0.5-0.1-0.8c-1.9,0.1-3.9-0.2-6.8-0.2c-4.1,0-1.4-1.7-3.3-5.4c-1.9-3.7-2.1-4.6-2.8-7.5
		c-0.7-2.9,4.9-1.2,1.5-2.4c-3.4-1.2-1.9,0.5-5.6,2.4c-3.7,1.9-1.2,3.4,0.4,6.1c1.7,2.7,1.4,1.7-0.3,3.2c-1.7,1.4,0.5,1.9,2.4,1.5
		c1.9-0.5,0.5,1.9-0.5,2.2c-1,0.2-0.7,1.2,1.2,4.9c1.9,3.7,0.5,1.9-1.7,1.4s-2.4-1.5-4.8-3c-2.4-1.5-5.1-3.9-4.8-7.1
		c0.3-3.2-0.2-1,2.5-2.6c2.7-1.7-0.5-1.9-2.4-1.5c-1.9,0.5-2.2-0.5-0.5-1.9c1.7-1.4,3.7-6,1-4.4c-2.3,1.4-14,10.3-20.6,15.6l0,0
		c2.3,0.1,5.8,0.6,9.3,1.1c0.1,0,0.2,0,0.2,0c0.3,0,0.6,0.1,1,0.2c0.2,0,0.3,0.1,0.5,0.1c0.3,0,0.6,0.1,0.8,0.1
		c0.2,0,0.4,0.1,0.6,0.1c0.3,0,0.5,0.1,0.8,0.1c0.2,0,0.5,0.1,0.7,0.1c0.2,0,0.5,0.1,0.7,0.1c0.3,0,0.5,0.1,0.7,0.1
		c0.2,0,0.4,0.1,0.6,0.1c0.3,0.1,0.5,0.1,0.8,0.2c0.2,0,0.4,0.1,0.5,0.1c0.3,0.1,0.6,0.1,0.9,0.2c0.1,0,0.3,0.1,0.4,0.1
		c0.4,0.1,0.8,0.2,1.2,0.3c6.5,1.5,1.7,2.7-1.2,3.4c-2.9,0.7-4.7,6.3-4.2,8.2c0.5,1.9,2.5,4,8.3,2.6c0,0-4.9,1.2-9.3,4.3
		c-4.4,3.1,1.4,1.7,7.5,1.3c6.1-0.4-0.3,3.2-6.6,6.7c-6.3,3.6,3.2,0.3,7-0.7c3.9-0.9,1.9-0.5,3.6,2.2c1.7,2.7,2.2,0.5,4.1,0
		c1.9-0.5,1.7-1.4,3.4,1.2s-1.8,5.6,2.6,6.6s2.9-0.7,1.7,2.7c-1.2,3.4-3.7,1.9-7.5,2.8c-3.9,0.9-3.4,2.9-3.4,2.9s0,0-4.4,3.1
		c-4.4,3.1,0.5,1.9,5.3,0.8c4.9-1.2,3.6,2.2,0.7,2.9c-2.9,0.7-2.7,1.7-6.8,1.6c-4.1,0-2.9,0.7-4.4,3.1c-1.5,2.4-7.1,4.8-11,9.8
		c-3.9,5.1,0.5,1.9,1.9-0.5s1-0.2,4.4-3.1c3.4-2.9,2.7-1.7,6.6-2.6c3.9-0.9,9.5-3.3,16.1-5.9c6.6-2.6,5.3,0.8,9.2,4s2.1,4.6-2.2,3.6
		c-4.4-1-4.6,2.1-6.3,3.6c-1.7,1.4-9.3,4.3-11.2,4.7c-1.9,0.5,2.6,10.7,4.7,15.3c2.1,4.6,3.6,6.3-0.3,7.3c-2.8,0.7-3.2,2.3-2.2,3
		l0,0c0.1,0.1,0.2,0.1,0.3,0.2c0,0,0,0,0,0c0.1,0,0.2,0.1,0.4,0.1c0,0,0.1,0,0.1,0c0.1,0,0.2,0,0.4,0c0,0,0.1,0,0.1,0
		c0.2,0,0.4,0,0.6-0.1c2.9-0.7,6.8-1.6,10.5-3.5c3.7-1.9,23.7-17,26.2-19.6C294,619.9,294,619.9,293.3,617z"/>
	<path class="st3" d="M223.3,405.5l-0.5,2.2l1.9-0.5C225.2,405,225.8,398.7,223.3,405.5z"/>
	<path class="st3" d="M228.5,418.6c1.2,0.7,0.5,1.9-1.2,3.4c0,0-1,0.2-2.7,1.7c-1.7,1.4,0.5,1.9,1.2,0.7c0.7-1.2,2.2,0.5,4.1,0
		c1.9-0.5-0.5-1.9,2.2-3.6c2.7-1.7-0.2-1-0.7-2.9c-0.5-1.9-1.7-2.7-3.4-1.2C226.3,418.1,227.3,417.9,228.5,418.6z"/>
	<path class="st3" d="M220.2,461.7c0.9,3.9,1.9-0.5,1.9,3.7c0,4.1,1.2,4.9,0.2,5.1c-1,0.2,0.5,1.9,1.2,0.7c0.7-1.2,0.7-1.2,0.7-1.2
		c-0.2-5.1-1.9-7.8,0.1-8.2c1.9-0.5,2.9-0.7,3.2,0.3c0.2,1,0.7,2.9,1.4,1.7c0.7-1.2,0.5-2.2,0.3-3.2c-0.2-1-1.7,1.4-3.4-1.2
		c-1.7-2.7-2.4-5.6-2.6-2.5C222.9,460,219.3,457.8,220.2,461.7z"/>
	<path class="st3" d="M229.5,435.9c0,4.1,0.2,5.1,0.9,8s0.2,5.1-1.2,3.4c-1.4-1.7-2.9-3.4-4.6-2c-1.7,1.4-1.5,2.4-1,4.4
		c0.5,1.9,1.9,3.7,3.8,3.2c1.9-0.5,5.1-0.2,4.9-1.2c-0.2-1,1.2-3.4,1-0.2c-0.3,3.2-0.3,3.2,0,4.1c0.2,1,0.9,3.9-0.7,1.2
		c-1.7-2.7-2.4-1.5-1.9,0.5c0.5,1.9-0.3,3.2,1.7,2.7c1.9-0.5,2.9-0.7,2.9-0.7c1.9-0.5,2.7-1.7,1.5-2.4c-1.2-0.7-1.4-1.7-1.2-4.9
		c0.3-3.2-0.7-2.9-1.4-5.8s-3.6-6.3-1.4-5.8s6.3,0.6,4.4-3.1c-1.9-3.7-0.4-6.1-4.3-5.1C228.8,432.9,229.5,431.7,229.5,435.9z"/>
	<path class="st3" d="M248.8,527.4c1.5-2.4,3.5-7,6.7-15c3.2-8,0.8-5.3,0.3-3.2c-0.5,2.2-2.2,3.6-3.5,7c-1.2,3.4-3.7,6-6.2,12.8
		C243.8,535.1,247.3,529.8,248.8,527.4z"/>
	<path class="st3" d="M165.4,449.6c-0.8,5.3-3.4,12-2.5,10.9c3.2-3.8,4.7-10.4,4.3-12.3C166.7,446.2,165.9,446.5,165.4,449.6z"/>
	<path class="st3" d="M183.7,504.9c-0.2-1-1.4-1.7-0.7-2.9s-0.5-1.9-0.9-3.9c-0.5-1.9-1.9-3.7-2.1-4.6c-0.2-1,0.5-2.2-0.7-2.9
		s-1.2-0.7-1.4-1.7c-0.7-3.1-3.3-5.4-2.6-2.5s2.4,5.6,2.6,6.6s1.4,1.7,1.9,3.7c0.5,1.9,1.7,2.7,0.9,3.9s-0.5,2.2,0.9,3.9
		s1.4,1.7,1.7,2.7c0.2,1,1.7,2.7,2.9,3.4c1.2,0.7,2.4,1.5,2.6,2.5c0.2,1,1.4,1.7,2.6,2.5c1.2,0.7-1.7-2.7-3.1-4.4
		S184,505.8,183.7,504.9z"/>
</g>
<g id="left_leg">
	<path class="st1" d="M18.7,597c4,0.6,4.1-0.4,1.3-1.8s-1-7.2,1.7-11.9c2.7-4.7,8.2-7.9,11.3-8.5c3.1-0.6,6.1-0.2,7.8,2.1
		s3.7,2.5,4,0.6s-0.4-4.1,0.6-4c1,0.1,1.1-0.9-2.6-3.4s-0.4-4.1-3.4-4.5c-3-0.4,0.6-4,2.4-2.7c1.8,1.3-1.3,1.8,1.6,3.2
		s4.7,2.7,5.5,3.8s0.7,2.1,3,0.4c2.3-1.7,3,0.4,4.7-4.4s3.8-5.5,4.9-6.4s2,0.3,2.7,2.4c0.7,2.1,1.6,3.2,3.4,4.5
		c1.8,1.3,1.4,4.2,5,0.7c3.5-3.5,4.8-5.4,6.3-9.2c1.5-3.8,3.7-4.5,1-6.9c-0.6-0.5-1.1-1-1.5-1.5c-3.7-1.1-6.9-1.4-8.3-0.9
		c-1.9,0.6-2.2-0.1-1.8-1.3c0,0,0,0,0,0c-2-0.3-5.1,0.3-6.9-1c-1.8-1.3-3.4-4.5-0.6-3.1s4.7,2.7,6.7,2.9s1.3-1.8,3.4-2.6
		c1.1-0.9,0.3-2,0.4-3c0.1-1-3.4-4.5-4.3-5.6s-3.1,0.6-7.2,1c-3.5,0.4-2.4-0.8-1.7-3c0.3-2.7,0.7-7,1.1-11.5
		c0.3-3.7,0.6-7.6,1.1-10.7c0.1-1.1,0.3-2,0.4-2.9c0.1-0.4,0.1-0.8,0.1-1.1c0.5-3.9,0.6-4.4,1.7-6.1c0.4-0.8,0.9-1.6,1.5-2.5
		c0.3-0.4,0.7-1,1.2-1.8c0,0,0,0,0-0.1c1.7-2.8,3.5-5.2,5.2-7.3c1.5-2.1,3.1-4.2,4.7-6.2c0-0.1,0.1-0.1,0.1-0.2
		c1-2.1,3.3-4.6,3.2-3.8c1.7-1.9,3-3.1,3.8-3.3c0.3-0.1,0.6-0.1,0.9-0.2c0.1-0.2,0.1-0.4,0.3-0.6c0.1-0.2,0.3-0.4,0.4-0.5
		c-0.3-0.5-1.2-1.1-2.1-1.7c-2.2-0.3-4.7-0.7-6.6-1.1c-1.1-0.1-2.2-0.1-3.3-0.3c-4-0.6-0.6-3.1,0.4-3c0.1,0,0.2,0,0.2,0
		c0,0,0.1,0,0.1,0c0.5-0.4,0-2.2,0.2-3.9c0.3-2,2.1-0.7,5.1-0.3c3,0.4,1.4-2.8,1-6.9c-0.4-4.1,0.3-2,2.3-1.7s1.3-1.8,0.3-2
		c-1-0.1-2.8-1.4,0.3-2s4,0.6,3.5,3.5c-0.4,3,1.6,3.2,1.8,1.3c0.3-2,2.5-3.7,5.5-3.3c3,0.4,10,0.4,17,1.4
		c6.4,0.9,19.7-10.3,29.9-18.8c4.5-17.7,10.2-39.3,15.8-47.4c9.1-13.2,9.9-56.6,17.8-71c-2.9,0.8-9.7-0.9-12.7-2.1
		c-3.8-1.5-7.1,0-11.2,0.5c-4.1,0.4-12.9-1.8-18.4-5.6c-5.5-3.8-3.1,0.6,3.5,3.5c6.7,2.9,1.6,3.2-3.2,1.6s-0.3,2,2.7,2.4
		c3,0.4,3.7,2.5,8.6,3.2c5,0.7,7.6,3.1,11.5,4.6c3.8,1.5,2.6,3.4,1.4,4.2s-7.1,0-9.8-2.4c-2.7-2.4-2.1,0.7-2.4,2.7s-3.4,2.6-5.5,3.3
		c-2.1,0.7-6.7-2.9-9.4-5.3c-2.7-2.4-3.8-1.5-5-0.7s0.3,5.1,1.3,5.2c1,0.1,1.4,4.2,3.1,6.5s5.5,3.8,10.3,5.5s4.7,2.7,1.7,2.3
		c-3-0.4-3-0.4-6.9-1s-2.7-2.4-5.5-3.8c-2.8-1.4-1.1,0.9-0.3,2s2.6,3.4,4.1,6.6c1.6,3.2,0.6,3.1-1.3,1.8c-1.8-1.3-5.3-5.8-2-0.3
		c3.3,5.5,5.8,1.8,6.2,5.9c0.4,4.1-1.3,1.8-4-0.6c-2.7-2.4-4.3-5.6-5.1-6.8s-1.8-1.3-4-0.6c-2.1,0.7-4.2,1.4-1.5,3.8
		c2.7,2.4,4.1,6.6,7,8c2.8,1.4,1.7,2.3,0.7,2.1c-1-0.1-3-0.4-4.8-1.7c-1.8-1.3-3.8-1.5-7.8-2.1s-0.3,2,2.7,2.4
		c3,0.4,2.8,1.4,2.7,2.4c-0.1,1-2.1,0.7-4.2,1.4c-2.1,0.7-1.3,1.8-1.5,3.8s-3.4,2.6-5.5,3.3c-2.1,0.7-0.3,2,0.3,5.1s0.4,4.1-0.6,4
		c-1-0.1-1.8-1.3-3-0.4s-1.3,1.8,0.6,3.1c1.8,1.3,1.6,3.2,2.1,6.4s2.1,6.4,3.8,8.6c1.7,2.3-0.3,2-2.3,1.7s-1.8-1.3-2.6-3.4
		c-0.7-2.1-1.7-2.3-3.7-2.5s-3.7-2.5-5.5-3.8c-1.8-1.3-1.1,0.9-0.1,1c1,0.1,0.6,3.1,2.4,4.4c1.8,1.3,1.7,2.3,0.6,3.1
		s-1.8-1.3-2.7-2.4s-0.7-2.1-1.8-1.3s-1.3,1.8,0.3,5.1c1.6,3.2,0.7,2.1-1.8-1.3c-2.6-3.4-1.6-3.2-1.9-8.3s0-7.1-0.6-10.2
		c-0.6-3.1-0.6-3.1-1.8-1.3c-1.3,1.8-2.1,0.7-4.1,0.4s-2-0.3-3.1,0.6s-3.1,0.6-5.9-0.8s-3-0.4-5-0.7c-2-0.3-2.8-1.4-5.5,3.3
		c-2.7,4.7-1.1,7.9-0.4,10c0.7,2.1,1.3,5.2,2,7.3c0.7,2.1,6.8,9,7.5,11.1c0.7,2.1,2.4,4.4,5.3,5.8c2.8,1.4,1.8,1.3,0.7,2.1
		s-1.3,1.8,1.7,2.3c3,0.4,1,0.1-0.4,3s-0.3,2,2.3,5.4s1.4,4.2,1,7.2c-0.4,3,4.7,2.7,4.4,4.7c-0.3,2-2.5,3.7-3.9,6.5
		c-1.4,2.8-4.1,0.4-5.9-0.8c-1.8-1.3-3.7-2.5-8.5-4.2c-4.8-1.7-8.7-2.2-8.5-4.2c-0.4-0.4-0.7-0.8-0.9-1.2c-0.3-0.9-1.2-2.3-2.1-4
		c-1.4-1.9-2.9-3.9-3.6-5.9c-0.4-1.2-0.4-2.5-0.1-3.8c0.1-0.7,0.3-1.4,0.6-2.1c1-2.8,2.6-5.5,3.5-7.7c0.7-1.6,1.1-3.1,1.2-4.3
		c-1.2,2.7-3.8,5.5-4.7,7.9c-1.5,3.8-3.6,18.7-3.7,26.7c0,3.3-0.5,4.7-1.1,4.9c0,0.6,0.1,1.3,0.2,2c0.4,4.1,2.4,4.4,4.8,8.8
		c2.4,4.4,5.3,5.8,9.9,8.5c1.8,1.3-0.3,2-3.1,0.6s-3.7-2.5-6.5-3.9c-2.8-1.4-4.4-4.7-7-8c-1.4-1.8-2.3-3-3.1-4.1
		c-1.7-0.8-3.5-1.4-4-3c-0.7-2.1,1.3-1.8-0.2-6.1s-3.4-11.6-4.6-17.8c-1.2-6.2-2.2-13.4-2.9-15.5c-0.7-2.1-1.6-3.2-3.5-3.5
		s-8.1-0.1-4.8-1.7c3.2-1.6,4.7-4.4,6.6-4.1c1.7,0.2,1.9,0.3,4,0.6v0c0.6-4-0.6-3.1-1.6-3.2c-0.8-0.1-1.4-1.6-2.5-3.8
		c-0.5,3.7-1,6.3-2.5,3.2c-1.6-3.2-2.4-4.4-2.1-6.4s1.4-2.8,2.1-0.7c0.5,1.4,1.4,2.4,2,3c-0.1-0.2-0.2-0.5-0.3-0.7
		c-1.6-3.2-1.3-5.2-2.1-6.4s-3.1,0.6-5.2,1.3c-2.1,0.7-0.6,4,0.2,6.1c0.7,2.1,1.6,3.2-0.1,8.1s-0.7,5,1.2,6.2
		c1.8,1.3,7.4,26.3,8,29.4s2.1,6.4,0.7,9.2s-2.3,1.7-2.9,6.7c-0.7,5-0.6,4,1,7.2c1.6,3.2,2.3,5.4,1.6,10.3c-0.7,5-5.7,40.6-5.7,40.6
		s10.9,8.6,13.6,11c2.7,2.4,3.5,3.5,2.1,6.4s-7.9,13-10.3,15.7c-2.4,2.7-0.1,1-0.7,5s-10.3,8.7-12.4,9.4c-2.1,0.7-3.1,0.6-4.4,2.4
		c-1.3,1.8-2.7,4.7-5.8,5.3c-3.1,0.6-6.3,9.2-7.7,19.1s3.4,11.6,9.1,14.4c1.7,0.8,3.7,1.3,6,1.5C18,600.5,15.7,596.6,18.7,597z"/>
	<path class="st1" d="M127.6,460.8c-0.6,1.3-1.8,5.9-3.2,12.3c3-3.1,6.2-7.4,8.5-13.6c1.2-3.2,2.9-10.3,5.1-19
		C134.4,447.3,129.4,457.2,127.6,460.8z"/>
	<path class="st2" d="M106,333.6c3.1,6.5-0.3,2-3.4,2.6c-3.1,0.6-3.7-2.5-8.9-1.2c-5.2,1.3,1.3,5.2,5.3,5.8s7.4,5.1,14.6,11.1
		c7.2,6.1,7.9,8.2,4.3,5.6s-5.9-0.8-11.6-3.6s-5.7-2.8-10.2-6.5c-4.5-3.7-1.8-1.3-5.4,2.3c-3.5,3.5-1.4,2.8,3.3,5.5
		c4.7,2.7,1.8,1.3,5.9,0.8c4.1-0.4,2.6,3.4,5,7.8c2.4,4.4,3,0.4,4.4-2.4c1.4-2.8,3,0.4,6.8,2c3.8,1.5,0.9,1.1-2.4,2.7
		c-3.2,1.6-1.4,2.8-5.5,3.3c-4.1,0.4-2.4,2.7-3.3,8c-0.9,5.3-0.5,4.6-3.3,3.2s-1.8-1.3-1.4-4.2c0.4-3-2.4-4.4-6.2-5.9
		c-3.8-1.5,0.7,2.1,1.4,4.2c0.7,2.1,0.4,4.1,0.2,6.1s-3.7-2.5-4.8-8.8c-1.2-6.2-5.1-6.8-3.4-4.5c1.7,2.3,0.3,5.1,1.6,10.3
		c1.3,5.2-2.3,1.7-5.4,2.3s-2.4,2.7-4.1,0.4s-3-0.4-7.9-1.1c-5-0.7-4.1,0.4-5.8,5.3s-1,6.9,1,14.3s6.5,11,9.9,15.5
		c3.4,4.5,2.1,6.4,3.8,8.6c1.7,2.3-0.6,4-0.8,5.9s-0.7,5-2.4,2.7s-2.3,1.7-0.4,3c1.8,1.3,1.4,4.2,5.7,9.9s-2.3,1.7-8.1-0.1
		c-4.7-1.5-8.7-2.8-10.5-4.4c-0.2,1.9,3.7,2.5,8.5,4.2c4.8,1.7,6.7,2.9,8.5,4.2c1.8,1.3,4.5,3.7,5.9,0.8c1.4-2.8,3.7-4.5,3.9-6.5
		c0.3-2-4.8-1.7-4.4-4.7c0.4-3,1.5-3.8-1-7.2s-3.7-2.5-2.3-5.4s3.4-2.6,0.4-3c-3-0.4-2.8-1.4-1.7-2.3s2.1-0.7-0.7-2.1
		c-2.8-1.4-4.5-3.7-5.3-5.8c-0.7-2.1-6.8-9-7.5-11.1c-0.7-2.1-1.3-5.2-2-7.3c-0.7-2.1-2.3-5.4,0.4-10c2.7-4.7,3.5-3.5,5.5-3.3
		c2,0.3,2.1-0.7,5,0.7s4.8,1.7,5.9,0.8s1.1-0.9,3.1-0.6s2.8,1.4,4.1-0.4c1.3-1.8,1.3-1.8,1.8,1.3c0.6,3.1,0.3,5.1,0.6,10.2
		s-0.7,5,1.9,8.3c2.6,3.4,3.4,4.5,1.8,1.3c-1.6-3.2-1.4-4.2-0.3-5.1s1,0.1,1.8,1.3s1.6,3.2,2.7,2.4s1.3-1.8-0.6-3.1
		c-1.8-1.3-1.4-4.2-2.4-4.4c-1-0.1-1.7-2.3,0.1-1c1.8,1.3,3.5,3.5,5.5,3.8s3,0.4,3.7,2.5c0.7,2.1,0.6,3.1,2.6,3.4s4,0.6,2.3-1.7
		c-1.7-2.3-3.3-5.5-3.8-8.6s-0.3-5.1-2.1-6.4c-1.8-1.3-1.7-2.3-0.6-3.1s2,0.3,3,0.4c1,0.1,1.1-0.9,0.6-4s-2.4-4.4-0.3-5.1
		c2.1-0.7,5.2-1.3,5.5-3.3s-0.6-3.1,1.5-3.8c2.1-0.7,4.1-0.4,4.2-1.4c0.1-1,0.3-2-2.7-2.4c-3-0.4-6.7-2.9-2.7-2.4s5.9,0.8,7.8,2.1
		c1.8,1.3,3.8,1.5,4.8,1.7c1,0.1,2.1-0.7-0.7-2.1c-2.8-1.4-4.3-5.6-7-8c-2.7-2.4-0.6-3.1,1.5-3.8c2.1-0.7,3.1-0.6,4,0.6
		s2.4,4.4,5.1,6.8c2.7,2.4,4.4,4.7,4,0.6c-0.4-4.1-3-0.4-6.2-5.9c-3.3-5.5,0.1-1,2,0.3c1.8,1.3,2.8,1.4,1.3-1.8
		c-1.6-3.2-3.3-5.5-4.1-6.6s-2.6-3.4,0.3-2c2.8,1.4,1.6,3.2,5.5,3.8s4,0.6,6.9,1c3,0.4,3.1-0.6-1.7-2.3s-8.6-3.2-10.3-5.5
		s-2.1-6.4-3.1-6.5c-1-0.1-2.4-4.4-1.3-5.2s2.3-1.7,5,0.7c2.7,2.4,7.2,6.1,9.4,5.3c2.1-0.7,5.2-1.3,5.5-3.3s-0.3-5.1,2.4-2.7
		c2.7,2.4,8.6,3.2,9.8,2.4s2.4-2.7-1.4-4.2c-3.8-1.5-6.5-3.9-11.5-4.6c-5-0.7-5.7-2.8-8.6-3.2c-3-0.4-7.5-4.1-2.7-2.4
		s9.9,1.4,3.2-1.6c-6.7-2.9-9.1-7.3-3.5-3.5c5.5,3.8,14.3,6,18.4,5.6c4.1-0.4,7.3-2,11.2-0.5c3,1.2,9.8,3,12.7,2.1
		c0.1-0.1,0.1-0.2,0.2-0.3c8-14-5.3-12.9-15.3-13.2c-10-0.4-10.9-1.5-22.6-4.2c-11.7-2.7-13-7.9-15.7-10.3c-2.7-2.4-1.8-1.3-5.4,2.3
		c-3.5,3.5,0.4,4.1-2,6.8c-2.4,2.7-6.5,10.2-8,14c-1.5,3.8-5.6,4.3-4.2,8.5c0.2,0.7,0.2,1.4,0.1,2.1
		C102.1,324.8,103.5,328.5,106,333.6z"/>
	<path class="st2" d="M57.8,422.9c1-2.4,2.9-4.8,4.5-7.6c1.3-2.4,1.3-4.1,0.6-5.6c-0.1,0.4-0.3,0.8-0.4,1.1
		c-0.1,1.3-0.5,2.7-1.2,4.3C60.4,417.3,58.8,420.1,57.8,422.9z"/>
	<path class="st2" d="M57.2,424.9c-0.3,1.3-0.3,2.6,0.1,3.8c0.7,2,2.2,4,3.6,5.9c-1.2-2.1-2.6-4.5-3.4-6.9
		C57.2,426.8,57.1,425.9,57.2,424.9z"/>
	<path class="st2" d="M63.8,498.3c-0.6,0.9-1.1,1.7-1.5,2.5c0.6-0.9,1.4-2.1,2.7-4.3C64.5,497.3,64.1,497.9,63.8,498.3z"/>
	<path class="st2" d="M69.9,548.6c1.4-0.5,4.5-0.1,8.3,0.9c-1.6-1.7-2.6-2.9-5-2.5c-3.1,0.6-3.1,0.6-5,0.3
		C67.7,548.5,68,549.3,69.9,548.6z"/>
	<path class="st2" d="M60,510.9c-0.4,3.1-0.8,7.1-1.1,10.7c0.5-5.2,1.1-10.6,1.5-13.6C60.3,508.9,60.2,509.8,60,510.9z"/>
	<path class="st2" d="M137.9,440.4c0.4-1.6,0.8-3.3,1.3-5.1c-10.1,8.5-23.4,19.7-29.9,18.8c-6.9-1-14-0.9-17-1.4
		c-3-0.4-5.2,1.3-5.5,3.3c-0.3,2-2.3,1.7-1.8-1.3c0.4-3-0.4-4.1-3.5-3.5s-1.3,1.8-0.3,2c1,0.1,1.7,2.3-0.3,2s-2.7-2.4-2.3,1.7
		c0.4,4.1,2,7.3-1,6.9c-3-0.4-4.8-1.7-5.1,0.3c-0.2,1.7,0.3,3.5-0.2,3.9c0.4-0.2,1-0.1,1.7,0.3c1.8,1.3,0.9,1.1,2.1-0.7
		c1.3-1.8,1.4-2.8,0.4-3c0,0-0.1,0-0.1,0c0,0,0,0-0.1,0c-0.1,0-0.1,0,0,0c0,0,0,0,0.1,0c0,0,0.1,0,0.1,0c0,0,0,0,0,0
		c0.5,0.1,1.4,0.2,2,0.3c1,0.1,1.1-0.9,1.3-1.8c0.1-1,0.1-1,2.1-0.7c2,0.3-0.3,2,1.7,2.3s3,0.4,7.9,1.1c5,0.7,9.8,2.4,4.8,1.7
		c-5-0.7-9.2,0.7-10.2,0.6c-1-0.1-3.5,3.5-0.4,3s7.1,0,11.2-0.5c4.1-0.4,4,0.6,6.2-1.2s2.3-1.7,4.2-1.4c2,0.3,4.8,1.7,7.1,0
		s6.5-3.1,3.1-0.6s-6.5,3.1-8.5,2.9c-2-0.3-3.2,1.6-6.4,2.1s-7.2,1-10.2,0.6c-3-0.4-5.2,1.3-3.4,2.6c1.8,1.3,0.7,2.1,5.7,2.8
		c5,0.7,8.1,0.1,6.9,1s-2.3,1.7-4.2,1.4s-0.9-1.1-2.4,2.7c-1.5,3.8-2.9,6.7-1.2,8.9s1.6,3.2,3.4,4.5c1.8,1.3,2.7,2.4,3.8,1.5
		s1.4-2.8,2.1-0.7c0.7,2.1,0.7,2.1-1.4,2.8c-2.1,0.7-4.2,1.4-5-0.7c-0.7-2.1-0.6-3.1-2.4-4.4c-1.8-1.3-3.5-3.5-4-0.6
		c-0.4,3-2.8,19.8-4.3,23.6c-1.5,3.8-2.5,3.7-2,6.8s-2,6.8,2.3,5.4s0.9,1.1,3.5-3.5c0.4-0.7,0.7-1.1,0.8-1.3
		c0.2-0.7,0.8-2.4,2.3-6.4c4.8-12.5,7.3-16.1,5.5-10.3c-1.8,5.8-3.4,9.6-1.7,11.9c1.7,2.3,2.6,3.4,3.1-0.6s1.3-1.8,2.9-6.7
		s1.5-3.8,3.2-8.6s3.7-4.5,1.7-4.8s-4.1,0.4-3.7-2.5c0.4-3,1.5-3.8,3.4-2.6c1.8,1.3,1,0.1,2.4-2.7c1.4-2.8,1.7-4.8,2-6.8
		s-1.4-4.2-0.3-5.1s2.4-2.7-0.7-2.1s-8.3,1.9-5-0.7c3.4-2.6,4.2-1.4,5.4-2.3s0.6-4,2.5-3.7s2.1-0.7,3.5,3.5c0.5,1.5,0.8,2.3,1,3
		c1.5-1.3,3.6-3.1,5.9-5.5c1.4-6.3,2.6-11,3.2-12.3C129.4,457.2,134.4,447.3,137.9,440.4z"/>
	<path class="st2" d="M70.3,489.1c2.1-2.6,3.8-4.6,4.7-6.2C73.4,484.9,71.8,487.1,70.3,489.1z"/>
	<path class="st2" d="M78.3,478.9c0,0.3-0.3,0.9-1,2.1c-2.7,4.7-11.4,16.6-11.7,18.6s-1.7,4.8-2.1,7.8c-0.4,3-2.2,15.8-2.6,18.8
		c-0.4,3-2.9,6.7,0.2,6.1c2.1-0.4,4.7-0.3,6.7,0c1.3-1.2,3-1.6,4.6-1.4c2,0.3,5.9,0.8,6.4-2.1c0.4-3,3.1-14.7,3.6-18.7
		s0.4-10,1.4-9.9c1,0.1,1.1-0.9,1.4-2.8s0.4-3,1.4-2.8c1,0.1,1.3-1.8,0.4-3s1,0.1,1.3-1.8s0.4-3-1.6-3.2s-0.7-2.1-1.4-4.2
		c-0.6-1.9-2.7-4.8-2.3-6.7c-0.2,0.1-0.5,0.2-0.9,0.2C81.3,475.8,80,477,78.3,478.9z"/>
	<path class="st2" d="M71.6,471.1c1.1,0.2,2.2,0.2,3.3,0.3c-1.6-0.4-2.8-0.8-3.2-1.3c-0.5-0.7-0.2-1.7,0.5-2c-0.1,0-0.1,0.1-0.2,0
		C71.1,468,67.7,470.6,71.6,471.1z"/>
	<path class="st2" d="M83.6,474.2c1-1.3,1.4-1.2-2.1-1.7C82.4,473.1,83.3,473.7,83.6,474.2z"/>
	<path class="st2" d="M57.7,534c0-0.3,0.1-0.5,0.1-0.8c-0.7,2.2-1.7,3.3,1.7,3c4.1-0.4,6.4-2.1,7.2-1s4.4,4.7,4.3,5.6
		c-0.1,1,0.7,2.1-0.4,3c2.1-0.7,5.1-0.3,3.2-1.6c-1.8-1.3-3.4-4.5-4.3-5.6c-0.6-0.8-2.4-1.3-2.8-2.2l-7.2,1.2L57.7,534z"/>
	<path class="st3" d="M76.5,464.7c0,0,0.1,0,0.1,0c0,0,0,0,0,0C76.5,464.7,76.5,464.7,76.5,464.7z"/>
	<path class="st3" d="M76.4,464.7C76.3,464.7,76.3,464.7,76.4,464.7L76.4,464.7z"/>
	<path class="st3" d="M76.5,464.7C76.4,464.7,76.4,464.7,76.5,464.7C76.4,464.7,76.4,464.7,76.5,464.7z"/>
	<path class="st3" d="M113.9,472c-2-0.3-1.4,2.8-2.5,3.7s-2-0.3-5.4,2.3c-3.4,2.6,1.8,1.3,5,0.7s1.8,1.3,0.7,2.1s0.6,3.1,0.3,5.1
		s-0.6,4-2,6.8c-1.4,2.8-0.6,4-2.4,2.7c-1.8-1.3-3-0.4-3.4,2.6c-0.4,3,1.7,2.3,3.7,2.5s0,0-1.7,4.8s-1.5,3.8-3.2,8.6
		s-2.4,2.7-2.9,6.7s-1.4,2.8-3.1,0.6c-1.7-2.3-0.2-6.1,1.7-11.9c1.8-5.8-0.7-2.1-5.5,10.3c-1.5,3.9-2.1,5.7-2.3,6.4
		c-0.1,0.2-0.4,0.6-0.8,1.3c-2.7,4.7,0.7,2.1-3.5,3.5s-1.7-2.3-2.3-5.4s0.4-3,2-6.8c1.5-3.8,3.9-20.7,4.3-23.6c0.4-3,2.1-0.7,4,0.6
		c1.8,1.3,1.7,2.3,2.4,4.4c0.7,2.1,2.8,1.4,5,0.7c2.1-0.7,2.1-0.7,1.4-2.8c-0.7-2.1-1-0.1-2.1,0.7s-2-0.3-3.8-1.5
		c-1.8-1.3-1.7-2.3-3.4-4.5s-0.3-5.1,1.2-8.9c1.5-3.8,0.4-3,2.4-2.7s3.1-0.6,4.2-1.4s-2-0.3-6.9-1c-5-0.7-3.8-1.5-5.7-2.8
		c-1.8-1.3,0.4-3,3.4-2.6c3,0.4,7.1,0,10.2-0.6s4.4-2.4,6.4-2.1c2,0.3,5.1-0.3,8.5-2.9s-0.9-1.1-3.1,0.6s-5.1,0.3-7.1,0
		c-2-0.3-2-0.3-4.2,1.4s-2.1,0.7-6.2,1.2c-4.1,0.4-8.1-0.1-11.2,0.5s-0.6-3.1,0.4-3c1,0.1,5.2-1.3,10.2-0.6c5,0.7,0.1-1-4.8-1.7
		c-5-0.7-5.9-0.8-7.9-1.1s0.3-2-1.7-2.3c-2-0.3-2-0.3-2.1,0.7c-0.1,1-0.3,2-1.3,1.8c-0.6-0.1-1.5-0.2-2-0.3c1,0.1,0.9,1.1-0.4,3
		c-1.3,1.8-0.3,2-2.1,0.7c-0.7-0.5-1.2-0.5-1.7-0.3c0,0-0.1,0-0.1,0c-0.7,0.3-1,1.3-0.5,2c0.4,0.5,1.6,0.9,3.2,1.3
		c1.9,0.4,4.4,0.8,6.6,1.1c3.5,0.5,3.1,0.4,2.1,1.7c-0.1,0.2-0.3,0.3-0.4,0.5c-0.1,0.2-0.2,0.4-0.3,0.6c-0.5,1.9,1.6,4.8,2.3,6.7
		c0.7,2.1-0.6,4,1.4,4.2s1.8,1.3,1.6,3.2s-2.1,0.7-1.3,1.8s0.6,3.1-0.4,3c-1-0.1-1.1,0.9-1.4,2.8s-0.4,3-1.4,2.8
		c-1-0.1-0.8,5.9-1.4,9.9s-3.2,15.7-3.6,18.7c-0.4,3-4.4,2.4-6.4,2.1c-1.6-0.2-3.3,0.2-4.6,1.4c0.9,0.1,1.7,0.2,2.3,0.3
		c2,0.3,4,0.6,0.9,1.1l-4.2,0.7c0.4,0.9,2.2,1.3,2.8,2.2c0.9,1.1,2.4,4.4,4.3,5.6c1.8,1.3-1.1,0.9-3.2,1.6c-2.1,0.7-1.4,2.8-3.4,2.6
		s-3.8-1.5-6.7-2.9s-1.3,1.8,0.6,3.1c1.8,1.3,5,0.7,6.9,1c0,0,0,0,0,0c1.9,0.3,2,0.3,5-0.3c2.4-0.5,3.4,0.8,5,2.5
		c0.4,0.5,0.9,1,1.5,1.5c2.7,2.4,0.6,3.1-1,6.9c-1.5,3.8-2.8,5.7-6.3,9.2c-3.5,3.5-3.1,0.6-5-0.7c-1.8-1.3-2.7-2.4-3.4-4.5
		c-0.7-2.1-1.6-3.2-2.7-2.4s-3.2,1.6-4.9,6.4s-2.4,2.7-4.7,4.4c-2.3,1.7-2.1,0.7-3-0.4s-2.7-2.4-5.5-3.8s0.3-2-1.6-3.2
		c-1.8-1.3-5.4,2.3-2.4,2.7c3,0.4-0.3,2,3.4,4.5s3.5,3.5,2.6,3.4c-1-0.1-0.3,2-0.6,4s-2.3,1.7-4-0.6s-4.7-2.7-7.8-2.1
		c-3.1,0.6-8.6,3.8-11.3,8.5c-2.7,4.7-4.5,10.5-1.7,11.9s2.7,2.4-1.3,1.8c-3-0.4-0.7,3.4,1.3,5.9c5.5,0.5,12.1-0.5,17.2-1.2
		c7.2-1,17-5.7,22.9-4.9c5.9,0.8,11,0.5,16.3-0.8c5.2-1.3,6.4-2.1,8.2-7.9c1.8-5.8,2.2-8.8,6.3-16.3s8.8-27,11.8-40.8
		c2.9-13.7,4.6-18.5,8.3-23.1c3.7-4.5,2.1-19.8,5.9-27.5c0.3-0.6,0.9-1.2,1.7-2c-0.2-0.7-0.5-1.5-1-3
		C116,471.3,115.9,472.3,113.9,472z"/>
	<path class="st3" d="M61.1,532.2c-3.1,0.6-0.6-3.1-0.2-6.1c0.4-3,2.2-15.8,2.6-18.8c0.4-3,1.8-5.8,2.1-7.8s9-13.9,11.7-18.6
		c0.7-1.2,1-1.8,1-2.1c0-0.8-2.2,1.7-3.2,3.8c0,0.1-0.1,0.1-0.1,0.2c-0.8,1.6-2.6,3.6-4.7,6.2c-1.7,2.1-3.5,4.5-5.2,7.3
		c0,0,0,0,0,0.1c-1.3,2.2-2.2,3.4-2.7,4.3c-1.1,1.7-1.2,2.2-1.7,6.1c0,0.3-0.1,0.7-0.1,1.1c-0.4,3-1,8.4-1.5,13.6
		c-0.5,4.5-0.9,8.8-1.1,11.5c0,0.3-0.1,0.6-0.1,0.8l1.9,1.5l7.2-1.2l4.2-0.7c3.1-0.6,1.1-0.9-0.9-1.1c-0.6-0.1-1.4-0.2-2.3-0.3
		C65.8,532,63.2,531.9,61.1,532.2z"/>
	<path class="st3" d="M48.2,454.1c0.8,1,1.7,2.2,3.1,4.1c2.6,3.4,4.1,6.6,7,8c2.8,1.4,3.7,2.5,6.5,3.9s5,0.7,3.1-0.6
		c-4.7-2.7-7.5-4.1-9.9-8.5c-2.4-4.4-4.4-4.7-4.8-8.8c-0.1-0.7-0.1-1.4-0.2-2c-0.4,0.2-0.8-0.1-1.3-0.6l-1.9,5.2
		C49.2,454.6,48.7,454.4,48.2,454.1z"/>
	<path class="st3" d="M62.3,415.3c-1.6,2.8-3.5,5.2-4.5,7.6c-0.3,0.7-0.5,1.4-0.6,2.1c-0.1,0.9-0.1,1.8,0.3,2.8
		c0.8,2.4,2.2,4.8,3.4,6.9c1,1.6,1.8,3.1,2.1,4c0.1,0.4,0.4,0.8,0.9,1.2c1.8,1.6,5.8,3,10.5,4.4c5.8,1.8,12.3,5.8,8.1,0.1
		s-3.8-8.6-5.7-9.9c-1.8-1.3-1.3-5.2,0.4-3s2.1-0.7,2.4-2.7s2.5-3.7,0.8-5.9c-1.7-2.3-0.4-4.1-3.8-8.6c-3.4-4.5-7.9-8.2-9.9-15.5
		s-2.7-9.5-1-14.3s0.8-5.9,5.8-5.3c5,0.7,6.2-1.2,7.9,1.1s1,0.1,4.1-0.4s6.7,2.9,5.4-2.3c-1.3-5.2,0.1-8.1-1.6-10.3
		c-1.7-2.3,2.3-1.7,3.4,4.5c1.2,6.2,4.6,10.7,4.8,8.8s0.6-4-0.2-6.1c-0.7-2.1-5.3-5.8-1.4-4.2c3.8,1.5,6.7,2.9,6.2,5.9
		c-0.4,3-1.4,2.8,1.4,4.2s2.4,2.2,3.3-3.2c0.9-5.3-0.8-7.6,3.3-8c4.1-0.4,2.3-1.7,5.5-3.3c3.2-1.6,6.2-1.2,2.4-2.7
		c-3.8-1.5-5.4-4.8-6.8-2c-1.4,2.8-2,6.8-4.4,2.4c-2.4-4.4-0.9-8.2-5-7.8c-4.1,0.4-1.3,1.8-5.9-0.8c-4.7-2.7-6.8-2-3.3-5.5
		c3.5-3.5,0.8-5.9,5.4-2.3c4.5,3.7,4.5,3.7,10.2,6.5s7.9,1.1,11.6,3.6s3,0.4-4.3-5.6c-7.2-6.1-10.6-10.6-14.6-11.1
		s-10.5-4.5-5.3-5.8c5.2-1.3,5.8,1.8,8.9,1.2c3.1-0.6,6.5,3.9,3.4-2.6c-2.4-5.1-3.9-8.8-6.2-10.9c-0.8,3.4-5.7,6.5-7.5,8
		c-2.3,1.7-5.5,3.3-5.9,6.2c-0.4,3,1.2,6.2-2,12.6s-2.7,6.9-5.8,7.5s-5.5,3.3-8,7c-2.5,3.7-3.8,5.5-8.3,8.9s-4.8,12.5-4.9,20.5
		s2.7,9.5,5.3,12.9c0.8,1,0.8,2.2,0.4,3.4C63.6,411.2,63.6,412.9,62.3,415.3z"/>
	<path class="st2" d="M28.2,406.5c-3.2,1.6,2.8,1.4,4.8,1.7s2.8,1.4,3.5,3.5c0.7,2.1,1.7,9.3,2.9,15.5c1.2,6.2,3.2,13.6,4.6,17.8
		s-0.6,4,0.2,6.1c0.5,1.6,2.4,2.2,4,3c0.5,0.2,1,0.5,1.5,0.8l1.9-5.2c-0.6-0.7-1.3-1.8-1.8-2.9c-1.6-3.2-11.6-40-11-43.9
		c-2-0.3-2.2-0.3-4-0.6C32.8,402.1,31.4,404.9,28.2,406.5z"/>
	<path class="st2" d="M32.2,391.9c-0.7-2.1-1.8-1.3-2.1,0.7s0.6,3.1,2.1,6.4c1.5,3.1,1.9,0.5,2.5-3.2c-0.1-0.3-0.3-0.6-0.4-1
		C33.6,394.3,32.7,393.3,32.2,391.9z"/>
</g>
<path class="st2" d="M159,354c11.4,0,31-7,38-7s15-3,14,3s3,13-5,13s-6-2-13,2s-10,6-8,2s-1-5-5-6s-7-3-15,0S157,354,159,354z"/>
<path class="st2" d="M143,345c-3.2,0-7,11,0,9s33-6,38-7s13-2-3-2S151,345,143,345z"/>
<path class="st3" d="M240,147c3,1,4,1,6,1c0.7,0,1.5,0,2.4,0.1c3.5-0.8,6.2-0.7,8.3-0.2c0-0.2,0.4-0.2,1.3,0.1c3,1,6,3,3-1
	s-12-13-24-13c-3,0-4,1-4-1s-1-1-3-1s-3,1-2-1s0-2-1-4s-4-3-5,0s-4,4-8,5s-8,2-8,4s-1,4,1,4s1,2,4,1s5-3,2-4s0-2,4-3s5-3,3,0
	s-2,3-3,4s-5.4,4.6-2.2,3.3c3.2-1.3,6.2,0.7,4.2,1.7s-3,2-2,2s2-3,5-2s8,0,6,2s-6,2-10,3s-2,4,1,3s9-2,10-3s4-2,5-2S237,146,240,147
	z"/>
<path class="st3" d="M110,259c2,1,7,2,6,5s0,6,2,9s4,5,5,5s4,1,2,2s-7,1-4,3s3,2,5,2s2,2,0,2s-4-2-5-2s-1,0-1,3s0.8,4.3,3.9,6.1
	c3.1,1.9,4.1,2.9,4.1,3.9s2,4,3,4s2,1,2-2s-1-2,1-2s17,3,19,2s3-1,3,1s-1.2,3.8,0.9,2.4c2.1-1.4,7.1-0.4,7.1-1.4s0-5,2-5s3-1,4,2
	s0.2,5.2,1.1,7.1c0.9,1.9,1.9,4.9-1.1,4.9s-1-2-4-2s-4,0-7-1s-3-2-5-1s-4,1-5,3s-2,2-7,2s-10-2-13-4s-2-4-5-2s-3,1-4,0s-1,0-1-3
	s2-4,2-6s0-4-1-4s-2-1-2,1s2,2,1,4s0,2-2,2s-3,0-3,1s1,0,2,1s-1.6,0.8-2.8,1.9C112,305,111,305,112,302s0-6-1-8s4-13,4-13l-3-18
	L110,259z"/>
<path class="st2" d="M278,165c-2,1-3,3-6-2s-4-8-5-9s-5-4-1,3s3,3,5,7s5,7,7,7S278,165,278,165z"/>
</svg>
