<svg xmlns="http://www.w3.org/2000/svg" viewBox="0 0 468.9 174"><style type="text/css">  
	.st0{fill:#042235;}
</style><path class="st0" d="M335.8 124.7c-0.4-0.1-0.7-0.2-1-0.2 -0.4-0.1-0.8-0.2-1.1-0.2 -0.2 0-0.4-0.2-0.5-0.4 -0.1-0.1-0.1-0.2-0.2-0.3 -0.2-0.7-0.4-1.3-0.5-2 0-0.2-0.1-0.4 0-0.6 0.1-0.8 0.3-1.6 0.7-2.3 0.3-0.7 1.7-1.3 2.5-1 0.3 0.1 0.6 0.2 0.9 0.3 1.1 0.4 2.2 0.3 3.3 0.5 0.3 0 0.7 0.1 1 0.2 0.5 0.2 0.9 0.2 1.4 0.3 0.5 0 0.9 0.1 1.3 0.3 0.7 0.2 1.4 0.3 2.1 0.4 0.5 0 0.9 0.1 1.3 0.3 1 0.3 2 0.7 2.9 1.1 0.6 0.2 1.1 0.5 1.7 0.7 0.9 0.5 1.7 1 2.3 1.8 0.7 1 1.6 2 2.4 3 0.4 0.4 0.6 0.9 0.9 1.3 0.7 1.3 1.2 2.6 1.8 3.9 0.2 0.5 0.3 1 0.4 1.5 0.3 1.4 0.5 2.8 0.8 4.2 0.3 1.6 0.5 3.2 0.5 4.8 0 0.5 0 0.9 0.1 1.4 0 0.3 0 0.5 0 0.8 -0.1 0.6-0.1 1.3-0.2 1.9 0 0.4-0.1 0.9-0.3 1.3 -0.1 0.2-0.1 0.4-0.2 0.7 -0.4 0.9-0.6 1.8-1.2 2.6 -0.5 0.6-0.9 1.3-1.3 2 -0.2 0.3-0.4 0.7-0.8 0.9 -0.1 0.1-0.2 0.2-0.3 0.4 -0.4 0.7-1.1 1.2-1.8 1.6 -0.3 0.2-0.5 0.4-0.7 0.7 -0.1 0.2-0.4 0.4-0.6 0.5 -0.3 0.2-0.7 0.3-1 0.4 -1 0.2-2 0.6-3 0.8 -0.2 0-0.3 0.1-0.5 0.1 -0.7 0-1.3 0.1-2 0.1 -0.8 0.1-1.6 0-2.4 0 -0.7-0.1-1.4 0-2.1 0 -0.2 0-0.4 0-0.5 0.1 -0.5 0.2-1 0.3-1.6 0.4 -0.5 0.1-1 0-1.4-0.3 -0.3-0.2-0.6-0.5-0.8-0.8 -0.7-0.8-1.3-1.7-2-2.5 -0.3-0.4-0.4-0.7-0.4-1.2 0.1-1.3 0.1-2.6 0.1-3.9 0-0.9 0.1-1.9 0-2.8 -0.1-1.2-0.1-2.4 0-3.6 0-0.2 0-0.5 0-0.7 -0.2-1.1-0.1-2.3 0-3.4 0-0.7 0-1.4 0-2.1 0-0.6 0-1.2 0-1.8 0-0.8 0-1.5 0-2.3 -0.1-1.6-0.1-3.1 0-4.7 0-0.6 0-1.1-0.1-1.7 -0.1-0.3 0-0.7 0-1C335.8 125.3 335.8 125.1 335.8 124.7zM341.4 139.3C341.4 139.3 341.4 139.3 341.4 139.3c0.1 4.2 0.2 8.3 0.2 12.4 0 0.8 0.2 1 1 1.1 0.1 0 0.2 0 0.2 0 0.7 0 1.4 0 2.1 0 0.8 0 1.7-0.2 2.5-0.2 0.2 0 0.4-0.1 0.6-0.2 0.5-0.4 1.1-0.5 1.6-0.6 0.6-0.2 1-0.4 1.4-0.8 0.2-0.2 0.4-0.3 0.5-0.4 0.5-0.4 1-0.7 1.4-1.1 0.5-0.5 1-1.1 1.5-1.6 0.6-0.6 0.9-1.4 1.5-1.9 0.2-0.5 0.7-0.9 0.6-1.6 0-0.1 0.1-0.2 0.1-0.4 0.2-0.7 0.2-1.4 0.1-2 -0.1-0.4-0.2-0.8-0.1-1.1 0-0.4-0.1-0.8-0.2-1.2 -0.3-0.8-0.5-1.6-0.8-2.5 -0.2-0.6-0.4-1.2-0.7-1.8 -0.2-0.4-0.4-0.9-0.7-1.3 -0.3-0.6-0.7-1.2-1.3-1.7 -0.1-0.1-0.2-0.2-0.3-0.3 -0.4-0.6-0.9-1-1.6-1.3 -0.2-0.1-0.4-0.3-0.6-0.4 -0.2-0.2-0.5-0.4-0.7-0.5 -0.7-0.4-1.4-0.9-2.1-1.3 -0.4-0.2-0.8-0.4-1.2-0.7 -0.8-0.6-1.7-0.9-2.7-1 -0.8-0.1-1.6-0.1-2.3-0.4 0 0-0.1 0-0.1 0 -0.3 0-0.4 0.1-0.4 0.4 0 0.5 0 1.1 0 1.6C341.2 131.9 341.3 135.6 341.4 139.3z"/><path class="st0" d="M32.9 109.6c0-0.1 0-0.1 0.1-0.2 0.4-1 1.3-1.2 2.4-1 0.6 0.1 1.1 0.5 1.4 1.1 0.8 1.3 1.4 2.7 1.9 4.2 0.1 0.2 0.2 0.4 0.3 0.6 0.1 0.3 0.3 0.5 0.4 0.7 0.3 0.6 0.5 1.2 0.9 1.7 0.2 0.2 0.3 0.5 0.4 0.8 0 0.1 0 0.2 0.1 0.2 0.4 0.3 0.4 0.9 0.7 1.3 0.1 0.1 0.1 0.2 0.1 0.4 0 0.1 0.1 0.3 0.1 0.4 0.3 0.5 0.5 1.1 0.6 1.6 0.1 0.4 0.3 0.9 0.5 1.3 0.3 0.6 0.7 1.3 0.9 1.9 0.2 0.6 0.5 1.1 0.8 1.6 0.3 0.5 0.4 1.2 0.7 1.7 0.2 0.4 0.4 0.8 0.6 1.2 0.2 0.4 0.3 0.8 0.4 1.1 0.3 0.6 0.5 1.3 0.8 1.9 0.4 0.9 0.8 1.8 1.1 2.8 0.1 0.2 0.1 0.3 0.2 0.5 0.1 0.3 0.2 0.6 0.4 0.9 0.1 0.1 0.1 0.3 0.2 0.5 0.2 0.7 0.5 1.4 0.8 2.1 0.3 0.6 0.5 1.2 0.6 1.8 0.2 1 0.5 1.9 1.1 2.8 0.2 0.2 0.2 0.5 0.4 0.8 0.1 0.1 0.2 0.2 0.3 0.4 0.5-1.4 1.1-2.6 1.8-3.8 0.2-0.4 0.4-0.7 0.6-1.2 0.1-0.4 0.3-0.7 0.5-1 0.1-0.3 0.3-0.5 0.5-0.8 0.2-0.4 0.4-0.7 0.6-1.1 0.3-0.7 0.7-1.4 1-2.1 0.2-0.4 0.3-0.9 0.4-1.4 0.2-0.9 0.5-1.7 0.8-2.5 0.4-1.3 0.9-2.5 1.3-3.9 0.2-0.6 0.5-1.2 0.7-1.9 0.2-0.6 0.5-1.1 0.7-1.7 0.4-1.1 0.7-2.2 1.1-3.3 0.3-0.8 0.6-1.6 0.9-2.3 0.4-0.8 0.7-1.7 1.1-2.5 0.2-0.5 0.4-0.9 0.6-1.4 0.1-0.3 0.3-0.7 0.4-1 0.1-0.2 0.2-0.4 0.5-0.5 0.3-0.1 0.5-0.2 0.7-0.4 0.2-0.2 0.5-0.5 0.7-0.7 0.4-0.4 0.7-0.5 1.2-0.2 0.4 0.2 0.8 0.4 1.1 0.7 0.5 0.3 0.6 0.9 0.4 1.4 -0.3 0.8-0.5 1.7-0.8 2.5 -0.4 1.3-0.9 2.6-1.4 3.9 -0.4 0.8-0.6 1.7-0.9 2.6 -0.1 0.4-0.3 0.8-0.4 1.1 -0.2 0.6-0.4 1.1-0.7 1.7 -0.3 0.8-0.7 1.5-1 2.2 -0.3 0.8-0.6 1.6-1 2.4 -0.1 0.2-0.1 0.4-0.2 0.6 -0.3 0.7-0.7 1.4-1 2.1 -0.2 0.5-0.5 1-0.7 1.4 -0.4 1.1-0.9 2.2-1.4 3.3 -0.3 0.6-0.4 1.2-0.5 1.8 -0.1 0.8-0.5 1.5-0.8 2.2 -0.3 0.6-0.5 1.2-0.8 1.7 -0.1 0.2-0.3 0.4-0.4 0.6 -0.6 0.9-1 1.8-1.4 2.8 -0.5 1.2-1 2.4-1.4 3.7 -0.5 1.4-1.2 2.8-1.8 4.2 -0.1 0.4-0.3 0.8-0.4 1.2 -0.1 0.4-0.2 0.7-0.3 1.1 0 0.2-0.1 0.4-0.1 0.6 0 0.2 0 0.5 0 0.7 0 0.5-0.4 0.9-0.9 0.9 -0.4 0-0.8 0-1.2 0 -0.3 0-0.7-0.1-1-0.2 -0.3-0.1-0.6-0.2-0.7-0.5 -0.3-0.6-0.5-1.3-0.8-1.9 -0.2-0.4-0.3-0.8-0.5-1.2 -0.2-0.5-0.5-1-0.6-1.6 0-0.2-0.2-0.4-0.3-0.6 -0.2-0.5-0.3-1-0.5-1.4 -0.3-0.8-0.6-1.6-0.9-2.4 -0.3-0.8-0.6-1.5-1-2.3 -0.1-0.2-0.2-0.5-0.2-0.7 -0.2-0.5-0.3-1.1-0.5-1.6 -0.2-0.4-0.2-0.8-0.4-1.2 -0.4-1.1-0.7-2.3-1.2-3.4 -0.4-0.9-0.6-1.9-0.9-2.9 0-0.1 0-0.3-0.1-0.4 -0.3-0.3-0.3-0.6-0.4-0.9 -0.4-1.1-0.7-2.1-1.1-3.2 -0.3-0.7-0.7-1.4-1-2 -0.3-0.6-0.6-1.3-0.7-2 -0.1-0.6-0.3-1.2-0.5-1.8 -0.1-0.2-0.1-0.3-0.3-0.5 -0.5-0.5-0.7-1.2-0.9-1.8 -0.4-1-0.7-2.1-1.2-3.1 -1-2.1-1.6-4.3-2.4-6.5 -0.2-0.5-0.3-0.9-0.4-1.4 -0.1-0.6 0.1-1 0.7-1.3 0.1-0.1 0.2-0.1 0.4-0.1 0.6-0.2 0.8-0.6 0.6-1.2C33.2 110.2 33.1 109.9 32.9 109.6z"/><path class="st0" d="M240.5 116.1c0.3 0 0.6 0.2 0.9 0.4 0.4 0.4 0.8 0.7 1.2 1.1 0.4 0.4 0.7 0.8 0.8 1.4 0.1 0.2 0.2 0.5 0.3 0.7 0.2 0.3 0.4 0.6 0.4 1 0.3 1.4 0.7 2.8 0.8 4.2 0 0.3 0 0.6 0 0.8 0 0.3 0 0.6 0.1 0.8 0.1 0.5 0.2 1.1 0.2 1.6 0 0.6 0.2 1.3 0.3 1.9 0.1 0.6 0.1 1.2 0.2 1.8 0.2 1.1 0.3 2.3 0.5 3.4 0 0.2 0.1 0.4 0.2 0.7 0.1 0.3 0.2 0.5 0.2 0.8 0 0.7 0.2 1.4 0.3 2.1 0.1 0.7 0.2 1.4 0.3 2 0.1 0.6 0.3 1.2 0.4 1.8 0.1 0.5 0.3 1.1 0.3 1.6 0 0.1 0 0.3 0.1 0.4 0.4 1.2 0.4 2.4 0.7 3.6 0.1 0.5 0.1 1 0.1 1.5 0 0.5 0 0.9 0.1 1.4 0.1 0.4 0.1 0.8 0.2 1.2 0.1 0.5 0.2 1.1 0.3 1.6 0.2 0.7 0.2 2 0 2.5 -0.3 0.8-0.9 1.2-1.8 1.1 -0.5-0.1-0.9-0.2-1.2-0.6 -0.3-0.3-0.6-0.7-1-1 -0.3-0.3-0.5-0.6-0.8-0.9 -0.3-0.4-0.4-0.8-0.4-1.3 0-1.1-0.1-2.1-0.2-3.1 0-0.1 0-0.3-0.1-0.4 0-0.2-0.2-0.3-0.4-0.3 -0.2 0-0.3 0-0.5 0 -1.1 0.1-2.2 0.2-3.4 0.3 -1.1 0-2.3 0.2-3.4 0.3 -1.6 0.1-3.2 0.3-4.7 0.4 -0.2 0-0.5 0-0.8-0.1 -0.3 0-0.5 0.1-0.6 0.4 -0.1 0.9-0.4 1.7-0.7 2.5 -0.2 0.5-0.4 1.1-0.5 1.6 -0.1 0.6-0.6 0.8-1.1 0.9 -0.3 0.1-0.7 0-1.1 0 -0.1 0-0.2 0-0.3-0.1 -0.3-0.3-0.6-0.2-0.9-0.2 -0.4 0.1-0.7 0.2-1.1 0.3 -0.2 0.1-0.4 0.1-0.6 0.1 -0.4 0-0.8-0.2-1-0.6 -0.3-0.6-0.6-1.1-0.8-1.7 -0.2-0.7-0.3-1.5 0-2.2 0.2-0.5 0.4-0.9 0.6-1.4 0.3-0.8 0.5-1.6 0.7-2.4 0.4-2 0.8-4 1.4-5.9 0.1-0.5 0.3-0.9 0.5-1.4 0.3-0.9 0.6-1.8 0.9-2.8 0.3-0.9 0.5-1.8 0.7-2.7 0.2-0.6 0.4-1.1 0.7-1.7 0.4-0.8 0.8-1.7 1.1-2.6 0.1-0.3 0.3-0.6 0.4-0.9 0.6-1.1 0.9-2.2 1.4-3.3 0.3-0.8 0.6-1.7 1.1-2.5 0.3-0.4 0.5-0.8 0.8-1.2 0.2-0.4 0.5-0.8 0.7-1.2 0.1-0.1 0.1-0.2 0.1-0.3 0.6-0.7 0.9-1.6 1.5-2.4 0.4-0.7 0.9-1.4 1.4-2.1 0.5-0.7 1.1-1 1.9-1 0.4 0 0.9-0.1 1.3 0.1 0.1 0.1 0.3 0 0.4 0C240.1 116.3 240.3 116.2 240.5 116.1zM243.1 144.3c0-0.2 0.1-0.4 0-0.6 0-0.5-0.1-1.1-0.1-1.6 -0.1-0.8 0-1.5-0.3-2.3 0-0.1 0-0.2 0-0.2 -0.1-0.7-0.1-1.4-0.2-2.1 -0.1-1-0.3-2.1-0.4-3.1 0-0.1 0-0.2-0.1-0.2 -0.2-0.5-0.2-1-0.3-1.5 -0.1-0.6-0.2-1.2-0.4-1.8 -0.1-0.4-0.3-0.8-0.3-1.3 -0.1-0.9-0.2-1.9-0.5-2.8 0-0.1 0-0.3 0-0.4 0-0.7 0-1.5-0.2-2.2 -0.1-0.5-0.2-1.1-0.3-1.7 0-0.2-0.1-0.4-0.3-0.4 -0.2 0.1-0.3 0.4-0.4 0.6 -0.1 0.3-0.2 0.6-0.4 0.9 -0.4 0.6-0.4 1.3-0.7 1.9 -0.1 0.9-0.5 1.8-0.9 2.6 -0.1 0.1-0.1 0.2-0.1 0.4 0 0.6-0.3 1.2-0.4 1.8 -0.1 0.4-0.2 0.7-0.3 1 -0.2 0.5-0.5 1.1-0.5 1.7 0 0.3-0.1 0.6-0.3 0.9 -0.2 0.4-0.4 0.9-0.6 1.3 -0.3 0.6-0.5 1.3-0.7 2 0 0.1-0.1 0.3-0.1 0.4 -0.1 0.2-0.2 0.4-0.2 0.7 -0.1 1-0.6 2-0.8 3 -0.1 0.5-0.4 1-0.6 1.4 -0.1 0.4-0.2 0.8-0.4 1.2 -0.2 0.4-0.1 0.9-0.3 1.3 0 0.1 0 0.2 0 0.3 0.2 0 0.3 0 0.4 0 0.5-0.1 0.9-0.2 1.4-0.3 1.3-0.2 2.7-0.5 4-0.7 0.3-0.1 0.7-0.1 1-0.2 0.8-0.2 1.5-0.1 2.3-0.1 0.6 0 1.2-0.1 1.8 0.2C243 144.4 243 144.3 243.1 144.3z"/><path class="st0" d="M421.1 156.4c-0.4-0.2-0.8-0.2-1.3-0.2 -0.7 0.1-1.4 0-2.1 0 -0.2 0-0.4 0-0.5 0 -0.8 0-1.5-0.3-2.2-0.6 -0.4-0.2-0.8-0.3-1.2-0.4 -0.6-0.2-1.2-0.5-1.6-0.8 -0.4-0.3-0.9-0.6-1.3-1 -0.5-0.6-0.9-1.3-1.2-1.9 -0.2-0.4-0.3-0.8-0.5-1.1 -0.2-0.4-0.2-0.8-0.2-1.3 0-0.3 0-0.5 0-0.8 -0.1-1.7 0.5-3.2 1.7-4.4 0.1-0.1 0.1-0.1 0.2-0.2 1.2-0.8 2.4-1.7 3.8-2.1 0.8-0.2 1.5-0.4 2.3-0.7 1.1-0.4 2.3-0.6 3.5-0.8 0.9-0.2 1.8-0.3 2.8-0.2 0.3 0 0.6 0.1 0.9 0.3 0.6 0.5 1.1 0.9 1.4 1.6 0.3 0.5 0.6 1 0.7 1.5 0.1 0.8 0.3 1.5 0.1 2.4 -0.4 1.8-0.6 3.7-0.5 5.6 0 0.3 0.1 0.6 0.1 0.8 0.1 0.4 0.2 0.8 0.2 1.1 0 0.1 0 0.3 0 0.4 -0.4 1.2-0.5 2.5-0.3 3.8 0.1 0.5 0.1 0.9 0.1 1.4 0.1 1.1 0.1 2.2 0.2 3.3 0.1 1.1 0.3 2.2 0.4 3.4 0 0.3 0.1 0.6 0.1 0.9 0.1 0.8-0.1 1.5-0.5 2.1 -0.2 0.4-0.5 0.7-0.9 1 -0.7 0.4-1.5 0.5-2.3 0.4 -0.3 0-0.6 0-0.8 0 -0.7 0-1.4-0.1-2.1-0.2 -1.1-0.2-2.2-0.6-3.3-0.8 -0.4-0.1-0.9-0.3-1.3-0.5 -1.1-0.5-2.3-0.7-3.5-0.6 -0.8 0.1-1.7 0-2.5-0.4 -0.7-0.3-1-0.9-1.2-1.6 -0.1-0.2 0-0.5 0-0.7 0.2-0.5 0.5-0.9 0.8-1.3 0.3-0.4 0.7-0.6 1.2-0.5 0.8 0.1 1.6 0.3 2.3 0.8 0.7 0.4 1.4 0.7 2.2 0.7 0.3 0 0.6 0.1 0.8 0.1 1 0.2 2 0.3 3 0.5 0.6 0.1 1.2 0.1 1.8 0.1 0.4 0 0.7-0.2 0.9-0.5 0.1-0.2 0.2-0.3 0.2-0.5 0-1.6 0-3.2-0.1-4.8 0-0.8 0-1.6 0-2.4C421.2 156.9 421.2 156.7 421.1 156.4zM421.5 149.7c0.1-1.9 0.1-3.7-0.1-5.5 -0.1-0.1-0.1-0.1-0.2-0.1 -0.5-0.1-1-0.2-1.5 0 -0.9 0-1.7 0.4-2.5 0.8 -0.3 0.1-0.6 0.3-0.9 0.4 -0.5 0.2-0.9 0.3-1.4 0.5 -0.2 0.1-0.4 0.2-0.6 0.3 -0.5 0.4-1 0.9-1.4 1.4 -0.3 0.4-0.2 0.9 0.1 1.1 0.5 0.4 1 0.7 1.7 0.8 0.9 0.1 1.7 0.3 2.6 0.4 0.6 0.1 1.2 0.2 1.8 0.2 0.5 0 1-0.1 1.5-0.1C420.9 149.9 421.2 149.8 421.5 149.7z"/><path class="st0" d="M323.4 148.6c0 0.9-0.2 1.7-0.3 2.6 -0.1 0.4-0.2 0.8-0.5 1.1 -0.2 0.3-0.4 0.7-0.6 1.1 -0.3 0.7-0.8 1.2-1.4 1.5 -0.8 0.5-1.7 1-2.5 1.4 -0.2 0.1-0.4 0.1-0.6 0.2 -0.1 0-0.3 0-0.4 0.1 -0.5 0.3-1 0.3-1.5 0.4 -1 0.3-2.1 0.5-3.1 0.9 -0.6 0.3-1.3 0.2-1.9 0.1 -0.4-0.1-0.7-0.2-1.1-0.3 -0.6-0.2-1.1-0.5-1.6-0.7 -0.6-0.2-1-0.6-1.4-1.1 -0.6-0.6-1.1-1.3-1.4-2.1 -0.3-0.6-0.7-1.2-1-1.8 -0.6-1.1-0.9-2.2-0.9-3.4 0-0.7 0-1.3 0.1-2 0.1-0.6 0.4-1.2 0.7-1.8 0.2-0.4 0.4-0.7 0.5-1.1 0.1-0.5 0.5-1 0.8-1.3 0.2-0.2 0.4-0.4 0.5-0.6 0.2-0.3 0.4-0.7 0.7-0.9 0.1-0.1 0.2-0.2 0.2-0.3 0.2-0.5 0.6-0.9 1-1.4 0.6-0.6 1.2-1.1 1.9-1.7 0.5-0.4 1.1-0.8 1.7-1.2 1.1-0.3 2.2-0.9 3.3-1.1 0.7-0.1 1.4-0.2 2 0.1 0.8 0.4 1.6 0.7 2.5 1.1 0.4 0.2 0.7 0.5 0.9 0.8 0.2 0.4 0.6 0.7 0.9 1.1 0.4 0.4 0.7 0.8 0.9 1.3 0.1 0.3 0.2 0.5 0.4 0.7 0.3 0.4 0.5 0.9 0.7 1.5 0.2 0.6 0.2 1.2 0.3 1.7 0.1 0.8 0.1 1.6 0.1 2.4 0 0.2 0 0.4 0 0.6C323.3 147.2 323.4 147.9 323.4 148.6zM317.5 144.7c0-0.3 0-0.6 0-0.9 -0.1-1-0.7-1.7-1.4-2.4 -0.2-0.1-0.4-0.3-0.6-0.3 -0.4 0-0.9 0-1.3 0.1 -0.6 0.2-1.2 0.4-1.7 0.7 -0.6 0.4-1.1 0.8-1.5 1.4 -0.5 0.6-0.9 1.3-1.4 1.9 -0.3 0.4-0.4 0.8-0.5 1.3 0 0.3-0.1 0.6-0.1 0.9 0 1-0.1 1.9-0.3 2.9 -0.1 0.3 0 0.7 0 1 0 0.2 0.1 0.4 0.2 0.4 0.3 0.2 0.6 0.2 0.9 0.3 0.6-0.2 1.1 0 1.7-0.1 0.4 0 0.8 0 1.1-0.3 0.1-0.1 0.3-0.1 0.4-0.1 0.5-0.2 1.1-0.3 1.5-0.7 0.3-0.3 0.8-0.6 1.1-0.9 0.3-0.2 0.5-0.5 0.6-0.9 0.1-0.2 0.1-0.4 0.3-0.6C317.2 147.3 317.4 146.1 317.5 144.7z"/><path class="st0" d="M207 156.4c-0.4-0.1-0.6 0-0.9 0.1 -0.4 0.1-0.8 0.3-1.2 0.3 -0.1 0-0.2 0-0.2 0 -0.8 0.3-1.7 0.4-2.6 0.4 -0.8 0-1.5 0-2.3 0 -0.2 0-0.5 0-0.7-0.1 -0.8-0.3-1.6-0.5-2.3-0.8 -0.5-0.2-1-0.4-1.4-0.8 -0.2-0.2-0.5-0.3-0.7-0.4 -0.8-0.5-1.4-1.1-1.5-2.1 -0.1-0.6-0.2-1.1-0.3-1.7 -0.2-0.7-0.1-1.4-0.1-2.1 0.1-1 0.2-2 0.4-3 0.1-0.6 0.4-1.3 0.6-1.9 0.2-0.6 0.5-1.3 0.8-1.9 0.2-0.5 0.5-0.9 0.8-1.4 0.9-1.2 2.1-2.1 3.4-3 0.1-0.1 0.3-0.1 0.4-0.2 0.8-0.3 1.6-0.5 2.5-0.6 0.7-0.1 1.3-0.1 2 0 0.7 0.1 1.4 0 2.2 0 0-0.2 0.1-0.3 0.1-0.5 0-0.6-0.1-1.2-0.1-1.8 0-0.9-0.1-1.9-0.1-2.8 0-1-0.1-1.9-0.2-2.9 -0.1-0.8 0.2-1.2 0.9-1.6 0.1 0 0.2-0.1 0.3-0.2 0-0.2 0.1-0.4 0.2-0.6 0.1-0.5 0.4-0.7 0.9-0.7 0.4 0 0.8 0 1.1 0 0.5 0.1 0.8 0.3 1 0.8 0.3 0.7 0.3 1.3 0.3 2 -0.2 1.5-0.2 3-0.2 4.5 0 0.5 0.1 0.9 0.3 1.3 0.1 0.2 0.1 0.4 0.2 0.6 0.1 0.2 0.1 0.4 0.2 0.5 0.4 0.3 0.4 0.6 0.4 1 0 1.2 0 2.3 0 3.5 0 1.8-0.2 3.7-0.3 5.5 0 0.5-0.1 1-0.2 1.5 -0.2 1.6-0.1 3.3 0 4.9 0 0.3 0 0.7 0 1 0 0.7 0 1.4 0.1 2.1 0.1 0.3 0 0.7 0.1 1 0 0.5-0.3 0.9-0.6 1.3 -0.1 0.1-0.2 0.1-0.3 0.1 -0.4 0.1-0.7 0.2-1.1 0.1 -0.4-0.1-0.8-0.3-1.2-0.5 -0.3-0.2-0.5-0.4-0.6-0.8C207.1 156.6 207 156.5 207 156.4zM199 152C199 152 199 152.1 199 152c1 0 1.9-0.1 2.9-0.1 0.8-0.1 1.6-0.1 2.4-0.2 0.5 0 1-0.1 1.5-0.2 0.6-0.1 0.9-0.5 1.1-1.1 0-0.2 0.1-0.4 0-0.5 -0.1-0.9-0.1-1.9-0.2-2.8 0-0.4-0.1-0.9-0.1-1.3 -0.1-1.2-0.2-2.4-0.3-3.6 0-0.1 0-0.2-0.1-0.3 -0.1-0.3-0.3-0.5-0.7-0.5 -0.2 0-0.4 0-0.6 0 -1.3-0.1-2.6 0.2-3.7 0.8 -1.4 0.8-2.6 1.8-3.6 3.1 -0.2 0.3-0.5 0.5-0.7 0.8 -0.2 0.2-0.4 0.5-0.5 0.8 -0.2 0.5-0.3 1-0.5 1.5 -0.2 0.8-0.2 1.7 0.1 2.5 0.3 0.8 0.9 1.3 1.9 1.4C198.3 152 198.6 152 199 152z"/><path class="st0" d="M285.1 138.6c0-0.1 0.1-0.2 0.1-0.3 0-1.2 0-2.5-0.3-3.7 -0.2-1-0.3-2.1-0.5-3.1 -0.2-1-0.3-1.9-0.4-2.9 -0.1-0.6 0-1.1 0.5-1.5 0-0.3-0.1-0.5 0.1-0.7 0.3-0.3 0.9-0.4 1.3-0.1 0.5 0.4 1 0.7 1 1.4 0 0.2 0.2 0.4 0.4 0.4 0.3 0.1 0.6 0.1 0.9 0.4 0.3 0.4 0.7 0.8 0.8 1.3 0.2 1 0.5 1.9 0.5 2.9 0 1.2 0.1 2.4 0.2 3.6 0.1 0.8 0.2 1.5 0.3 2.3 0.2 1.3 0.3 2.7 0.4 4.1 0.1 1.3 0.1 2.5 0.2 3.8 0 0.7 0 1.5 0 2.2 0 0.8-0.1 1.5-0.1 2.3 0 0.6 0 1.1 0 1.7 0 0.2-0.1 0.5 0 0.7 0 0.4 0 0.8 0.1 1.1 0.1 0.6 0.2 1.1-0.1 1.7 -0.1 0-0.3 0.1-0.5 0.1 -0.1 0.2-0.3 0.5-0.4 0.8 -0.2 0.5-0.6 0.8-1.1 0.7 -0.3 0-0.7-0.1-1-0.2 -0.1 0-0.3-0.1-0.4-0.2 -0.4-0.3-0.9-0.4-1.2-0.9 0-0.6 0-1.3-0.1-2.1 -0.2 0-0.3 0-0.4 0.1 -1 0.4-2 0.8-3 0.9 -0.1 0-0.2 0.1-0.3 0.1 -0.8 0-1.6 0.2-2.4 0.4 -1.6 0.3-3.2-0.1-4.6-0.8 -0.3-0.2-0.6-0.4-0.9-0.7 -0.3-0.4-0.7-0.8-0.9-1.2 -0.5-0.8-0.8-1.6-1-2.5 -0.2-0.7-0.2-1.4-0.1-2.1 0-0.3 0.1-0.6 0.1-0.9 0-0.3 0.1-0.6 0.1-0.8 0.6-2.3 1.5-4.5 3.3-6.3 0.6-0.6 1.3-1.3 1.9-1.9 0.2-0.2 0.3-0.3 0.5-0.4 0.6-0.2 1.1-0.4 1.7-0.6 0.7-0.2 1.5 0 2.2 0.1 1 0.2 1.9 0.5 2.7 1C285 138.6 285 138.6 285.1 138.6zM286 146.4c0-0.8-0.1-1.3-0.1-1.9 0-0.9-0.1-1.7-0.9-2.3 -0.5-0.7-1.2-1-1.9-1.4 -0.2-0.1-0.4-0.1-0.6-0.1 -0.7 0.1-1.4 0.4-2 0.9 -0.4 0.3-0.6 0.7-1 1 -0.9 1-1.4 2.2-2.2 3.2 0 0 0 0.1-0.1 0.1 -0.5 1.1-0.7 2.3-0.7 3.6 0 0.3 0.1 0.5 0.1 0.8 0.1 0.5 0.4 0.8 0.9 0.9 0.3 0 0.5 0 0.8 0 0.6 0 1.1-0.1 1.7 0 1.3 0 2.5-0.4 3.7-0.6 0.2 0 0.3-0.1 0.5-0.2 0.5-0.2 0.9-0.5 1.3-0.8 0.3-0.2 0.4-0.5 0.4-0.9C286 147.8 286 147 286 146.4z"/><path class="st0" d="M379 149.7c-0.2-0.1-0.4-0.1-0.5-0.2 -0.2-0.1-0.3-0.2-0.5-0.3 -0.3 0.3-0.5 0.5-0.7 0.7 -0.6 0.5-1.3 0.7-2.1 0.7 -0.6 0-1.3 0-1.9 0 -0.8 0-1.7 0-2.5 0.2 -1.2 0.2-2.4 0.1-3.6 0.1 -0.6 0-0.6 0-1.2 0.2 -0.1 0.4 0.1 0.7 0.4 1 0.6 0.5 1.2 1 1.7 1.5 0.3 0.3 0.7 0.4 1.1 0.4 0.9 0 1.8-0.1 2.7-0.3 0.7-0.1 1.4-0.3 2-0.4 0.4-0.1 0.8-0.2 1.2-0.4 0.6-0.3 1-0.2 1.5 0.2 0.2 0.2 0.4 0.4 0.6 0.6 0.6 0.7 0.8 1.5 0.5 2.4 -0.1 0.3-0.3 0.6-0.7 0.7 -0.3 0.1-0.6 0.2-0.9 0.3 -0.5 0.1-1 0.3-1.5 0.5 -0.5 0.2-1 0.3-1.6 0.3 -0.7 0.1-1.4 0.1-2.1 0.1 -0.9 0-1.8 0-2.8-0.1 -0.6-0.1-1.2-0.4-1.7-0.7 -0.3-0.2-0.7-0.4-1-0.6 -0.7-0.4-1.3-1-1.7-1.8 -0.2-0.4-0.5-0.9-0.8-1.3 -0.2-0.2-0.3-0.5-0.4-0.7 -0.3-0.7-0.5-1.4-0.8-2.1 -0.4-0.9-0.3-1.8-0.1-2.6 0-0.2 0.1-0.5 0.1-0.7 0-0.6 0.2-1.2 0.4-1.7 0.4-0.9 0.9-1.8 1.3-2.8 0.1-0.3 0.2-0.6 0.4-0.9 0.2-0.5 0.4-0.9 0.6-1.4 0.2-0.4 0.4-0.6 0.8-0.8 1.2-0.6 2.4-1.3 3.8-1.6 1.1-0.2 2.1-0.2 3.2 0.1 0.4 0.1 0.9 0.3 1.3 0.4 0.2 0.1 0.4 0.1 0.6 0.3 0.7 0.5 1.6 0.8 2.4 1.2 0.3 0.2 0.6 0.4 0.8 0.7 0.6 0.8 1.1 1.6 1.5 2.5 0.3 0.7 0.6 1.5 0.6 2.3 0 0.7 0.1 1.4 0.3 2.1 0.1 0.4 0 0.7-0.1 1.1C379.5 149.3 379.4 149.5 379 149.7zM377 147.1c0-0.5-0.1-0.8-0.3-1.1 -0.4-0.6-0.8-1.1-1.2-1.7 -0.4-0.6-1-0.9-1.5-1.1 -0.4-0.1-0.7-0.3-1.2-0.3 -0.7 0-1.3 0.1-2 0.3 -1.3 0.4-2.4 1-3.3 2 -0.2 0.2-0.4 0.3-0.3 0.6 0.1 0 0.1 0.1 0.2 0.1 0.7 0.1 1.4 0.3 2.1 0.3 1.2 0 2.3 0.1 3.4 0.2 0.4 0 0.7 0.1 1.1 0.1 0.8 0 1.6 0 2.3 0C376.5 146.7 376.8 146.8 377 147.1z"/><path class="st0" d="M432.9 139.7c0.5-0.2 1-0.3 1.5-0.5 1-0.4 1.8 0.1 2.1 1 0 0.1 0 0.2 0.1 0.3 0.2 0.1 0.4 0 0.6-0.1 0.4-0.4 1-0.6 1.5-0.8 0.7-0.2 1.4-0.4 2.1-0.3 0.3 0 0.6 0 0.8 0 0.9-0.1 1.7 0.1 2.6 0.2 0.1 0 0.3 0.1 0.4 0.2 0.5 0.4 1 0.7 1.5 1.1 0.4 0.4 0.7 0.9 1.1 1.3 0.5 0.6 0.7 1.2 0.9 1.9 0.3 0.9 0.5 1.7 0.5 2.6 0 0.4 0.1 0.7 0.2 1.1 0.2 0.7 0.2 1.4 0.2 2.1 0 1.8 0.1 3.5 0.2 5.3 0 0.7 0.1 1.4 0.2 2.1 0.1 0.8 0 1.6-0.1 2.4 0 0.2-0.1 0.3-0.1 0.4 -0.2 0.4-0.5 0.7-1 0.7 -0.6 0.1-1.1 0-1.6-0.3 -0.5-0.2-0.9-0.5-1.3-0.9 -0.4-0.3-0.8-0.7-1.3-0.9 -0.7-0.3-0.9-0.8-0.9-1.5 0.1-0.9 0.2-1.8 0.3-2.7 0-0.2 0-0.3 0-0.5 0.1-2.1 0.1-4.1 0-6.2 0-0.8 0-1.6-0.1-2.4 0-0.9-0.3-1.7-0.6-2.5 -0.3-0.7-0.7-0.9-1.5-0.9 -1 0-1.8 0.5-2.4 1.3 -0.5 0.7-0.9 1.4-1.2 2.2 -0.2 0.6-0.5 1.1-0.7 1.6 -0.1 0.2-0.1 0.5-0.2 0.7 -0.2 1.7-0.1 3.5 0 5.2 0 0.6 0 1.3 0 1.9 0 0.5 0.1 1 0.1 1.5 0 1-0.1 2-0.2 3.1 -0.1 0.6-0.4 0.9-1 0.9 -0.1 0-0.2 0-0.3 0 -1.1 0-1.8-0.4-2.3-1.3 -0.3-0.5-0.4-1-0.4-1.6 -0.1-1.4-0.1-2.8-0.2-4.1 -0.1-1.1-0.1-2.1-0.1-3.2 0-0.8-0.1-1.5-0.1-2.3 0-0.8 0-1.5 0.1-2.3 0.1-1.5 0.3-3.1 0.2-4.6 0-0.4 0-0.7 0.2-1C432.8 140.1 432.8 139.9 432.9 139.7z"/><path class="st0" d="M252.1 137.8c0.7-0.3 1.4-0.5 2.1-0.5 0.3 0 0.6 0 0.8 0.2 0.2 0.2 0.5 0.4 0.8 0.6 0.6 0.6 0.6 1.4 0.7 2.2 0.1 1 0 2 0.1 3 0.2 1.4 0.3 2.8 0.3 4.2 0 0.1 0 0.2 0 0.2 0.2 1 0.4 1.9 0.6 2.9 0.1 0.4 0.2 0.8 0.3 1.2 0.1 0.4 0.3 0.4 0.6 0.4 0.4-0.1 0.8-0.2 1.1-0.5 0.2-0.2 0.5-0.5 0.7-0.7 0.3-0.3 0.5-0.5 0.8-0.8 0.3-0.4 0.6-0.8 0.8-1.3 0.4-0.7 0.7-1.4 1-2.1 0.3-0.7 0.6-1.3 0.9-2 0.1-0.3 0.2-0.7 0.2-1 0-0.7 0-1.3 0-2 0-0.7 0-1.4 0-2.1 0-0.2 0-0.3 0-0.5 -0.2-0.8-0.1-1.5-0.1-2.3 0-0.6 0.3-1 0.7-1.4 0.5-0.4 1.1-0.4 1.6 0 0.1 0.1 0.2 0.2 0.3 0.2 0.5 0.2 0.8 0.5 1.1 0.9 0.1 0.2 0.2 0.3 0.2 0.6 0 0.3 0 0.5 0 0.8 0 0.5 0 1 0.1 1.5 0.1 0.3 0.1 0.6 0.1 0.9 0.1 0.7 0.1 1.4 0.2 2.1 0.2 0.9 0.3 1.9 0.3 2.8 0 0.2 0 0.3 0 0.5 -0.2 0.7 0 1.4-0.1 2.1 0 0.1 0 0.2 0 0.3 0.2 0.6 0.2 1.3 0.3 1.9 0.1 0.9 0.2 1.8 0.2 2.8 0 0.2 0 0.3 0 0.5 0.2 0.6 0.1 1.2 0.1 1.8 0 0.1 0 0.2 0 0.2 -0.1 1-0.4 1.4-1.6 1.3 -0.5 0-0.9-0.1-1.3-0.3 -0.5-0.2-0.9-0.6-1.2-1.1 -0.1-0.2-0.3-0.4-0.4-0.7 -0.1-0.1-0.1-0.1-0.2-0.2 -0.1 0-0.1 0-0.1 0 -0.5 0.5-1.1 0.8-1.8 1 -0.6 0.3-1.3 0.5-1.9 0.8 -0.1 0-0.1 0.1-0.2 0.1 -0.5 0.1-1 0.2-1.5 0.2 -1.4 0.2-2.6-0.2-3.9-0.7 -0.2-0.1-0.4-0.2-0.6-0.2 -0.3-0.1-0.6-0.3-0.8-0.6 -0.3-0.4-0.6-0.7-0.9-1.1 -0.3-0.4-0.6-0.8-0.7-1.3 -0.2-0.7-0.3-1.5-0.3-2.2 0-0.8-0.1-1.6-0.1-2.4 0-1 0-2 0-3 0-0.1 0-0.2 0-0.3 -0.1-1.8 0.1-3.5 0.2-5.3C251.8 138.8 252 138.3 252.1 137.8z"/><path class="st0" d="M164.3 143.3c0-0.2 0-0.3 0-0.5 -0.3-0.9-0.9-1.7-1.8-2.1 -0.3-0.1-0.6-0.2-1-0.1 -1.2 0.1-2.3 0.5-3.5 0.8 -0.4 0.1-0.9 0.3-1.2 0.6 -0.4 0.3-0.9 0.6-1.3 0.9 -0.6 0.5-1.4 0.5-2.1 0.4 -0.3-0.1-0.5-0.2-0.8-0.3 -0.7-0.3-1-0.9-1.2-1.5 0-0.1 0-0.2 0-0.3 0.2-0.5 0.4-0.8 0.8-1.1 0.7-0.5 1.4-0.9 2.2-1.2 0.1 0 0.2-0.1 0.3-0.1 1-0.6 2.1-0.9 3.2-1.2 0.4-0.1 0.9-0.3 1.3-0.4 0.4-0.1 0.8-0.1 1.1 0 1 0.3 2 0.6 2.9 1.2 0.8 0.5 1.5 1 2.1 1.7 0.5 0.5 0.9 1.1 1.3 1.7 0.4 0.7 0.8 1.3 1.1 2 0.5 1.1 0.7 2.4 0.8 3.6 0.1 1.2 0.1 2.3 0.1 3.5 0 1.1-0.2 2.2-0.3 3.4 -0.1 0.6-0.1 1.3-0.2 1.9 0 0.2 0 0.4-0.1 0.5 -0.2 0.5-0.5 0.8-1 0.9 -0.7 0.1-1.3-0.1-1.8-0.7 -0.3-0.4-0.6-0.8-0.8-1.2 -0.3-0.5-0.4-0.5-0.9-0.3 -0.8 0.3-1.7 0.5-2.5 0.8 -0.7 0.2-1.4 0.3-2 0.3 -0.6 0-1.1 0-1.7 0 -0.6 0-1.1-0.1-1.7-0.2 -1.1-0.3-2-0.8-3-1.4 -0.7-0.4-1.1-1-1.3-1.8 -0.2-0.9-0.2-1.9 0.2-2.8 0.2-0.4 0.3-0.8 0.5-1.2 0.2-0.5 0.5-0.9 0.8-1.3 0.7-0.7 1.3-1.4 2-2 0.6-0.5 1.1-0.9 1.9-1.1 0.3-0.1 0.5-0.2 0.8-0.4 1-0.4 2.1-0.8 3.2-1 0.7-0.1 1.5-0.1 2.2 0C163.4 143.2 163.8 143.2 164.3 143.3zM164.6 149c0-0.4 0-0.7 0-1 0-0.1 0-0.1 0-0.2 0-0.4-0.2-0.7-0.7-0.7 -0.4 0-0.8 0-1.1 0 -1 0-1.9 0.2-2.8 0.6 -1.3 0.6-2.5 1.4-3.6 2.2 -0.9 0.6-1.1 1.6-1.1 2.6 0 0.3 0.1 0.4 0.4 0.5 0.9 0.2 1.8 0.3 2.6-0.1 0.6-0.3 1.2-0.5 1.8-0.7 0.5-0.2 1.1-0.5 1.6-0.7 0.4-0.2 0.8-0.3 1.2-0.5 0.3-0.1 0.7-0.2 1-0.4 0.7-0.4 0.7-0.4 0.7-1.2C164.6 149.2 164.6 149.1 164.6 149z"/><path class="st0" d="M124.6 144.4c0.2-0.3 0.1-0.6 0-0.8 -0.1-0.2-0.2-0.5-0.3-0.7 0-0.1-0.1-0.2-0.1-0.3 -0.5-0.6-1-1.1-1.8-1.4 -0.2-0.1-0.5-0.1-0.8 0 -0.4 0.1-0.8 0.3-1.3 0.4 -1 0.2-2 0.6-3 0.9 -0.5 0.1-1 0.1-1.5-0.1 -0.2-0.1-0.4-0.1-0.6-0.2 -0.7-0.2-1.2-0.7-1.4-1.3 0.1-0.2 0.3-0.5 0.4-0.7 0.3-0.4 0.7-0.5 1-0.8 0.3-0.2 0.6-0.3 1-0.4 0.7-0.2 1.3-0.4 2-0.6 0.3-0.1 0.6-0.1 0.8-0.1 1-0.1 2-0.1 3.1 0.2 0.9 0.2 1.9 0.3 2.8 0.6 0.6 0.2 1.1 0.5 1.4 1 0.1 0.1 0.2 0.2 0.3 0.3 0.8 0.6 1.2 1.5 1.6 2.4 0.3 0.7 0.4 1.5 0.5 2.2 0.1 0.8 0.1 1.7 0.1 2.5 0 0.2 0 0.4 0.1 0.5 0 0.3 0.1 0.6 0.1 0.9 0 1.8 0 3.6 0 5.5 0 0.7-0.2 1.5-0.4 2.2 -0.7-0.1-1.4 0-2-0.4 -0.4-0.3-0.6-0.6-0.9-0.9 -0.1-0.1-0.2-0.3-0.3-0.4 -0.3-0.3-0.4-0.3-0.8-0.1 -1.4 0.8-3 1.4-4.6 1.7 -1.1 0.2-2.2 0.2-3.3 0 -0.4-0.1-0.7-0.2-1.1-0.2 -1-0.1-1.9-0.7-2.7-1.3 -0.1-0.1-0.2-0.2-0.3-0.3 -0.7-0.9-0.9-1.9-1-3 0-0.5 0.1-1.1 0.2-1.7 0.4-0.6 0.5-1.3 0.9-1.8 0.1-0.1 0.1-0.2 0.2-0.3 0.7-1.3 1.8-2.2 3-3 0.5-0.6 1.2-0.7 1.9-0.9 1.1-0.3 2.2-0.4 3.4-0.4 0.2 0 0.4 0 0.6 0 0.9 0 1.7 0.2 2.4 0.6C124.4 144.3 124.5 144.4 124.6 144.4zM116.8 153.4c0.3 0 0.5 0 0.8-0.1 0.5-0.1 0.9-0.2 1.4-0.2 1.1 0 2-0.6 2.8-1.1 1-0.5 1.9-1.1 3-1.1 0.3 0 0.5-0.3 0.4-0.5 -0.1-0.4 0-0.8 0-1.1 0-0.2 0-0.4 0-0.6 0-0.6-0.2-0.8-0.8-0.9 -0.7-0.1-1.4 0-2 0.2 -0.6 0.2-1.1 0.3-1.7 0.2 -0.4 0-0.8 0-1.1 0.2 -0.4 0.2-0.7 0.3-1.1 0.4 -1 0.3-1.6 1-2.2 1.8 -0.1 0.1-0.1 0.2-0.2 0.3 -0.1 0.5-0.3 0.9-0.4 1.4C115.6 153.1 116 153.5 116.8 153.4z"/><path class="st0" d="M177.5 139.7c0.5-0.3 0.9-0.6 1.4-0.9 0.5-0.4 1.1-0.6 1.7-0.7 0.3 0 0.6-0.1 0.9-0.2 0.8-0.1 1.6 0 2.4 0.3 0.3 0.1 0.5 0.3 0.8 0.5 0.8 0.5 1.4 1.1 2 1.8 0.6 0.8 1.1 1.6 1.3 2.6 0 0.1 0.1 0.2 0.1 0.3 0.1 1.1 0.3 2.2 0.5 3.3 0.2 1.6 0.3 3.2 0.4 4.8 0 0.9 0.1 1.9 0.2 2.8 0 0.7 0 1.5-0.2 2.2 -0.1 0.5-0.4 0.8-0.8 1.1 -0.2 0.2-0.5 0.3-0.7 0.4 -0.6 0.3-1.1 0.1-1.6-0.2 -0.2-0.1-0.4-0.3-0.6-0.3 -0.4-0.2-0.6-0.4-0.6-0.8 -0.1-0.4-0.1-0.7-0.1-1.1 0-1.3 0-2.5 0.1-3.8 0.1-1.8 0.2-3.6 0-5.4 0-0.5 0-1-0.1-1.5 0-0.6-0.2-1.2-0.4-1.7 -0.1-0.2-0.2-0.4-0.3-0.6 -0.2-0.6-0.6-0.9-1-1.3 -0.2-0.2-0.5-0.3-0.9-0.3 -0.2 0-0.4 0.1-0.6 0.1 -0.6 0.3-1.2 0.6-1.7 1.1 -0.5 0.5-1.1 1-1.6 1.5 0 1.1 0 2.1 0.1 3.1 0 0.6 0.1 1.1 0.1 1.7 -0.1 1.6-0.1 3.1-0.1 4.7 0 0.2 0 0.4 0 0.6 0.1 0.6 0 1.1 0 1.7 0 0.3-0.2 0.6-0.4 0.8 -0.7 0.4-1.4 0.8-2.3 0.7 -0.5 0-1-0.2-1.3-0.5 -0.2-0.2-0.3-0.4-0.4-0.6 -0.1-0.3-0.1-0.5-0.2-0.8 -0.1-1.6-0.2-3.3-0.1-4.9 0-1.5 0-3.1-0.1-4.6 -0.1-1.2-0.1-2.4-0.4-3.6 -0.2-0.9-0.3-1.9-0.3-2.8 0-0.3 0-0.7 0-1 0-0.7 0.4-1.2 1.1-1.3 0.3 0 0.7-0.2 1 0.1 0.1 0.1 0.3 0 0.4 0 0.5-0.1 0.8 0.1 1.2 0.4 0.5 0.5 0.7 1.1 0.9 1.7C177.2 139.3 177.2 139.5 177.5 139.7z"/><path class="st0" d="M395.1 144.9c-0.4 0.2-0.7 0.2-1 0 -0.4-0.2-0.8-0.3-1-0.7 -0.1-0.2-0.2-0.3-0.3-0.5 -0.2-0.5-0.6-0.8-1.1-1 -0.1-0.1-0.3-0.1-0.4-0.2 -0.4-0.4-0.8-0.4-1.3-0.5 -0.9-0.1-1.8 0.1-2.6 0.3 -0.5 0.1-0.9 0.5-1.3 0.8 -0.2 0.1-0.2 0.4-0.3 0.6 0 0.1 0.1 0.3 0.1 0.4 0.5 0.5 1 1 1.7 1.4 1.1 0.6 2.3 1.1 3.4 1.8 0.2 0.1 0.3 0.2 0.5 0.2 1.3 0.5 2.2 1.4 3.1 2.4 0.3 0.4 0.5 0.8 0.5 1.3 0 0.5 0 0.9 0 1.4 -0.1 0.6-0.2 1.3-0.2 1.9 0.1 1.2-0.9 2.9-2.5 3.4 -0.5 0.2-1.1 0.3-1.7 0.3 -1.5 0.1-3 0-4.5-0.1 -0.8 0-1.6-0.2-2.4-0.3 -0.1 0-0.2-0.1-0.3-0.1 -0.2-0.1-0.3-0.2-0.5-0.2 -0.8-0.2-1.5-0.6-2.1-1 -0.4-0.2-0.8-0.6-1.1-0.9 -0.1-0.1-0.2-0.2-0.2-0.4 -0.1-0.2-0.2-0.5-0.2-0.7 0-0.2 0-0.4 0-0.5 0.2-0.6 0.5-1.1 1-1.6 0.1-0.1 0.3-0.2 0.5-0.1 1.4 0.5 2.8 0.6 4.3 0.9 0.2 0 0.4 0 0.6 0.1 0.1 0 0.3 0 0.4 0.1 0.3 0.3 0.7 0.3 1.1 0.4 0.3 0.1 0.6 0.2 1 0.3 1 0.3 1.9 0.1 2.8-0.4 0 0 0 0 0-0.1 0.2-0.1 0.5-0.2 0.6-0.5 0.1-0.3 0-0.7-0.1-1 0-0.2-0.2-0.4-0.3-0.5 -0.9-0.5-1.8-1-2.8-1.1 -0.7-0.1-1.4-0.4-2-0.7 -0.4-0.2-0.7-0.4-1.1-0.6 -1-0.4-1.8-1.1-2.6-1.8 -0.4-0.4-0.7-0.9-1.1-1.3 -0.1-0.1-0.2-0.3-0.2-0.4 -0.6-1.9-0.2-3.7 1-5.2 0.5-0.6 1.1-0.9 1.8-1.3 0.7-0.4 1.5-0.6 2.3-0.6 0.6 0 1.2 0 1.8 0 1.2 0.1 2.5 0.1 3.7 0.5 0.2 0.1 0.5 0.1 0.8 0.1 0.5 0.1 1 0.3 1.3 0.7 0.2 0.2 0.4 0.4 0.5 0.7 0.2 0.3 0.3 0.6 0.3 1 0 0.4 0.1 0.8 0.1 1.1 0.1 0.6 0.1 1.3-0.2 1.9C395.2 144.6 395.2 144.7 395.1 144.9z"/><path class="st0" d="M83.2 156.6c-0.7 0-1.4-0.1-2.1-0.1 -0.4 0-0.7-0.1-1-0.3 -0.8-0.4-1.5-0.8-2.3-1 -0.2-0.1-0.4-0.2-0.5-0.3 -0.6-0.4-1.2-0.7-1.8-1.1 -0.3-0.2-0.6-0.4-0.9-0.6 -0.4-0.3-0.8-0.7-1.3-0.9 -0.2-0.1-0.4-0.3-0.5-0.4 -0.3-0.4-0.3-0.9 0.1-1.2 0.5-0.4 1.1-0.7 1.8-0.7 0.4 0 0.8 0.1 1.1 0.4 0.3 0.3 0.6 0.5 1 0.8 0.7 0.5 1.3 1 2.1 1.3 0.6 0.2 1.1 0.5 1.8 0.4 0.4 0 0.8-0.1 1.1-0.2 0.3 0 0.6-0.1 0.9-0.2 0.2-0.1 0.5-0.2 0.7-0.3 0.3-0.2 0.7-0.4 1-0.7 0.2-0.2 0.4-0.5 0.6-0.8 0.1-0.2 0.1-0.4 0-0.6 -0.3-0.5-0.7-0.9-1.3-1.1 -0.8-0.2-1.6-0.5-2.4-0.6 -0.6-0.1-1.2-0.2-1.8-0.4 0 0-0.1 0-0.1 0 -0.6-0.3-1.2-0.5-1.8-0.8 -1-0.5-1.7-1.2-2.2-2.2 -0.5-1.1-0.7-2.2-0.7-3.3 0-0.2 0.1-0.5 0.1-0.8 0.1-0.3 0.2-0.5 0.3-0.8 0.1-0.3 0.4-0.6 0.6-0.9 1.2-1.2 2.6-2 4.1-2.6 0.4-0.2 0.9-0.2 1.3-0.3 0.3-0.1 0.6-0.1 0.8-0.1 1.1-0.2 2.1-0.1 3.1 0.4 0.4 0.2 0.8 0.4 1.2 0.6 1 0.5 1.7 1.3 2.2 2.3 0.1 0.2 0.2 0.5 0.4 0.7 0.2 0.4 0.2 0.7 0.2 1.1 0 0.4-0.4 0.7-0.8 0.6 -0.7-0.2-1.3-0.4-1.9-0.7 -0.3-0.1-0.4-0.3-0.5-0.6 -0.1-0.4-0.4-0.6-0.8-0.6 -0.4-0.1-0.8-0.1-1.2-0.2 -0.3 0-0.7 0.1-1 0.2 -0.4 0.2-0.8 0.4-1.2 0.6 -0.9 0.4-1.7 1.1-2.5 1.8 -0.3 0.3-0.4 0.7-0.6 1.1 -0.1 0.3-0.1 0.6 0.2 0.8 0.1 0.1 0.2 0.1 0.3 0.2 0.7 0.3 1.4 0.6 2.2 0.7 0.3 0 0.5 0.1 0.7 0.2 0.8 0.3 1.7 0.4 2.6 0.6 0.5 0.1 1.1 0.1 1.6 0.5 1 0.3 1.5 1.1 2.1 1.9 0.6 0.7 0.9 1.5 1.2 2.3 0.3 0.7 0.2 1.4-0.1 2.2 -0.4 1.1-1 1.9-1.8 2.7 -0.4 0.4-0.9 0.6-1.4 0.8 -0.5 0.1-1 0.3-1.6 0.3C84 156.6 83.6 156.6 83.2 156.6 83.2 156.6 83.2 156.6 83.2 156.6z"/><path class="st0" d="M91.9 139.9c-0.1-0.1-0.2-0.1-0.3-0.2 0-0.1 0-0.2 0-0.2 0.2-0.4 0.4-0.8 0.6-1.2 0.2-0.4 0.5-0.6 0.9-0.7 0.9-0.2 1.6 0 2.3 0.5 0.4 0.3 0.6 0.6 0.5 1.1 -0.1 0.5-0.1 1-0.2 1.5 -0.1 0.5-0.2 0.9-0.3 1.4 -0.2 0.8 0 1.6 0 2.4 0 0.9 0.1 1.8 0.2 2.8 0 0.3 0 0.5 0.1 0.8 0.2 0.8 0.2 1.6 0.2 2.4 0 0.4 0.1 0.7 0.1 1.1 0.1 0.5 0.3 1 0.4 1.6 0.1 0.3 0.2 0.5 0.5 0.6 0.4 0.3 0.9 0.3 1.4 0.2 0.7-0.1 1.4-0.2 2.1-0.2 0.7 0 1.3-0.2 1.9-0.6 0.3-0.2 0.6-0.4 0.9-0.7 0.5-0.5 0.8-1 0.9-1.7 0.1-0.5 0.3-1 0.1-1.6 -0.1-0.2 0-0.5 0.1-0.7 0.2-0.7 0.1-1.4 0.2-2.1 0-0.4 0-0.9 0.2-1.3 0.1-0.3 0.1-0.6 0.1-0.9 0-1.4 0-2.9 0.1-4.3 0-0.4 0-0.8-0.1-1.1 -0.1-0.4 0-0.8 0.1-1.1 0.1-0.6 0.5-0.9 1.1-0.9 0.7 0 1.4 0 2 0.4 0.2 0.2 0.5 0.1 0.7 0.4 0.1 0.2 0.2 0.3 0.3 0.5 0 0.4 0.1 0.8 0 1.1 0 0.7 0 1.4 0 2.1 0 0.2 0 0.3 0 0.5 0 1.3 0 2.6 0 3.9 0 1 0 2.1-0.3 3.1 -0.3 1-0.1 1.9 0.1 2.8 0.2 0.8 0.3 1.6 0.3 2.4 0 0.6-0.2 1.1-0.9 1.4 -0.2 0.1-0.3 0.1-0.5 0.2 -0.7 0.4-1.5 0.3-2.1-0.1 -0.4-0.2-0.9-0.3-1.3-0.2 -1 0.2-2.1 0.4-3.1 0.9 -0.5 0.2-1 0.3-1.6 0.4 -0.8 0-1.7 0.1-2.5-0.2 -0.6-0.2-1.2-0.3-1.8-0.6 -1-0.5-1.8-1.1-2.2-2.2 -0.2-0.6-0.4-1.2-0.6-1.8 -0.1-0.4-0.1-0.9-0.2-1.3 -0.2-1.1-0.2-2.2-0.3-3.3 -0.1-1.3-0.1-2.6-0.2-3.8 0-1.1-0.1-2.3 0-3.5C91.9 140 91.9 139.9 91.9 139.9z"/><path class="st0" d="M132.4 155.8c0-1.3 0-2.6 0.2-3.9 0-0.3 0.1-0.5 0-0.8 -0.1-0.9 0-1.8 0.1-2.8 0-0.3 0-0.5 0-0.8 0-0.2 0-0.5 0-0.7 0.2-1.1 0.2-2.2 0.2-3.3 0-0.8 0-1.7-0.1-2.5 0-0.1 0-0.2 0-0.3 0-1.6-0.1-3.3 0.1-4.9 0.1-0.5 0-1 0.1-1.5 0.1-1 0.1-2 0.2-3 0-0.6 0.3-1.1 0.6-1.6 0.1-0.2 0.3-0.3 0.5-0.3 0.4 0 0.8 0 1.1 0.2 0.1 0.1 0.3 0.1 0.4 0.1 0.5 0 1 0.2 1.4 0.6 0.3 0.3 0.5 0.5 0.7 0.9 0.1 0.2 0.1 0.4 0.2 0.7 0 1.3 0.1 2.6 0.5 3.9 0 0.1 0.1 0.3 0.1 0.5 -0.1 0.4 0 0.8 0.1 1.2 0.2 0.9 0.2 1.9 0.1 2.8 -0.2 2-0.3 4-0.4 6 0 0.3-0.1 0.6-0.1 0.8 0 0.9 0 1.9 0.1 2.8 0 0.4 0 0.8 0 1.2 0 0.5 0 1-0.1 1.5 0 0.4-0.1 0.8-0.2 1.3 -0.1 0.3-0.2 0.5-0.2 0.8 -0.1 0.6-0.4 1.1-0.8 1.6 -0.1 0.1-0.3 0.3-0.4 0.4 -0.3 0.3-0.7 0.5-1.1 0.5 -0.4 0-0.9 0-1.3 0 -0.5 0-0.9-0.2-1.2-0.5C132.9 156.4 132.6 156.1 132.4 155.8z"/><path class="st0" d="M297.1 138.6c0.2 0.1 0.3 0.1 0.5 0.2 0.9 0.4 1.4 1.1 1.6 2.1 0 0.2 0.1 0.4 0 0.5 -0.1 0.9-0.1 1.7 0 2.6 0.1 1.4 0.1 2.8 0.2 4.2 0.1 1 0.1 1.9 0.1 2.9 0 0.8 0.1 1.6 0 2.4 0 1-0.1 1.9-0.2 2.9 0 0.4-0.3 0.8-0.7 1.1 -0.1 0.1-0.4 0.2-0.6 0.2 -0.4 0-0.8 0-1.1-0.1 -0.1 0-0.2-0.1-0.3-0.2 -0.3-0.3-0.5-0.5-0.9-0.6 -0.2-0.1-0.3-0.3-0.3-0.5 0.1-0.5-0.3-0.9-0.3-1.4 0-0.5 0-0.9-0.1-1.4 -0.1-0.4-0.1-0.9-0.3-1.3 -0.2-0.8-0.4-1.6-0.4-2.4 0-0.3-0.1-0.7-0.1-1 0-0.7 0-1.4-0.1-2.1 0-0.3 0-0.6 0-0.9 -0.1-0.6-0.1-1.2 0-1.8 0-0.1 0-0.2 0-0.3 -0.2-0.8-0.2-1.7-0.3-2.6 0-0.6 0-1.3 0.2-1.9 0.1-0.2 0.2-0.4 0.4-0.4 0.5-0.2 1-0.2 1.4 0 0.4 0.2 0.7 0.1 0.9-0.2C297 138.6 297.1 138.6 297.1 138.6z"/><path class="st0" d="M65.6 147.7c0.1-1.5 0.1-3 0.2-4.4 0.1-1.2 0.1-2.4 0.3-3.5 0.1-0.5 0.2-1 0.4-1.5 0.1-0.2 0.3-0.4 0.5-0.6 0.7-0.5 1.4-0.7 2.2-0.2 0.3 0.2 0.7 0.2 0.9 0.6 0.1 0.2 0.3 0.4 0.3 0.7 0 0.2 0 0.4 0 0.6 -0.1 1.1-0.2 2.2-0.2 3.3 0 1.6-0.1 3.2-0.1 4.8 0 1.2 0 2.4-0.2 3.6 -0.1 0.9-0.2 1.8-0.2 2.7 0 0.1 0 0.2 0 0.2 0.2 0.6 0 1.2 0 1.7 0 0.6-0.3 0.9-0.9 1 -0.6 0.2-1.2 0-1.8-0.2 -0.2-0.1-0.4-0.2-0.5-0.3 -0.3-0.1-0.5-0.3-0.7-0.6 -0.3-0.4-0.3-0.8-0.3-1.2 0.1-1.7 0.2-3.5 0.1-5.2C65.5 148.6 65.5 148.1 65.6 147.7 65.6 147.7 65.6 147.7 65.6 147.7z"/><path class="st0" d="M404.7 156.9c-0.3 0.3-0.4 0.5-0.5 0.9 -0.1 0.3-0.2 0.6-0.4 0.8 -0.2 0.4-0.6 0.6-1.1 0.6 -0.5 0-0.9-0.1-1.3-0.4 -0.6-0.4-0.9-1-1.4-1.5 -0.2-0.2-0.3-0.6-0.3-0.9 -0.1-1 0-2 0.1-3 0.2-1.2 0.3-2.4 0.3-3.6 0-0.5 0.1-1.1 0.2-1.6 0-0.4 0.1-0.8 0.1-1.1 0.1-1.4 0.2-2.8 0.1-4.1 0-0.3-0.1-0.5-0.2-0.8 -0.4-0.7 0-1.3 0.8-1.4 0.3 0 0.5 0 0.8 0 0.7 0 1.2 0.3 1.6 0.8 0.1 0.2 0.2 0.4 0.4 0.5 0.5 0.4 0.6 1 0.7 1.6 0.1 1.2 0.1 2.3 0 3.5 -0.1 0.8 0 1.7 0 2.5 0 0.6 0 1.2-0.1 1.8 0 1.3-0.1 2.6-0.1 3.9C404.5 155.9 404.5 156.4 404.7 156.9z"/><path class="st0" d="M71.2 132.6c0 0.3 0 0.5 0 0.8 0 0.3-0.1 0.6-0.2 0.9 -0.1 0.4-0.4 0.6-0.7 0.7 -0.4 0.1-0.7 0.3-1.1 0.4 -0.5 0.2-0.9 0.3-1.5 0.2 -0.8-0.2-1.5-0.7-1.7-1.5 -0.2-0.7-0.3-1.5-0.1-2.3 0.1-0.5 0.2-1.1 0.2-1.6 0.1-0.3 0.1-0.6 0.3-1 0.3-0.7 0.8-1.1 1.6-1.1 0.5 0 1 0 1.5 0 0.1 0 0.3 0 0.4 0.1 1.1 0.6 1 0.5 1.1 1.6C71.1 130.9 71.2 131.7 71.2 132.6 71.2 132.6 71.2 132.6 71.2 132.6z"/><path class="st0" d="M404.6 133.7c-0.1 1.3-0.2 2.5-0.4 3.8 0 0.2-0.1 0.3-0.1 0.5 -0.2 0.8-0.5 1.1-1.3 1.1 -0.4 0-0.9 0-1.3-0.3 -0.1 0-0.1-0.1-0.2-0.1 -0.6-0.1-0.8-0.5-0.7-1.1 0.1-0.6 0.1-1.1 0.2-1.7 0.1-1 0.3-1.9 0.4-2.9 0-0.4 0.3-0.7 0.5-1 0.2-0.3 0.6-0.3 0.9-0.3 0.5 0.2 1.1 0.2 1.6 0.5 0.2 0.1 0.3 0.3 0.3 0.5C404.6 133.1 404.6 133.4 404.6 133.7 404.6 133.7 404.6 133.7 404.6 133.7z"/><path class="st0" d="M294.8 135.1c-0.3-1.3-0.2-2.5 0.6-3.6 0.2-0.2 0.3-0.3 0.6-0.2 0.3 0 0.6 0.1 0.9 0.1 0.9-0.2 2.1 0.9 2.3 1.6 0.1 0.4 0.1 0.8-0.1 1.1 -0.3 0.7-0.4 1.4-0.6 2 -0.1 0.2-0.2 0.4-0.4 0.4 -0.5 0.1-0.9 0-1.3-0.2 -0.4-0.2-0.7-0.4-1-0.6C295.5 135.5 295.2 135.4 294.8 135.1z"/><path class="st0" d="M193.1 2.2c-6.4 0-12.7 0-19.1 0 -15.3 0-30.6 0-45.8 0 -18.6 0-37.2 0-55.7 0 -16 0-32 0-48 0 -5.3 0-10.5 0-15.8 0 -2.4 0-5.2-0.4-7.6 0 -0.1 0-0.2 0-0.3 0C0.6 2.2 0.3 2.7 0 2.7c6.4 0 12.7 0 19.1 0 15.3 0 30.6 0 45.8 0 18.6 0 37.2 0 55.7 0 16 0 32 0 48 0 5.3 0 10.5 0 15.8 0 2.4 0 5.2 0.4 7.6 0 0.1 0 0.2 0 0.3 0C192.6 2.7 192.9 2.2 193.1 2.2L193.1 2.2z"/><path class="st0" d="M271.8 159.8c6.5 0 13 0 19.5 0 15.6 0 31.2 0 46.9 0 18.9 0 37.8 0 56.7 0 16.3 0 32.7 0 49 0 5.3 0 10.7 0 16 0 2.4 0 5.3 0.4 7.7 0 0.1 0 0.2 0 0.4 0 0.3 0 0.6-0.5 0.9-0.5 -6.5 0-13 0-19.5 0 -15.6 0-31.2 0-46.9 0 -18.9 0-37.8 0-56.7 0 -16.3 0-32.7 0-49 0 -5.3 0-10.7 0-16 0 -2.4 0-5.3-0.4-7.7 0 -0.1 0-0.2 0-0.4 0C272.4 159.3 272.1 159.8 271.8 159.8L271.8 159.8z"/><path class="st0" d="M215.4 98c7.9 0 15.8 0 23.6 0 18.9 0 37.8 0 56.8 0 22.9 0 45.8 0 68.7 0 19.8 0 39.6 0 59.4 0 6.5 0 12.9 0 19.4 0 3 0 6.4 0.4 9.4 0 0.1 0 0.3 0 0.4 0 0.4 0 0.7-0.4 1-0.4 -7.9 0-15.8 0-23.6 0 -18.9 0-37.8 0-56.8 0 -22.9 0-45.8 0-68.7 0 -19.8 0-39.6 0-59.4 0 -6.5 0-12.9 0-19.4 0 -3 0-6.4-0.4-9.4 0 -0.1 0-0.3 0-0.4 0C216.1 97.5 215.8 98 215.4 98L215.4 98z"/><path class="st0" d="M449.2 173.7c0-14.8 0-29.6 0-44.4 0-2.1 0-4.1 0-6.2 0 0.1-0.9 0.2-0.9 0.3 0 14.8 0 29.6 0 44.4 0 2.1 0 4.1 0 6.2C448.3 173.9 449.2 173.8 449.2 173.7L449.2 173.7z"/><path class="st0" d="M30.8 144.3c0-15.7 0-31.5 0-47.2 0 0.3-0.5 0.6-0.5 0.9 0 15.7 0 31.5 0 47.2C30.2 144.9 30.8 144.6 30.8 144.3L30.8 144.3z"/><path class="st0" d="M31.1 89.6c-0.2-1-0.3-2.3-0.1-3.2 0.4-1.7 0.8-3.4 1.3-5.1 0.1-0.4 0.2-0.8 0.2-1.3 -0.2 0-0.4 0-0.5 0 -2 0.1-4 0.3-6 0.7 -0.2 0-0.5 0-0.7 0.1 -0.3 0-0.6-0.1-0.9-0.3 -0.6-0.5-0.9-1.2-1.3-1.8 -0.1-0.2-0.2-0.5-0.4-0.7 -0.2-0.5-0.2-0.7 0.4-0.9 0.5-0.2 1-0.3 1.4-0.5 0.6-0.2 1.2-0.3 1.8-0.5 1.2-0.4 2.5-0.5 3.7-1 0.3-0.1 0.6-0.2 0.9-0.2 0.4-0.1 0.7-0.2 1.1-0.5 -0.2-0.2-0.3-0.3-0.4-0.4 -0.2-0.2-0.5-0.3-0.7-0.5 -0.2-0.4-0.6-0.4-0.9-0.4 -0.4 0-0.9 0-1.3 0 -0.6 0-1.2-0.1-1.8-0.1 -0.8 0-1.2-0.6-1.7-1.1 -0.1-0.1-0.2-0.3-0.2-0.4 0-0.8-0.1-1.6 0.2-2.5 0.2-0.5 0.3-1.1 0.4-1.6 0.1-0.7 0.5-1.1 1.2-1.3 0.3-0.1 0.5-0.1 0.8-0.2 1.6-0.2 3.2-0.4 4.8-0.6 0.9-0.1 1.8-0.2 2.8-0.2 0.3 0 0.6-0.1 0.9-0.2 0.1-0.5 0.3-0.9 0.4-1.4 0.4-2.2 0.9-4.5 1.3-6.8 0-0.1 0-0.1 0-0.2 0.6-2 0.8-4.1 1.4-6.2 0.4-1.5 0.7-2.9 1-4.4 0.3-1.6 0.8-3.1 1.2-4.7 0.4-1.5 0.8-3.1 1.2-4.7 0.1-0.4 0.3-0.8 0.5-1.3 0.5-1.6 1.1-3.2 1.6-4.7 0.2-0.5 0.3-1 0.4-1.6 0.4-1.5 1-2.9 1.6-4.4 0.6-1.3 1.1-2.7 1.6-4.1 0.5-1.4 1.2-2.7 2-4 0.5-0.7 0.8-1.6 1.2-2.4 0.2-0.5 0.5-0.9 0.8-1.4 0.3-0.4 0.5-0.9 0.8-1.3 1.1-1.8 2.5-3.3 3.7-5 0.3-0.5 0.8-0.9 1.2-1.3 0.6-0.6 1.3-1.3 1.9-1.9C60 3.2 60.2 3 60.4 2.9 61.3 2.3 62.1 1.6 63 1c1.4-0.9 2.9-1.2 4.5-1 1.1 0.2 2.1 0.7 2.9 1.5 1.2 1 2.1 2.2 2.9 3.5 0.7 1 1.2 2.2 1.7 3.3 0.3 0.7 0.4 1.5 0.6 2.2 0.2 1.1 0.5 2.1 0.9 3.2 0.4 0.9 0.7 1.9 1.1 2.8 0.1 0.1 0.1 0.3 0.1 0.4 0.2 0.9 0.4 1.8 0.7 2.7 0.2 0.9 0.4 1.9 0.6 2.8 0.4 1.3 0.5 2.6 0.9 3.9 0.1 0.4 0.2 0.8 0.3 1.2 0.2 1.2 0.3 2.4 0.6 3.6 0.4 1.9 0.7 3.9 0.9 5.8 0 0.2 0 0.4 0.1 0.5 0.4 1.5 0.4 3.1 0.7 4.6 0.1 0.7 0.3 1.3 0.5 2 0.2 0.5 0.3 1 0.4 1.6 0.1 0.9 0.2 1.8 0.5 2.6 0.2 0.6 0.3 1.2 0.3 1.8 0.1 1.1 0.3 2.2 0.8 3.2 0.3 0.5 0.4 1 0.5 1.6 0.1 0.9 0.3 1.8 0.4 2.6 0 0.1 0 0.2 0.1 0.3 0.4 0.6 0.4 1.4 0.4 2.1 0 1.7 0 3.4 0.3 5.1 0.1 0.5 0 1 0.2 1.5 0.1 0.3 0.3 0.6 0.6 0.7 0.3 0.2 0.7 0.4 1 0.6 0 0.4 0.1 0.8 0.1 1.2 0 0.4-0.1 0.6-0.5 0.8C88 70 87.8 70 87.6 70.1c0 0.2 0 0.4 0 0.5 0.1 0.6 0.2 1.2 0.3 1.8 0.1 0.4 0.3 0.8 0.4 1.3 0.3 1.2 0.5 2.4 0.7 3.6 0.1 0.3 0.2 0.7 0.3 1 0.2 0.6 0.4 1.3 0.1 1.9 0 0.1 0 0.3 0 0.4 0.1 0.7 0.2 1.4 0.4 2 0.2 0.8 0.2 1.6 0.1 2.4 0 0.2-0.1 0.4-0.2 0.6 -0.6 0.7-1.4 1.2-2.2 1.7 -0.6 0.1-1.2 0.3-1.8 0.2 -0.2 0-0.3-0.1-0.4-0.3 -0.1-0.1-0.1-0.2-0.3-0.3 -0.4 0.4-0.9 0.5-1.4 0.5 -0.4 0-0.8 0.2-1.2 0.4 -0.3 0.2-0.6 0.2-0.9 0.2 -0.2 0-0.5 0-0.7 0 -0.3 0-0.5-0.1-0.7-0.3 -0.2-0.2-0.4-0.3-0.5-0.5 -0.1-0.2-0.2-0.3-0.3-0.5 -0.2-0.5-0.3-1-0.5-1.5 -0.1-0.5-0.2-0.9-0.2-1.4 -0.1-1.1-0.3-2.2-0.3-3.3 0-0.6-0.1-1.2-0.4-1.8 -0.2-0.5-0.4-1-0.3-1.5 0-1.2-0.2-2.2-0.5-3.3 -0.1-0.4-0.3-0.8-0.4-1.3 -0.6 0-1.2 0.1-1.7 0.2 -1.7 0.4-3.4 0.7-5.2 1 -0.9 0.1-1.7 0.2-2.6 0.4 -1.5 0.4-3.1 0.4-4.6 0.9 -0.8 0.2-1.6 0.3-2.5 0.5 -1.4 0.2-2.7 0.5-4.1 0.6 -1.2 0.1-2.3 0.4-3.5 0.5 -0.2 0-0.4 0-0.5 0.1 -1 0.3-2.1 0.5-3.2 0.5 -0.2 0-0.5 0-0.7 0.1 -0.9 0.2-1.8 0.3-2.7 0.3 -0.3 0-0.5 0-0.8 0.1 -1.1 0.2-2.2 0.5-3.3 0.7 -0.1 0-0.2 0.1-0.3 0.1 -0.3 0.3-0.3 0.8-0.4 1.2 -0.2 1.2-0.5 2.3-0.7 3.5 -0.2 0.8-0.3 1.5-0.4 2.3 -0.1 0.5-0.3 1-0.4 1.6 -0.1 0.3-0.2 0.5-0.5 0.6 -0.5 0.3-0.9 0.7-1.4 1 -0.1 0.1-0.3 0.2-0.5 0.2 -0.4 0-0.7 0.1-1.1 0.1 -0.8 0-1.6 0-2.3 0.5 -0.1 0.1-0.3 0.1-0.4 0.1C32.4 89.7 31.8 89.6 31.1 89.6zM75.2 61.9c0.1-0.7 0.1-1.5-0.1-2.2 -0.1-0.4-0.2-0.8-0.2-1.1 -0.2-1.5-0.4-3.1-0.7-4.6 -0.2-1.2-0.3-2.3-0.3-3.5 0-2 0-3.9-0.1-5.9 0-0.4 0-0.8 0-1.2 0-0.6 0-1.2 0-1.8 -0.1-1-0.2-2-0.3-3 -0.1-1.4-0.1-2.7-0.2-4.1 -0.1-0.9-0.2-1.7-0.3-2.6 -0.2-1.4-0.4-2.7-0.8-4 -0.3-1-0.5-2-0.8-3 -0.1-0.5-0.2-1-0.3-1.5 -0.3-0.8-0.3-1.6-0.3-2.4 0-0.2 0-0.4 0-0.5 0-0.6-0.2-1.1-0.5-1.6 -0.4-0.7-0.8-1.3-1.1-2 -0.2-0.6-0.6-1.1-1.2-1.2 -1-0.3-2.1-0.3-3 0.2 -0.4 0.2-0.8 0.4-1.2 0.6 -1.2 0.5-2.1 1.3-3 2.2 -0.6 0.7-1.2 1.5-1.8 2.3 -0.4 0.5-0.7 1-1 1.5 -0.6 1-1.1 2.1-1.7 3.1 -0.7 1.4-1.4 2.7-2.1 4.1 -0.3 0.5-0.4 1-0.7 1.5 -0.6 1-0.9 2.1-1.2 3.2 -0.6 1.7-0.7 3.5-1.3 5.2 -0.1 0.5-0.3 0.9-0.4 1.4 -0.2 1.3-0.5 2.6-0.9 3.8 -0.1 0.3-0.2 0.6-0.2 0.9 -0.2 0.8-0.4 1.7-0.6 2.5 -0.3 1.2-0.7 2.4-1.3 3.5 -0.4 0.8-0.7 1.7-0.8 2.6 -0.1 1.1-0.4 2.1-0.6 3.1 -0.3 1.4-0.8 2.9-1.2 4.3 -0.3 0.7-0.3 1.5-0.3 2.3 0 0.1 0.1 0.2 0.1 0.3 0.7 0.2 1.3 0.1 2 0.1 1 0 2 0 3 0 0.3 0 0.7 0 1 0 1.3-0.1 2.6-0.1 3.9-0.2 0.4 0 0.8-0.1 1.2-0.1 1.2-0.2 2.4-0.5 3.6-0.5 0.4 0 0.8 0 1.2-0.1 1.2-0.1 2.3-0.4 3.5-0.4 0.1 0 0.3 0 0.4-0.1 1-0.1 2-0.2 2.9-0.3 0.7-0.1 1.3-0.1 2-0.2 1.5-0.2 2.9-0.5 4.4-0.4C74.3 62.1 74.8 62.2 75.2 61.9zM66.6 7.7c0-0.5-0.2-0.8-0.6-0.9 -0.4-0.1-0.7 0-1 0.2 -0.7 0.5-1.3 1.1-1.9 1.8 -0.3 0.3-0.5 0.6-0.8 1 -0.1 0.1-0.1 0.2 0.1 0.3 0.4-0.2 0.7-0.4 1.1-0.7 0.1 0 0.1-0.1 0.2-0.2 0.7-0.5 1.5-1 2.4-1.2C66.3 7.9 66.5 7.8 66.6 7.7z"/><path class="st0" d="M420.9 69.9c-0.2 0.3-0.3 0.6-0.2 0.9 0.2 0.9 0.4 1.8 0.6 2.7 0.3 1.2 0.8 2.2 1.4 3.3 0.2 0.3 0.4 0.7 0.5 1 0.3 0.6 0.6 1.1 1.3 1.3 0.4 0.1 0.7 0.3 1 0.5 0.4 0.3 0.8 0.4 1.3 0.5 1.5 0.2 2.9 0.4 4.4 0.6 1 0.1 2 0 3-0.3 0.1 0 0.2-0.1 0.3-0.1 1.4 0 2.6-0.6 3.8-1.3 0.5-0.3 1-0.7 1.5-1.1 0.3-0.2 0.5-0.4 0.8-0.5 0.4-0.2 0.8-0.5 1.1-0.9 0.3-0.4 0.6-0.8 0.9-1.2 0.4-0.5 0.8-1 1.2-1.4 0.4-0.4 1.2-0.4 1.6 0 0.1 0.1 0.1 0.1 0.2 0.2 0.6 0.4 0.8 1 1 1.6 0.2 0.9 0.5 1.7 0.5 2.6 0.3 0.6 0.4 1.3 0.4 2 0.1 1.3-0.2 2.5-1.3 3.4 0 0-0.1 0.1-0.1 0.1 -1.2 0.5-2 1.5-3.1 2.1 -0.1 0-0.2 0.1-0.3 0.2 -0.6 0.4-1 0.9-1.7 1.1 -0.1 0-0.3 0.1-0.4 0.3 -0.4 0.4-0.9 0.6-1.5 0.8 -0.3 0.1-0.6 0.1-0.8 0.4 -0.1 0.1-0.2 0.1-0.3 0.1 -0.4 0.1-0.9 0.3-1.3 0.4 -0.6 0.2-1.2 0.4-1.8 0.5 -0.3 0.1-0.6 0.1-0.9 0.1 -0.2 0-0.4 0-0.5 0 -0.4 0.1-0.8 0.1-1.2 0 -0.6-0.1-1.1-0.1-1.7-0.1 -0.5 0-0.9 0-1.4-0.1 -0.4 0-0.9-0.1-1.3-0.1 -0.4 0-0.9 0-1.3-0.3 -0.4-0.3-0.9-0.1-1.3-0.2 -0.7 0.2-1.3-0.2-2-0.3 -0.5-0.1-1-0.4-1.5-0.5 -0.3-0.1-0.6-0.2-0.9-0.3 -0.7-0.2-1.3-0.6-1.9-1 -0.2-0.1-0.4-0.2-0.6-0.3 -0.4-0.2-0.8-0.4-1.1-0.7 -0.2-0.2-0.5-0.4-0.7-0.5 -0.2-0.2-0.5-0.4-0.7-0.6 -0.4-0.4-0.7-0.8-1.3-0.9 -0.1 0-0.1-0.1-0.2-0.2 -0.7-0.5-1.5-1-2.1-1.5 -0.2-0.2-0.5-0.4-0.5-0.7 0-0.1-0.1-0.2-0.1-0.3 -0.7-0.9-1.1-2-1.7-3 -0.2-0.2-0.4-0.5-0.4-0.8 -0.2-1-0.7-1.9-0.8-2.9 0-0.3-0.1-0.6-0.2-0.9 -0.2-0.5-0.4-0.9-0.4-1.5 0-0.3-0.1-0.7-0.1-1.1 0-0.7 0-1.5 0-2.2 0-0.4 0.1-0.9 0.3-1.3 0.1-0.3 0.2-0.5 0.2-0.8 0.1-0.8 0.3-1.5 0.2-2.3 0-0.3 0.1-0.7 0.2-1 0.3-0.9 0.4-2 0.9-2.9 0.3-0.6 0.6-1.3 0.6-2 0-0.4 0.2-0.9 0.4-1.2 0.4-0.7 0.7-1.5 1.1-2.2 0.5-0.9 0.9-1.8 1.3-2.7 0.1-0.2 0.2-0.4 0.3-0.5 0.1-0.1 0.2-0.3 0.3-0.4 0.4-0.7 0.7-1.4 1.3-1.9 0.1-0.1 0.2-0.2 0.3-0.3 0.4-0.1 0.7-0.4 1-0.7 0.2-0.2 0.5-0.4 0.8-0.6 1.1-0.6 2.2-1.2 3.4-1.7 0.8-0.3 1.6-0.5 2.4-0.6 0.7-0.1 1.5-0.1 2.2-0.2 0.4-0.1 0.8-0.2 1.1-0.1 0.1 0 0.2 0 0.3 0 0.7-0.3 1.4-0.2 2.1-0.1 0.7 0.1 1.5 0.2 2.2 0.2 0.6 0 1.2 0.1 1.8 0.1 1 0.1 1.9 0.4 2.9 0.6 0.9 0.2 1.8 0.7 2.6 1.2 0.7 0.4 1.3 0.8 2 1 0.2 0.1 0.3 0.1 0.5 0.2 0.7 0.5 1.6 0.9 2.2 1.5 0.2 0.2 0.5 0.4 0.8 0.6 0.5 0.4 1 0.9 1.5 1.4 0.4 0.5 1 1 1.4 1.4 0.3 0.3 0.6 0.7 0.9 1.1 0.2 0.2 0.3 0.4 0.4 0.7 0.2 0.8 0.4 1.5 0.5 2.4 0 0.6 0.1 1.3 0.2 1.9 0.1 0.4 0.1 0.7 0.1 1.1 0 0.5 0 1 0.2 1.5 0 0.1 0 0.2 0 0.3 0 1.1 0 2.1-0.1 3.2 0 0.6-0.3 1-0.4 1.5 -0.1 0.3-0.4 0.5-0.8 0.6 -0.7 0.1-1.4 0.2-2.1 0.1 -0.5-0.1-0.9-0.1-1.4 0.1 -0.1 0-0.2 0-0.3 0.1 -0.6 0.1-1.2 0.1-1.8 0.2 -1.6 0.3-3.1 0.4-4.7 0.5 -0.1 0-0.1 0-0.2 0 -0.7-0.3-1.5 0-2.2 0.1 -0.7 0.1-1.4 0.3-2.1 0.3 -1.5 0-3 0.3-4.5 0.5 -0.7 0.1-1.4 0.1-2.1 0.1 -1 0-2 0.1-3 0.1 -0.7 0-1.5 0-2.2 0C421.5 69.8 421.2 69.9 420.9 69.9zM420.8 62.5c0.3 0.3 0.6 0.2 0.9 0.2 0.4 0 0.9-0.1 1.3-0.1 0.5 0 1 0 1.5 0 0.6-0.1 1.2-0.1 1.8 0 0.9 0 1.7 0.2 2.6 0.1 1.6-0.1 3.2-0.1 4.8-0.4 1.4-0.2 2.8-0.4 4.2-0.4 0.9 0 1.9-0.2 2.8-0.5 0-0.3 0-0.6 0-0.9 -0.1-0.5-0.2-0.9-0.4-1.3 -0.3-0.6-0.5-1.2-0.7-1.8 -0.3-0.8-0.8-1.4-1.2-2.1 0 0 0 0-0.1-0.1 -0.5-0.4-1-0.7-1.6-0.9 -0.6-0.2-1.2-0.4-1.9-0.6 -0.1 0-0.3-0.1-0.4-0.1 -1-0.1-2.1-0.1-3.1-0.1 -1.3 0-2.5 0.3-3.8 0.7 -0.4 0.1-0.7 0.4-1.1 0.5 -0.8 0.2-1.6 0.6-2.3 1 -0.4 0.2-0.8 0.4-1.2 0.6 -0.2 0.1-0.5 0.2-0.6 0.4 -0.2 0.4-0.4 0.9-0.6 1.4 -0.1 0.4-0.1 0.8-0.3 1.1 -0.3 0.7-0.4 1.5-0.5 2.3C420.9 61.8 420.8 62.1 420.8 62.5z"/><path class="st0" d="M157 67.2c-0.5 0.3-1.1 0.5-1.6 0.5 -0.5 0-0.9 0.1-1.3 0.2 -1 0.2-2.1 0.3-3.1 0.2 -1.1-0.1-2.3-0.1-3.4-0.1 -0.7 0-1.5 0.2-2.2 0.3 -0.4 0.1-0.8 0.1-1.1 0.1 -0.3 0-0.6 0.1-1 0 -0.7 0-1.3 0.1-1.9 0.2 -0.8 0.2-1.7 0.2-2.6 0.1 -0.8-0.1-1.5 0-2.3 0 -1 0-2 0-2.9 0.2 -0.2 0-0.4 0-0.5-0.1 -0.3 0-0.5 0-0.8 0.1 -0.3 0.1-0.6 0.1-0.9 0.1 -0.9 0.1-1.7 0.2-2.6 0.3 -0.3 0-0.6 0.2-0.8 0.3 -0.2 0.7-0.1 1.4 0 2.1 0 0.1 0.1 0.3 0.1 0.4 0 0.8 0.1 1.5 0.3 2.2 0.1 0.3 0.2 0.6 0.3 0.9 0.3 0.7 0.6 1.3 0.9 2 0.2 0.4 0.3 0.7 0.6 0.9 0.5 0.4 0.9 0.9 1.4 1.3 1 0.8 2 1.5 3.2 1.9 0.2 0.1 0.5 0.1 0.7 0.2 1.3 0.2 2.6 0.4 4 0.4 0.4 0 0.8 0 1.2 0.1 0.4 0.1 0.8 0 1.2-0.2 0.4-0.1 0.9-0.2 1.3-0.3 0.9-0.2 1.7-0.4 2.5-1 0.9-0.7 1.9-1.3 2.9-1.9 0.2-0.2 0.5-0.4 0.7-0.5 0.2-0.2 0.4-0.4 0.5-0.7 0.1-0.3 0.4-0.6 0.4-0.9 0-0.4 0.2-0.7 0.3-1 0.1-0.3 0.3-0.5 0.6-0.6 0.2-0.1 0.4-0.3 0.6-0.4 0.4 0.1 0.8 0.2 1.3 0 0.1-0.1 0.4 0 0.5 0 0.3 0.1 0.5 0.1 0.8 0 0.1-0.1 0.3 0 0.4 0 0.2 0.1 0.4 0.1 0.7 0 0.2-0.1 0.4-0.1 0.6-0.1 0.7 0.2 1.5 0 2.2 0.2 0.1 0 0.1 0 0.2 0 0.5 0.1 1.5 1.2 1.6 1.7 0 0.2 0 0.4-0.1 0.6 -0.4 0.9-0.8 1.8-1.2 2.6 -0.3 0.6-0.7 1.1-1.1 1.6 -0.2 0.3-0.5 0.7-0.7 1 -0.4 0.8-1.1 1.4-1.7 2 -0.7 0.6-1.4 1.2-2 1.8 -0.3 0.3-0.6 0.5-0.9 0.8 -0.2 0.1-0.3 0.2-0.4 0.5 0 0.1-0.1 0.2-0.2 0.2 -0.6 0-0.9 0.7-1.5 0.8 -0.1 0-0.3 0.1-0.4 0.2 -0.6 0.4-1.2 0.8-2 1 -0.5 0.1-0.9 0.4-1.4 0.5 -0.6 0.1-1.2 0.2-1.8 0.5 -0.3 0.1-0.7 0.1-1.1 0.2 -0.7 0.1-1.5 0.2-2.2 0.1 -0.7 0-1.4-0.1-2-0.2 -1.2-0.2-2.3-0.6-3.4-1 -0.4-0.1-0.7-0.2-1.1-0.3 -0.7-0.1-1.3-0.3-1.8-0.7 -1-0.7-2.1-1.3-3.1-1.9 -0.7-0.4-1.3-0.9-2-1.4 -0.3-0.2-0.5-0.5-0.8-0.7 -0.1-0.1-0.2-0.2-0.3-0.2 -0.7-0.3-1.2-0.9-1.7-1.4 -0.4-0.3-0.8-0.7-1-1.1 -0.1-0.2-0.3-0.3-0.4-0.5 -0.3-0.3-0.5-0.7-0.6-1.2 0-0.2-0.1-0.5-0.2-0.7 -0.3-0.5-0.5-1.1-0.8-1.6 -0.1-0.3-0.3-0.6-0.4-0.9 -0.1-0.2-0.2-0.4-0.3-0.6 -0.2-0.3-0.4-0.6-0.3-1 0-0.1 0-0.1 0-0.2 -0.3-0.6-0.3-1.2-0.4-1.8 -0.1-0.3-0.2-0.7-0.3-1 -0.4-0.6-0.4-1.3-0.2-1.9 0.3-0.8 0.3-1.6 0.3-2.4 -0.1-1-0.1-2 0.1-2.9 0.1-0.6 0-1.3 0.1-2 0.1-0.9 0-1.7 0.2-2.6 0-0.1 0-0.2 0-0.3 0.5-0.9 0.3-1.9 0.4-2.9 0-0.3 0.1-0.6 0.3-0.9 0.2-0.3 0.3-0.6 0.4-1 0-0.1 0-0.3 0-0.4 -0.1-0.5-0.1-0.8 0.4-0.9 0.4-0.1 0.6-0.3 0.8-0.7 0.7-1.2 1.4-2.4 2.4-3.5 0.7-0.8 1.5-1.4 2.3-2 0.4-0.3 0.7-0.5 1.1-0.8 0.8-0.7 1.8-1 2.6-1.6 0.1-0.1 0.3-0.1 0.5-0.1 1-0.1 1.9-0.3 2.7-0.7 0.1-0.1 0.2-0.1 0.3-0.1 1-0.2 1.9-0.3 2.9-0.2 1 0.1 2.1 0.1 3.1 0.1 0.7 0 1.4 0.1 2.1 0.3 0.4 0.1 0.7 0.1 1.1 0.2 1 0.2 2 0.5 2.9 1.1 0.1 0 0.2 0.1 0.3 0.1 0.9 0.2 1.7 0.8 2.5 1.2 0.4 0.2 0.7 0.6 1.1 0.9 0.2 0.2 0.5 0.4 0.7 0.7 0 0 0.1 0 0.1 0.1 0.4 0.6 1 0.9 1.3 1.4 0.4 0.5 0.8 1 1.1 1.6 0.3 0.6 0.6 1.2 0.7 1.8 0.2 1.1 0.3 2.1 0.6 3.2 0.4 1.4 0.6 2.7 0.7 4.1 0.1 0.9 0.4 1.9 0.3 2.8 0 0.1 0 0.3 0.1 0.4C157.3 65.8 157.2 66.5 157 67.2zM148.9 56.4c0-0.1 0.1-0.2 0-0.2 -0.3-0.8-0.6-1.7-1.4-2.2 -0.2-0.1-0.4-0.3-0.5-0.5 -0.3-0.3-0.7-0.6-1.2-0.8 -0.5-0.2-1-0.3-1.5-0.4 -0.9-0.2-1.8-0.3-2.7-0.2 -0.4 0-0.8 0.1-1.2 0 -0.6 0-1.1 0.1-1.6 0.3 -0.5 0.2-0.9 0.4-1.4 0.5 -0.3 0.1-0.6 0.2-0.9 0.4 -0.5 0.3-0.9 0.6-1.4 0.8 -0.5 0.2-1 0.6-1.4 0.9 -0.2 0.2-0.4 0.3-0.6 0.4 -0.8 0.3-1.4 0.8-1.8 1.5 -0.4 0.6-0.8 1.2-1.2 1.8 -0.1 0.2-0.2 0.5-0.3 0.7 -0.1 0.2 0.1 0.4 0.3 0.3 0.2-0.1 0.4-0.2 0.7-0.2 0.5-0.1 1-0.2 1.5-0.3 0.8-0.2 1.6-0.4 2.3-0.6 0.8-0.2 1.7-0.4 2.5-0.6 0.7-0.2 1.4-0.4 2.1-0.5 0.7-0.1 1.4-0.3 2.1-0.5 0.3-0.1 0.5-0.2 0.8-0.2 0.6-0.1 1.2-0.2 1.7 0.2 0.1 0.1 0.3 0.1 0.4 0.1 0.8-0.1 1.5-0.1 2.3-0.3 0.2-0.1 0.4 0 0.5 0C147.6 56.7 148.3 56.7 148.9 56.4zM146.7 60.5c0.6-0.1 1.1-0.2 1.6-0.4 0.5-0.1 1-0.2 1.5-0.3 0.5-0.1 0.5-0.5 0.2-0.8 -0.1-0.2-0.3-0.3-0.6-0.2 -0.3 0-0.6 0.2-1 0.1 -0.7-0.1-1.4 0.3-2.1 0.3 -0.2 0-0.3 0.2-0.3 0.4C146.1 60 146.3 60.3 146.7 60.5z"/><path class="st0" d="M367.6 47.7c0.1-0.3 0.1-0.6 0.2-0.8 0.1-0.2 0.4-0.3 0.6-0.5 0.1-0.1 0.2-0.3 0.3-0.5 0.2-0.5 0.5-0.9 1-1.3 0.1 0 0.2 0 0.4-0.1 0.3-0.1 0.6 0.2 0.9 0.1 0.3 0 0.6-0.2 0.8-0.2 0.2 0 0.4 0 0.6 0.1 0.8 0.3 1.3 1 1.2 1.9 0 0.4 0 0.8 0 1.3 0 0.2 0 0.2 0.4 0.6 0.4-0.3 0.9-0.4 1.3-0.7 0.5-0.4 1.1-0.8 1.8-1 0.2-0.1 0.4-0.2 0.7-0.3 0.6-0.3 1.1-0.5 1.7-0.6 0.6-0.1 1.1-0.4 1.7-0.5 0.3-0.1 0.6-0.1 0.9-0.2 1-0.1 2 0 3 0.1 1.7 0.1 2.3 0.4 4 0.8 0.7 0.2 1.3 0.2 2 0.4 0.2 0 0.4 0 0.5 0.1 0.5 0.3 1.1 0.4 1.6 0.6 0.1 0 0.3 0.1 0.3 0 0.3-0.3 0.5-0.1 0.8 0 0.5 0.2 0.9 0.5 1.3 0.8 0.7 0.5 1.2 1.1 1.9 1.5 0.5 0.3 0.9 0.9 1.2 1.4 0.2 0.4 0.4 0.7 0.6 0.9 0.9 1 1.6 2.1 2.2 3.3 0.4 0.8 0.6 1.6 0.7 2.5 0.1 0.9 0.4 1.9 0.5 2.8 0 0.3 0.1 0.5 0 0.8 0 0.3 0 0.5 0.1 0.8 0.2 0.5 0.5 0.9 0.4 1.4 0 0.1 0 0.2 0.1 0.3 0.4 0.4 0.3 0.9 0.3 1.4 0.1 1.2 0.2 2.4 0.3 3.6 0.1 0.9 0.2 1.7-0.1 2.6 -0.1 0.2 0 0.5 0 0.8 0 0.4 0.1 0.8 0.1 1.2 0 0.6-0.1 1.1-0.1 1.7 0 0.1 0 0.1 0 0.2 0.2 0.6-0.1 1.2-0.1 1.9 0 0.8-0.1 1.7-0.1 2.5 0 0.9 0 1.8 0 2.7 0 0.5 0 1.1-0.1 1.6 0 0.2 0 0.4-0.1 0.6 -0.3 0.5-0.2 0.9-0.1 1.4 0 0.2 0 0.4 0 0.5 -0.1 0.3-0.1 0.5 0 0.8 0.1 0.8-0.5 1.6-1.4 1.6 -0.4 0-0.8 0-1.2-0.1 -0.3-0.1-0.6 0-0.9 0.2 -0.4 0.2-0.8 0.5-1.2 0.8 -0.6 0.4-1.2 0.6-1.9 0.8 -0.2 0.1-0.5 0.1-0.8 0 -0.6-0.1-1.2-0.1-1.7-0.4 -0.1 0-0.1-0.1-0.2-0.1 -0.7 0.1-1-0.5-1.6-0.8 -0.1-0.1-0.2-0.3-0.3-0.4 -0.2-0.3-0.3-0.6-0.5-0.8 -0.2-0.1-0.1-0.4-0.1-0.6 0-0.7 0.1-1.3 0.3-1.9 0.2-0.7 0.4-1.3 0.4-2.1 0-0.4 0.1-0.8 0.2-1.1 0.1-0.6 0.3-1.2 0.2-1.8 -0.1-1 0.2-1.9 0.3-2.8 0.1-0.7 0.1-1.3 0.1-2 0-0.5 0.1-1.1 0.1-1.6 0.1-0.7 0.2-1.4 0.2-2 0-0.3-0.1-0.7-0.2-1 -0.1-0.3-0.1-0.6-0.1-0.9 0-0.2 0-0.4 0-0.5 0.1-0.8 0.2-1.6 0.1-2.5 -0.1-0.6 0-1.3 0-2 0-0.8 0.1-1.6-0.1-2.4 -0.2-0.9-0.5-1.9-0.7-2.8 -0.2-0.7-0.4-1.5-0.9-2 -0.2-0.8-0.9-1.3-1.2-2.1 0-0.1-0.1-0.2-0.2-0.3 -0.6-0.4-0.9-1.1-1.4-1.6 -0.4-0.5-0.8-0.9-1.3-1.2 -0.5-0.3-1-0.5-1.6-0.3 -0.9 0.3-1.9 0.4-2.9 0.6 -0.6 0.1-1.2 0.3-1.8 0.6 -0.4 0.3-0.9 0.5-1.4 0.7 -0.3 0.1-0.5 0.3-0.8 0.5 -0.2 0.2-0.5 0.4-0.8 0.5 -0.1 0-0.3 0.1-0.4 0.2 -0.7 0.8-1.6 1.3-2.2 2.2 -0.1 0.1-0.3 0.2-0.4 0.3 -0.3 0.3-0.7 0.6-1 1 -0.3 0.3-0.4 0.7-0.4 1.2 0 1-0.1 1.9 0 2.9 0 1.8 0.1 3.6 0.1 5.4 0 0.7 0 1.5 0 2.2 0.1 1.1 0 2.2 0.1 3.3 0 0.8 0.1 1.7 0.2 2.5 0 0.9 0 1.7 0 2.6 0 0.7 0 1.4 0.1 2.1 0.1 0.7 0.1 1.4 0 2 -0.1 1 0 1.9 0.1 2.9 0.1 0.6 0.1 1.3 0.1 1.9 0 0.4-0.2 0.7-0.6 0.9 -0.4 0.2-0.9 0.4-1.4 0.2 -0.3-0.1-0.7-0.1-1.1-0.2 -0.2 0.1-0.4 0.2-0.6 0.3 -0.5 0.2-0.9 0.3-1.4 0 -0.1-0.1-0.3 0-0.4-0.1 -0.1 0-0.2 0-0.2-0.1 -0.3-0.5-0.8-0.5-1.2-0.6 -0.1 0-0.1 0-0.2 0 -0.3-0.1-0.5-0.3-0.6-0.6 -0.1-0.3-0.1-0.5-0.1-0.8 0-0.8 0-1.5-0.2-2.3 -0.1-0.4-0.1-0.9-0.1-1.3 0-0.6 0-1.1 0-1.7 0-0.1 0-0.2 0-0.4 0.1-1 0.1-2.1 0-3.1 0-0.3 0-0.6 0.1-1 0-0.2 0-0.4 0-0.5 -0.2-0.4-0.1-0.9-0.1-1.3 0-0.3 0-0.7-0.1-1 -0.1-0.2-0.1-0.5-0.1-0.7 0-0.2 0-0.4 0-0.5 -0.2-1.4-0.2-2.8-0.3-4.2 0-0.3-0.1-0.6-0.1-0.9 0-1.2-0.1-2.3-0.1-3.5 0-0.1 0-0.2 0-0.3 -0.2-0.7-0.1-1.4-0.2-2.1 -0.2-2-0.3-3.9-0.5-5.9 -0.1-0.5-0.1-1-0.1-1.5 0-0.6-0.1-1.2-0.1-1.8 -0.1-1.3-0.1-2.6-0.2-3.8 0-0.4 0-0.8 0.2-1.2 0.1-0.2 0.1-0.4 0.1-0.6 0.1-0.8 0.6-1.3 1.4-1.3 0.4 0 0.8 0.2 1.1 0.5 0.3 0.3 0.5 0.7 0.5 1.2C367.5 47.7 367.5 47.7 367.6 47.7z"/><path class="st0" d="M323.7 57.1c-0.4-0.3-0.7-0.5-1.1-0.8 -0.4-0.4-0.9-0.7-0.9-1.3 -1.3-0.4-1.5-0.6-1.9-1.9 0-0.1-0.1-0.3-0.1-0.5 0.2-0.3 0.5-0.6 0.7-0.9 0.6-0.8 1.2-1.6 2-2.3 0.2-0.2 0.5-0.3 0.7-0.5 0.5-0.4 1.2-0.5 1.6-1 0 0 0.1-0.1 0.2-0.1 0.7-0.1 1.3-0.5 1.9-0.8 0.2-0.1 0.5-0.1 0.7-0.2 0.6-0.1 1.2-0.2 1.8-0.5 0.3-0.1 0.7-0.1 1-0.1 0.2 0 0.4 0 0.6-0.1 0.5-0.1 1-0.2 1.6-0.1 0.8 0.1 1.5 0.2 2.3 0.4 1.1 0.4 2.3 0.5 3.3 1.2 0.6 0.4 1.2 0.6 1.9 0.9 0.8 0.4 1.5 0.9 2.2 1.5 0.6 0.5 1.2 0.9 1.8 1.4 0.4 0.3 0.7 0.6 1.1 0.9 0.4 0.3 0.7 0.7 1.1 0.9 0.5 0.3 0.9 0.8 1.2 1.4 0.4 0.9 0.9 1.7 1.4 2.6 0.1 0.3 0.2 0.5 0.4 0.8 0.1 0.3 0.2 0.6 0.3 0.8 0.3 0.6 0.5 1.3 0.8 1.9 0.1 0.2 0.1 0.4 0 0.6 -0.2 0.3-0.1 0.6-0.1 1 0 0.4 0 0.7 0 1.1 0 0.1 0 0.3 0 0.4 0.2 1 0.2 2.1 0.3 3.1 0 0.3-0.1 0.7-0.1 1.1 0 0.3 0.3 0.6 0.3 0.9 0.1 0.7 0 1.4 0 2.1 0 0.1-0.1 0.3 0 0.4 0.3 0.7 0 1.3 0.2 2 0.1 0.7 0.3 1.3 0.4 2 0.1 0.8 0.3 1.5 0.2 2.3 -0.1 0.7-0.1 1.4-0.1 2.1 0 0.3 0 0.5 0.1 0.8 0.2 1 0.1 2 0 3 0 0.1 0 0.3 0 0.4 0.1 0.4 0 0.8-0.1 1.1 -0.1 0.3-0.1 0.5-0.1 0.8 0.1 0.7 0 1.5-0.1 2.2 0 0.3-0.1 0.6-0.2 0.9 0 0.1-0.2 0.3-0.3 0.4 -0.3-0.1-0.6-0.6-1-0.4 0 0-0.1 0-0.2-0.1 -0.1-0.1-0.2-0.3-0.4-0.2 -0.1 0.1-0.3 0.2-0.3 0.4 -0.2 0.3-0.5 0.3-0.9 0.4 -0.3-0.3-0.7-0.4-1.1-0.3 -0.2 0.1-0.5 0-0.7-0.1 -0.3-0.1-0.6-0.1-0.9-0.3 -0.3-0.2-0.2-0.6-0.4-0.9 -0.1-0.1-0.2-0.2-0.2-0.4 -0.2-0.5-0.4-1-0.3-1.6 0.1-0.5 0-1.1-0.1-1.6 -0.4 0.1-0.9 0-1.2 0.2 -0.3 0.1-0.5 0.1-0.8 0.2 -1.1 0.2-2.2 0.4-3.2 0.6 -0.1 0-0.2 0.1-0.3 0.1 -0.2 0.1-0.5 0.2-0.8 0.1 -0.6-0.1-1.1 0-1.7 0.2 -1 0.3-2.1 0.5-3.2 0.6 -0.2 0-0.4 0.1-0.6 0 -1.2-0.2-2.3-0.1-3.5 0.1 -0.1 0-0.3 0-0.4 0 -0.3 0-0.6-0.1-0.9 0 -1 0.1-1.9-0.1-2.8-0.3 -0.6-0.1-1.2-0.2-1.8-0.3 -0.6-0.1-1.2-0.3-1.7-0.5 -0.4-0.2-0.9-0.4-1.3-0.6 -0.4-0.1-0.7-0.3-0.8-0.6 -0.1-0.3-0.4-0.6-0.6-0.9 -0.4-0.4-0.7-0.8-0.9-1.3 0-0.1-0.1-0.2-0.2-0.3 -0.6-0.6-0.6-1.4-0.5-2.1 0.1-0.9 0.1-1.8 0.3-2.7 0.1-0.3 0.1-0.6 0.3-0.9 0.2-0.4 0.3-0.8 0.5-1.2 0.2-0.4 0.3-0.8 0.6-1.1 0.2-0.2 0.4-0.5 0.5-0.8 0.1-0.3 0.4-0.6 0.7-0.9 0.5-0.6 0.9-1.2 1.5-1.7 0.4-0.3 0.7-0.8 1.1-1.1 0.4-0.3 0.7-0.7 1.1-1.1 0.3-0.2 0.7-0.4 1-0.6 0.8-0.5 1.5-1 2.3-1.5 0.2-0.1 0.3-0.3 0.5-0.3 0.5-0.1 1-0.4 1.5-0.6 0.6-0.3 1.2-0.6 1.9-0.7 0.1 0 0.3-0.1 0.4-0.1 0.6-0.2 1.1-0.4 1.7-0.3 0.2 0 0.4-0.1 0.6-0.1 0.3-0.1 0.6-0.1 0.9-0.2 0.3-0.1 0.6-0.1 1-0.2 0.1 0 0.2-0.1 0.3-0.1 0.5 0.1 1.1 0 1.5-0.3 1.6-0.2 3.3-0.4 5-0.1 0.1 0 0.1 0 0.2 0 0.5 0 0.9 0 1.4 0 -0.2-0.7-0.1-1.4-0.4-2.1 -0.1-0.9-0.6-1.6-0.8-2.4 -0.1-0.3-0.3-0.5-0.4-0.8 -0.2-0.3-0.4-0.5-0.6-0.8 -0.6-1-1.5-1.6-2.4-2.3 -0.7-0.6-1.6-0.9-2.4-1.3 -0.7-0.3-1.4-0.6-2.2-0.8 -0.7-0.2-1.4 0-2 0 -0.3 0-0.6 0.1-1 0.1 -0.4 0-0.7 0.2-1.1 0.3 -0.4 0.1-0.7 0.3-1.1 0.4 -0.8 0.4-1.5 0.9-2.2 1.5 -0.2 0.2-0.3 0.4-0.5 0.6 -0.2 0.2-0.2 0.5-0.1 0.8 0 0.1 0.1 0.2 0.1 0.3 0.1 0.5 0 0.6-0.5 0.7C325.2 57.1 324.4 56.9 323.7 57.1zM325.2 75.7c0.5-0.1 0.9-0.4 1.3-0.7 0.5-0.5 1.1-1 1.7-1.4 0.2-0.1 0.4-0.4 0.5-0.6 0.1-0.2-0.1-0.5-0.3-0.4 -0.4 0.2-0.9-0.1-1.2 0.3 -0.1 0.1-0.2 0.1-0.3 0.1 -0.3 0.2-0.6 0.4-0.9 0.6 -0.4 0.3-0.7 0.7-1 1 -0.1 0.1-0.2 0.2-0.3 0.4C324.9 75.3 325 75.5 325.2 75.7c-0.2 0-0.3-0.1-0.5-0.2 -0.3-0.1-0.3-0.1-0.4 0.3 0.1 0.1 0.2 0.1 0.3 0.2 0.3 0.1 0.3 0.1 0.5-0.2C325.1 75.8 325.1 75.7 325.2 75.7zM344.7 71.3c-0.2 0-0.4 0-0.6 0.1 -0.5 0.1-1.1 0.3-1.5-0.2 -0.4 0-0.7-0.1-1 0 -0.5 0.2-1.1 0.2-1.5 0.4 -0.3 0.1-0.6 0.2-0.9 0.3 -0.9 0.4-1.7 0.8-2.6 1.2 -0.1 0-0.1 0.1-0.1 0.1 -0.7 0.5-1.3 1-2 1.5 -0.4 0.3-0.9 0.7-1.3 1 -0.5 0.4-0.9 0.8-1.3 1.2 -0.2 0.2-0.5 0.4-0.7 0.6 -0.6 0.6-1.2 1.3-1.8 1.9 -0.2 0.2-0.4 0.5-0.3 0.8 0.4 0.5 0.9 0.9 1.6 0.8 0.1 0 0.1 0 0.2 0.1 0.3 0 0.7 0.1 1 0 0.8-0.1 1.6-0.3 2.5-0.4 0.4-0.1 0.8-0.2 1.1-0.2 1 0 2-0.2 2.9-0.6 0.4-0.2 0.9-0.3 1.3-0.5 1-0.4 2.1-0.6 3-1.4 0.7-0.3 1.2-0.8 1.8-1.1 0.1-0.3-0.1-0.5 0.1-0.7 0.1-0.1 0.2-0.4 0.2-0.6 0-1.3 0.1-2.6 0.1-3.9C344.8 71.6 344.7 71.5 344.7 71.3z"/><path class="st0" d="M197.9 45.1c0.2 0 0.4 0 0.6-0.1 0.3-0.1 0.7 0 0.9 0.1 0.3 0.2 0.6 0.4 0.8 0.7 0.2 0.2 0.2 0.6 0 0.8 -0.2 0.4-0.2 0.8-0.1 1.1 0.1 0.3 0.1 0.5 0 0.8 -0.1 0.2-0.1 0.4-0.1 0.6 0 0.5-0.2 0.9-0.4 1.2 -0.6 0.9-1.3 1.7-1.9 2.5 -0.6 0.8-1.3 1.6-2 2.4 -0.5 0.6-1.1 1.1-1.6 1.6 -0.5 0.5-0.8 1.1-1.1 1.6 -0.3 0.5-0.7 1-1.1 1.5 -0.8 0.8-1.5 1.6-2.2 2.4 -0.5 0.6-0.9 1.2-1.3 1.8 -0.1 0.2-0.2 0.4-0.4 0.5 -0.4 0.4-0.6 0.9-0.9 1.3 0.4 0.6 0.9 1 1.3 1.4 0.6 0.6 1.2 1.3 1.6 2 0.1 0.2 0.2 0.3 0.4 0.5 0.4 0.5 0.9 1 1.3 1.6 0.3 0.5 0.7 0.9 1.1 1.3 0.3 0.3 0.5 0.6 0.8 1 0.3 0.3 0.6 0.7 0.8 1 0.6 0.8 1.1 1.6 1.7 2.4 0.1 0.2 0.2 0.4 0.4 0.6 0.7 0.7 1.2 1.5 1.7 2.3 0.2 0.3 0.4 0.5 0.6 0.7 0.6 0.7 1.2 1.3 1.8 2 0.2 0.3 0.4 0.6 0.5 0.9 0.1 0.3 0.3 0.6 0.5 0.8 0.4 0.6 0.9 1.2 1.5 1.7 0.1 0.1 0.2 0.2 0.2 0.3 0.5 0.7 0.4 0.8-0.2 1.4 -0.2 0.2-0.4 0.4-0.6 0.5 -0.9 0.1-1.6-0.3-2.3-0.9 -0.4-0.3-0.8-0.6-1.3-0.8 -0.2-0.1-0.4-0.1-0.6 0 -0.3 0.2-0.6 0.5-0.9 0.8 -0.1 0.1-0.3 0.2-0.5 0.2 -0.3-0.1-0.7 0-0.9-0.4 -0.7-0.3-1.1-0.9-1.6-1.4 -0.1-0.1-0.1-0.2-0.2-0.3 -1.2-0.9-2-2.2-3-3.3 -0.4-0.5-0.7-1.1-1.2-1.6 -0.4-0.5-0.8-1-1.2-1.6 -0.2-0.3-0.5-0.6-0.7-0.9 -0.5-0.6-1-1.2-1.4-1.8 -0.3-0.5-0.7-0.9-1.2-1.3 -0.9-0.8-1.9-1.7-2.8-2.5 -0.3-0.2-0.5-0.7-1-0.7 -0.4 0.3-0.8 0.7-1.2 1.1 -0.5 0.6-1 1.2-1.4 1.9 -0.2 0.3-0.4 0.6-0.7 0.8 -0.5 0.6-1.1 1.1-1.5 1.8 0 0.1-0.1 0.1-0.2 0.2 -0.8 0.7-1.4 1.6-2.1 2.4 -0.8 0.9-1.6 1.8-2.5 2.6 -0.9 0.8-1.6 1.6-2.4 2.5 -0.3 0.3-0.6 0.6-0.9 1 -0.3 0.3-0.7 0.7-1 1 -0.5 0.6-1.2 1-1.7 1.5 -0.1 0.1-0.3 0.2-0.5 0.2 -0.5 0-1 0-1.4 0 -0.3 0-0.6 0-0.9 0.3 -0.4 0.4-0.8 0.7-1.3 0.9 -0.2 0.1-0.3 0.2-0.5 0.3 -0.2 0.1-0.3 0.2-0.5 0.2 -0.3-0.1-0.6-0.1-0.9-0.3 -0.2-0.1-0.4-0.4-0.2-0.7 0.1-0.3 0.2-0.6 0.4-0.8 0.1-0.3 0.2-0.5 0-0.8 -0.1-0.2-0.1-0.4 0-0.6 0.2-0.4 0.1-0.8-0.2-1.1 -0.2-0.2-0.1-0.4 0.1-0.6 0.5-0.5 0.9-1.2 1.3-1.8 0.2-0.2 0.3-0.4 0.5-0.6 0.3-0.3 0.4-0.6 0.6-1 0.1-0.2 0.2-0.5 0.3-0.6 0.8-0.7 1.2-1.7 2-2.4 0.3-0.3 0.5-0.5 0.7-0.8 1.1-1 2.1-2.2 3-3.4 0.3-0.4 0.5-0.8 0.8-1.2 0.7-0.9 1.4-1.7 2.1-2.5 0.4-0.5 0.7-1 1.1-1.5 0.7-0.8 1.2-1.8 1.9-2.6 0.6-0.6 1.1-1.3 1.7-2 -0.4-0.7-0.8-1.4-1.4-2 -0.7-0.7-1.4-1.5-2-2.2 -0.6-0.6-1.2-1.3-1.7-1.9 -0.6-0.7-1.1-1.4-1.6-2.1 -1.1-1.6-2.2-3.2-3.4-4.8 -1-1.3-1.8-2.8-2.6-4.2 -0.3-0.5-0.5-0.9-0.4-1.5 0-0.4-0.1-0.9-0.2-1.3 -0.1-0.5 0-0.6 0.4-0.9 0.4-0.2 0.7-0.4 1-0.8 0.3-0.4 0.6-0.6 1.1-0.6 0.2 0 0.5 0 0.8 0 0.2 0.2 0.4 0.4 0.6 0.7 0.3 0.4 0.6 0.7 1.1 0.7 0.2 0 0.3 0.1 0.5 0.2 0.4 0.1 0.7 0.1 1.1-0.1 0.9-0.4 1.6-0.2 2.1 0.6 0.5 0.8 1 1.5 1.7 2.2 0.1 0.1 0.3 0.3 0.4 0.5 0.6 0.9 1.2 1.8 1.8 2.7 0.3 0.4 0.5 0.8 0.9 1.1 0.4 0.8 1.1 1.3 1.5 2.1 0.1 0.2 0.3 0.4 0.5 0.6 0.8 1.1 1.7 2.1 2.5 3.2 0.1 0.1 0.1 0.3 0.2 0.4 0.2 0.2 0.3 0.4 0.5 0.6 0.2 0.2 0.4 0.1 0.6-0.1 0.6-0.9 1.3-1.6 2.1-2.3 0.6-0.5 1.2-1.2 1.8-1.7 0.5-0.5 0.9-0.9 1.4-1.4 0.1-0.1 0.3-0.3 0.5-0.4 0.7-0.4 1.2-1 1.6-1.6 0.3-0.4 0.6-0.8 0.9-1.1 0.8-0.9 1.7-1.8 2.4-2.7 0.1-0.1 0.2-0.2 0.3-0.3 0.7-0.5 1.1-1.2 1.8-1.6 0.1-0.1 0.2-0.2 0.3-0.3 0.3-0.3 0.5-0.6 1-0.5 0 0 0.1 0 0.1 0 0.2 0 0.4-0.3 0.7-0.1C197.6 44.7 197.8 44.9 197.9 45.1z"/><path class="st0" d="M293.7 87.4c-0.2 0.2-0.4 0.4-0.6 0.5 -0.2 0.1-0.4 0.2-0.6 0.3 0 0.9 0 0.9-0.9 1.1 -0.5 0.1-1.1 0-1.4-0.5 -0.2-0.3-0.3-0.7-0.3-1.1 0-0.7 0-1.4-0.2-2 -0.1-0.3-0.1-0.7-0.1-1.1 -0.1-0.9-0.3-1.7-0.3-2.6 0-0.4-0.1-0.8-0.1-1.2 0-0.3-0.1-0.5 0-0.8 0.1-0.8 0-1.7-0.1-2.5 -0.1-0.6-0.1-1.1-0.1-1.7 0.1-1.7 0.1-3.4-0.1-5.1 -0.1-0.4 0-0.9-0.1-1.3 0-0.1-0.1-0.2-0.1-0.3 -0.1-0.2-0.1-0.5-0.1-0.7 0-0.9-0.2-1.8-0.3-2.7 -0.1-0.7-0.2-1.5-0.3-2.2 -0.2-1.1-0.2-2.2-0.4-3.3 -0.1-0.7-0.3-1.4-0.2-2.1 0-0.4-0.1-0.8-0.2-1.2 -0.1-0.6-0.1-1.2-0.2-1.8 -0.1-1.5-0.3-3-0.4-4.5 0-0.2 0-0.4 0-0.6 0-0.8 0.1-1.5 0.1-2.3 0-0.5 0.2-0.8 0.6-1 0.3-0.2 0.6-0.5 1-0.7 0.3-0.1 0.5-0.1 0.8 0 0.2 0.1 0.4 0.3 0.6 0.3 0.2 0 0.4-0.2 0.7-0.3 0.4 0.2 0.9 0.5 1.4 0.7 0.1-0.1 0.2-0.2 0.3-0.4 0.1-0.2 0.2-0.4 0.3-0.5 0.6-0.6 1.5-0.4 1.8 0.4 0.2 0.6 0.3 1.2 0.2 1.8 -0.1 0.8 0.1 1.6 0.1 2.4 0.1 1.5 0.4 3 0.4 4.5 0 0.1 0 0.2 0 0.3 0.1 0.1 0.1 0.2 0.2 0.2 0.1 0 0.2-0.1 0.3-0.1 0.3-0.5 0.5-0.9 0.8-1.4 0.4-0.6 0.8-1.2 1.1-1.8 0.2-0.3 0.4-0.7 0.6-1 0.1-0.1 0.1-0.2 0.2-0.3 0.9-1.2 1.8-2.3 3.1-3.1 0.3-0.2 0.5-0.4 0.7-0.5 0.3-0.2 0.6-0.3 0.8-0.5 0.3-0.1 0.4-0.5 0.8-0.4 0.1 0 0.2-0.1 0.3-0.2 0.2-0.1 0.3-0.3 0.5-0.3 0.6-0.2 1.1-0.3 1.7-0.6 0.1-0.1 0.3 0 0.4 0 0.1 0 0.3 0 0.4 0 0.7-0.4 1.4-0.3 2.2-0.5 0.1 0 0.3 0 0.4-0.1 0.5-0.2 0.9-0.3 1.4-0.3 0.4 0 0.7-0.2 1.1-0.2 0.3 0.1 0.7 0.1 1.1 0.1 0.2 0 0.4 0 0.6 0 0.7-0.1 1.2 0.4 1.6 0.9 0.2 0.2 0.3 0.4 0.4 0.6 0.1 0.2 0.3 0.4 0.5 0.6 -0.1 0.5-0.1 1-0.2 1.5 0 0.3-0.1 0.6-0.1 0.9 0.1 0.8-0.1 1.5-0.2 2.3 0 0.1 0 0.2-0.1 0.3 -0.2 0.5-0.4 1-0.6 1.5 -0.3 0.2-0.7 0.1-1.1 0.1 -0.6-0.1-1.1-0.2-1.7-0.3 -0.9-0.1-1.8-0.1-2.6 0.2 -0.7 0.3-1.6 0.4-2.3 0.6 -0.8 0.3-1.7 0.5-2.4 1.1 -0.3 0.3-0.6 0.3-1 0.3 -0.2 0.2-0.3 0.4-0.5 0.6 -0.4 0.4-0.7 0.7-0.9 1.2 -0.1 0.1-0.1 0.2-0.2 0.3 -0.9 1-1.5 2.2-2.2 3.3 -0.3 0.5-0.5 1.1-0.7 1.6 -0.3 0.7-0.4 1.5-0.9 2.2 -0.2 0.2-0.2 0.5-0.3 0.7 -0.1 0.4-0.3 0.7-0.4 1.1 -0.1 0.2-0.2 0.5-0.3 0.7 -0.4 1.5-0.8 3-1.3 4.6 -0.1 0.3-0.1 0.5-0.1 0.8 0 0.2 0 0.4 0 0.6 -0.2 0.8-0.3 1.7-0.5 2.5 -0.1 0.4-0.1 0.9-0.1 1.3 0 0.9 0 1.8 0 2.7 0 0.5 0.1 1.1 0.2 1.6 0.1 0.5 0 0.9 0 1.4 0.1 0.5 0.1 0.9 0.1 1.4 0 0.2 0 0.5-0.1 0.7 0 0.2-0.1 0.3 0 0.5 0.3 0.4 0.2 0.8-0.1 1.1 -0.1 0.1-0.2 0.3-0.2 0.5 -0.1 0.7-0.6 1.1-1.2 1.3C294.1 87.5 293.9 87.4 293.7 87.4z"/><path class="st0" d="M102.7 30.7c0.3-0.4 0.4-0.7 0.5-1.1 0-0.2 0.1-0.5 0.2-0.7 0.2-0.4 0.5-0.6 0.9-0.6 0.4 0 0.7 0 1.1-0.3 0.3-0.2 0.6-0.2 0.9 0 0.1 0.1 0.2 0.1 0.3 0.2 0.6 0.1 0.8 0.5 0.8 1.1 0 0.9 0 1.8 0 2.8 0 0.4 0 0.8 0.2 1.2 0.1 0.1 0.1 0.3 0.1 0.5 0 0.3 0 0.7 0 1 0 0.9 0 1.7 0.1 2.6 0.1 0.8 0 1.5 0 2.3 0 0.3 0 0.5 0 0.8 0.3 2.1 0.5 4.3 0.6 6.5 0 0.8 0.1 1.6 0.2 2.4 0 0.4 0.2 0.8 0.2 1.1 0.2 1.5 0.4 3 0.5 4.4 0.1 0.6 0 1.2 0.1 1.9 0 0.6 0.1 1.2 0.2 1.9 0.1 0.9 0.1 1.8 0.1 2.8 0 0.8-0.1 1.7-0.1 2.5 0 0.6 0.1 1.2 0.2 1.8 0.1 0.5 0.2 0.9 0.2 1.4 0.1 1 0.2 2.1 0.1 3.1 -0.1 1.6-0.1 3.2-0.1 4.8 0 1 0 2-0.1 2.9 0 0.1 0 0.2 0 0.3 0.1 0.8 0.2 1.7 0.3 2.5 0 0.4 0.1 0.8 0.1 1.2 0.1 0.4 0.1 0.8 0.2 1.2 0.1 0.5 0.1 1.1 0.1 1.6 0 0.8 0 1.7 0.1 2.5 0.1 0.9-0.7 1.6-1.5 1.6 -0.1 0-0.2 0-0.3 0 -0.6-0.1-1 0.1-1.4 0.5 -0.4 0.4-0.9 0.5-1.5 0.4 -0.6-0.1-1.2-0.1-1.8-0.1 -0.7 0-1.3-0.7-1.3-1.2 -0.1-1-0.4-2.1-0.2-3.1 0.1-0.4 0-0.8 0-1.2 -0.1-0.9 0-1.8-0.2-2.7 -0.2-1.3-0.2-2.7-0.3-4 0-0.5-0.1-1.1-0.1-1.6 0-0.2 0-0.5 0-0.7 0-0.1 0-0.3 0-0.4 0-0.2-0.1-0.5-0.1-0.7 -0.1-1.2-0.2-2.5-0.2-3.7 0-0.1 0-0.3 0-0.4 -0.4-1.8-0.5-3.7-0.5-5.6 0-0.8-0.1-1.7-0.1-2.5 0-0.1 0-0.1 0-0.2 -0.1-0.4 0.2-0.7-0.1-1.1 -0.2-0.3-0.2-0.7-0.2-1 0-0.5-0.1-1-0.1-1.4 0-1 0-2.1 0-3.1 0-0.7-0.1-1.3-0.1-2 -0.1-1.2-0.2-2.4-0.1-3.7 0.1-1.1-0.2-2.2-0.1-3.3 0-0.4 0-0.7 0-1.1 0-0.8-0.1-1.5-0.1-2.3 0-0.6 0-1.1-0.1-1.7 0-0.3-0.1-0.6-0.1-0.9 0-0.4-0.1-0.7-0.1-1.1 0-0.2 0-0.4 0-0.6 -0.2-1.1-0.3-2.2-0.3-3.3 0-0.5-0.1-1.1-0.2-1.6 -0.1-0.7 0.2-1.3 0.7-1.8 0.3-0.2 0.5-0.5 0.8-0.6 0.4-0.2 0.8-0.3 1.3-0.2C102.3 30.7 102.5 30.7 102.7 30.7z"/><path class="st0" d="M281.2 6c0.1 0 0.2 0 0.2 0 0.1 0.2 0.2 0.3 0.3 0.5 0.2 0.2 0.3 0.4 0.5 0.7 0.1 0.1 0.2 0.2 0.3 0.3 0 0 0 0 0.1 0.1 0.1 0.2 0.1 0.4 0.2 0.5 0.1 0.2 0.3 0.5 0.4 0.7 0 0.1 0.1 0.2 0.1 0.2 0.1 0.1 0.1 0.3 0.2 0.4 0 0.4 0.1 0.8 0 1.2 -0.1 0.3-0.1 0.7-0.4 0.9 -0.1 0.1-0.2 0.2-0.2 0.4 -0.1 0.2-0.3 0.3-0.4 0.5 0 0-0.1 0-0.1 0 0 0.3-0.3 0.3-0.5 0.5 -0.2 0.2-0.5 0.4-0.4 0.8 0.1 0.3-0.2 0.6-0.2 0.9 0 0.1-0.1 0.1-0.2 0.1 -0.2 0.1-0.3 0.3-0.6 0.3 -0.1 0-0.2 0-0.3 0.1 0 0-0.1 0-0.1 0 -0.1 0-0.2-0.1-0.3-0.1 -0.2 0-0.5-0.4-0.6-0.5 0-0.1-0.1-0.1-0.1-0.2 -0.2-0.3-0.4-0.7-0.8-0.9 -0.2-0.1-0.3-0.3-0.5-0.4 -0.1-0.1-0.3-0.1-0.4-0.2 -0.2-0.2-0.5-0.3-0.7-0.5 -0.1-0.2-0.4-0.3-0.6-0.4 -0.2-0.2-0.5-0.4-0.7-0.6 -0.2-0.1-0.3-0.2-0.5-0.3 -0.1-0.1-0.3-0.2-0.4-0.3 0 0 0 0 0 0 -0.2-0.1-0.5-0.1-0.7-0.2 -0.3-0.1-0.7-0.2-1-0.3 -0.4-0.1-0.7-0.2-1.1-0.2 -0.1 0-0.2-0.1-0.3-0.1 0 0 0 0 0 0 -0.3-0.1-0.6-0.2-0.8-0.2 -0.3 0-0.7 0-1 0 -0.2 0-0.4 0-0.5-0.1 0 0-0.2 0-0.3 0 -0.1 0-0.2 0.1-0.3 0.1 -0.9 0-1.7 0-2.6 0 -0.1 0-0.3 0-0.3 0.1 0 0 0 0-0.1 0 -0.2 0-0.5 0.1-0.7 0.2 -0.4 0.1-0.9 0.1-1.3 0.2 -0.3 0.1-0.7 0.1-1 0.2 -0.3 0.1-0.6 0.1-0.9 0.2 -0.4 0.1-0.7 0.2-1.1 0.2 -0.1 0-0.2 0.1-0.3 0.2 -0.1 0-0.1 0.1-0.2 0.1 -0.2 0.1-0.5 0.1-0.7 0.2 -0.2 0.1-0.3 0.2-0.4 0.3 0 0-0.1 0-0.1 0 -0.1 0-0.1 0.1-0.2 0.1 0 0 0 0-0.1 0 -0.2 0-0.3 0.2-0.5 0.3 0 0-0.1 0-0.1 0.1 -0.2 0.1-0.3 0.1-0.5 0.2 -0.2 0.1-0.4 0.3-0.7 0.3 -0.1 0-0.3 0.1-0.3 0.2 -0.1 0.2-0.3 0.3-0.5 0.3 -0.4 0.1-0.7 0.3-1 0.5 -0.2 0.1-0.4 0.3-0.6 0.5 -0.1 0.1-0.3 0.1-0.4 0.2 -0.2 0.1-0.3 0.2-0.4 0.4 -0.2 0.2-0.5 0.4-0.7 0.7 -0.1 0.1-0.2 0.2-0.3 0.4 -0.1 0.2-0.3 0.3-0.4 0.5 -0.1 0.1-0.3 0.3-0.4 0.4 -0.1 0.2-0.3 0.3-0.4 0.5 -0.2 0.2-0.3 0.4-0.4 0.6 -0.1 0.2-0.3 0.3-0.4 0.5 -0.1 0.2-0.3 0.3-0.4 0.5 -0.1 0.1-0.3 0.3-0.4 0.4 -0.2 0.2-0.3 0.4-0.5 0.6 -0.1 0.2-0.3 0.4-0.4 0.7 0 0 0 0 0 0 -0.1 0.2-0.1 0.4-0.2 0.5 -0.1 0.2-0.3 0.4-0.4 0.7 -0.1 0.2-0.2 0.3-0.3 0.5 -0.1 0.2-0.2 0.4-0.3 0.6 0 0 0 0.1 0 0.1 -0.1 0.4-0.3 0.8-0.5 1.1 -0.1 0.2-0.1 0.4-0.2 0.5 -0.1 0.2-0.2 0.4-0.3 0.6 0 0 0 0 0 0 -0.1 0.3-0.1 0.5-0.2 0.8 -0.1 0.2-0.2 0.4-0.3 0.6 -0.1 0.2-0.2 0.3-0.2 0.4 -0.1 0.2-0.1 0.4-0.2 0.5 -0.1 0.2-0.2 0.4-0.3 0.6 0 0 0 0 0 0.1 0 0.2-0.1 0.4-0.1 0.5 -0.1 0.3-0.2 0.6-0.2 0.9 -0.1 0.3-0.1 0.6-0.2 0.9 -0.1 0.2-0.2 0.4-0.3 0.6 0 0.1 0 0.1 0 0.2 0 0.2-0.1 0.3-0.2 0.5 0 0 0 0 0 0 -0.1 0.3-0.1 0.7-0.2 1 -0.1 0.3-0.2 0.6-0.3 0.9 0 0 0 0.1 0 0.1 -0.1 0.3-0.1 0.7-0.2 1 -0.1 0.3-0.1 0.6-0.2 0.8 -0.1 0.2-0.1 0.5-0.2 0.5 -0.2 0.1-0.1 0.4-0.3 0.5 0 0 0 0 0 0.1 -0.1 0.3-0.1 0.5-0.2 0.8 -0.1 0.2-0.2 0.5-0.3 0.7 0 0 0 0 0 0.1 -0.1 0.4-0.1 0.7-0.2 1.1 0 0.1-0.1 0.1-0.1 0.2 0 0.1 0 0.2-0.1 0.2 0 0.2 0 0.4-0.1 0.7 -0.2 0.3-0.2 0.6-0.2 0.9 -0.1 0.4-0.2 0.8-0.3 1.2 0 0.1 0 0.1 0 0.2 0 0.1 0 0.2-0.1 0.3 0 0 0 0.1-0.1 0.2 0 0.1-0.1 0.2-0.1 0.3 0 0.1 0 0.1 0 0.2 -0.1 0.7-0.1 1.5-0.2 2.2 0 0.3-0.2 0.5-0.3 0.8 0 0.1 0 0.2 0 0.4 -0.1 0.7-0.1 1.3-0.2 2 -0.1 0.4-0.1 0.9-0.2 1.3 -0.3 1.1 0 2.3-0.1 3.4 0 0.1-0.1 0.2-0.1 0.3 0 0.1 0 0.1 0 0.2 0 0.8 0 1.7 0 2.5 0 0.1 0.1 0.2 0.1 0.3 0 0.1 0 0.1 0 0.2 0 0.5 0 1 0 1.4 0 0.5 0.1 1 0.1 1.5 0 0.4 0 0.9 0 1.2 0.2 0.8 0.1 1.6 0.2 2.4 0.1 0.4 0.1 0.8 0.2 1.1 0.1 0.3 0.2 0.6 0.3 0.9 0 0.2 0 0.4 0 0.6 0 0.3 0 0.6 0.1 0.8 0.1 0.2 0.1 0.4 0 0.6 -0.1 0.4 0.1 0.7 0.2 1.1 0.1 0.2 0.1 0.4 0.1 0.6 0.1 0.3 0.2 0.5 0.3 0.8 0 0.1 0 0.2 0 0.3 0 0.2 0 0.4 0.1 0.5 0 0 0 0 0 0 0.1 0.3 0.1 0.6 0.2 0.9 0 0.1 0.1 0.2 0.1 0.3 0 0 0 0 0 0 0.1 0.2 0.1 0.5 0.2 0.7 0.1 0.3 0.2 0.7 0.3 1 0 0 0 0 0 0.1 0.1 0.3 0.1 0.7 0.2 1 0.1 0.2 0.1 0.5 0.2 0.7 0.1 0.2 0.1 0.4 0.2 0.5 0.2 0.2 0.1 0.5 0.3 0.7 0.1 0.1 0.1 0.3 0.2 0.4 0.1 0.2 0.1 0.3 0.2 0.5 0.1 0.2 0.2 0.4 0.4 0.5 0.1 0.1 0.2 0.3 0.3 0.4 0.1 0.2 0.3 0.3 0.4 0.5 0.1 0.1 0.2 0.3 0.3 0.4 0.1 0.1 0.2 0.2 0.2 0.3 0.1 0.1 0.2 0.2 0.3 0.4 0.1 0.1 0.1 0.2 0.2 0.3 0.2 0.2 0.4 0.5 0.7 0.7 0.3 0.2 0.5 0.5 0.8 0.7 0.1 0.1 0.2 0.2 0.3 0.3 0.1 0.1 0.3 0.2 0.4 0.3 0.3 0.2 0.5 0.3 0.8 0.5 0.2 0.1 0.5 0.2 0.7 0.4 0.2 0.1 0.3 0.2 0.5 0.3 0 0 0.1 0 0.1 0 0.2 0 0.4 0.1 0.6 0.3 0 0 0.1 0 0.1 0 0.2 0.1 0.4 0.1 0.6 0.2 0.2 0.1 0.3 0.2 0.5 0.3 0 0 0 0 0.1 0 0.3 0.1 0.6 0.1 0.9 0.2 0.2 0.1 0.4 0.2 0.6 0.2 0.1 0 0.1 0.1 0.2 0.1 0.3 0.1 0.6 0.1 0.9 0.2 0.2 0.1 0.5 0.1 0.7 0.2 0.2 0.1 0.4 0.1 0.5 0.2 0.2 0.2 0.5 0.1 0.6 0.2 0.3 0.2 0.7 0 0.9 0.3 0 0 0 0 0 0 0.4 0 0.8 0.1 1.3 0.2 1.1 0.2 2.2 0.2 3.3 0.2 0.2 0 0.4-0.1 0.6-0.1 0.4 0 0.7 0 1.1 0 0.4-0.1 0.8-0.2 1.2-0.3 0.2 0 0.3 0 0.5-0.1 0.2-0.1 0.5-0.1 0.6-0.3 0 0 0 0 0.1 0 0.3-0.1 0.5-0.1 0.8-0.2 0.2-0.1 0.3-0.1 0.5-0.2 0.2-0.1 0.5-0.2 0.7-0.3 0.2-0.1 0.4-0.2 0.5-0.3 0 0 0 0 0.1 0 0.4 0 0.6-0.3 0.9-0.4 0.3-0.1 0.5-0.4 0.8-0.6 0.1-0.1 0.3-0.2 0.4-0.2 0.1-0.1 0.2-0.1 0.3-0.2 0.2-0.1 0.4-0.2 0.6-0.3 0.2-0.1 0.4-0.3 0.6-0.4 0.1-0.1 0.2-0.1 0.3-0.2 0.2-0.1 0.4-0.2 0.6-0.4 0.2-0.1 0.4-0.3 0.6-0.5 0.2-0.2 0.5-0.4 0.8-0.6 0.2-0.1 0.3-0.3 0.5-0.4 0.3-0.2 0.5-0.5 0.8-0.7 0.1-0.1 0.2-0.3 0.3-0.4 0 0 0.1-0.1 0.1-0.1 0.1-0.2 0.3-0.4 0.4-0.6 0 0 0.1-0.1 0.1-0.1 0.1-0.1 0.2-0.2 0.2-0.4 0 0 0-0.1 0.1-0.1 0.2 0 0.3-0.2 0.4-0.4 0.1-0.1 0.1-0.3 0.2-0.4 0.2-0.3 0.3-0.6 0.6-0.8 0 0 0-0.1 0-0.1 0-0.2 0.2-0.3 0.3-0.4 0.1-0.2 0.3-0.3 0.4-0.5 0.2-0.2 0.3-0.4 0.4-0.5 0.1-0.1 0.2 0 0.3-0.1 0.1 0 0.2-0.1 0.2-0.1 0.1 0 0.2 0.3 0.3 0 0 0 0.1 0 0.1 0 0 0 0.1 0 0.1 0.1 -0.1 0.4 0.2 0.6 0.5 0.8 0.2 0.2 0.5 0.3 0.7 0.5 0.3 0.2 0.5 0.4 0.8 0.6 0.1 0.1 0.2 0.1 0.3 0.2 0.2 0.1 0.3 0.3 0.5 0.4 0.1 0.1 0.2 0.2 0.4 0.3 0.1 0.1 0.3 0.2 0.3 0.4 0 0 0 0.1 0 0.1 0.3 0.2 0 0.4-0.1 0.5 -0.1 0.3-0.3 0.5-0.5 0.7 -0.2 0.2-0.4 0.3-0.7 0.4 -0.2 0-0.3 0.2-0.4 0.4 -0.2 0.2-0.3 0.3-0.5 0.5 -0.1 0.1-0.2 0.3-0.4 0.4 -0.2 0.2-0.3 0.3-0.5 0.5 -0.3 0.3-0.6 0.6-0.9 1 -0.2 0.2-0.4 0.3-0.6 0.4 -0.1 0.1-0.2 0.2-0.3 0.3 -0.3 0.3-0.6 0.6-0.9 0.8 -0.2 0.2-0.5 0.4-0.7 0.6 -0.1 0.1-0.2 0.1-0.3 0.2 -0.2 0.2-0.5 0.2-0.7 0.5 -0.1 0.1-0.3 0.1-0.4 0.2 0 0-0.1 0.1-0.1 0.1 -0.2 0.1-0.4 0.3-0.6 0.4 -0.1 0.1-0.3 0.2-0.4 0.3 -0.1 0.1-0.3 0.2-0.4 0.2 -0.1 0.1-0.2 0.2-0.4 0.2 0 0-0.1 0.1-0.2 0.2 -0.1 0.1-0.3 0.2-0.4 0.3 -0.1 0.1-0.3 0.1-0.4 0.2 -0.3 0.2-0.5 0.3-0.8 0.5 -0.1 0.1-0.3 0.1-0.4 0.2 -0.3 0.1-0.5 0.1-0.8 0.2 -0.2 0.1-0.4 0.2-0.7 0.3 -0.2 0.1-0.4 0.1-0.5 0.2 -0.2 0.2-0.5 0.1-0.7 0.3 -0.1 0.1-0.3 0.1-0.4 0.2 -0.2 0.1-0.5 0.1-0.8 0.2 -0.4 0.1-0.7 0.1-1.1 0.2 -0.2 0-0.3 0.1-0.5 0.1 -0.1 0-0.2 0.1-0.3 0.2 -0.1 0-0.3 0-0.4 0 -0.1 0-0.2 0.1-0.3 0.1 -0.1 0-0.1 0-0.2 0 -0.2 0-0.4 0-0.6 0 -0.1 0-0.3 0.1-0.4 0.1 -0.1 0-0.2 0-0.3 0 -1.7 0-3.4 0-5.1 0 -0.5 0-1 0.1-1.4 0 -0.4-0.1-0.8-0.1-1.2-0.1 -0.3-0.1-0.6-0.2-1-0.3 -0.1 0-0.2 0-0.3 0 -0.5-0.1-1-0.1-1.5-0.2 -0.2-0.1-0.5-0.1-0.7-0.2 -0.2 0-0.4 0-0.5-0.1 -0.2-0.1-0.4-0.1-0.6-0.2 -0.2-0.2-0.4-0.1-0.6-0.2 -0.2-0.1-0.5-0.2-0.7-0.3 0 0 0 0 0 0 -0.3-0.1-0.5-0.2-0.8-0.2 -0.2-0.1-0.4-0.1-0.6-0.2 -0.1 0-0.2-0.1-0.2-0.2 -0.2-0.1-0.5-0.3-0.7-0.4 -0.2-0.1-0.4-0.2-0.6-0.2 -0.3-0.1-0.5-0.2-0.8-0.3 -0.2-0.1-0.4-0.1-0.6-0.2 -0.2-0.1-0.3-0.2-0.4-0.3 -0.1-0.1-0.2-0.1-0.3-0.2 -0.2-0.2-0.5-0.3-0.7-0.5 -0.1-0.1-0.3-0.2-0.4-0.2 -0.1-0.1-0.2-0.1-0.3-0.2 -0.3-0.2-0.5-0.4-0.7-0.6 -0.1-0.1-0.2-0.1-0.3-0.2 -0.2-0.1-0.3-0.3-0.5-0.4 -0.2-0.1-0.3-0.3-0.5-0.4 -0.1-0.1-0.3-0.2-0.4-0.4 -0.2-0.2-0.3-0.3-0.5-0.5 -0.2-0.2-0.5-0.4-0.7-0.6 -0.2-0.1-0.3-0.4-0.4-0.5 -0.2-0.2-0.3-0.4-0.5-0.6 -0.1-0.2-0.3-0.4-0.4-0.6 0-0.1-0.1-0.1-0.2-0.2 -0.2-0.2-0.3-0.4-0.5-0.6 -0.1-0.1-0.2-0.2-0.2-0.4 0-0.2-0.2-0.3-0.3-0.5 -0.1-0.1-0.1-0.3-0.2-0.4 -0.1-0.1-0.2-0.3-0.3-0.4 0 0 0 0 0-0.1 -0.1-0.2-0.1-0.4-0.2-0.6 -0.1-0.2-0.3-0.5-0.4-0.7 0 0 0-0.1 0-0.1 0-0.2-0.1-0.4-0.2-0.6 -0.2-0.3-0.3-0.7-0.5-1 -0.1-0.2-0.1-0.4-0.2-0.6 -0.1-0.2-0.1-0.5-0.2-0.7 -0.2-0.3-0.1-0.6-0.3-0.8 -0.2-0.2 0-0.5-0.3-0.7 0 0 0-0.1 0-0.2 0-0.1 0-0.2-0.1-0.3 0 0 0 0 0 0 0-0.3 0-0.5-0.2-0.8 -0.1-0.1 0-0.3-0.2-0.4 0 0 0 0 0 0 -0.1-0.4-0.1-0.7-0.2-1.1 -0.1-0.4-0.2-0.8-0.3-1.2 0-0.1 0-0.2 0-0.4 -0.1-0.4-0.1-0.7-0.2-1.1 0-0.4 0.1-0.8 0-1.2 -0.2-0.6-0.1-1.1-0.2-1.7 -0.3-1.4-0.1-2.9-0.2-4.3 0-0.5-0.1-0.9-0.1-1.4 0-0.6 0-1.2 0-1.9 0-0.3-0.1-0.6-0.1-0.9 0-0.4 0-0.7 0-1.1 0-0.3-0.1-0.5-0.1-0.8 0-0.5 0-0.9 0-1.4 0-0.2 0.1-0.4 0.1-0.6 0-0.4 0-0.8 0-1.1 0-0.2-0.1-0.4-0.1-0.5 0.2-0.6 0-1.2 0.1-1.8 0.2-0.9 0-1.8 0.2-2.6 0-0.1 0.1-0.3 0.1-0.4 0-0.1 0-0.2 0-0.3 0-0.3-0.1-0.6 0.2-0.8 0.1-0.1 0-0.2 0-0.3 0-0.3 0-0.5 0.1-0.8 0.1-0.2 0-0.4 0.1-0.6 0.1-0.4 0.1-0.8 0.3-1.2 0 0 0 0 0 0 0.1-0.3 0.1-0.6 0.2-0.9 0-0.2 0-0.3 0.1-0.5 0.1-0.1 0-0.3 0-0.5 0-0.1 0-0.3 0.1-0.4 0 0 0-0.1 0-0.2 0-0.2 0-0.4 0.1-0.5 0 0 0 0 0 0 0.1-0.2 0.1-0.5 0.2-0.7 0.1-0.2 0.1-0.5 0.3-0.7 0 0 0-0.1 0-0.2 0-0.1 0.1-0.2 0.1-0.3 0-0.1 0-0.1 0-0.2 0.1-0.2-0.1-0.5 0.2-0.7 0 0 0 0 0 0 0.1-0.3 0.1-0.6 0.2-0.9 0-0.1 0.1-0.1 0.1-0.2 0 0 0-0.1 0-0.1 0-0.4 0.2-0.7 0.3-1 0.1-0.3 0.3-0.6 0.2-0.9 0-0.3 0.2-0.4 0.3-0.7 0-0.1 0-0.2 0.1-0.2 0-0.1-0.1-0.3 0.1-0.3 0 0 0 0 0 0 0.1-0.2 0.1-0.4 0.2-0.6 0.1-0.2 0.2-0.4 0.2-0.5 0-0.1 0.1-0.2 0.1-0.2 0-0.1 0.1-0.1 0.1-0.2 0 0 0 0 0 0 0-0.2 0.2-0.3 0.2-0.4 0-0.3 0.1-0.5 0.2-0.8 0.1-0.4 0.3-0.8 0.5-1.1 0.1-0.2 0.2-0.5 0.4-0.7 0.3-0.4 0.5-0.8 0.7-1.2 0.1-0.2 0.2-0.5 0.3-0.7 0.2-0.3 0.3-0.7 0.5-1 0.1-0.3 0.3-0.5 0.5-0.8 0.1-0.2 0.1-0.4 0.2-0.5 0-0.1 0.1-0.2 0.2-0.2 0.2-0.3 0.3-0.5 0.5-0.8 0.1-0.2 0.1-0.4 0.2-0.5 0.1-0.2 0.1-0.4 0.3-0.5 0.1-0.1 0.1-0.3 0.2-0.4 0.1-0.2 0.3-0.4 0.4-0.7 0.1-0.2 0.2-0.3 0.2-0.5 0.1-0.1 0.1-0.2 0.2-0.3 0.1-0.2 0.3-0.4 0.4-0.6 0.1-0.2 0.3-0.4 0.4-0.6 0.2-0.2 0.3-0.4 0.5-0.7 0.1-0.1 0.1-0.3 0.2-0.4 0.2-0.3 0.3-0.6 0.5-0.9 0.2-0.3 0.4-0.5 0.7-0.8 0.1-0.2 0.2-0.4 0.4-0.5 0.1-0.2 0.2-0.3 0.4-0.5 0.2-0.2 0.3-0.4 0.5-0.6 0.2-0.2 0.3-0.4 0.5-0.6 0.2-0.3 0.5-0.6 0.7-0.8 0.2-0.2 0.4-0.4 0.6-0.6 0.2-0.2 0.4-0.4 0.6-0.6 0.2-0.2 0.3-0.3 0.5-0.4 0.2-0.2 0.3-0.4 0.5-0.6 0.2-0.2 0.5-0.4 0.8-0.6 0.2-0.1 0.4-0.2 0.6-0.4 0.1-0.2 0.3-0.3 0.4-0.4 0.1-0.1 0.3-0.1 0.4-0.1 0.3-0.3 0.6-0.6 1-0.9 0.1-0.1 0.2-0.2 0.4-0.2 0.1 0 0.3-0.2 0.4-0.3 0.1-0.1 0.2-0.3 0.4-0.3 0.2-0.1 0.4-0.2 0.5-0.3 0.1-0.1 0.3-0.1 0.4-0.2 0.1 0 0.1-0.1 0.2-0.2 0.3-0.2 0.5-0.4 0.8-0.6 0 0 0 0 0.1 0 0.2-0.1 0.4-0.1 0.7-0.2 0.2-0.1 0.4-0.2 0.7-0.3 0.2-0.1 0.4-0.2 0.6-0.2 0.2-0.1 0.4-0.1 0.6-0.2 0.2-0.1 0.4-0.1 0.5-0.2 0.2-0.2 0.5-0.1 0.7-0.2 0.2-0.1 0.4-0.1 0.6-0.2 0.2-0.1 0.3-0.2 0.5-0.3 0 0 0 0 0.1 0 0.3-0.1 0.6-0.1 0.8-0.2 0.3-0.2 0.7-0.1 1-0.2 0.5-0.2 0.9-0.1 1.4-0.1 0.1 0 0.3-0.1 0.4-0.1 0.1 0 0.2 0 0.3 0 1.7 0 3.4 0 5.1 0 1.1 0 2.2 0 3.3 0 0.2 0 0.3 0.1 0.5 0.1 0.2 0 0.3 0 0.5 0 0.3 0.1 0.7 0 0.9 0.2 0.3 0.2 0.6 0.1 0.8 0.5 0.1 0.1 0.3 0.1 0.4 0.2 0.2 0.2 0.5 0.2 0.7 0.5 0.1 0.1 0.2 0.1 0.4 0.2 0.1 0.1 0.2 0.1 0.2 0.2 0.1 0.1 0.2 0.2 0.3 0.3 0 0 0.1 0.1 0.1 0.1 0.3 0 0.4 0.2 0.6 0.3 0.3 0.1 0.4 0.4 0.7 0.5 0.2 0 0.3 0.2 0.5 0.4 0 0 0 0 0 0 0.3 0 0.3 0.3 0.5 0.4 0 0 0.1 0.1 0.1 0.1 0 0.2 0.2 0.3 0.3 0.4C281.2 5.8 281.2 5.9 281.2 6z"/></svg>