<?xml version="1.0" encoding="utf-8"?>
<!-- Generator: Adobe Illustrator 21.0.2, SVG Export Plug-In . SVG Version: 6.00 Build 0)  -->
<svg version="1.1" id="Layer_1" xmlns="http://www.w3.org/2000/svg" xmlns:xlink="http://www.w3.org/1999/xlink" x="0px" y="0px"
	 viewBox="0 0 685.9 660.2" style="enable-background:new 0 0 685.9 660.2;" xml:space="preserve">
<style type="text/css">
	.st0{opacity:0.3;fill:#171F27;enable-background:new    ;}
	.st1{opacity:0.4;fill:#171F27;enable-background:new    ;}
	.st2{opacity:0.8;fill:#171F27;enable-background:new    ;}
	.st3{opacity:0.86;fill:url(#SVGID_1_);}
	.st4{opacity:0.8;fill:url(#x_lines_1_);}
	.st5{opacity:0.2;fill:#171F27;enable-background:new    ;}
	.st6{opacity:0.5;fill:#171F27;enable-background:new    ;}
	.st7{opacity:0.7;fill:#171F27;enable-background:new    ;}
	.st8{opacity:0.6;fill:#171F27;enable-background:new    ;}
	.st9{fill:#171F27;}
	.st10{opacity:0.9;fill:#171F27;enable-background:new    ;}
	.st11{opacity:0.1;fill:#171F27;enable-background:new    ;}
	.st12{fill:url(#SVGID_2_);}
	.st13{fill:url(#SVGID_3_);}
	.st14{fill:url(#SVGID_4_);}
	.st15{fill:url(#SVGID_5_);}
	.st16{fill:url(#SVGID_6_);}
	.st17{fill:url(#SVGID_7_);}
	.st18{fill:url(#SVGID_8_);}
	.st19{fill:url(#SVGID_9_);}
	.st20{fill:url(#SVGID_10_);}
</style>
<g>
	<rect x="311.2" y="467.5" class="st0" width="347.5" height="61"/>
	<rect x="658.8" y="528.5" class="st1" width="27" height="105"/>
	<polygon class="st0" points="311.2,528.5 311.2,660.5 658.8,660.5 658.8,633.5 658.8,528.5 	"/>
	<polygon class="st1" points="311.2,528.5 311.2,660.5 658.8,660.5 658.8,633.5 658.8,528.5 	"/>
</g>
<rect x="2.5" y="416.7" class="st2" width="642.2" height="223.6"/>
<linearGradient id="SVGID_1_" gradientUnits="userSpaceOnUse" x1="657.1794" y1="135.3149" x2="69.4147" y2="474.144">
	<stop  offset="0" style="stop-color:#ABBACD"/>
	<stop  offset="0.4365" style="stop-color:#9A90AC"/>
	<stop  offset="1" style="stop-color:#C82E5C"/>
</linearGradient>
<path class="st3" d="M124.8,568.3c0,15.2-12.4,27.6-27.6,27.6H86.2v-55.2h10.9C112.4,540.7,124.8,553.1,124.8,568.3z M122.3,568.3
	c0-13.9-11.3-25.1-25.1-25.1h-8.5v50.3h8.4C111.1,593.4,122.3,582.1,122.3,568.3z M132.6,575.7c0,0.2,0,0.4,0,0.5
	c0,9.5,7.8,17.3,17.3,17.3c4.7,0,9.1-2,12.2-5.1l1.7,1.7c-3.6,3.6-8.5,5.8-14,5.8c-10.9,0-19.8-8.9-19.8-19.8
	c0-10.9,8.2-19.8,19.1-19.8c9.9,0,17.4,7.3,18.8,16.8c0.1,0.8,0.2,1.6,0.2,2.5h-2.5H132.6z M132.9,573.2h32.7
	c-1.4-8.2-7.8-14.3-16.3-14.3C140.7,558.8,134.3,565,132.9,573.2z M200.7,565.6h-2.5c-0.9-3.7-5.7-6.8-10.9-6.8
	c-6.1,0-11.1,3.6-11.1,8.1c0,5.2,5.7,6.8,11.8,8.5c3,0.8,6.2,1.7,8.6,3.1c3,1.7,4.4,3.9,4.4,7c0,2.9-1.4,5.6-4.1,7.5
	c-2.5,1.9-5.9,3-9.5,3c-3.2,0-6.7-1.2-9.3-3c-2.3-1.7-3.8-3.9-4.2-6.3h2.5c0.9,3.7,5.7,6.8,10.9,6.8c6.1,0,11.1-3.6,11.1-8.1
	c0-4.6-5.4-6.1-11.1-7.7c-6.4-1.8-13.6-3.8-13.6-10.8c0-2.9,1.4-5.6,4.1-7.5c2.5-1.9,5.9-3,9.5-3c3.2,0,6.7,1.2,9.3,3
	C198.9,561.1,200.3,563.3,200.7,565.6z M208,550.6c0-0.7,0.5-1.3,1.3-1.3c0.7,0,1.3,0.5,1.3,1.3c0,0.7-0.5,1.3-1.3,1.3
	C208.5,551.8,208,551.3,208,550.6z M208,556.6h2.5v39.3H208V556.6z M254.1,558.3h2.3v17.7h-0.1v1.2c0,10.4-8.4,18.9-18.9,18.9
	c-3.2,0-6.5-0.8-9.2-2.4l-0.4-0.3l-0.4,0.1c-1.6,0.4-2.8,1.9-2.8,3.6c0,1.6,1.1,3,2.5,3.5v0.3l1.3-0.1c0.2,0,0.3,0,0.4,0h17.7
	c5.6,0,10,4.5,10,10c0,5.6-4.5,10-10,10h-17.7c-5.6,0-10-4.5-10-10c0-3.3,1.7-6.5,4.5-8.3l1.1-0.7l-0.8-1c-0.8-1.1-1.3-2.3-1.3-3.7
	c0-1.8,0.8-3.4,2.2-4.6l1-0.8l-0.9-0.9c-3.7-3.6-5.7-8.4-5.7-13.5c0-10.4,8.4-18.9,18.9-18.9c5.6,0,10.9,2.5,14.5,6.8l2.1,2.5
	L254.1,558.3L254.1,558.3z M254,577.2c0-9.1-7.4-16.5-16.5-16.5c-9.1,0-16.5,7.4-16.5,16.5c0,9.1,7.4,16.5,16.5,16.5
	S254,586.2,254,577.2z M221,610.8c0,4.2,3.4,7.7,7.7,7.7h17.7c4.2,0,7.7-3.4,7.7-7.7s-3.4-7.7-7.7-7.7h-17.7
	C224.5,603.1,221,606.6,221,610.8z M293.5,570.2v25.7H291v-25.7c0-6.1-5-11.1-11.1-11.1c-5.7,0-10.4,4.3-11,9.9h-0.1v27h-2.5v-36.8
	h2.5v2.9l2.1-1.9c2.5-2.2,5.7-3.5,9-3.5C287.4,556.6,293.5,562.7,293.5,570.2z M347.1,592.9l16.7-52.4h2.6l-17.7,55.4h-3.2
	l-17.7-55.4h2.6L347.1,592.9z M411.2,576.1c0,10.9-8.9,19.8-19.8,19.8c-10.9,0-19.8-8.9-19.8-19.8c0-10.9,8.9-19.8,19.8-19.8
	C402.3,556.3,411.2,565.2,411.2,576.1z M408.8,576.1c0-9.5-7.8-17.3-17.3-17.3c-9.5,0-17.3,7.8-17.3,17.3c0,9.5,7.8,17.3,17.3,17.3
	C401,593.4,408.8,585.6,408.8,576.1z M446.4,557.9l-13.7,41.1l-5.6,16.7h-2.6l5.6-17l-13.6-40.8h2.6l12.3,36.9l12.3-36.9H446.4z
	 M471.6,556.3c5.9,0,11.5,2.6,15.2,7.2l2.2,2.6v-7.7h2.5v37.5H489V586l-2.2,2.6c-3.8,4.6-9.3,7.2-15.2,7.2
	c-10.9,0-19.8-8.9-19.8-19.8C451.8,565.2,460.7,556.3,471.6,556.3z M471.6,558.8c-9.5,0-17.3,7.8-17.3,17.3
	c0,9.5,7.8,17.3,17.3,17.3s17.3-7.8,17.3-17.3C488.9,566.6,481.1,558.8,471.6,558.8z M535,558.3h2.3v17.7h-0.1v1.2
	c0,10.4-8.4,18.9-18.9,18.9c-3.2,0-6.5-0.8-9.2-2.4l-0.4-0.3l-0.4,0.1c-1.6,0.4-2.8,1.9-2.8,3.6c0,1.6,1.1,3,2.5,3.5v0.3l1.3-0.1
	c0.2,0,0.3,0,0.4,0h17.7c5.6,0,10,4.5,10,10c0,5.6-4.5,10-10,10h-17.7c-5.6,0-10-4.5-10-10c0-3.3,1.7-6.5,4.5-8.3l1.1-0.7l-0.8-1
	c-0.8-1.1-1.3-2.3-1.3-3.7c0-1.8,0.8-3.4,2.2-4.6l1-0.8l-0.9-0.9c-3.7-3.6-5.7-8.4-5.7-13.5c0-10.4,8.4-18.9,18.9-18.9
	c5.6,0,10.9,2.5,14.5,6.8l2.1,2.5L535,558.3L535,558.3z M534.9,577.2c0-9.1-7.4-16.5-16.5-16.5c-9.1,0-16.5,7.4-16.5,16.5
	c0,9.1,7.4,16.5,16.5,16.5C527.5,593.7,534.9,586.2,534.9,577.2z M502,610.8c0,4.2,3.4,7.7,7.7,7.7h17.7c4.2,0,7.7-3.4,7.7-7.7
	s-3.4-7.7-7.7-7.7h-17.7C505.4,603.1,502,606.6,502,610.8z M547,575.7c0,0.2,0,0.4,0,0.5c0,9.5,7.8,17.3,17.3,17.3
	c4.7,0,9-2,12.2-5.1l1.7,1.7c-3.6,3.6-8.5,5.8-14,5.8c-10.9,0-19.8-8.9-19.8-19.8c0-10.9,8.2-19.8,19.1-19.8
	c9.9,0,17.4,7.3,18.8,16.8c0.1,0.8,0.2,1.6,0.2,2.5h-2.5H547z M547.2,573.2h32.7c-1.4-8.2-7.8-14.3-16.3-14.3
	C555,558.8,548.7,565,547.2,573.2z M592.3,561.7l2.1-1.9c2.2-2,4.9-3.1,7.8-3.4v2.5c-5.1,0.5-9.2,4.7-9.8,9.9h-0.1v27.1h-2.5v-37.1
	h2.5V561.7z M223.5,208.5v8h-68.2c-3.3-30.5-6.6-66.5-9.9-108l0,0c-8,57.6-13,99.7-15,126.3h9.1v0.7H80.9H60H32l7.6-57.3h28
	L85.8,41.5h113l24.7,165.9C223.5,207.7,223.5,208.1,223.5,208.5z M323.5,41.5h-79v117h79V41.5z M467.7,101.6V41.5H337.4V135v4.5
	v19.7h78.2V135l0,0v-33.4H467.7z M147.5,235.5v-0.7h-9.1c0-0.1,0-0.2,0-0.3H68.1l-11.8,89h79.9v-35.3h3.2v-0.1h28v0.1h2.8v35.3h61.3
	v-88H147.5z M409.6,235.3H442l38.4-57.2h-23.1l0,0H331.4v57.2v42.1h38.1v4.5h-5.1h-17.9h-29.6V158.5h-78.2v165h107.8h17.9h5.1h10
	h87.4V282h-57.4v-46.7H409.6z M480.4,41.5v60.2l48.7,56h83.4V41.5H480.4z M550.4,191.8l-60.7,90.4v41.3h39.1h14.4h33.9h15.4H629
	v-41.1L550.4,191.8z M594.7,474.9v-30.6h22.9v-34.2h-22.9v-15.2v-37h33.8v-23.4H544v75.6h-7.5v-75.6h-42.4v72.2l-23.4-72.2h-47.4
	v179.4h42.4v-88.7l26.3,88.7h44.5v-69.6h7.5v69.6h87.9v-39H594.7z M402.4,334.5h-77.7L309.6,448v65.9h43.7l3-35.1h18.2l2.7,35.1
	h38.6v-89.1L402.4,334.5z M355.7,444.3c1.3-17.3,4.6-44.6,9.7-81.9c2.6,32.5,5.2,59.8,7.7,81.9H355.7z M302.1,371.6
	c-0.1-16.4-2.7-28.3-8-35.8c-0.3-0.4-0.6-0.9-0.9-1.3H188.9V366v7.1v48.6v16.7v75.5h50.7v-39.3c7,0,11.3,1.2,12.9,3.7
	c1.6,2.5,2.5,9,2.5,19.4v16.2h47.1v-2.8c0-15.7-0.4-25.4-1.3-28.9c-0.8-3.5-3-7.3-6.4-11.5c-3.5-4.2-10.2-7.5-20.2-10
	c11.1-1,18.5-4.2,22.3-9.4c3.6-5,5.5-14.7,5.6-28.9l0,0L302.1,371.6L302.1,371.6z M255,426.6c0,8.6-1.1,13.7-3.4,15.2
	c-2.3,1.6-6.3,2.3-12,2.3v-5.9v-16.7V373v-7v-13.7c5.9,0,9.9,1,12.1,2.9c2.2,1.9,3.3,6,3.3,12.2v4.3h-0.1v50.8h0.1L255,426.6
	L255,426.6z M176.2,403.8v-18.5c0-18.2-1.5-31.6-4.6-40.2c-1.3-3.8-3.3-7.3-5.9-10.5H81.8H67.4h-11v53.1V430v14.7
	c0,19.1,1.6,33.4,4.7,42.9c3.1,9.5,9.5,17,19.2,22.3c9.6,5.4,21.9,8.1,36.7,8.1c14.3,0,26.3-3.2,36.1-9.5
	c9.8-6.4,16.1-13.8,18.9-22.2c2.8-8.4,4.3-22.8,4.3-42.9v-7.6h-50.8v24.5c0,10.7-0.6,17.5-1.7,20.4c-1.2,2.9-3.6,4.3-7.4,4.3
	c-3.9,0-6.5-1.4-7.6-4.3s-1.7-9.1-1.7-18.6v-90.6c0-9.9,0.6-16.3,1.7-19.3s3.8-4.5,8-4.5c3.7,0,6.1,1.2,7.2,3.7
	c1.1,2.4,1.6,8.6,1.6,18.5v33.9H176.2z"/>
<linearGradient id="x_lines_1_" gradientUnits="userSpaceOnUse" x1="646.3845" y1="208.9035" x2="550.7286" y2="106.3328">
	<stop  offset="0" style="stop-color:#9A90AC"/>
	<stop  offset="1" style="stop-color:#ABBACD"/>
</linearGradient>
<path id="x_lines" class="st4" d="M548.1,118.1l81,93.3v-8.1l-78-89.8L548.1,118.1z M542.3,126.7l86.8,100v-8l-83.8-96.5
	L542.3,126.7z M524.9,152.7l104.2,120v-8.1L527.9,148.1L524.9,152.7z M530.7,144l98.4,113.4v-8.1l-95.4-109.8L530.7,144z
	 M553.9,109.4l75.2,86.7V188l-72.2-83.1L553.9,109.4z M536.5,135.4l92.6,106.7V234l-89.6-103.2L536.5,135.4z M559.7,100.8l69.4,79.9
	v-8l-66.4-76.5L559.7,100.8z M585.9,61.7l-3.1,4.5l46.3,53.2v-8L585.9,61.7z M577,74.8l52.1,60v-8.1l-49-56.4L577,74.8z M571.3,83.5
	l57.8,66.6V142l-54.8-63.1L571.3,83.5z M565.5,92.1l63.6,73.3v-8l-60.6-69.8L565.5,92.1z"/>
<g>
	<rect x="2.5" y="0.5" class="st5" width="23.7" height="23.7"/>
	<rect x="26.2" y="0.5" class="st6" width="23.7" height="23.7"/>
	<rect x="49.8" y="0.5" class="st7" width="23.7" height="23.7"/>
	<rect x="73.5" y="0.5" class="st8" width="23.7" height="23.7"/>
	<rect x="97.2" y="0.5" class="st6" width="23.7" height="23.7"/>
	<rect x="120.8" y="0.5" class="st5" width="23.7" height="23.7"/>
	<rect x="2.5" y="24.2" class="st6" width="23.7" height="23.7"/>
	<rect x="26.2" y="24.2" class="st8" width="23.7" height="23.7"/>
	<rect x="49.8" y="24.2" class="st2" width="23.7" height="23.7"/>
	<rect x="73.5" y="24.2" class="st7" width="23.7" height="23.7"/>
	<rect x="97.2" y="24.2" class="st8" width="23.7" height="23.7"/>
	<rect x="120.8" y="24.2" class="st1" width="23.7" height="23.7"/>
	<rect x="2.5" y="48" class="st8" width="23.7" height="23.7"/>
	<rect x="26.2" y="48" class="st7" width="23.7" height="23.7"/>
	<rect x="49.8" y="48" class="st9" width="23.7" height="23.7"/>
	<rect x="73.5" y="48" class="st2" width="23.7" height="23.7"/>
	<rect x="97.2" y="48" class="st1" width="23.7" height="23.7"/>
	<rect x="2.5" y="71.7" class="st6" width="23.7" height="23.7"/>
	<rect x="26.2" y="71.7" class="st8" width="23.7" height="23.7"/>
	<rect x="49.8" y="71.7" class="st10" width="23.7" height="23.7"/>
	<rect x="73.5" y="71.7" class="st7" width="23.7" height="23.7"/>
	<rect x="97.2" y="71.7" class="st1" width="23.7" height="23.7"/>
	<rect x="2.5" y="95.5" class="st8" width="23.7" height="23.7"/>
	<rect x="26.2" y="95.5" class="st2" width="23.7" height="23.7"/>
	<rect x="49.8" y="95.5" class="st10" width="23.7" height="23.7"/>
	<rect x="73.5" y="95.5" class="st8" width="23.7" height="23.7"/>
	<rect x="2.5" y="119.2" class="st6" width="23.7" height="23.7"/>
	<rect x="26.2" y="119.2" class="st8" width="23.7" height="23.7"/>
	<rect x="49.8" y="119.2" class="st7" width="23.7" height="23.7"/>
	<rect x="73.5" y="119.2" class="st1" width="23.7" height="23.7"/>
	<rect x="2.5" y="143" class="st5" width="23.7" height="23.7"/>
	<rect x="26.2" y="143" class="st1" width="23.7" height="23.7"/>
	<rect x="49.8" y="143" class="st7" width="23.7" height="23.7"/>
	<rect x="2.5" y="166.7" class="st5" width="23.7" height="23.7"/>
	<rect x="26.2" y="166.7" class="st8" width="23.7" height="23.7"/>
	<rect x="49.8" y="166.7" class="st2" width="23.7" height="23.7"/>
	<rect x="2.5" y="190.5" class="st1" width="23.7" height="23.7"/>
	<rect x="2.5" y="214.2" class="st0" width="23.7" height="23.7"/>
	<rect x="26.2" y="214.2" class="st1" width="23.7" height="23.7"/>
	<rect x="2.5" y="238" class="st1" width="23.7" height="23.7"/>
	<rect x="26.2" y="238" class="st1" width="23.7" height="23.7"/>
	<rect x="49.8" y="238" class="st8" width="23.7" height="23.7"/>
	<rect x="2.5" y="261.7" class="st1" width="23.7" height="23.7"/>
	<rect x="26.2" y="261.7" class="st1" width="23.7" height="23.7"/>
	<rect x="49.8" y="261.7" class="st6" width="23.7" height="23.7"/>
	<rect x="2.5" y="285.5" class="st0" width="23.7" height="23.7"/>
	<rect x="26.2" y="285.5" class="st1" width="23.7" height="23.7"/>
	<rect x="49.8" y="285.5" class="st6" width="23.7" height="23.7"/>
	<rect x="2.5" y="309.2" class="st5" width="23.7" height="23.7"/>
	<rect x="26.2" y="309.2" class="st0" width="23.7" height="23.7"/>
	<rect x="49.8" y="309.2" class="st0" width="23.7" height="23.7"/>
	<rect x="2.5" y="332.9" class="st1" width="23.7" height="23.7"/>
	<rect x="26.2" y="332.9" class="st1" width="23.7" height="23.7"/>
	<rect x="49.8" y="332.9" class="st0" width="23.7" height="23.7"/>
	<rect x="2.5" y="356.7" class="st11" width="23.7" height="23.7"/>
	<rect x="26.2" y="356.7" class="st5" width="23.7" height="23.7"/>
	<rect x="49.8" y="356.7" class="st5" width="23.7" height="23.7"/>
</g>
<g>
	<radialGradient id="SVGID_2_" cx="459.7229" cy="46.6144" r="114.0308" gradientUnits="userSpaceOnUse">
		<stop  offset="0" style="stop-color:#F2F4F5"/>
		<stop  offset="1" style="stop-color:#ABBACD;stop-opacity:0"/>
	</radialGradient>
	<path class="st12" d="M347.1,47.9c0-2.1,0.1-4.3,0.2-6.4h120.4v60.1h-52.1V135v17C375.3,134.7,347.1,94.6,347.1,47.9z M480.4,101.7
		l37.9,43.6c33.2-19.8,55.4-56,55.4-97.4c0-2.1-0.1-4.3-0.2-6.4h-93.1V101.7z"/>
	<radialGradient id="SVGID_3_" cx="105.5429" cy="273.55" r="236.0401" gradientUnits="userSpaceOnUse">
		<stop  offset="0" style="stop-color:#C82E5C"/>
		<stop  offset="1" style="stop-color:#C82E5C;stop-opacity:0"/>
	</radialGradient>
	<path class="st13" d="M138.4,234.8c0-0.1,0-0.2,0-0.3h-8c0,0.1,0,0.2,0,0.3H138.4z"/>
	<radialGradient id="SVGID_4_" cx="105.5429" cy="273.55" r="236.0401" gradientUnits="userSpaceOnUse">
		<stop  offset="0" style="stop-color:#C82E5C"/>
		<stop  offset="1" style="stop-color:#C82E5C;stop-opacity:0"/>
	</radialGradient>
	<path class="st14" d="M324.7,334.5l-5.2,38.7c5.8-12.4,10.5-25.3,14.1-38.7H324.7z"/>
	<radialGradient id="SVGID_5_" cx="105.5429" cy="273.55" r="236.0401" gradientUnits="userSpaceOnUse">
		<stop  offset="0" style="stop-color:#C82E5C"/>
		<stop  offset="1" style="stop-color:#C82E5C;stop-opacity:0"/>
	</radialGradient>
	<path class="st15" d="M172,486.3c2.8-8.4,4.3-22.8,4.3-42.9v-7.6h-50.8v24.5c0,10.7-0.6,17.5-1.7,20.4c-1.2,2.9-3.6,4.3-7.4,4.3
		c-3.9,0-6.5-1.4-7.6-4.3c-1.1-2.9-1.7-9.1-1.7-18.6v-90.6c0-9.9,0.6-16.3,1.7-19.3c1.1-3,3.8-4.5,8-4.5c3.7,0,6.1,1.2,7.2,3.7
		c1.1,2.4,1.6,8.6,1.6,18.5v33.9h50.6v-18.5c0-18.2-1.5-31.6-4.6-40.2c-1.3-3.8-3.3-7.3-5.9-10.5H81.8H67.4h-11v53.1V430v14.7
		c0,19.1,1.6,33.4,4.7,42.9c2.7,8.3,8,15.1,15.8,20.3c9.4,1.1,19,1.7,28.7,1.7c18.8,0,37-2.2,54.5-6.3
		C166,498.1,169.9,492.5,172,486.3z"/>
	<radialGradient id="SVGID_6_" cx="105.5429" cy="273.55" r="236.0401" gradientUnits="userSpaceOnUse">
		<stop  offset="0" style="stop-color:#C82E5C"/>
		<stop  offset="1" style="stop-color:#C82E5C;stop-opacity:0"/>
	</radialGradient>
	<path class="st16" d="M302.1,371.6c-0.1-16.4-2.7-28.3-8-35.8c-0.3-0.4-0.6-0.9-0.9-1.3H188.9V366v7.1v48.6v16.7v56
		c46.5-17.6,86-49.4,113.2-90.2L302.1,371.6z M255,371.7L255,371.7l-0.1,50.8h0.1v4.1c0,8.6-1.1,13.7-3.4,15.2
		c-2.3,1.6-6.3,2.3-12,2.3v-5.9v-16.7V373v-7v-13.7c5.9,0,9.9,1,12.1,2.9c2.2,1.9,3.3,6,3.3,12.2V371.7z"/>
	<radialGradient id="SVGID_7_" cx="105.5429" cy="273.55" r="236.0401" gradientUnits="userSpaceOnUse">
		<stop  offset="0" style="stop-color:#C82E5C"/>
		<stop  offset="1" style="stop-color:#C82E5C;stop-opacity:0"/>
	</radialGradient>
	<path class="st17" d="M331.4,235.3v42.1h10.1c0-1.3,0-2.6,0-3.8c0-23.9-3.6-47-10.2-68.8V235.3z"/>
	<radialGradient id="SVGID_8_" cx="105.5429" cy="273.55" r="236.0401" gradientUnits="userSpaceOnUse">
		<stop  offset="0" style="stop-color:#C82E5C"/>
		<stop  offset="1" style="stop-color:#C82E5C;stop-opacity:0"/>
	</radialGradient>
	<path class="st18" d="M68,235.5l0.1-1h62.3c2-26.6,7-68.6,15-126c3.3,41.5,6.6,77.5,9.9,108h68.2v-8c0-0.4,0-0.8,0-1.1L201.2,57.7
		c-16.5-7.3-34-12.8-52.3-16.2H85.8L67.6,178.2h-28L32,235.5h28H68z"/>
	<radialGradient id="SVGID_9_" cx="105.5429" cy="273.55" r="236.0401" gradientUnits="userSpaceOnUse">
		<stop  offset="0" style="stop-color:#C82E5C"/>
		<stop  offset="1" style="stop-color:#C82E5C;stop-opacity:0"/>
	</radialGradient>
	<path class="st19" d="M244.5,158.5h-5.8v165h97.6c2.9-13.5,4.7-27.4,5.2-41.6h-24.5V168.4c-17-34-41.9-63.4-72.4-85.6V158.5z"/>
	<radialGradient id="SVGID_10_" cx="105.5429" cy="273.55" r="236.0401" gradientUnits="userSpaceOnUse">
		<stop  offset="0" style="stop-color:#C82E5C"/>
		<stop  offset="1" style="stop-color:#C82E5C;stop-opacity:0"/>
	</radialGradient>
	<polygon class="st20" points="136.2,323.5 136.2,288.2 139.4,288.2 139.4,288.1 167.4,288.1 167.4,288.2 170.2,288.2 170.2,323.5 
		231.5,323.5 231.5,235.5 147.5,235.5 147.5,234.8 139.5,234.8 139.5,235.5 80.9,235.5 68,235.5 56.3,323.5 	"/>
</g>
</svg>
