<?xml version="1.0" encoding="utf-8"?>
<!-- Generator: Adobe Illustrator 21.0.2, SVG Export Plug-In . SVG Version: 6.00 Build 0)  -->
<svg version="1.1" id="Layer_1" xmlns="http://www.w3.org/2000/svg" xmlns:xlink="http://www.w3.org/1999/xlink" x="0px" y="0px"
	 viewBox="0 0 683.4 660.2" style="enable-background:new 0 0 683.4 660.2;" xml:space="preserve">
<style type="text/css">
	.st0{opacity:0.3;fill:#171F27;}
	.st1{opacity:0.4;fill:#171F27;}
	.st2{opacity:0.8;fill:#171F27;}
	.st3{fill:#B02025;}
	.st4{opacity:0.85;fill:#D82028;}
	.st5{opacity:0.85;fill:#B02025;}
	.st6{opacity:0.85;}
	.st7{opacity:0.8;}
	.st8{fill:#8A191B;}
	.st9{opacity:0.2;fill:#171F27;}
	.st10{opacity:0.5;fill:#171F27;}
	.st11{opacity:0.7;fill:#171F27;}
	.st12{opacity:0.6;fill:#171F27;}
	.st13{fill:#171F27;}
	.st14{opacity:0.9;fill:#171F27;}
	.st15{opacity:0.1;fill:#171F27;}
</style>
<g>
	<rect x="308.7" y="467.5" class="st0" width="347.5" height="61"/>
	<rect x="656.3" y="528.5" class="st1" width="27" height="105"/>
	<polygon class="st0" points="308.7,528.5 308.7,660.5 656.3,660.5 656.3,633.5 656.3,528.5 	"/>
	<polygon class="st1" points="308.7,528.5 308.7,660.5 656.3,660.5 656.3,633.5 656.3,528.5 	"/>
</g>
<rect x="0" y="416.7" class="st2" width="642.2" height="223.6"/>
<g id="design_voyager">
	<path class="st3" d="M96.8,572.9c0,17-13.8,30.8-30.8,30.8H53.8v-61.6H66C83,542.1,96.8,555.9,96.8,572.9z M94.1,572.9
		c0-15.5-12.6-28-28-28h-9.5v56.1H66C81.5,600.9,94.1,588.3,94.1,572.9z"/>
	<path class="st3" d="M105.6,581.1c0,0.2,0,0.4,0,0.6c0,10.6,8.7,19.3,19.3,19.3c5.3,0,10.2-2.2,13.6-5.7l1.9,1.9
		c-4,4-9.5,6.5-15.6,6.5c-12.2,0-22.1-9.9-22.1-22.1c0-12.2,9.1-22.1,21.3-22.1c11,0,19.4,8.2,21,18.8c0.1,0.9,0.2,1.8,0.2,2.8h-2.8
		H105.6z M105.9,578.3h36.5c-1.6-9.1-8.7-16-18.2-16C114.6,562.3,107.4,569.2,105.9,578.3z"/>
	<path class="st3" d="M181.6,569.9h-2.8c-1-4.1-6.4-7.6-12.2-7.6c-6.8,0-12.4,4-12.4,9c0,5.8,6.4,7.6,13.2,9.5
		c3.4,0.9,6.9,1.9,9.6,3.5c3.3,1.9,4.9,4.4,4.9,7.8c0,3.2-1.6,6.2-4.6,8.4c-2.8,2.1-6.6,3.3-10.6,3.3c-3.6,0-7.5-1.3-10.4-3.4
		c-2.6-1.9-4.2-4.4-4.7-7h2.8c1,4.1,6.4,7.6,12.2,7.6c6.8,0,12.4-4,12.4-9c0-5.1-6-6.8-12.4-8.6c-7.1-2-15.2-4.2-15.2-12.1
		c0-3.2,1.6-6.2,4.6-8.4c2.8-2.1,6.6-3.3,10.6-3.3c3.6,0,7.5,1.3,10.4,3.4C179.5,564.8,181.1,567.3,181.6,569.9z"/>
	<path class="st3" d="M189.7,553.1c0-0.8,0.6-1.4,1.4-1.4c0.8,0,1.4,0.6,1.4,1.4c0,0.8-0.6,1.4-1.4,1.4
		C190.3,554.5,189.7,553.9,189.7,553.1z M189.7,559.8h2.8v43.9h-2.8V559.8z"/>
	<path class="st3" d="M241.1,561.7h2.6v19.7h-0.1v1.3c0,11.6-9.4,21.1-21.1,21.1c-3.6,0-7.2-0.9-10.3-2.7l-0.5-0.3l-0.5,0.1
		c-1.8,0.5-3.1,2.1-3.1,4c0,1.8,1.2,3.4,2.8,3.9v0.3l1.4-0.1c0.2,0,0.3,0,0.5,0h19.7c6.2,0,11.2,5,11.2,11.2c0,6.2-5,11.2-11.2,11.2
		h-19.7c-6.2,0-11.2-5-11.2-11.2c0-3.7,1.9-7.2,5-9.3l1.2-0.8l-0.9-1.1c-0.9-1.2-1.4-2.6-1.4-4.1c0-2,0.9-3.8,2.4-5.1l1.1-0.9l-1-1
		c-4.1-4-6.4-9.4-6.4-15.1c0-11.6,9.4-21.1,21.1-21.1c6.3,0,12.2,2.8,16.2,7.6l2.3,2.8V561.7z M241,582.8c0-10.2-8.3-18.4-18.4-18.4
		c-10.2,0-18.4,8.3-18.4,18.4c0,10.2,8.3,18.4,18.4,18.4C232.7,601.2,241,592.9,241,582.8z M204.2,620.3c0,4.7,3.8,8.6,8.6,8.6h19.7
		c4.7,0,8.6-3.8,8.6-8.6s-3.8-8.6-8.6-8.6h-19.7C208.1,611.7,204.2,615.6,204.2,620.3z"/>
	<path class="st3" d="M285.1,575v28.7h-2.8V575c0-6.8-5.6-12.4-12.4-12.4c-6.4,0-11.6,4.8-12.3,11h-0.1v30.1h-2.8v-41.1h2.8v3.2
		l2.3-2.1c2.8-2.5,6.4-3.9,10.1-3.9C278.3,559.8,285.1,566.6,285.1,575z"/>
	<path class="st3" d="M344.9,600.3l18.6-58.5h2.9l-19.7,61.8h-3.6l-19.7-61.8h2.9L344.9,600.3z"/>
	<path class="st3" d="M416.5,581.6c0,12.2-9.9,22.1-22.1,22.1c-12.2,0-22.1-9.9-22.1-22.1c0-12.2,9.9-22.1,22.1-22.1
		C406.6,559.5,416.5,569.4,416.5,581.6z M413.8,581.6c0-10.6-8.7-19.3-19.3-19.3c-10.6,0-19.3,8.7-19.3,19.3
		c0,10.6,8.7,19.3,19.3,19.3C405.1,600.9,413.8,592.2,413.8,581.6z"/>
	<path class="st3" d="M455.8,561.3l-15.3,45.9l-6.2,18.6h-2.9l6.3-19l-15.2-45.5h2.9l13.7,41.2l13.7-41.2H455.8z"/>
	<path class="st3" d="M483.9,559.5c6.6,0,12.8,2.9,17,8l2.4,2.9v-8.6h2.8v41.8h-2.8v-11l-2.4,2.9c-4.2,5.1-10.4,8-17,8
		c-12.2,0-22.1-9.9-22.1-22.1C461.8,569.4,471.7,559.5,483.9,559.5z M483.9,562.3c-10.6,0-19.3,8.7-19.3,19.3
		c0,10.6,8.7,19.3,19.3,19.3c10.6,0,19.3-8.7,19.3-19.3C503.2,571,494.5,562.3,483.9,562.3z"/>
	<path class="st3" d="M554.6,561.7h2.6v19.7h-0.1v1.3c0,11.6-9.4,21.1-21.1,21.1c-3.6,0-7.2-0.9-10.3-2.7l-0.5-0.3l-0.5,0.1
		c-1.8,0.5-3.1,2.1-3.1,4c0,1.8,1.2,3.4,2.8,3.9v0.3l1.4-0.1c0.2,0,0.3,0,0.5,0h19.7c6.2,0,11.2,5,11.2,11.2c0,6.2-5,11.2-11.2,11.2
		h-19.7c-6.2,0-11.2-5-11.2-11.2c0-3.7,1.9-7.2,5-9.3l1.2-0.8l-0.9-1.1c-0.9-1.2-1.4-2.6-1.4-4.1c0-2,0.9-3.8,2.4-5.1l1.1-0.9l-1-1
		c-4.1-4-6.4-9.4-6.4-15.1c0-11.6,9.4-21.1,21.1-21.1c6.3,0,12.2,2.8,16.2,7.6l2.3,2.8V561.7z M554.5,582.8
		c0-10.2-8.3-18.4-18.4-18.4c-10.2,0-18.4,8.3-18.4,18.4c0,10.2,8.3,18.4,18.4,18.4C546.3,601.2,554.5,592.9,554.5,582.8z
		 M517.8,620.3c0,4.7,3.8,8.6,8.6,8.6h19.7c4.7,0,8.6-3.8,8.6-8.6s-3.8-8.6-8.6-8.6h-19.7C521.6,611.7,517.8,615.6,517.8,620.3z"/>
	<path class="st3" d="M568,581.1c0,0.2,0,0.4,0,0.6c0,10.6,8.7,19.3,19.3,19.3c5.3,0,10.1-2.2,13.6-5.7l1.9,1.9
		c-4,4-9.5,6.5-15.6,6.5c-12.2,0-22.1-9.9-22.1-22.1c0-12.2,9.1-22.1,21.3-22.1c11,0,19.4,8.2,21,18.8c0.1,0.9,0.2,1.8,0.2,2.8h-2.8
		H568z M568.3,578.3h36.5c-1.6-9.1-8.7-16-18.2-16C577,562.3,569.9,569.2,568.3,578.3z"/>
	<path class="st3" d="M618.6,565.5l2.3-2.1c2.4-2.2,5.5-3.5,8.7-3.8v2.8c-5.7,0.6-10.3,5.2-10.9,11h-0.1v30.3h-2.8v-41.4h2.8V565.5z
		"/>
</g>
<path id="alex" class="st4" d="M221,208.5v8h-68.2c-3.3-30.5-6.6-66.5-9.9-108c0,0,0,0,0,0c-8,57.6-13,99.7-15,126.3h9.1v0.7H78.4
	H57.5h-28l7.6-57.3h28L83.3,41.5h113l24.7,165.9C221,207.7,221,208.1,221,208.5z M321,41.5h-79v117h79V41.5z M465.2,101.6V41.5
	H334.9V135v4.5v19.7h78.2V135h0v-33.4H465.2z M145,235.5v-0.7h-9.1c0-0.1,0-0.2,0-0.3H65.6l-11.8,89h79.9v-35.3h3.2l0-0.1h28l0,0.1
	h2.8v35.3H229v-88H145z M407.1,235.3h32.4l38.4-57.2h-23.1l0,0H328.9v57.2v42.1H367v4.5h-5.1H344h-29.6V158.5h-78.2v165H344h17.9
	h5.1h10h87.4v-41.5h-57.4V235.3z M477.9,41.5v60.2l48.7,56h83.4V41.5H477.9z M547.9,191.8l-60.7,90.4v41.3h39.1h14.4h33.9H590h36.5
	v-41.1L547.9,191.8z"/>
<g id="crane">
	<polygon class="st5" points="592.2,474.9 592.2,444.3 615.1,444.3 615.1,410.1 592.2,410.1 592.2,394.9 592.2,357.9 626,357.9 
		626,334.5 541.5,334.5 541.5,410.1 534,410.1 534,334.5 491.6,334.5 491.6,406.7 468.2,334.5 420.8,334.5 420.8,513.9 463.2,513.9 
		463.2,425.2 489.5,513.9 534,513.9 534,444.3 541.5,444.3 541.5,513.9 629.4,513.9 629.4,474.9 	"/>
	<g class="st6">
		<path class="st3" d="M399.9,334.5h-77.7L307.1,448v65.9h43.7l3-35.1H372l2.7,35.1h38.6v-89.1L399.9,334.5z M353.2,444.3
			c1.3-17.3,4.6-44.6,9.7-81.9c2.6,32.5,5.2,59.8,7.7,81.9H353.2z"/>
	</g>
	<path class="st5" d="M299.6,371.6c-0.1-16.4-2.7-28.3-8-35.8c-0.3-0.4-0.6-0.9-0.9-1.3H186.4V366v7.1v48.6v16.7v75.5h50.7v-39.3
		c7,0,11.3,1.2,12.9,3.7c1.6,2.5,2.5,9,2.5,19.4v16.2h47.1v-2.8c0-15.7-0.4-25.4-1.3-28.9c-0.8-3.5-3-7.3-6.4-11.5
		c-3.5-4.2-10.2-7.5-20.2-10c11.1-1,18.5-4.2,22.3-9.4c3.6-5,5.5-14.7,5.6-28.9h0L299.6,371.6L299.6,371.6z M252.5,426.6
		c0,8.6-1.1,13.7-3.4,15.2c-2.3,1.6-6.3,2.3-12,2.3v-5.9v-16.7V373V366v-13.7c5.9,0,9.9,1,12.1,2.9c2.2,1.9,3.3,6,3.3,12.2v4.3h-0.1
		v50.8h0.1V426.6z"/>
	<path class="st5" d="M173.7,403.8v-18.5c0-18.2-1.5-31.6-4.6-40.2c-1.3-3.8-3.3-7.3-5.9-10.5H79.3H64.9h-11v53.1V430v14.7
		c0,19.1,1.6,33.4,4.7,42.9c3.1,9.5,9.5,17,19.2,22.3c9.6,5.4,21.9,8.1,36.7,8.1c14.3,0,26.3-3.2,36.1-9.5
		c9.8-6.4,16.1-13.8,18.9-22.2c2.8-8.4,4.3-22.8,4.3-42.9v-7.6H123v24.5c0,10.7-0.6,17.5-1.7,20.4c-1.2,2.9-3.6,4.3-7.4,4.3
		c-3.9,0-6.5-1.4-7.6-4.3c-1.1-2.9-1.7-9.1-1.7-18.6v-90.6c0-9.9,0.6-16.3,1.7-19.3c1.1-3,3.8-4.5,8-4.5c3.7,0,6.1,1.2,7.2,3.7
		c1.1,2.4,1.6,8.6,1.6,18.5v33.9H173.7z"/>
</g>
<g id="x_lines" class="st7">
	<polygon class="st8" points="545.6,118.1 626.6,211.4 626.6,203.3 548.6,113.5 	"/>
	<polygon class="st8" points="539.8,126.7 626.6,226.7 626.6,218.7 542.8,122.2 	"/>
	<polygon class="st8" points="522.4,152.7 626.6,272.7 626.6,264.6 525.4,148.1 	"/>
	<polygon class="st8" points="528.2,144 626.6,257.4 626.6,249.3 531.2,139.5 	"/>
	<polygon class="st8" points="551.4,109.4 626.6,196.1 626.6,188 554.4,104.9 	"/>
	<polygon class="st8" points="534,135.4 626.6,242.1 626.6,234 537,130.8 	"/>
	<polygon class="st8" points="557.2,100.8 626.6,180.7 626.6,172.7 560.2,96.2 	"/>
	<polygon class="st8" points="583.4,61.7 580.3,66.2 626.6,119.4 626.6,111.4 	"/>
	<polygon class="st8" points="574.5,74.8 626.6,134.8 626.6,126.7 577.6,70.3 	"/>
	<polygon class="st8" points="568.8,83.5 626.6,150.1 626.6,142 571.8,78.9 	"/>
	<polygon class="st8" points="563,92.1 626.6,165.4 626.6,157.4 566,87.6 	"/>
</g>
<g>
	<rect y="0.5" class="st9" width="23.7" height="23.7"/>
	<rect x="23.7" y="0.5" class="st10" width="23.7" height="23.7"/>
	<rect x="47.3" y="0.5" class="st11" width="23.7" height="23.7"/>
	<rect x="71" y="0.5" class="st12" width="23.7" height="23.7"/>
	<rect x="94.7" y="0.5" class="st10" width="23.7" height="23.7"/>
	<rect x="118.3" y="0.5" class="st9" width="23.7" height="23.7"/>
	<rect y="24.2" class="st10" width="23.7" height="23.7"/>
	<rect x="23.7" y="24.2" class="st12" width="23.7" height="23.7"/>
	<rect x="47.3" y="24.2" class="st2" width="23.7" height="23.7"/>
	<rect x="71" y="24.2" class="st11" width="23.7" height="23.7"/>
	<rect x="94.7" y="24.2" class="st12" width="23.7" height="23.7"/>
	<rect x="118.3" y="24.2" class="st1" width="23.7" height="23.7"/>
	<rect y="48" class="st12" width="23.7" height="23.7"/>
	<rect x="23.7" y="48" class="st11" width="23.7" height="23.7"/>
	<rect x="47.3" y="48" class="st13" width="23.7" height="23.7"/>
	<rect x="71" y="48" class="st2" width="23.7" height="23.7"/>
	<rect x="94.7" y="48" class="st1" width="23.7" height="23.7"/>
	<rect y="71.7" class="st10" width="23.7" height="23.7"/>
	<rect x="23.7" y="71.7" class="st12" width="23.7" height="23.7"/>
	<rect x="47.3" y="71.7" class="st14" width="23.7" height="23.7"/>
	<rect x="71" y="71.7" class="st11" width="23.7" height="23.7"/>
	<rect x="94.7" y="71.7" class="st1" width="23.7" height="23.7"/>
	<rect y="95.5" class="st12" width="23.7" height="23.7"/>
	<rect x="23.7" y="95.5" class="st2" width="23.7" height="23.7"/>
	<rect x="47.3" y="95.5" class="st14" width="23.7" height="23.7"/>
	<rect x="71" y="95.5" class="st12" width="23.7" height="23.7"/>
	<rect y="119.2" class="st10" width="23.7" height="23.7"/>
	<rect x="23.7" y="119.2" class="st12" width="23.7" height="23.7"/>
	<rect x="47.3" y="119.2" class="st11" width="23.7" height="23.7"/>
	<rect x="71" y="119.2" class="st1" width="23.7" height="23.7"/>
	<rect y="143" class="st9" width="23.7" height="23.7"/>
	<rect x="23.7" y="143" class="st1" width="23.7" height="23.7"/>
	<rect x="47.3" y="143" class="st11" width="23.7" height="23.7"/>
	<rect y="166.7" class="st9" width="23.7" height="23.7"/>
	<rect x="23.7" y="166.7" class="st12" width="23.7" height="23.7"/>
	<rect x="47.3" y="166.7" class="st2" width="23.7" height="23.7"/>
	<rect y="190.5" class="st1" width="23.7" height="23.7"/>
	<rect y="214.2" class="st0" width="23.7" height="23.7"/>
	<rect x="23.7" y="214.2" class="st1" width="23.7" height="23.7"/>
	<rect y="238" class="st1" width="23.7" height="23.7"/>
	<rect x="23.7" y="238" class="st1" width="23.7" height="23.7"/>
	<rect x="47.3" y="238" class="st12" width="23.7" height="23.7"/>
	<rect y="261.7" class="st1" width="23.7" height="23.7"/>
	<rect x="23.7" y="261.7" class="st1" width="23.7" height="23.7"/>
	<rect x="47.3" y="261.7" class="st10" width="23.7" height="23.7"/>
	<rect y="285.5" class="st0" width="23.7" height="23.7"/>
	<rect x="23.7" y="285.5" class="st1" width="23.7" height="23.7"/>
	<rect x="47.3" y="285.5" class="st10" width="23.7" height="23.7"/>
	<rect y="309.2" class="st9" width="23.7" height="23.7"/>
	<rect x="23.7" y="309.2" class="st0" width="23.7" height="23.7"/>
	<rect x="47.3" y="309.2" class="st0" width="23.7" height="23.7"/>
	<rect y="332.9" class="st1" width="23.7" height="23.7"/>
	<rect x="23.7" y="332.9" class="st1" width="23.7" height="23.7"/>
	<rect x="47.3" y="332.9" class="st0" width="23.7" height="23.7"/>
	<rect y="356.7" class="st15" width="23.7" height="23.7"/>
	<rect x="23.7" y="356.7" class="st9" width="23.7" height="23.7"/>
	<rect x="47.3" y="356.7" class="st9" width="23.7" height="23.7"/>
</g>
</svg>
