<svg xmlns="http://www.w3.org/2000/svg" viewBox="0 0 1270.4 339.9"><path d="M301.6 95.4c0.3-0.7 0.6-1.3 0.8-1.9 0.4-1 0.8-1.9 1-2.9 0.1-0.7-0.1-1.4-0.1-2.1 -0.7 0.1-1.4 0.3-2.1 0.4 -0.1 0-0.2 0-0.6 0 0.1-2.1 0.2-4.3 0.4-6.4 0.5-4.1 1.2-8.2 1.6-12.3 0.4-4.2 0.3-8.5 0.9-12.7 0.7-4.6 1.8-9.1 2.9-13.7 0.1-0.5 0.7-1 1.2-1.5 -0.9-0.6-0.6-1.3 0.3-2.1 0.2-0.2 0.5-0.3 0.5-0.5 0.2-4.2 3.2-6.1 6.3-8 2.5-1.5 5.3-2 8.1-2.3 2.2-0.2 4.4-0.2 6.6-0.3 0.6 0 1.2 0.4 1.8 0.6 0.2 0.1 0.4 0.1 0.5 0.1 2.3-1.2 4.9-0.6 6.9 0.3 3.7 1.8 7.9 2.4 10.9 5.5 1.2 1.2 2.2 2.5 3.2 3.9 0.4 0.5 0.2 1.4 0.4 2 0.2 0.7 0.4 1.3 0.7 1.9 0.2 0.5 0.3 1 0.4 1.5 0.4 2.7 0.7 5.3 1.2 8 0.8 4.1 1.5 8.3 1.4 12.5 0 1.3-0.4 2.8 0.4 4.1 0.3 0.4-0.1 1.2 0 1.8 0.1 1.1 0.5 2.2 0.5 3.3 0.1 2.8 0.8 5.6-0.1 8.4 -0.1 0.4 0.2 0.8 0.2 1.3 0 1.5 0 3 0 4.5 0 0.1-0.1 0.3 0 0.4 1.8 2.6 0.5 5.6 1.2 8.3 0.3 1.1 0.5 2.3 0.4 3.4 -0.4 4.3 1.2 8.3 0.9 12.6 -0.2 2.1 0.6 4.3 0.7 6.5 0.1 2.2-0.4 4.5-0.4 6.8 0 1.2 0.4 2.4 0.7 3.6 0 0.2 0.2 0.5 0.2 0.7 -0.3 2.3 0.7 4.3 1.1 6.5 0.3 1.8 0.2 3.8 0.4 5.6 0.4 4 1 8 1.3 12 0.3 2.8 0.3 5.6 0.5 8.3 0.2 2.8 0.6 5.5 0.7 8.3 0.3 4.4 0.5 8.9 0.7 13.3 0.1 2.8 0 5.7 0.2 8.5 0.2 3.6 0.4 7.2 0.6 10.9 0.1 1.9 0.2 3.9 0.2 5.8 0 1.3-1.1 1.6-2 1.7 -1.3 0.2-2.6 0-3.9-0.1 -0.4 0-0.8-0.4-1.2-0.4 -0.8-0.1-1.6-0.2-2.4-0.2 -0.4 0-0.7 0-1.1 0 -0.7 0-1.3-0.1-2 0 -1 0.2-2.1 0.6-3.1 0.7 -1.9 0.2-3.4-1.1-3.4-3.1 0-2.7 0.2-5.4 0.3-8.5 -0.2-0.6-0.6-1.7-0.8-2.8 -0.3-2.3-0.5-4.6-0.8-6.8 -0.3-1.8-0.8-3.7-0.9-5.5 -0.1-2.3 0.1-4.7 0-7 -0.1-4.4-0.4-8.9-0.6-13.3 0-1-0.3-1.4-1.4-1.5 -4.6-0.1-9.1-0.3-13.7-0.5 -5-0.2-10-0.3-15-0.5 -2.7-0.1-3.1 0.3-3.2 3 -0.1 2.4-0.6 4.7-0.9 7.1 -0.3 2.2-0.5 4.4-0.7 6.6 -0.9 7.7-1.7 15.4-2.6 23.1 -0.1 0.7 0.1 1.5 0 2.2 -0.3 2.1-0.7 4.1-1.1 6.2 -0.1 0.4-0.8 0.9-1.3 0.9 -1.6 0.1-3.3 0.3-3.6-2.4 -0.7 0.6-1.1 1-1.5 1.3 -0.7 0.4-1.5 1.2-2.1 1.1 -1.4-0.3-2.5 0.3-3.6 0.8 -1.1 0.5-2.3 0.8-3.2-0.2 -0.9-1-0.9-2.5-2.1-3.4 -0.4-0.3 0.2-1.8 0.2-2.7 0-0.8 0-1.5 0-2.3 0.1-0.9 0-1.9 1.4-1.9 -0.5-2.1-1.1-4.1 0.2-6 0-0.1 0.1-0.2 0.1-0.3 0.1-2.4 0.1-4.7 0.3-7.1 0.2-2.7 0.7-5.4 1-8.1 0.4-2.9 0.9-5.9 1.2-8.8 0.3-2.5 0.4-5 0.6-7.7 -1.4 0.1-2.8 0-4.1 0.3 -1.7 0.4-2.8-0.2-3.4-1.7 -0.6-1.7-2.1-1.9-3.5-2.2 -1.8-0.4-2.6-1.7-2.2-3.4 0.1-0.4 0-0.9-0.3-1.3 -0.8-1.2-1-2.3 0-3.3 0.6-0.7 0.3-1.2-0.1-1.8 -0.8-1.3-0.7-2.8 0.5-3.9 0.9-0.8 2-0.5 3.1 0 0.9 0.4 2.1 0.4 3.2 0.4 2 0.1 3.9 0 5.9 0.1 1.4 0 2-0.8 2.1-2 0.3-2.4 0.4-4.9 0.7-7.3 0.2-1.6 0.3-3.3 0.5-4.9 0.1-0.5 0.5-1 0.5-1.5 0-0.8-0.1-1.7 0-2.5 0.4-2.3 1-4.6 1.4-6.9 0.1-0.3 0.3-0.6 0.2-0.8 -1.3-3.8-0.4-7.6-0.2-11.5 0.2-3.6 0.5-7.2 0.8-10.8 0.1-1.2 0.3-2.4 0.5-3.6 0.1-0.4 0.3-0.8 0.5-1.2C300.7 94.4 301 94.8 301.6 95.4zM318.6 49.6c-0.9 0.5-1.7 0.9-2.4 1.2 -0.2 0.8-0.3 1.3-0.5 1.8 -0.4 1.2 0 2.5-0.7 3.7 -0.6 1-0.3 2.6-0.7 3.8 -0.3 1.1 0.2 1.6 1.1 1.9 1 0.3 1.5-0.2 1.6-1.2 0.1-0.5 0.4-1 0.4-1.5 0.2-1.3 0.7-2.8 0.3-3.9 -0.6-1.7 0.4-2.3 1.4-3.3 -1.3-0.4-0.8-1.1-0.4-1.9C318.9 50.2 318.7 49.8 318.6 49.6c1.2-0.3 1.2-1.3 0.9-2.1 -0.1-0.4-1.1-0.4-1.6-0.6 0 0.1-0.1 0.3-0.1 0.4 0.3 0.2 0.5 0.4 0.8 0.7 -0.6 0.2-1 0.4-1.9 0.7C317.6 49.1 318.1 49.3 318.6 49.6zM319 64.8c1.1 3.1-0.6 6.6-0.4 10.3 -1.1-0.3-2-0.5-2.7-0.7 -0.8-2.2 0.5-4.5-0.9-6.6 -0.4 0.5-0.6 1.1-0.6 1.6 0 1.7 0.7 3.4-0.2 5.2 -0.5 1.1 0.3 2.2 1.2 2.3 0-0.3 0.1-0.6 0.1-0.9 0.1 0 0.2-0.1 0.4-0.1 0.3 0.5 0.8 1.1 0.7 1.5 -0.6 1.7 0.2 1.9 1.8 1.7 0 1.9 0.4 3.7-0.6 5.5 1.3 2.1 0 4.4 0.1 6.7 -0.6 0.1-1 0.1-1.6 0.2 2 2.1 1.8 3.5-1 4.3 0.8 0.4 1.3 0.7 2.1 1.1 -0.1 1.9-0.1 4-0.4 6 -0.7 6.1-1.5 12.2-2.2 18.3 -0.4 3.6-0.5 7.3-0.7 10.9 -0.2 2.2-0.3 4.4-0.5 6.5 -0.2 2-0.2 4.1-0.5 6.1 -0.3 1.8 0.2 2.5 2 2.7 1.2 0.1 2.3 0.1 3.5 0.2 2.9 0.3 5.9 0.7 8.8 0.8 3.5 0.2 7.1 0.1 10.6 0.1 1.9 0 3.9 0 5.9 0 0.1-1 0.1-1.7 0.2-2.4 0.2-4.9 0.5-9.8 0.5-14.7 0-4.5-0.5-9.1-0.7-13.6 -0.1-0.9-0.2-1.7-0.2-2.6 0-1.5 0.2-3.1 0-4.5 -0.6-4 0-8.1-1.1-12 0-0.1 0-0.2 0-0.3 -0.2-2.5-0.5-5-0.6-7.4 -0.1-2.1 0-4.2-0.1-6.2 -0.1-1.3 0.6-2.6-0.4-3.8 -0.3-0.4-0.4-1.3-0.2-1.7 0.8-1.3 0.1-2.5 0-3.7 -0.2-2.6-0.3-5.2-0.4-7.9 0-1.3 0.1-2.5 0.3-3.8 0.1-0.7 0.3-1.4 0.6-2.3 -1.6-1.5-1.2-3.7-0.9-5.9 2.1-1.3 0.1-3.2 0.7-4.9 -0.5 0.1-1 0.2-1.4 0.2 0.1-0.1 0.2-0.2 0.3-0.3 -1.6-2-3-4.2-4.8-6 -1.4-1.4-3.4-2.3-5.5-2 -5.2 0.7-8.2 4-9.3 9.1 -0.4 1.7-0.7 3.5-1 5.2 -0.2 1-0.2 2.1-0.3 3.2C319.3 61.4 319.2 62.8 319 64.8zM315.2 62.7c-0.4 1.6-0.9 3.2-1.4 4.8 1-0.3 1.7-0.6 2.6-0.9 -0.3-0.5-0.6-0.8-0.9-1.2C316.5 63.9 316.4 63 315.2 62.7zM308.9 136c-1.2 1.1-1.2 2.2-0.4 3.3 0.2 0.2 1.4 0.2 1.6-0.2C311.4 137.6 309.6 137 308.9 136zM310.2 143c-0.1-1.2-0.1-2-0.2-2.9 -0.5 0.2-1.2 0.2-1.4 0.5C308.2 141.6 308.5 142.4 310.2 143zM354.7 63.2c-0.2 0-0.4-0.1-0.6-0.1 -0.2 1-0.4 2-0.6 3 0.2 0 0.4 0.1 0.6 0.1C354.4 65.2 355.9 64.5 354.7 63.2zM310.7 136.7c-0.1-1.5-0.2-2.6-0.2-3.7 -0.1 0-0.3 0-0.4 0C309.4 135.2 309.4 135.5 310.7 136.7zM351.7 58.5c-0.9 0.7-1.5 1.2-2.4 1.9C351.7 60.8 351.7 60.8 351.7 58.5zM350.6 48.6c-0.1 0-0.3-0.1-0.4-0.1 -0.5 0.6-1.1 1.3-1.6 1.9 0.1 0.1 0.2 0.3 0.3 0.4 0.4-0.3 0.9-0.4 1.2-0.8C350.3 49.6 350.4 49.1 350.6 48.6z"/><path d="M664.2 75.3c0 0.3 0 0.4 0 0.5 0.1 0.6 0.4 1.4 0.2 1.6 -0.8 0.8-3.6 0.9-3.6 0.4 0-1.7-1.3-1.1-2.1-1.6 0-5.1 0-10.3 0-15.5 0-0.3 0-0.7 0.2-0.8 1.6-1 0.6-2.3 0.3-3.4 -0.1-0.4-0.3-0.7-0.3-1.3 0.1-1.7 0.1-3.4 0-5 0-0.3-0.4-0.7-0.6-0.9 -0.7-0.7-1.4-1.3-0.9-2.5 0.1-0.3-0.5-1.2-1-1.5 -1-0.8-1.7-2.2-3.3-2 -0.4 0-0.8-0.6-1.3-0.9 -1 0.6-2.1 0.8-2.8-0.2 -1.4 0.1-2.5 0.5-3.6 0.3 -2.4-0.2-3.7 1.4-5.3 2.7 -0.3 0.3-0.7 0.6-0.9 1 -0.6 1-1 2-0.9 3.2 0.1 3.8 0.1 7.6 0 11.4 -0.1 5.9-0.5 11.7-0.5 17.6 0 3 0.5 6 0.5 9 0 5.5-0.2 10.9-0.2 16.4 0 3.1-0.2 6.2 0 9.3 0.2 2.7-0.7 5.4 0.2 8.2 0.4 1.1-0.2 2.6-0.2 3.9 0 3.1 0 6.3 0 9.4 0 2.8 0 5.6 0.1 8.5 0.1 3.9 0.2 7.9 0.3 11.8 0 1.6 0 3.3 0 4.9 0 0.8-0.4 1.6-0.6 2.4 -0.2 0-0.3 0-0.5 0.1 0.3 0.1 0.6 0.2 0.8 0.3 0 3.7 0 7.5 0 11.3 0 2.2 0 4.3-0.1 6.5 0 0.8-0.2 1.5-0.2 2.3 0 1.3 0.2 2.7 0.3 4 0.1 2.1 1.1 3.9 1.8 5.9 0.3 1.1 0.8 2.1 1.3 3.1 0.9 1.7 2.4 2.5 4.3 2.5 2.4 0 4.8-0.1 7.2-0.3 0.6-0.1 1.3-0.6 1.8-1 0.6-0.6 1.2-1.4 1.5-2.1 0.3-0.6 0.1-1.4 0.3-2 0.3-0.8 0.7-1.6 1.1-2.4 0.1-1.3 0.2-2.7 0.3-4 0.2-1.7 0.4-3.3 0.6-5 0-0.3 0-0.6-0.1-0.9 -0.1-0.3-0.4-0.5-0.4-0.8 -0.1-2.5-0.2-4.9-0.3-7.4 -0.1-2.7-0.3-5.5-0.3-8.2 0-2.9 1.4-3.4 3.3-3.1 1.4 0.2 2.5-0.1 3.7-0.4 1.1-0.2 2.3-0.2 2.9 1.3 1.1-1.7 2.7 0 4-0.6 1.3 1.3 3.3 2 3.6 4.3 0.3 2.4 0.8 4.8 1.1 7.2 0.1 1-0.2 1.9-0.3 2.9 -0.1 1.2-0.2 2.3-0.1 3.5 0.1 1.8 0.6 3.5-0.3 5.2 -0.2 0.4 0.2 1 0.2 1.5 0 2.4 0 4.7-1.2 6.9 -0.3 0.5 0 1.3-0.1 1.9 -0.1 0.7 0.1 1.5-0.9 1.9 -0.2 0.1 0.1 1.2 0 1.8 -0.6 2.6-1.5 5-3.2 7 -0.4 0.5-0.3 1.6-1.5 0.9 -0.1 0-0.7 0.4-0.8 0.8 -0.5 1.5-0.8 1-2 2 -1.1 0.9-2.5 0.2-3.3 1.4 -0.3 0.4-1.2 0.4-1.8 0.7 -1.2 0.5-2.3 1.5-3.5 1.6 -2.3 0.2-4.6 1.4-7 0.8 -0.5-0.1-1.2 0.3-1.8 0.3 -0.4 0-0.8-0.4-1.3-0.6 -1.3 1.1-2.6 0-3.9-0.4 -1.9-0.6-3.7-1.4-5.5-2 -0.2-0.1-0.4-0.1-0.5 0 -2.9 0.7-4.6 0.3-6.1-2 -1.6-2.3-3.1-4.6-4.6-6.9 -0.6-0.9-1.6-1.6-1.9-2.6 -0.5-2.3-0.9-4.7-1-7.1 -0.2-7-0.3-14.1-0.3-21.1 0-25.2 0-50.3 0-75.5 0-16 0-32 0-48 0-2.8 0.4-5.3 2.6-7.1 0.1-0.1 0.2-0.3 0.2-0.4 -0.2-2 1.5-2.4 2.7-3.4 1.5-1.2 2.7-2.8 4-4.3 0.2-0.2 0.4-0.6 0.6-0.6 3.2 0.1 5.8-2.1 8.9-2.5 3.2-0.4 6.2-1.1 9.4-0.4 1.9 0.4 3.9 0.3 5.7 0.9 3.8 1.3 6.9 3.6 9.5 6.9 2.7 3.6 4.6 7.6 5.4 11.9 0.6 3.1 0.7 6.2 1 9.4 0.4 4.9 0.6 9.9 1 14.8 0.1 1.4-0.6 2.2-1.6 2.8 -0.4 0.3-1.3 0.2-1.8-0.1 -1.1-0.7-2.3-0.3-3 0.2 -0.6 0.5-0.9 0.6-1.5 0.2C665.4 75.6 664.8 75.5 664.2 75.3z"/><path d="M960.9 149.2c1.9 0 3.8 0 5.7 0 5.8 0 11.5 0.1 17.3 0 1.4 0 2 0.7 2.2 1.8 0.2 0.9 0.7 2.1-0.7 2.4 0.4 1.6 0.8 3.2 1.2 4.8 0.1 0.2-0.2 0.7-0.5 0.9 -0.5 0.4-1.1 0.6-1.7 0.9 0.2 0.1 0.4 0.2 0.6 0.3 0.1 1 0.3 2 0.4 3 -1.9 0.8-3.8 0.9-5.8 0.8 -3.9-0.1-7.8-0.2-11.6-0.2 -2.4 0-4.8 0-7.3 0 0 11.9 0 23.6 0 35.4 0.5 0 1 0 1.6 0 8.3 0 16.5 0 24.8 0 1.3 0 2.2 0.6 2.4 1.6 0.2 1 0 2.1-0.2 3.1 0 0.2-0.7 0.3-1.2 0.5 0.2 0.8 0.5 1.6 0.7 2.4 0.3 1.2 0.8 2.5-0.9 3.2 -0.2 0.1-0.3 0.7-0.4 1.1 -0.5 1.7-1.1 2.2-2.8 2.1 -0.1 0-0.2 0-0.3 0 -1.6 0.9-3.3 0.2-4.9 0.3 -2.8 0.1-5.7 0.1-8.5 0.2 -1.6 0-3.1 0-4.7 0.1 -1.8 0.1-3.6 0.4-5.4 0.5 -1.3 0.1-2.7 0-4 0.1 -2.5 0.2-5.1 0.5-7.6 0.6 -1.1 0-2.3-0.4-3.5-0.7 0-16.8 0-33.5 0-50.5 -1.1 0-2.1 0-3 0 -2.9 0-5.7 0-8.6 0 -2 0-3.4-1-3.6-3.1 -0.1-1-0.6-2.3 0.9-2.9 -1.2-1.5-2.4-3-1.8-5.2 1.7 0.2 2.2-0.5 1.9-2.2 -0.3-1.9 0-2.1 2-2 3.2 0 6.4 0 9.5 0 1.2 0 1.5-0.7 1.5-1.8 0-15.1 0-30.2 0-45.4 0-22.6 0-45.1 0-67.7 0-0.5 0-1.1 0-1.8 3.1-0.1 6.1-0.3 9.1-0.4 1.1-0.1 2.3-0.4 3.4-0.4 2.4 0 4.8 0.3 7.2 0.2 3.4-0.1 6.7-0.6 10.1-0.8 1.5-0.1 3.1 0.3 4.6 0.4 0.5 0.1 1.1 0.1 1.6 0.2 0.4 0.1 0.8 0.2 1.1 0.4 0.8 0.5 1.5 1.1 2.6 0.3 0.8-0.5 2.5 0.8 2.7 2 0.3 1.8 0.6 3.7 0.7 5.5 0.1 1.3-0.2 2.6-0.4 4 0.1 0 0.3 0 0.5 0.1 -0.2 0.5-0.4 1.1-0.7 1.7 -2.4 0.2-4.8 0.1-7-1.7 -0.2 0.5-0.2 0.8-0.4 1.1 -0.1 0.2-0.3 0.5-0.5 0.8 -0.4-0.4-0.6-0.7-0.9-1 0 0.1 0 0.3-0.1 0.4 -0.8 0-1.6-0.2-2.4-0.1 -1.6 0.1-3.2 0.4-4.7 0.5 -3.4 0.1-6.8 0-10.5 0 -0.2 2.8-0.4 5.4-0.4 8.1 -0.1 4.4 0 8.9 0.5 13.3 0.2 1.7-0.2 3.5-0.3 5.2 -0.1 2.7 0 5.4-0.1 8.1 -0.1 3.4-0.4 6.7-0.6 10.1 -0.1 1.9-0.2 3.9-0.3 5.8 -0.1 1.1-0.3 2.2-0.3 3.3 0 3.5 0 7 0 10.5 0 2.3-0.2 4.6-0.2 6.9 0 2.2 0.3 4.4 0.4 6.6 0.3 3.9 0.5 7.8 0.8 11.7C960.3 139.3 960.6 144.1 960.9 149.2z"/><path d="M429.3 207c-1.3-2-1.1-2.2 0.1-4.2 0.5-0.8 0.6-2.5 0.1-3.2 -1.1-1.4-2.7-2-4.7-1.8 -2.6 0.3-5.4 0.4-8 0.1 -3.4-0.3-6.7-1-10-1.5 0 0.1 0 0.2-0.1 0.4 -1.3 0-2.7 0-4 0 -1 0-1.4-0.3-1.4-1.4 0.1-3.6 0.3-7.2 0.3-10.8 0-3.6-0.1-7.2-0.2-10.7 -0.1-4.2-0.2-8.4-0.1-12.6 0.2-6.4 0.6-12.9 0.7-19.3 0.1-3.7-0.2-7.4-0.4-11.2 -0.2-6.7-0.6-13.4-0.7-20.1 -0.1-6.3-0.1-12.7 0-19 0.1-4.1 0.4-8.2 0.5-12.3 0.1-2.6-0.1-5.3-0.1-7.9 0.2-8 0.4-16.1 0.6-24.1 0.2-5.3 0.4-10.6 0.6-16 0-1.2-2.5-3.1-3.5-2.5 -0.8 0.4-1 0.1-1.5-0.2 -1.2-0.7-2.5-1.7-4-0.9 -0.6 0.3-1 1.1-1.5 1.1 -1.3 0.2-2.7 0-4 0 -1 0-2.2-0.2-2.4 1.1 -0.3 2.1-0.5 4.3-0.6 6.4 -0.1 2.4 0.1 4.8 0.1 7.2 0 4.3 0 8.5 0 12.8 0 3.6 0 7.1 0 10.7 0 0.6 0.4 1.1 0.3 1.7 -0.1 1.3-0.4 2.6-0.4 3.9 -0.1 4.1-0.1 8.2-0.1 12.4 0 2.1 0.1 4.2 0.3 6.3 0.1 2.3 0.5 4.7 0.5 7 0 5-0.1 10-0.1 15 0 5.1 0.3 10.2 0.4 15.4 0 3.7-0.1 7.4-0.2 11.2 -0.1 6.3-0.1 12.7-0.3 19 -0.1 2.8-0.6 5.6-0.7 8.3 -0.4 6.3-0.7 12.6-0.9 19 -0.1 4.8 0.1 9.7 0 14.5 -0.1 3-0.3 5.9 1.1 8.7 0.3 0.6 0.7 1.4 1.3 1.6 1.9 0.7 3.8 1 5.8 0.2 0.9-0.4 2.1-0.3 3.1-0.3 3.3 0.2 6.6 0.6 9.8 0.6 5.5 0 11-0.2 16.4-0.4 0.5 0 1-0.3 1.6-0.4 1.3-0.2 2.7-0.6 4-0.4 1.1 0.2 1.9 0.2 2.5-0.6C430.2 208.9 429.9 207.9 429.3 207z"/><path d="M571.2 205.3c-0.5-1.6-1.1-3.1-1.6-4.7 -1.1-4.1-2.2-8.1-3.3-12.2 -1.1-4.4-2.2-8.8-3.3-13.1 -1.4-5.4-3-10.8-4.5-16.1 -0.6-2.3-1.1-4.5-1.7-6.8 -0.8-3.2-1.7-6.3-2.6-9.4 -1.3-4.2-2.6-8.5-3.9-12.7 -0.8-2.7-1.7-5.3-2.5-7.9 -0.3-0.9-0.5-2-0.3-2.9 0.8-3.8 1.7-7.6 2.6-11.3 0.5-2.3 1-4.7 1.6-7 0.9-3.4 2-6.8 2.8-10.3 0.9-3.6 1.5-7.2 2.3-10.9 0.2-1 0.5-2 0.9-3 0.3-0.8 0.9-1.5 1.1-2.3 0.5-2.1 0.9-4.2 1.4-6.2 0.4-2 0.9-3.9 1.3-5.9 0.2-0.7 0.3-1.4 0.5-2.1 0.6-1.7 1.3-3.3 1.8-5 0.4-1.5 0.6-3.1 0.9-4.6 0.4-2.4 0.9-4.8 1.3-7.3 0.1-0.3 0.3-0.6 0.4-0.9 0.7-1.9 1.5-3.9 2.1-5.8 0.2-0.8-0.2-1.7-0.1-2.6 0.2-2-1-3.5-2.9-3.9 -1.7-0.3-3.4-1-5.1-1.5 -0.6-0.2-1.3-0.4-1.8-0.2 -1.4 0.5-2.9 1.1-4.2 1.9 -3.1 2.2-3.4 5.9-4.3 9.2 -0.2 0.6 0.1 1.3 0 1.9 -0.7 4-1.6 8-2.3 12 -0.4 2.1-0.3 4.2-0.7 6.3 -0.7 3.2-1.6 6.3-2.4 9.5 -0.3 1.3-0.6 2.6-0.9 3.8 -1.1 3.9-2.3 7.9-3.5 11.8 -0.4 1.6-0.8 3.2-1.2 4.7 -0.6-0.4-0.9-0.9-1-1.4 -0.8-3.4-1.6-6.9-2.4-10.3 -0.5-2.2-1.2-4.3-1.6-6.5 -0.5-2.7-0.9-5.4-1.4-8.1 -0.4-2-0.9-4.1-1.4-6.1 -0.6-2.4-1.1-4.8-1.8-7.2 -0.4-1.6-1.1-3-1.5-4.6 -0.3-1.2-0.2-2.5-0.4-3.7 -0.6-3.7-1.2-7.4-1.9-11.1 -0.1-0.5-0.8-1.3-1.2-1.3 -2.1 0.1-4.1 0.3-6.2 0.7 -0.9 0.2-1.4 0.2-2-0.4 -0.4-0.4-1.4-0.7-1.5-0.5 -1.3 1.3-3 0.7-4.4 1.3 -1.1 0.4-2.4 1.1-2.8 2 -0.5 1.2-0.5 2.7-0.2 4 0.5 2.3 1.4 4.6 2 6.9 0.3 1 0.2 2.1 0.6 3.1 0.8 2.2 2 4.2 2.8 6.4 0.9 2.4 1.4 5 2.1 7.5 0.3 1 0.5 2 0.7 3 0.3 1.3 0.6 2.7 0.9 4 0.3 1.3 0.8 2.5 1.1 3.8 0.4 1.5 0.6 3.1 1 4.6 0.6 2.5 2 4.8 2.5 7.4 0.7 3.2 1.8 6.4 2.8 9.5 0.9 2.9 2 5.7 2.9 8.6 0.7 2.1 1.5 4.2 2 6.3 0.7 3 1.2 6 1.8 9 0.2 1.1 0.6 2.2-0.1 3.4 -0.5 0.8-0.6 1.7-0.8 2.6 -1 3.7-1.9 7.4-2.9 11.1 -0.8 2.7-1.7 5.3-2.5 8 -1.7 5.8-3.3 11.6-5 17.4 -1.2 4-2.6 7.9-3.7 11.9 -0.9 3.1-1.4 6.4-2.3 9.5 -1.2 4.1-2.7 8.2-4 12.3 -0.7 2.1-1.4 4.3-2 6.4 -0.1 0.5 0.1 1 0 1.5 -0.7 2.6-1.5 5.2-2.2 7.9 -0.3 1-0.5 2.2 1.4 1.8 0.2 0 0.5 0.3 0.7 0.4 2.8 1.9 3.6 1.5 5.9-0.7 0.7-0.7 1.2-0.7 2-0.5 1.7 0.4 3.4 0.8 5.1 0.9 2.5 0.1 3.8-1 4.4-3.5 1.3-5.3 2.6-10.6 3.8-16 0.6-2.9 1.1-5.8 1.7-8.6 0.6-2.9 1.4-5.7 2.1-8.6 0.6-2.5 1-5 1.8-7.4 1-3.2 2.2-6.3 3.2-9.5 0.8-2.4 1.5-4.8 2.3-7.5 1.3 1 1.7 2.3 2 3.6 0.3 1.4 0.7 2.8 1.1 4.2 0.9 2.8 1.9 5.5 2.7 8.3 0.8 2.7 1.4 5.5 2 8.2 0.7 3 1.5 5.9 2.1 8.9 0.6 3.2 0.9 6.5 1.4 9.7 0.4 2.6 1.4 4.9 2.3 7.3 1.2 3.2 1.9 6.5 2.9 9.8 0.4 1.6 3 2.6 4.2 1.5 0.7-0.6 1.2-0.3 1.8-0.3 1.2 0 2.4 0.2 3.5-0.1 1.5-0.4 2.8-1.2 4.2-1.8C571.3 207.7 571.7 206.7 571.2 205.3z"/><path d="M916.1 211.6c0-35 0-69.9 0-104.9 0-3.7-0.1-7.4-0.2-11 0-1.7 0-3.4-0.1-5.1 -0.2-5.6-0.4-11.3-0.5-16.9v-6.2c0.1-1.6 0.1-3.1 0.1-4.7 0-0.5-0.1-1.1-0.1-1.6V42.8c0.2-0.7 0.2-1.6 0.1-2.3 0-0.1 0-0.1-0.1-0.1v-1.8c0.2-0.2 0.2-0.4 0-0.8V35c0.7-0.9 0-1.7-0.3-2.5 -0.1-0.5-1.2-0.9-1.9-1 -2.9-0.2-5.9 0.2-8.8-0.8 -0.7-0.3-1.8 0.1-2.7 0.4 -0.2 0.1-0.5 0.7-0.5 1 0 0.4 0.1 0.8 0.1 1.2v3c-0.2 2-0.4 3.9-0.6 5.9 0 0.8 0.3 1.6 0.5 2.6 0 0-0.2 0.1-0.2 0.1 0 1.2 0.1 2.3 0 3.3 -0.2 2.9-0.5 5.9-0.6 8.8 -0.1 1.9 0 3.8 0 5.8 0 2.2 0.1 4.5 0.2 6.7 0.1 2.4 0.3 4.8 0.4 7.1 0.1 2.7 0.3 5.4 0.2 8.1 0 2.2-0.4 4.4-0.5 6.5 -0.1 3.7-0.1 7.3 0 11 0.1 4.2 0.4 8.4 0.3 12.6 0 2.4 0.2 4.9 0.3 7.3v36.8c-0.2-0.8-0.4-1.5-0.6-2.3 -0.3-1-0.7-2-0.9-3 -0.4-2.1-0.6-4.3-1.1-6.4 -0.9-4.1-2-8.3-3-12.4 -0.2-0.7-0.4-1.3-0.5-1.9 -0.6-3.3-1.1-6.5-1.7-9.8 -0.4-2-0.9-4-1.3-6 -0.2-1.3-0.1-2.7-0.6-3.9 -0.5-1.5-0.9-3-0.8-4.6 0.1-0.7 0.1-1.5-0.1-2.2 -0.3-0.9-1.3-4.3-1.5-5.3 -0.4-3.4-0.9-6.8-1.3-10.2 -0.4-3.1-0.9-6.2-1.3-9.3 -0.4-3-0.6-6-1-9 -0.2-1.7-0.6-3.4-0.8-5.2 -0.1-1.2 0.5-2.7 0.1-3.7 -1.1-2.8-0.9-5.7-1.1-8.6 -0.1-2-0.3-4-0.6-5.9 -0.2-1.4-0.5-2.8-0.8-4.2 -0.4-2.2-0.7-4.4-1.1-6.6 -0.2-1.1-0.6-2.1-0.8-3.2 -0.5-2.8-1.7-4.3-4.1-4.5 -2.7-0.3-5.4-0.5-8.2-0.5 -2.8-0.1-5.6-0.1-8.3 0 -0.5 0-1.3 0.1-1.4 0.4 -0.7 1.4-1.3 2.8-0.9 4.4 0.1 0.3 0.2 0.6 0.2 0.9 -0.1 3.6-0.4 7.2-0.2 10.7 0.2 3.1 0.2 6.1 0 9.2 -0.3 4.8-0.2 9.7-0.3 14.6 0 0.7 0.2 1.4 0.1 2 -0.1 2.4-0.4 4.9-0.5 7.3 0 0.9 0.2 1.7 0.2 2.6 0 1.1-0.2 2.1-0.2 3.2 0 3.2 0.2 6.4 0.2 9.6 0 1.7-0.1 3.4-0.2 5.1 -0.1 1.5-0.2 3-0.2 4.4 -0.1 2.2-0.1 4.4-0.1 6.6 0 1.6 0.1 3.1 0.1 4.7 0 1.6-0.1 3.3-0.1 4.9 0 5.8 0.1 11.6 0.1 17.4 0 3.2 0.1 6.5 0.1 9.7 0 1.6 1 3 0.6 4.7 -0.3 1.5 0.2 3.2 0.2 4.8 0 1.9-0.2 3.8-0.2 5.7 0 0.3 0.4 0.6 0.5 0.8 -0.1 1-0.1 1.9-0.3 2.8 -0.3 1.7 0.5 3.3 0.3 5 -0.3 2.7-0.2 5.4-0.3 8.1 -0.1 2.8-0.1 5.6-0.2 8.4 -0.1 1.7-0.3 3.4-0.3 5.2 0 1.7 0.1 3.3 0.2 5 0.1 1.4 0.1 2.8 0.2 4.2 0.2 2.4 0.5 4.7 0.6 7.1 0.1 1 0.4 1.6 1.4 1.5 0.7 0 1.5-0.4 2.2-0.5 0.6-0.1 1.2 0.1 1.8 0.1 0.9 0.1 1.8 0.4 2.6 0.2 1.7-0.3 3.3-0.7 4.9-1.2 0.4-0.1 0.9-0.4 1-0.7 0.2-0.6 0.2-1.3 0.3-2 0.1-1.9 0.1-3.8 0.2-5.7 0.1-2.2 0.3-4.5 0.3-6.7 0-2 0-4-0.1-6 0-1.8-0.1-3.7-0.2-5.5 -0.1-1.6-0.3-3.2-0.3-4.7 -0.1-2.5 0-5 0-7.5 0-2-0.2-4-0.2-5.9 0-2 0.4-4 0.1-6 -0.7-4.5-0.8-8.9-0.7-13.4 0-0.9-0.4-1.9-0.4-2.8 0-1.8 0.4-3.5 0.4-5.3 0-1.7-0.2-3.5-0.2-5.2 0-2.1 0-4.1 0.4-6.1 0.3-1.8-1.3-3.4-0.2-5.2 0 0-0.1-0.2-0.1-0.3 -0.3-0.6-0.6-1.1-0.9-1.7 0.3-0.1 0.5-0.3 1-0.5 -0.6-0.2-1-0.3-1.4-0.4 0.3-0.9 0.6-1.7 0.8-2.2 -0.4-2.1-0.7-4-1.1-6 0.4 0.3 0.6 0.4 0.9 0.5 0.2-1.3-1.1-2.3 0-3.7 0.5-0.7-0.2-2.3-0.4-3.5 -0.1-0.7-0.6-1.3-0.6-1.9 0-1.1 0.4-2.2 0.4-3.2 0-1.1-0.5-2.2 0.1-3.3 0.3-0.6 0.7-1.2 0.8-1.8 0.2-4.9 0.4-9.8 0.5-14.7 0-1.6-0.1-3.2-0.1-4.8 0-2 0-4 0-6 0.2 0 0.3-0.1 0.5-0.1 0.2 0.4 0.5 0.7 0.5 1.1 0.2 1.1 0.3 2.2 0.5 3.3 0.7 3.6 1.5 7.2 2.3 10.8 0.6 2.9 1.1 5.8 1.8 8.7 0.3 1.3 1.4 2.6 1.3 3.8 -0.2 1.8 0.5 3.4 0.8 5.1 0.2 0.8 0.5 1.6 0.6 2.5 0.2 1.5 0.2 3 0.3 4.8 0.5-0.3 0.7-0.4 1.4-0.8 -0.2 0.9-0.3 1.5-0.5 2 -0.1 0.3-0.4 0.6-0.3 0.8 0.2 1.7 0.6 3.4 0.8 5.1 0.4 2.4 0.7 4.7 1 7.1 0.6 4.3 1.4 8.7 1.9 13 0.6 4.6 1 9.3 1.7 13.9 0.6 4.1 1.5 8.2 2.3 12.2 0.5 2.6 0.7 5.3 2 7.7 0.2 0.4 0.3 0.9 0.2 1.3 -0.7 3 0.2 5.9 0.7 8.7 0.6 3.5 0.9 7.1 1 10.6 0 0.9 0.2 1.7 0.4 2.6 0.2 0.9 0.6 1.8 0.8 2.7 0.5 2.3 0.5 4.8 1.4 6.9 1 2.4 1.4 4.8 1.6 7.2 0.2 1.9 2.3 4.3 4.3 4.7 2.8 0.5 5.6 0.4 8.4-0.1h4.5c0.2 0.1 0.3 0.1 0.4 0.1 0.2 0 0.4 0 0.5-0.1h0.6v-0.1c0.2-0.1 0.5-0.1 0.8-0.2C916.1 212.8 916.1 212.2 916.1 211.6z"/><rect x="945.2" y="31.3" width="16.4" height="180.3"/><path d="M496.6 35c0.8-1.1 1-3.4 0.1-4.5 -0.8-1-1.9-1.4-3.3-1.2 -0.5 0.1-1.2 0.2-1.5-0.1 -1.1-1-2.5-0.7-3.8-0.7 -1.3 0-2.7 0.1-4 0.2 -3.3 0.3-6.6 0.6-9.9 0.9 -4 0.3-8 0.7-12 1 -0.2 0-0.5-0.1-0.7-0.1 -2.1-0.1-4.3 0.3-6.4-0.9 -1.5-0.8-2.1-0.1-2.1 1.7v115h-9.6c-1.7-0.1-2.9 1.6-2.5 3.2 0.2 0.9 0.5 1.7 0.7 2.7 -0.2 0.2-0.8 0.4-0.8 0.7 -0.1 1.6-0.5 3.4-0.1 4.8 0.4 1.3 1.9 2.2 3.5 2.3 0.4 0 0.8 0.1 1.3 0.1h7v8.2c0 0.8 0 1.6 0 2.3 0.1 5.6 0.4 11.2 0.3 16.9 0 4.6-0.5 9.2-0.6 13.8 -0.1 2.4 0 4.9 0.2 7.3 0 0.4 0.2 0.8 0.4 1.1v1.8h1.9c0.6 0.3 1.2 0.5 1.8 0.5 2.2 0 4.3-0.1 6.5-0.2 4.2-0.2 8.5-0.4 12.7-0.5 2.6 0 5.2 0.3 7.7 0.2 2.6-0.1 5.2-0.4 7.7-0.5 0.4 0 0.8 0.4 1.3 0.5 0.2 0 0.7-0.2 0.8-0.4 0.9-1.7 0.7-3.4 0.6-5.2 0-1.2 0.1-2.4 0.2-3.6 0.1-0.9 0.4-1.9 0.3-2.8 -0.1-0.9-0.4-2.1-1-2.7 -0.7-0.6-1.8-0.9-2.8-0.9 -4.2-0.2-8.4-0.2-12.6-0.2 -2.9 0-5.8 0-8.7 0v-22.8 -12.2 -0.6h14.3c1.3 0 2.6-0.1 3.9-0.1 0.7 0 1.4-0.1 2.1-0.3 0.4-0.1 0.8-0.3 1.2-0.5h0.5v-0.3c0.1 0 0.1-0.1 0.2-0.1 0.6-0.4 1.3-0.8 1.5-1.4 0.4-1.3 0.4-2.7 0.7-4.1 0.3-1.6-0.5-3.1-2.4-3.4v-3.4h-22.1v-81c0-1.7 0.1-3.3 0-5v-7.7c0.1-1.3 0.3-2.6 0.6-4 0.1-0.7 0-1.5-0.1-2.2 -0.2-0.9 0.4-2.1 1.3-2.2 1.3-0.2 2.5-0.3 3.8-0.3 3.6-0.2 7.1-0.3 10.7-0.5 0.5 0 1.1-0.1 1.6-0.1 2.3 0.1 4.6 0.2 6.9 0.2 1.2 0 2.4-0.7 2.5-2 0.2-1.9-0.1-3.8-0.1-5.7C496.4 35.5 496.5 35.2 496.6 35z"/><path d="M747.2 175.9c-1-1.1 0.5-2.6-0.7-3.6 -0.2-0.2 0.2-1.1 0.3-1.6 0.1-0.4 0.1-0.7 0.1-1.1 -0.1-1.1-0.3-2.2-0.2-3.4 0.1-1.7 0.6-3.4 0.6-5.1 0.1-2.2 0-4.5 0-6.7 0-2.1 0-4.1-0.1-6.2 -0.1-2.2-0.3-4.4-0.5-6.8 -0.9-0.2-0.4-0.9 0-1.6 -0.3-0.2-0.6-0.3-0.9-0.5 1.5-0.4 1.6-0.8 0.7-1.9 0.6-0.9 1.1-1.7-0.3-2.3 -0.1-0.1-0.2-0.7 0-0.9 0.2-0.4 0.6-0.6 0.7-0.7 -0.3-2.1-0.6-4-0.9-5.8 -0.3-2.3-0.7-4.7-2.4-6.4 -1.1-1.2-2.4-2.2-3.7-3.3 -0.9-0.8-1.8-1.6-1.3-3 1.2-0.5 2.8-0.7 3.4-1.5 1.5-2.1 2.9-4.4 3.8-6.9 0.7-1.9 0.8-4 1-6 0.1-1.1 0-2.3 0-3.5 0-0.7 0.2-1.4 0.2-2.1 0-0.9-0.2-1.8-0.3-2.7 0.2-0.2-0.2-0.4-0.2-0.7 0-0.8 0.2-1.6 0.1-2.3 -0.1-1.5-0.3-2.9-0.4-4.4 0-0.4 0.1-0.7 0.1-1.1 0-0.5 0.1-1 0.1-1.5 0.1-1.9-0.9-3.7-0.1-5.7 0.3-0.7 0.2-1.7 0.1-2.5 -0.1-1.4-0.5-2.8-0.5-4.1 0-1.6 0.6-3.3 0.3-4.8 -0.3-1.6-0.1-3.1-0.2-4.7 -0.1-2.2 0.1-4.5-0.3-6.6 -0.3-1.2-0.5-1.9 0.3-2.5 -0.2-0.5-0.3-0.9-0.4-1.2 -0.4-1 0-1.9-0.1-2.8 -0.1-0.9 0-1.9-0.2-2.8 -0.4-1.7-0.7-3.4-1.4-4.9 -0.4-1.1-1.5-1.9-2.2-3 -1-1.5-3.5-1.5-4.2-3.6 -0.1-0.2-0.4-0.2-0.6-0.3 -1.1-0.4-2.2-0.8-3.3-1.2 -2.4-0.8-4.6-0.4-6.6 1.4 -1-2-2.7-2.2-4.6-2.1 -0.8 0-1.7 0-2.5-0.3 -1.3-0.4-1.9 0.3-2.5 1.2 -0.1 0.2-0.3 0.4-0.5 0.6 -0.6-0.9-2.2-1.3-3.4-0.8 -1.3 0.5-2.3-0.1-3.3-0.7 -0.3 0.1-0.9 0.2-1.1 0.5 -0.7 1.1-1.2 0.6-2-0.1 -0.5-0.4-1.2-0.7-1.8-0.7 -4.2 0.2-8.4 0.5-12.6 0.8 -0.6 0-1.5 0.6-1.6 1.1 -0.1 0.6-0.1 1.2 0 1.9v56.7c-0.1 0.6-0.2 1.1-0.5 1.7 0 0 0 0.1 0 0.1 0.1 1.9 0.1 3.8 0.3 5.7 0.3 2.8-0.1 5.7 0.1 8.5v37.4c-0.1 0.2-0.1 0.5-0.1 0.7 -0.2 2.6-0.2 5.3-0.2 8 -0.1 4.6-0.2 9.2-0.1 13.8 0.1 1.4 0.6 2.7 0.1 4.3 -0.6 2.1-0.2 4.5-0.2 6.8 0 3.6 0.1 7.1 0.1 10.7 0 2.4 0.1 4.7 0.1 7.1 0 3-0.1 6 0 8.9 0 1.4 0 2.8 1.2 4 1.7 1.7 3.7 0.9 5.6 0.9 1.6 0 3.2 0.8 4.9 0.1 0.1 0 0.2 0.1 0.3 0.1 0.7 0.1 1.4 0.3 2.1 0.3 0.2 0 0.4 0 0.7-0.1v-38.2c0-0.2 0-0.5 0-0.7 -0.1-0.6-0.2-1.1-0.3-1.7 -0.1-0.8 0.2-1.7 0.2-2.6 0-1.8-0.1-3.5 0-5.3 0-0.5 0.1-1 0.1-1.4v-0.4c0-0.7-0.3-1.4-1.3-1.9 0.6-0.2 1.1-0.4 1.3-0.7v-0.9c-0.1-0.2-0.2-0.3-0.4-0.5 -0.3-0.3-0.2-1.2-0.2-1.8 0.1-0.8 0.4-1.6 0.5-2.4v-1.1c-0.2-1.2-0.8-2.3-1.2-3.4 -0.1-0.2 0-0.5 0.1-0.7 1.3-1.7 1.2-1.6 0.7-3.5 -0.1-0.3 0.2-0.7 0.3-1 0-0.1 0.1-0.2 0.1-0.3v-1.7c-0.1-1-0.2-2-0.3-3.1 0.1 0 0.2 0 0.3-0.1v-10.7h1c0.4-0.6 1.1-1 2-1.1 1.4-0.3 2.9-0.3 4.4-0.4 0.6-0.1 1.3-0.4 1.7-0.1 0.9 0.7 1 0.1 1.2-0.4 2 1 4.1 1.4 6.4 0.7 1.1-0.3 2.1 0 2.9 1 1.2-0.9 2.7-0.6 3.4 1 0.6 1.5 2.3 2.5 2 4.6 -0.1 0.3 0.3 1.1 0 1.7 -0.1 0.2-0.2 0.6-0.1 0.8 0.6 1.2 0.1 2.3 0 3.5 -0.2 2-0.1 4.1-0.1 6.2 0 0.2 0.5 0.4 0.5 0.5 -0.2 0.7-0.5 1.3-0.5 1.9 -0.1 0.6 0.2 1.1 0.2 1.7 0.1 1.1 0 2.3 0.1 3.4 0.1 1.1 0.2 2.2 0.3 3.3 0 0.6-0.4 1.2-0.3 1.8 0.3 1.4 0 2.7-0.6 4 -0.3 0.6-0.3 1.2 0.2 1.8 0.2 0.3 0.4 0.6 0.6 1 -0.5 0.1-0.9 0.2-1.4 0.3 0.2 0.8 0.8 1.6 0.6 2.1 -0.7 1.1-0.4 2-0.1 3.2 0.3 1.5 0.1 3.1-0.1 4.6 -0.1 2.2 0.3 4.3 0.4 6.4 0.1 2.1 0.4 4.1 0.9 6.2 0.1 0.4-0.4 0.9-0.4 1.3 0 2 0.1 4.1 0.1 6.1 0 0.2-0.4 0.3-0.7 0.5 0.2 0.5 0 0.9 0 1.3 -0.1 0.4-0.2 1.1 0 1.2 0.9 0.7 0.4 1.2 0.2 2 -0.4 1-0.7 2.2 0.5 3.1 0.2 0.2 0.3 0.5 0.4 0.8 -0.3 0.1-0.7 0.1-1 0.2 0.1 1.3 0.2 2.6 0.3 3.8 0.1 1.4-0.5 2.9 0.8 4 0.9 0.7 2 1.2 3 1.8 0.1 0 0.3-0.3 0.5-0.4 0.9-0.7 1.9-1.3 3.1-1.1 0.9 0.2 1.6-0.3 2.4-0.6 1.2-0.5 2.6-0.9 4-0.2 0.5 0.3 1.3 0.3 1.9 0.1 0.3-0.1 0.7-1 0.5-1.2 -1.3-1.8-0.1-4-1.1-5.9 -0.6-1.1 0.4-3 0.6-4.5 0.1-0.8 0.1-1.5 0.3-2.3 0.2-0.9-0.5-1.8 0.4-2.6 0.2-0.2-0.1-1.1-0.2-1.7 -0.1-0.4-0.2-0.8-0.2-1.2 0.1-0.8 0.7-1.7 0.4-2.2 -0.9-1.5-0.3-3.1-0.4-4.5 -0.1-1.9-0.5-3.9 0.3-5.8C747.3 177 747.5 176.2 747.2 175.9zM730.4 72c-0.2 1.7-0.3 3.4-0.1 5.1 0.4 2.6 0.5 5.1 0.4 7.7 -0.2 3.7-0.4 7.5-0.6 11.2 -0.1 1.4 0 2.8 0.1 4.2 0.1 1.2 0.5 2.5 0.2 3.6 -0.2 0.9-1.1 2-1.9 2.3 -2.8 1.1-5.5 2.4-8.8 2.1 -4-0.3-8.1 0.1-12.2 0.1 -0.3 0-0.8-0.5-0.9-0.9 -0.1-0.7 0-1.4 0-2 0.1 0 0.2 0 0.4 0 0-3.8 0-7.6 0-11.5 0-1.8 0.4-3.5 0.4-5.3 0.2-4.9 0.2-9.8 0.4-14.7 0.2-4.4 0.6-8.8 0.7-13.1 0.1-2.6-0.3-5.1-0.4-7.7 0-1.7 0-3.4 0.2-5.1 0-0.4 0.7-0.9 1.1-1 2.7-0.4 5.5-0.6 8.2-0.9 1.8-0.2 3.6-0.4 5.4-0.3 3.6 0.1 6.6 3.1 6.9 6.7 0.1 1.1 0.2 2.1 0.4 3.2 0.2 1.2 0.2 2.3-0.6 3.5 -0.8 1.2 0.2 2.3 0.7 3.5 0.4 1 0.9 2.2 0.9 3.2C731.2 67.8 730.6 69.9 730.4 72z"/><path d="M982.9 171.2c1.1-1.1 1.4-2.1 0.3-3 -0.2-0.2-1.1-0.1-1.3 0.2C980.9 169.5 981.6 170.3 982.9 171.2z"/><path d="M981.2 228c1.4-1 4.2-0.2 3.9-3.5 -1.6-0.4-2.9-0.8-4.3-1 -1.3-0.2-2.7 0.1-3.2 1.5 -0.3 0.7-0.2 1.8 0.2 2.4C978.7 228.6 980 228.8 981.2 228z"/><path d="M973.4 150.7c0.5 0.4 1.1 0.8 1.8 1.4 0.5-0.7 0.9-1.2 1.3-1.8 -0.6-0.4-1.2-1-1.7-1C974.3 149.4 973.9 150.2 973.4 150.7z"/><path d="M973.9 122.2c1 0.3 2.2 0.6 3.1 0.2 0.4-0.2 0.3-1.8 0.4-3 -1.5 0-2.4-0.2-3.2 0.1 -0.6 0.1-1.1 0.8-1.6 1.2C973 121.2 973.4 122 973.9 122.2z"/><path d="M979.5 270c-2.7-1.9-4.9-1-7.1 1.5h9.7c-0.7-0.8-1.3-1.6-1.8-2.5C980 269.3 979.5 270 979.5 270z"/><path d="M991.3 252.3c0.4 0.1 1.2-0.4 1.2-0.6 0.2-1.6-0.7-2.2-2.4-2.2C989.4 251.3 989.9 252.1 991.3 252.3z"/><path d="M985.4 180.8c-1.1 0.4-1.9 0.7-2.7 0.9C984.2 183.3 985.1 183.3 985.4 180.8z"/><path d="M986.3 176.5c0 0.3 1.1 1 1.3 0.8 1.2-0.6 1.4-1.6 0.6-2.7C986.7 174.3 986.2 175.2 986.3 176.5z"/><path d="M992.6 222.2c1.5 0 2.8-1 2.8-3 -0.4-0.3-1.1-1.1-1.9-1.3 -1.4-0.4-2.9 0.9-2.9 2.2C990.6 221.3 991.1 222.2 992.6 222.2z"/><path d="M986.1 106.9c0.1-0.5 0.4-1 0.4-1.4 -0.1-0.4-0.5-0.7-0.9-1 -0.1-0.1-0.7 0.4-0.7 0.6 0 0.4 0.2 0.8 0.3 1.2C985.4 106.5 985.7 106.7 986.1 106.9z"/><path d="M986.5 142.5c0.1-0.5-0.4-1.2-0.6-1.8 -0.3-0.2-0.6-0.4-0.9-0.5 -0.3 0.6-0.9 1.3-0.9 1.9 0 0.6 0.6 1.1 0.9 1.7C985.6 143.4 986.4 143 986.5 142.5z"/><path d="M969 227.9c0.5-1.3 2.4-1.9 1.1-3.4 -0.3-0.3-1.3-0.3-1.7 0C967.1 225.5 967.4 226.6 969 227.9z"/><path d="M955.9 263.2c-0.1-0.6-1.3-1.4-1.8-1.3 -1.7 0.4-1.3 1.7-0.9 3.3C954.8 264.9 956.4 265.1 955.9 263.2z"/><path d="M980.3 268.9c0 0 0.1-0.1 0.1-0.1C980.4 268.8 980.3 268.9 980.3 268.9 980.3 268.9 980.3 268.9 980.3 268.9z"/><path d="M961.2 264.1c1.5-1.1 1.1-2.6-0.8-3.9 -0.8 0.7-1.7 1.4-2.6 2.2C958.7 264 959.7 265.1 961.2 264.1z"/><path d="M951.6 106.5c-0.2-0.4-0.3-0.9-0.5-1.3 -0.6 0.3-1.3 0.6-1.9 0.9 0.2 0.3 0.3 0.7 0.5 1C950.3 106.9 951 106.7 951.6 106.5z"/><path d="M944.3 253.8c0.9 0.5 1.9 1.1 2.8 1.5 0.1 0 0.5-0.9 1-1.7 -1.4-0.2-2.4-0.4-3.5-0.6C944.6 253.3 944.4 253.5 944.3 253.8z"/><path d="M958 252c0-0.5-0.8-1.3-1.2-1.3 -0.6 0-1.1 0.7-1.7 1.1 0.4 0.5 0.8 1.1 2 2.7C957.5 253.3 958.1 252.6 958 252z"/><path d="M980.4 268.8C980.4 268.8 980.4 268.8 980.4 268.8 980.4 268.8 980.5 268.8 980.4 268.8 980.4 268.8 980.4 268.8 980.4 268.8c-0.1 0-0.1 0.1-0.1 0.1C980.3 268.9 980.4 268.8 980.4 268.8z"/><path d="M972.4 259.7c1.3 0.7 2.6 1.2 3.2 2.8 0.6 1.4 1.8 2.6 2.3 4.1 0.5 1.4 1.2 2.1 2.5 2.3 0.7-1 1.5-1.9 2.4-3.1 -0.9-0.5-1.6-1-2.3-1.4 -0.4-0.3-1.1-0.5-1.1-0.8 -0.1-3.6-3.7-4.1-5.3-6.3 -0.3-0.5-1.9-0.7-2.2-0.3C970.8 257.8 971.3 259 972.4 259.7z"/><path d="M969.7 263.1c0.1-0.3 0.2-0.6 0.3-0.9 -0.6-0.3-1.3-0.7-2-0.9 -0.1 0-0.7 0.8-0.6 1.1C967.9 263.8 968.9 263.4 969.7 263.1z"/><path d="M971.7 271.5c-0.3-1.2-0.5-2-0.6-2.8 -0.1-1.3-1.1-1.6-1.8-1.1 -1.7 1.2-3.5 2.4-4.9 3.9H971.7z"/><path d="M992.9 207.7c-0.1-0.2-0.5-0.4-0.8-0.7 -0.2 0.4-0.6 0.9-0.5 1 0.3 0.3 0.7 0.4 1 0.7C992.7 208.3 992.9 207.9 992.9 207.7z"/><path d="M1091.5 237.3c-1.6-0.2-2.8 0.1-3.3 1.8C1091.4 240 1091.5 240 1091.5 237.3z"/><path d="M1003.6 253.9c0-2.1 0-4.2 0-6.5 -0.5-0.3-1.2-0.9-2-1.2 -1.5-0.6-2.3 0.5-3.1 1.5 -0.8 0.9-0.9 1.9 0 2.7C999.8 251.6 1000.2 254.1 1003.6 253.9z"/><path d="M1063.4 217.8c1.4-0.7 1.1-2-0.1-3.8 -1.1 0.7-2.1 1.3-3.2 2.1C1061.1 217.6 1062.1 218.4 1063.4 217.8z"/><path d="M1071.6 103.9c-0.4-0.2-0.7-0.5-1.1-0.5 -0.2 0-0.4 0.4-0.9 0.9 0.7 0.2 1.1 0.4 1.5 0.3C1071.2 104.7 1071.4 104.2 1071.6 103.9z"/><path d="M1063.1 270.1c1.7-0.9 3.4-1.8 5.2-2.8 -2.4-2.8-4.4-1.1-7-0.6C1062.1 268.3 1062.6 269.2 1063.1 270.1z"/><path d="M1050.8 207.8c-0.4 1.7 1.1 2.3 3.2 2.5 0.1-1.2 0.1-2.2 0.2-3.3C1052.7 206.7 1051.1 206.2 1050.8 207.8z"/><path d="M1063.2 247.7c0.3-0.5 0-2-0.5-2.2 -2.1-1-2.7 0.9-4 2.4C1060.6 248.9 1062.1 249.6 1063.2 247.7z"/><path d="M946 131.6c0.6-0.2 1.2-0.8 1.4-1.3 0.1-0.3-0.6-0.9-1.2-1.7 -0.6 0.8-1.1 1.3-1.3 1.9C944.9 130.8 945.8 131.6 946 131.6z"/><path d="M1083 191.6c-0.3 0.3-0.6 0.6-0.9 1 0.8 0.5 1.7 1.1 3.1 2C1085.1 192.1 1084.1 191.7 1083 191.6z"/><path d="M1052.9 63c-1.5 0.4-1.5 0.4-2.3 1.9C1052.2 64.6 1052.2 64.6 1052.9 63z"/><path d="M1077.7 157.5c0.2 0.1 1.1-0.8 1.1-1 -0.2-0.6-0.6-1.2-1.2-1.5 -0.2-0.1-0.8 0.5-1.6 1C1076.7 156.6 1077.1 157.2 1077.7 157.5z"/><path d="M1073.1 258c0.5-0.3 0.8-1 1.2-1.6 -0.5-0.3-1-0.8-1.5-0.7 -0.4 0.1-0.7 0.8-1.3 1.5C1072.2 257.6 1072.9 258.1 1073.1 258z"/><path d="M1079.9 231.2c1.3 0 2.2-0.6 2.4-1.9 0.2-1.3-1.5-3.4-3.4-3.5 -0.4 0.6-1.2 1.4-1.4 2.3C1077.2 229.9 1078.4 231.2 1079.9 231.2z"/><path d="M1060.9 225.4c0 0.1 1 0.7 1.1 0.6 0.4-0.4 0.8-1 1-1.6 0.1-0.4-0.2-1-0.3-1.5 -0.3 0.2-0.7 0.4-1 0.6C1061.3 224.2 1061 224.7 1060.9 225.4z"/><path d="M1000.7 240.6c0 1.8 1.9 4.3 3.4 4.4 3.1 0.2 6.5-2.4 6.5-5.1 0-2.3-1.9-4-4.7-4C1004.1 235.9 1000.7 238.8 1000.7 240.6z"/><path d="M1010.9 219.5c0.2-0.1 1.1-0.2 1.9-0.6 1.6-1 2.6-3.3 2.1-4.5 -0.7-1.6-2.7-2.2-5-1.3 -1.2 0.5-2.7 0.9-3.4 1.9C1005 217.5 1006.6 219.4 1010.9 219.5z"/><path d="M1025.3 223.8c2 1.3 6.7 0.3 7.8-1.8 0.5-0.8 0.6-2.4 0.1-3.1 -0.6-0.8-2.3-1.7-3.1-1.4 -2.4 0.9-4.4 0.2-6.3-1.3 -0.2 0.2-0.4 0.4-0.5 0.6 0.4 2 0.7 4 1.1 5.9C1024.5 223.1 1024.9 223.6 1025.3 223.8z"/><path d="M1046.6 176.1c-2.2-0.1-2.2-0.1-2 3.7C1045.5 178.1 1046 177.2 1046.6 176.1z"/><path d="M1000.7 136.1c1.3 0.2 1.8-0.8 1.5-1.9 -0.2-0.7-0.8-1.3-1.6-2.6 -0.8 1.6-1.5 2.4-1.6 3.3C999 135.2 1000.1 136 1000.7 136.1z"/><path d="M1004.6 216.6c-0.1-0.2-0.4-0.4-0.7-0.5 -0.1 0-0.4 0.3-0.4 0.5 0.1 0.3 0.3 0.5 0.6 1C1004.4 217.1 1004.7 216.8 1004.6 216.6z"/><path d="M1018.3 227.2c-2.8-1.2-2.8-1.2-4.5 2.2C1017.5 230.4 1017.5 230.4 1018.3 227.2z"/><path d="M1038.9 176.3c0.5 0.1 1.7-1 1.9-1.7 0.4-1.4-0.6-2.1-3.3-2.2C1037.5 174.1 1036.7 175.8 1038.9 176.3z"/><path d="M1046.1 191.6c-0.6-0.3-1.4-0.2-2.1-0.2 -0.1 0.3-0.1 0.7-0.2 1 0.7 0.4 1.5 0.8 2.7 1.5C1046.4 192.8 1046.5 191.8 1046.1 191.6z"/><path d="M1035.8 129.4c-1.4-2.5-3.3-1.4-5.8-1.2 0.9 1.5 1.4 2.4 2 3.6C1033.5 130.9 1034.6 130.2 1035.8 129.4z"/><path d="M1036.2 246.5c2 0.1 3.5-1.1 3.2-2.5 -0.1-0.7-0.9-1.5-1.6-1.8 -1-0.4-2.7 1.2-2.6 2.6C1035.3 245.5 1036 246.2 1036.2 246.5z"/><path d="M1031 177.9c0.7-1.6-0.7-2.4-1.7-3.3 -2.2 0.9-2.1 2.5-1.9 4.3C1029 179.5 1030.4 179.4 1031 177.9z"/><path d="M899 263.6c1.1 1.9 1.1 1.9 3.8 1.6C902.1 262.2 900.1 264.3 899 263.6z"/><path d="M859.7 177c-2.1-1.4-2.1-1.4-3.6 0.5 0.1 0.3 0.2 0.5 0.3 0.8C857.4 178 858.4 177.6 859.7 177z"/><path d="M858.3 229.8c-0.6 0.2-1.3 0.5-1.9 0.7 0.2 0.3 0.4 0.5 0.5 0.8 0.6-0.3 1.1-0.7 1.7-1C858.5 230.2 858.4 230 858.3 229.8z"/><path d="M866.5 238.4c0.4-1.1-0.3-2.7-0.6-4.1 -1.3 0.2-2.1 0.3-3.1 0.4 0 1.8 0 3.5 0 5.2C864.8 240.9 866.1 239.7 866.5 238.4z"/><path d="M855.4 237c0 2.2 1 3.5 2.5 3.8 0.8 0.2 2.1-0.6 2.9-1.3 1.2-1.2 0.6-2.7-1.1-2.9C858.3 236.5 856.9 236.8 855.4 237z"/><path d="M849.1 261.5c1-0.8 1.7-2 2.9-3.4 -2.9-0.6-3.8 1.2-5.7 2.7C847.6 261.2 848.7 261.8 849.1 261.5z"/><path d="M855.1 211.7c1.2-1.8 3-3.4 1.8-6.5 -1.5 0.6-2.8 1.1-4 1.7C852.5 210.2 852.5 210.3 855.1 211.7z"/><path d="M876.3 217.3c1.4 0.8 3.2-0.1 4-1.9 0.6-1.4 0.7-3.1 1.1-4.9 -1.9 0.2-3 0.3-4.1 0.5 -1.6 0.3-3.3 2.1-2.9 3.4C874.6 215.5 875.4 216.8 876.3 217.3z"/><path d="M878.1 204.8c-1.6-0.4-2.5 0-2.9 1.8C876.8 207 877.6 206.4 878.1 204.8z"/><path d="M878.9 238.7c0.4 1.6 0.8 3.3 1.2 5.1 2.3-1.5 2.1-3.4 1.6-5C881.4 237.5 880.2 237.7 878.9 238.7z"/><path d="M870 245.6c1.3 0.4 2.5-0.4 2.7-1.8 0.4-1.8-0.5-2.5-3.5-2.7C868.2 244.4 868.4 245.2 870 245.6z"/><path d="M867.7 180.6c-2.6-1.1-2.6 0.7-3.9 1.8C866.2 183.1 866.8 182 867.7 180.6z"/><path d="M866.1 243.5c-5.3 0.9-4.4 5.2-5.4 8.7 2.7 0.5 3.1 2.1 3 4.5 -0.2 3.6 1.4 4.4 4.8 3.3 2.5-0.8 5.3-1 7.9-1.6 1.3-0.3 2.5-1.1 3.7-1.7 0.5-0.3 1.1-0.9 1.5-0.8 4 0.6 5.6-2.8 8.4-4.8 -3.9-0.1-4-4.2-6.8-5.6 -1.8 1.4-3.9 2-6.4 1.9 -1 0-2.4 0.8-3.2 1.6 -2.1 2.1-5 1.7-6.1-1.1C866.9 246.4 866.5 245 866.1 243.5z"/><path d="M846 254.3c-0.1-0.4-0.6-0.6-0.9-1 -0.3 0.4-0.6 0.9-1 1.3 0.4 0.3 0.7 0.5 1.4 1C845.7 255.1 846.1 254.6 846 254.3z"/><path d="M838.3 192.8c-1.8 1.1-2.7 2-2.1 3.9C838.2 196 838.2 194.7 838.3 192.8z"/><path d="M837.3 186.4c0.8 0.8 1.3 1.1 1.7 1.6C839.8 186 839.8 186 837.3 186.4z"/><path d="M832.9 264c0 0.6 1 1.2 1.9 2.2 0.6-1.2 1.3-2 1.1-2.6 -0.1-0.6-1.1-1-1.7-1.5C833.8 262.7 832.9 263.3 832.9 264z"/><path d="M829.8 212.1c0 0.3-0.7 0.6-1.1 0.7 -1.2 0.2-1.2 1-0.7 1.6 0.4 0.4 1.6 0.7 2 0.4 1.6-1.3 3.1-2.9 4.6-4.4 -0.1-0.2-0.2-0.5-0.3-0.7C832.5 210.1 830.1 208.9 829.8 212.1z"/><path d="M836.7 227.2c0.1 1.7 1.3 2 3.1 1.3 -0.1-1.4 0.6-3-1.5-2.9C837.7 225.7 836.7 226.7 836.7 227.2z"/><path d="M829.6 206.2c0.8-1.4 1.5-2.2 1.7-3 0.3-1.6-0.5-2.5-1.9-2.5 -1.4 0-2.3 0.8-2.1 2C827.5 203.8 828.5 204.6 829.6 206.2z"/><path d="M844.8 209.4c-0.7-0.1-1.5-0.1-2.2-0.2 0 0.3 0 0.6 0 1 0.7 0 1.5 0 2.2 0C844.7 209.9 844.7 209.6 844.8 209.4z"/><path d="M849.9 194c-0.5-0.3-0.9-0.9-1.4-0.9 -0.4 0-0.8 0.6-1.6 1.3 0.9 0.4 1.4 0.9 1.9 0.8C849.2 195 849.5 194.4 849.9 194z"/><path d="M848.4 236.1c0.2-0.5-0.7-1.4-0.9-1.8 -2.1-0.2-2.4 0.8-2.4 1.8 0 0.5 0.9 1.5 1.1 1.5C847 237.3 848.1 236.8 848.4 236.1z"/><path d="M845 269.5c0.7-1.3 1.3-2.5 2.3-4.3 -2.3-0.4-3.8-0.7-5.3-1C841.5 266.8 842.2 268.5 845 269.5z"/><path d="M844.9 226.7c-0.4 0.6-0.9 1.1-1.1 1.7 -0.1 0.4 0.3 0.9 0.7 2 0.9-1.7 1.3-2.3 1.4-2.9C846 227.3 845.3 227 844.9 226.7z"/><path d="M846.9 198c-1.5 0.7-2.7 1.2-4.2 1.9C844.8 202.2 845.4 202 846.9 198z"/><path d="M931.6 256.9c0 0.4 0.7 1.1 1.1 1.1 1.7 0.1 1.9-1.2 1.9-2.7C932.8 255 931.6 255.2 931.6 256.9z"/><path d="M930.1 129c-2.1 0.5-3.6 0.8-5 1.2C925.8 132.3 925.8 132.3 930.1 129z"/><path d="M925.6 198.4c0.7-1 1.4-1.5 1.5-2.2 0-0.5-0.7-1.4-1.2-1.5 -1.1-0.2-2 0.5-1.8 1.7C924.2 197 924.8 197.5 925.6 198.4z"/><path d="M910.5 157.2c1.4 0.3 2.8 0.7 3.4-1.5C911.3 154.7 911.3 154.7 910.5 157.2z"/><path d="M933 156.4c-3-0.1-3-0.1-2.1 2.7C931.6 158.1 932.2 157.4 933 156.4z"/><path d="M920.6 181c-3-1.4-3.5 1.7-5.6 3.4 1.8 0.4 2.9 0.7 4.2 1C920.3 184 921.7 183 920.6 181z"/><path d="M919.3 207.1c0.1 1.1 0.2 2.2 0.3 3.8 0.9-0.5 1.5-0.9 2.3-1.4 -0.7-1-1.2-1.8-1.8-2.6C919.8 207 919.6 207 919.3 207.1z"/><path d="M942.4 153.7c2.2-0.2 1.8-1.9 1.8-3.7 -2.1-0.1-3.8-0.1-3.8 2C940.3 152.6 941.7 153.8 942.4 153.7z"/><path d="M939.5 207c-0.2-0.6-0.4-1.3-0.7-1.9 0-0.1-0.4 0.1-0.7 0.1 0.1 0.7 0.2 1.4 0.3 2C938.8 207.2 939.2 207.1 939.5 207z"/><path d="M942.4 198.2c1.5 0.1 3.3-2 3.2-3.6 -0.1-1.8-1.5-1.7-2.8-1.8 -2.1 0-2.9 0.9-2.8 3C940.1 197.5 941 198.1 942.4 198.2z"/><path d="M937.1 261.8c0.4 0 0.7-0.5 1.1-0.7 -0.4-0.4-0.7-0.9-1.2-1 -0.3-0.1-0.7 0.5-1.4 1C936.3 261.4 936.7 261.8 937.1 261.8z"/><path d="M936.2 199.7c-0.5-0.5-1-1-1.5-1.5 -0.3 0.2-0.5 0.4-0.8 0.5 0.3 0.6 0.6 1.3 0.9 1.9C935.3 200.4 935.8 200.1 936.2 199.7z"/><path d="M936.9 156.2c0-0.3-0.7-0.8-1.1-1.2 -0.6 0.6-1.3 1.1-1.6 1.7 -0.1 0.3 0.8 1 1.5 1.9C936.3 157.6 936.8 156.9 936.9 156.2z"/><path d="M903.2 153.8c-0.3 0-0.6 0-0.9 0 0 1.1 0 2.2 0 3.8C903.8 156.1 903.4 154.9 903.2 153.8z"/><path d="M899 145.5c-1.3 0-2.1 0-3 0C897.1 147.7 897.1 147.7 899 145.5z"/><path d="M897.7 189.1c-1-0.6-1.9-1.4-2.8-1.5 -1.8-0.2-3.6 0.1-5.7 0.2 0 1.4 0 2.9 0 5.2C892 191 895.9 193.7 897.7 189.1z"/><path d="M909.3 199.6c-0.8 4.1 0.3 5.6 3.9 5.3C914.6 201.1 910.6 201.6 909.3 199.6z"/><path d="M891.7 247.6c0.7-0.1 1.2-0.9 1.8-1.5 -0.7-0.4-1.3-1.1-2-1.2 -1.1-0.1-2.3 0.2-2.5 2.1C890.1 247.3 891 247.8 891.7 247.6z"/><path d="M902.2 245.1c-2.9-1.2-3.1-1.2-3.9 1.6C900.5 247.2 900.5 247.2 902.2 245.1z"/><path d="M883.4 137.6c-3.1 0.8-3.1 0.8-1.1 3.6C882.6 140 882.9 139 883.4 137.6z"/><path d="M912.7 116.4c-0.2-0.3-0.3-0.6-0.5-0.9 -1.1 0.2-2.1 0.5-3.2 0.7 0 0.3-0.1 0.6-0.1 1 0.5 0.4 1.3 1.4 1.6 1.2C911.3 117.9 912 117.1 912.7 116.4z"/><path d="M914.5 214c0.1-2.8 0.1-2.8-5.2-4 -2.1 1.5-1.9 3.2-0.6 5C910.7 214.6 912.6 214.3 914.5 214z"/><path d="M907.6 136.4c-2.1-0.2-2.8 1.1-3.6 2.5C905.9 140 905.9 140 907.6 136.4z"/><path d="M1095.6 218.5c0.7-1.7-0.7-2.7-2.2-3.3 -2.1 1.6-2.1 1.6-2.1 4.2C1093 219.3 1094.8 220.4 1095.6 218.5z"/><path d="M879.7 193.9c2-0.1 3-1.6 3.1-3.6 -3.7-1-3.7-1-6 0.5C877.3 192.2 877.6 194 879.7 193.9z"/><path d="M1101.1 205c0.5-0.2 0.7-1.3 1-2 -0.7-0.2-1.6-0.7-2.2-0.5 -1.3 0.5-2.5 1.3-4 2.1C1097.7 206.3 1099.4 205.7 1101.1 205z"/><path d="M745.9 260.5c-0.3 0.1-0.3 1.2-0.4 1.9 0.8 0 1.9 0.3 2.3-0.1 1.1-1 2-2.4 3.2-3.9 -0.9-1-1.9-2.1-3.5-3.9 -0.2 1.6-0.4 2.4-0.4 3.2C747.2 258.8 747.3 259.9 745.9 260.5z"/><path d="M814.5 260.3c-6-1.2-6-1.2-11.1 0.4 -0.8-1.4-1.5-2.7-2.5-4.5 -1.4 0.4-3 0.6-4.5 1.2 -0.5 0.2-1.1 1.2-1 1.8 0 0.6 1 1.6 1.3 1.5 2.5-0.9 4.3 0.7 6.2 1.8 2.3 1.2 3.8 0.5 5.1-1.6C810.2 262.8 812.3 261.6 814.5 260.3z"/><path d="M757.6 262.2c-0.4 0.3-0.6 1.3-0.4 1.7 0.3 0.5 1.1 1 1.8 1 1.4 0.2 2.9 0 4.3 0 0.1-0.3 0.2-0.5 0.3-0.8 -1.3-0.9-2.6-1.8-3.9-2.5C759.2 261.4 758.1 261.8 757.6 262.2z"/><path d="M823.1 252.5c-0.3 0.6 0.3 1.7 0.8 3.5 1.1-1.7 1.7-2.5 2.3-3.4 -0.2-0.3-0.5-0.7-0.7-1C824.6 251.9 823.4 252 823.1 252.5z"/><path d="M781.5 256.1c-0.1-0.3-0.1-0.6-0.2-1 -0.8 0.2-1.6 0.4-2.9 0.7C779.8 257.4 780.7 257.2 781.5 256.1z"/><path d="M788.2 269.7c-1-1.1-2-2.7-4.5-1.7 0.4 1.3 0.7 2.3 1.1 3.4h3.9C788.9 271 788.7 270.4 788.2 269.7z"/><path d="M780.6 239.6c-0.4 0.4-1 1.1-0.9 1.5 1 3.9 0.5 8.4 5.1 11 -0.4 0.6-0.9 1.2-1.2 1.8 -0.8 1.8-0.4 2.8 1.6 3.3 1.2 0.3 2 0.5 2.4 1.9 0.2 0.7 1.7 1 2.7 1.4 0.2-0.3 0.4-0.5 0.7-0.8 -0.4-1.3-0.8-2.6-1.3-3.8 -1.4-3-1.5-2.9 1.3-4.6 0.3-2.7 0.5-5.3 0.8-8 -1.6-0.9-2.5 0.5-3.8 1.3 0-1.7 0-3.2 0-4.9C785.5 238.4 783.1 237.5 780.6 239.6z"/><path d="M731.6 262.3c-1 0.8-2 1.4-3.1 2.2 -1-1.6-1.4-4.1-4.1-3.2 -2.1 0.8-2 2.6-1.5 4.3 2.3-0.1 4.7-0.2 7-0.2C732.2 265.5 732.5 265.1 731.6 262.3z"/><path d="M727.1 256.7c-0.4-0.3-0.8-0.9-1-0.8 -0.6 0.3-1.1 0.8-1.8 1.4 0.7 0.4 1.2 0.9 1.4 0.8C726.2 257.8 726.6 257.2 727.1 256.7z"/><path d="M713.8 266.1c0.3 0.2 1.2 0.3 1.4 0.1 0.8-1 2.3-1.8 1.2-3.6 -1.5 0.1-2.7 0.6-3 2.2C713.3 265.2 713.5 265.9 713.8 266.1z"/><path d="M724.3 268.4c-0.6-0.8-1-1.7-1.4-2.5 -0.9-0.4-1.9-0.8-2.8-1.2 -0.7 2-1.2 3.5-1.8 5.6 0.5 0.4 1.1 0.8 1.6 1.2h6.9C725.9 270.4 725.1 269.5 724.3 268.4z"/><path d="M722.9 265.9c0 0 0-0.1 0-0.1 0 0 0 0-0.1 0C722.9 265.8 722.9 265.8 722.9 265.9 722.9 265.9 722.9 265.9 722.9 265.9L722.9 265.9z"/><path d="M711.4 258c0.2 0.7 0.9 1.2 1.4 1.8 0.4-0.5 1.2-0.9 1.2-1.5 0-0.5-0.6-1.1-1.1-2C712.3 257.1 711.3 257.7 711.4 258z"/><path d="M849.7 265.5c0 0 0.1 0.1 0.1 0.1 0 0 0.1-0.1 0.1-0.1C849.8 265.5 849.8 265.5 849.7 265.5z"/><path d="M830.5 267.3c-0.1 0-1 0.7-0.9 0.8 0.2 0.6 0.6 1.1 1.2 1.9 0.5-0.6 1.1-1.1 1.1-1.3C831.5 268.2 831 267.7 830.5 267.3z"/><path d="M849.8 265.6C849.8 265.6 849.9 265.6 849.8 265.6 849.9 265.6 849.9 265.6 849.8 265.6L849.8 265.6z"/><path d="M849.7 265.5c-0.5-0.7-1-1.4-1.9-2.6C847.4 265.5 848.7 265.3 849.7 265.5z"/><path d="M807.1 266.2c-1.9 0.1-3.1 0.2-4.4 0.3C804.4 269.2 804.5 269.2 807.1 266.2z"/><path d="M854.8 262c0.2-1.4 0.4-2.5 0.6-3.9 1 0.6 1.8 1.1 2.7 1.7 1.3-3.7 1-3.9-3.2-3.6 -0.9 1.6-1.8 3.2-2.9 5.1C852.9 261.6 853.7 261.8 854.8 262z"/><path d="M869.4 271.3c3-1.9 6-3.8 8.6-5.5 2 0.8 3.5 1.6 5.2 2 1.8 0.4 3.1-0.7 3.1-2.4 0-1.9-0.2-3.8-0.5-5.7 -0.1-0.5-0.6-1.4-1-1.4 -0.6-0.1-1.5 0.2-2 0.7 -0.7 0.8-1.2 1.9-1.9 3.1 -2.6-0.9-4.7-0.4-6.7 1.9 -0.8 1-3.1 0.7-4.6 1 -2.3-2-3.8-4.8-7.3-4.2 -2.8 0.5-5.3 1.4-6.5 4.8 -1.9 0-3.8 0-5.8 0 -0.2 1-0.9 2.3-0.5 3 0.5 1 1.1 1.9 1.8 2.8h18.3C869.4 271.4 869.4 271.4 869.4 271.3z"/><path d="M794 239.9c0.2 0.2 1.1 0.3 1.3 0.1 1.1-1 0.5-1.9-0.3-2.9C793.5 237.9 793.2 238.8 794 239.9z"/><path d="M796.7 268.3c1.9 0.4 2.4 0 3.6-3.4 -1.7-0.3-3.3-0.6-5.2-1C794.4 266.4 794.5 267.8 796.7 268.3z"/><path d="M820.1 271.5C820.1 271.4 820.1 271.4 820.1 271.5 820.1 271.4 820.1 271.4 820.1 271.5h7.2c0.5-0.9 0.8-1.8-0.2-3 -0.3-0.4 0.5-1.8 0.7-2.7 0.2-0.7 0.7-1.8 0.5-2 -2.9-2.1-4.7-5.9-8.8-6.4 -0.1 0-0.2 0.1-0.3 0.1 -0.4 1.7-0.8 3.4-1.3 5.7 0.3 0.4 1.1 1.3 2.3 2.6 -2.9 0-5.5-1.6-8.1 0.8 0.3 1.1 0.7 2.4 1 3.4 -0.4 0.5-0.8 1-1.2 1.5H820.1z"/><path d="M827.8 256.8c-1.1 0.4-1.8 0.7-3.3 1.2C826.7 259 827.3 258.6 827.8 256.8z"/><path d="M819.7 243.2c0.4-0.2 0.6-0.8 0.9-1.2 -0.4-0.2-0.8-0.6-1.1-0.5 -0.3 0-0.7 0.5-1.1 0.9C819 242.8 819.5 243.3 819.7 243.2z"/><path d="M854.5 233.6c-0.1 0-0.6 0.4-0.7 0.7 0 0.2 0.3 0.5 0.6 0.9 0.4-0.3 0.7-0.5 1-0.7C855.1 234.1 854.8 233.8 854.5 233.6z"/><path d="M466 233.8c-0.7 1-1 2.1 1 3.3 0.8-1.2 1.4-2.3 2.1-3.4C467.7 232.4 466.8 232.7 466 233.8z"/><path d="M451.2 265.4c-3.4 0.3-3.5 0.4-2.8 3.5 0.3 0.1 0.6 0.2 0.8 0.4C449.9 268 450.5 266.8 451.2 265.4z"/><path d="M467.5 202.2c-0.7 0.1-1.3 0.8-2.3 1.5 0.9 0.7 1.5 1.5 1.8 1.4 0.7-0.3 1.3-0.9 1.6-1.6C468.8 203.2 467.8 202.1 467.5 202.2z"/><path d="M472.1 229.1c0.1-1.5-0.5-3-0.8-4.6 -3.4 1.1-4.4 2.7-3.2 4.9 0.4 0.7 1.5 1.6 2.1 1.5C470.9 230.9 472.1 229.8 472.1 229.1z"/><path d="M480.9 262.3c-0.1 0.4-0.2 0.7-0.3 1.1 0.9 0.2 1.9 0.4 3.1 0.7C483.1 261.4 482 261.6 480.9 262.3z"/><path d="M513.3 251.1c0.2-1.2 0.1-1.3-3.1-2.3 -0.4 1.1-0.8 2.2-1.2 3.3C512.3 252.8 513 252.6 513.3 251.1z"/><path d="M370 261c-0.3 0.6-0.7 1.1-0.6 1.4 0.1 0.3 0.6 0.6 1 0.8 0.2-0.3 0.7-0.7 0.7-1C371 261.9 370.5 261.6 370 261z"/><path d="M515.9 217.6c-0.3 0.7-0.6 1.4-1.2 2.5 2.1-0.3 2.4-1 2.1-2.1C516.5 217.9 516.2 217.7 515.9 217.6z"/><path d="M371.9 234c-0.6-1.6-1.5-2.5-3.1-1.5 -0.3 0.2-0.4 1.3-0.2 1.6C369.6 235.7 370.8 235.3 371.9 234z"/><path d="M393.2 261.3c-0.5 0-0.9 0.4-1.8 0.8 0.7 0.6 1.1 1.1 1.4 1.1 0.5-0.1 0.9-0.6 1.4-1C393.9 261.9 393.6 261.3 393.2 261.3z"/><path d="M432.1 270.9c0.1-0.6-0.7-1.6-1.3-1.8 -0.6-0.1-1.3 0.7-2.4 1.3 0.4 0.4 0.7 0.7 0.9 1.1h2.5C432 271.3 432.1 271.1 432.1 270.9z"/><path d="M446.8 249.2c-0.4 0.1-0.7 0.5-1.3 0.8 0.5 0.4 0.8 0.8 1 0.7 0.4-0.2 0.7-0.5 1-0.8C447.2 249.7 446.9 249.1 446.8 249.2z"/><path d="M576.7 270.3c1-1.4 0.7-2.8-0.4-3.7 -0.7-0.6-2.1-1-3-0.8 -1.4 0.4-1.4 1.9-1.4 3.2 0 0.7 0.4 1.6 0.9 2.5h3C576.2 271.1 576.5 270.7 576.7 270.3z"/><path d="M649.8 266.4c-2.1-0.3-2.3 0.6-1.7 2.4C649.7 268.7 650 267.8 649.8 266.4z"/><path d="M609 269.9c-1 0.5-1.5 1-1.7 1.6h11.9c-0.3-0.4-0.6-0.7-1.1-1 -1.2-0.7-2.5-1.2-3.8-1.8 -0.1-1.2 0.1-2.3-0.3-2.9 -1.6-2.4-1.8-4.6 0.4-6.8 -1.4-1.5-2.6-1.1-3.8-0.3 0.2 2.6 0.3 5.1 0.5 7.6C611.1 267.9 610.6 269 609 269.9z"/><path d="M613 251.4c-0.6 0-1.1 0.1-1.7 0.2 0 0.2 0.1 0.5 0.1 0.7 0.6-0.1 1.1-0.2 1.7-0.2C613.1 251.8 613 251.4 613 251.4z"/><path d="M695 211.4c0.4-0.4 0.8-0.7 0.7-0.9 -0.1-0.4-0.5-0.7-0.7-1.1 -0.3 0.3-0.8 0.6-0.9 0.9C694.1 210.6 694.6 211 695 211.4z"/><path d="M533.3 231.1c1.8 1.8 2.6 1.6 3.6-0.3C535.6 230.9 534.8 231 533.3 231.1z"/><path d="M705.2 261.2c-0.6-0.2-1.8 0-2.2 0.5 -0.9 1.2-0.1 2.5 2.1 3.8C706.5 263.3 706.6 261.8 705.2 261.2z"/><path d="M565.8 251.5c-1.5 0.1-2.5 0.2-3.4 0.3C564.6 253.9 564.6 253.9 565.8 251.5z"/><path d="M561.2 259.8c0-2.1-0.6-2.6-2.8-2.5 -1.6 0-2.8 0.5-2.8 2.3 0 1.8 1.7 3.7 3.2 3.5C560.4 262.9 561.2 261.8 561.2 259.8z"/><path d="M584.4 229.5c0.7 0.5 1.1 1 1.4 1 0.4 0 0.7-0.6 1-0.9 -0.3-0.3-0.6-0.7-1-0.8C585.5 228.8 585.1 229.1 584.4 229.5z"/><path d="M708.6 269.8c-0.1 0.2-0.2 0.4-0.4 0.8 0.2 0.2 0.5 0.3 0.8 0.5 0.1-0.2 0.4-0.5 0.3-0.6C709.1 270.2 708.8 270 708.6 269.8z"/><path d="M592.2 228.4c0.2-1.1-0.5-1.9-1.7-1.9 -1.1 0-2.2 0.3-2 1.6 0.1 0.9 1 1.7 2 3.2C591.4 229.9 592.1 229.2 592.2 228.4z"/><path d="M763.3 254.9c-0.1-0.3-0.1-0.6-0.2-0.9 -1-0.6-2-1.1-3.3-1.8 -0.1 1.5-0.4 3 1.1 3.7C761.5 256.1 762.5 255.2 763.3 254.9z"/><path d="M1174.7 72.5c-0.3-0.2-0.5-0.6-0.8-0.6 -0.4 0-0.7 0.3-1.4 0.6 0.6 0.4 1 0.8 1.1 0.8C1174 73.1 1174.4 72.7 1174.7 72.5z"/><path d="M1269.6 226.8c0.3-0.3 0.6-0.7 0.8-1.1 0-0.1-0.5-0.4-1-0.8 -0.2 0.6-0.5 1-0.5 1.4C1268.8 226.5 1269.5 226.9 1269.6 226.8z"/><path d="M1241.3 215.5c0 2.2 1.5 1.8 3 1.6 0.3-1.5 1.2-3.1-1.2-3.5C1241.8 213.4 1241.3 214.5 1241.3 215.5z"/><path d="M1220.2 4.7c1.7-1.5-0.3-2.6-0.8-4.7 -1.4 1.7-2.2 2.6-3.1 3.6C1217.5 5.4 1218.9 5.8 1220.2 4.7z"/><path d="M1184.1 192.7c1.4-0.8 0.9-2 0.5-3.5 -2 0.6-2.5 1.6-2 3C1182.7 192.5 1183.8 192.9 1184.1 192.7z"/><path d="M1205.1 185.8c0.6 0.2 2-0.3 2.1-0.7 0.6-1.8-0.7-2.3-2.4-2.7C1204.1 183.8 1203.5 185.1 1205.1 185.8z"/><path d="M1242 125.4c1.3 0.2 2.2-0.8 1.9-2 -0.2-0.7-1.2-1.6-1.9-1.7 -0.5-0.1-1.2 1.1-2.1 2C1240.9 124.5 1241.4 125.3 1242 125.4z"/><path d="M1026.1 250.5c1-0.1 2 0.1 2.9-0.2 0.7-0.2 1.1-1 1.7-1.5 -0.6-0.4-1.1-1.1-1.7-1.2C1027.3 247.1 1026.6 247.9 1026.1 250.5z"/><path d="M1007 259.9c-0.3 0.6-0.4 1.2-0.6 1.7 0.3 0.1 0.6 0.2 0.9 0.3 0.2-0.6 0.4-1.2 0.6-1.8C1007.6 260.1 1007 259.9 1007 259.9z"/><path d="M1108.7 237.4c-0.3 0.2-1 0.4-1 0.6 0 0.5 0.3 1 0.6 2 0.6-0.8 1-1.1 1-1.5C1109.3 238.2 1108.9 237.8 1108.7 237.4z"/><path d="M1094.4 248.3c0.4-0.4 0.9-0.7 1-1.1 0.1-0.2-0.5-0.7-1-1.2 -0.4 0.6-0.8 1-0.8 1.4C1093.6 247.6 1094.1 247.9 1094.4 248.3z"/><path d="M1032.9 232.1c0-2.2-0.9-3.8-2.2-3.9 -1.5-0.2-2.2 1-2.5 4 1.1 0.7 2.2 1.4 3.9 2.4C1032.5 233.4 1032.9 232.8 1032.9 232.1z"/><path d="M1145.2 125.9c-0.6-0.5-1.2-0.9-1.7-1.4 -0.2 0.2-0.4 0.4-0.6 0.6 0.6 0.5 1.2 1 1.7 1.4C1144.8 126.3 1145 126.1 1145.2 125.9z"/><path d="M1130.4 247.5c0.5-0.7 1-1.3 0.9-1.4 -0.3-0.4-0.8-0.8-1.4-1 -0.2-0.1-0.9 0.7-0.8 1C1129.3 246.6 1129.8 246.9 1130.4 247.5z"/><path d="M1134.6 120.9c1.5 0.2 1.8-1.1 1.8-2.3 0-0.6-0.7-1.1-1.5-2.2 -0.8 1.2-1.5 1.9-1.6 2.7C1133.2 119.7 1134 120.8 1134.6 120.9z"/><path d="M894.7 229.1c-1.5 0.7-2.8 1.9-4.2 2.8 0.1 0.3 0.2 0.6 0.4 0.8 1.2 0.3 2.4 0.8 3.6 0.9 1.6 0.2 3.5-2.2 2.7-3.6C896.7 229.5 895.2 228.9 894.7 229.1z"/><path d="M1004.9 269.3c-0.7 0.3-1.7 0.3-2.1 0.8 -0.3 0.4-0.6 0.9-0.9 1.4h3.2c0-0.1 0-0.2 0.1-0.2C1005.4 270.6 1005 269.9 1004.9 269.3z"/><path d="M1125.9 233.4c-0.2-0.6-1-1.1-1.6-1.3 -1.8-0.4-2.9 0.7-3.7 3.7 1.6-0.3 3-0.3 4.3-0.8C1125.4 234.9 1126.1 233.8 1125.9 233.4z"/><path d="M1109.4 206.6c0.8-0.2 1.6-0.9 2.1-1.7 0.1-0.2-0.8-1.2-1.5-2.2 -1.1 1.2-1.7 1.9-2.4 2.7C1108.1 205.8 1108.9 206.7 1109.4 206.6z"/><path d="M1143.8 178.3c0.7-0.3 1.3-0.5 1.9-0.8 0 0-0.1-0.8-0.3-0.9C1144.2 176.2 1143.8 176.8 1143.8 178.3z"/><path d="M1162.3 256.1c0.7-0.3 1.3-0.9 2.2-1.5 -0.8-0.6-1.4-1.2-1.7-1.1 -0.6 0.2-1.2 0.8-1.4 1.4C1161.3 255.1 1162.2 256.1 1162.3 256.1z"/><path d="M1158.6 240.3c-1.6 1.2-2.5 1.9-4.1 3.2 1.7 0.7 2.5 1 3.8 1.5C1158.4 243.4 1158.5 242.3 1158.6 240.3z"/><path d="M1147.7 95.1c-2.2 1-2.2 1-0.8 3C1147.2 97 1147.4 96.2 1147.7 95.1z"/><path d="M1144.7 268.9c-0.1 2.3 1.5 2.2 3.5 2 0.1-1.8 0.7-3.5-1.6-3.8C1145.4 267 1144.7 267.8 1144.7 268.9z"/><path d="M1174.1 136c0.7-0.1 1.2-1 1.7-1.6 -0.6-0.5-1.3-1.3-2-1.3 -0.6 0-1.3 0.8-2.5 1.6C1172.7 135.4 1173.5 136.2 1174.1 136z"/><path d="M1136.9 173.6c1.2 0.1 2.3-0.5 2.2-1.9 0-0.5-1.1-1.3-1.5-1.2 -0.9 0.3-1.7 1-3.1 1.9C1135.7 173.1 1136.3 173.6 1136.9 173.6z"/><path d="M985.4 239.5c-1.7 0.8-2.8 1.3-3.9 1.9C982.7 241.2 984.6 242.4 985.4 239.5z"/><path d="M945.6 263.2c-0.4 0.7-0.6 1.4-0.9 2.1 0.3 0.1 0.7 0.3 1 0.4 0.4-0.7 0.8-1.5 1.3-2.5C946.2 263.2 945.6 263.1 945.6 263.2z"/><path d="M979.4 231.8c-0.3 0.6-0.7 1.3-1.2 2.3 1.5 0 2.4 0 3.3 0 0.1-0.2 0.2-0.4 0.3-0.6C981 232.9 980.2 232.4 979.4 231.8z"/><path d="M984.9 256.5c-0.6-0.3-1.2-0.4-1.8-0.6 -0.1 0.3-0.2 0.6-0.3 0.9 0.6 0.2 1.3 0.4 1.9 0.6C984.8 257.2 985 256.6 984.9 256.5z"/><path d="M984.4 251.5c-0.7-0.1-1.4-0.1-2.1-0.2 -0.1 0.3-0.1 0.6-0.2 0.9 0.7 0.2 1.4 0.4 2.1 0.7C984.2 252.4 984.3 251.9 984.4 251.5z"/><path d="M521 271.5h0.3c0 0-0.1-0.1-0.1-0.1C521.1 271.4 521 271.4 521 271.5z"/><path d="M929.2 207.7c-0.3 0.5-0.6 1-0.9 1.5 0.3 0.1 0.8 0.4 0.9 0.3 0.3-0.4 0.5-0.9 0.8-1.4C929.7 208 929.4 207.8 929.2 207.7z"/><path d="M903.5 267.2c0.4 0.2 1.3 0.5 2.2 0.8 0.7-1 1.3-1.8 1.8-2.5 1.3-0.2 2.8 1.2 2.2 2 -1 1.4-1.1 2.7-0.9 4h10.7c-0.3-0.3-0.6-0.7-0.9-1.1 -0.1-0.3-0.6-0.4-0.9-0.5 -4.3-1.4-5.1-3.1-3.1-7 0.1-0.2 0-0.5 0-0.8 -1.3-1.6-4.6 1.8-5.1-2.1 2-0.8 3.7-1.8 6.1-0.1 1.2 0.8 3.1 0.5 4.7 0.7 0.2-3.9 1-7.6-4.1-9.1 -0.3 0.1-1 0.4-1.6 0.7 -1.3 0.6-2.3 0.6-3.4-0.6 -0.7-0.7-1.9-1.3-3-1.3 -0.8 0-1.6 0.9-2.5 1.5 0.8 1.8 2.1 3.3 0.3 5.3 -1.6 1.8 0.2 3.5 1.1 5.1C906.4 264.2 902.6 263.6 903.5 267.2z"/><path d="M897.6 259.5c1.6 0 2.5-0.8 2.3-2.7 -1.2-0.4-2.6-1-3.3 0.8C896.4 258 897.2 259.5 897.6 259.5z"/><path d="M932.3 270.9c-2.9-0.1-5.3-0.2-6.1-3.1 -1.8 0.9-1.4 1.7-0.8 2.9 0.1 0.2 0.2 0.5 0.3 0.8h6.4C932.2 271.3 932.3 271.1 932.3 270.9z"/><path d="M906.3 271.1c-0.5 0.1-0.9 0.2-1.4 0.3h1.4C906.3 271.4 906.3 271.3 906.3 271.1z"/><path d="M917.1 227.5c-0.2-0.3-0.4-0.7-0.5-1 -0.7 0.3-1.4 0.7-2.2 1 0.1 0.2 0.2 0.5 0.3 0.7C915.5 228 916.3 227.8 917.1 227.5z"/><path d="M939.5 218.7c-0.1 0.3-0.3 0.6-0.4 0.9 0.5 0.3 1 0.5 1.5 0.8 0.1-0.2 0.3-0.3 0.4-0.5C940.5 219.4 940 219 939.5 218.7z"/><path d="M883.5 271.5h1.2c-0.4 0-0.7-0.1-1.1-0.1C883.5 271.4 883.5 271.4 883.5 271.5z"/><path d="M690.5 271.5h1.5c0-0.1 0-0.2-0.1-0.3C691.5 271.3 691 271.4 690.5 271.5z"/><path d="M724.5 240.8c0.4 1.2 2.8 2.1 5 1.7 0.6-0.1 1.1-0.5 2-1 -1.2-1.7-2.3-3.3-3.4-4.8C724.9 238.2 724 239.3 724.5 240.8z"/><path d="M678.2 269.9c-0.6 0.3-1.7-0.5-3.2-1.1 0.3 1 0.6 1.8 0.9 2.6h8.5C682.6 270 680.9 268.7 678.2 269.9z"/><path d="M527.7 271.5h1.7c0-0.3-0.1-0.7-0.2-1.2C528.4 270.5 527.9 270.9 527.7 271.5z"/><path d="M682 250.9c-2.5 0.6-1.8 3.1-2.5 4.7 -1.6 0.9-3.7 0.9-4.6 3.4 -0.6 1.5-0.5 2.6 0.1 3.8 0.7 1.4 2.1 1.3 3.4 0.9 2.3-0.7 4.3-1.6 4.4-4.5 0-0.6 0.5-1.7 0.9-1.7 2.4-0.3 2.1-2.5 3.3-3.8C685.6 251.4 684.1 250.3 682 250.9z"/><path d="M731.2 250.4c-0.7 1.4-0.3 3.2-0.5 5.2 4.5-0.5 4.5-0.6 4.1-5.6C733.5 249.4 731.8 249.1 731.2 250.4z"/><path d="M754.4 258.4c1.8 0.9 2.9 0.6 3.8-1.3C756.2 255.8 755.2 256.5 754.4 258.4z"/><path d="M760.4 268.7c-0.2-1.3-1.2-1.8-2.2-1.4 -0.6 0.2-1.1 1.4-1.1 2 0.1 0.7 0.3 1.4 0.4 2.1h3.4C760.7 270.5 760.6 269.6 760.4 268.7z"/><path d="M735.6 248.1c4.2 2.1 5 2.1 7.2-0.7C739.6 244.8 737.4 245 735.6 248.1z"/><path d="M733.8 262.6c0.5 0.5 0.9 1.2 1 1.2 0.5-0.2 1-0.6 1.5-0.9 -0.3-0.5-0.7-0.9-1-1.4C734.9 261.8 734.5 262.1 733.8 262.6z"/><path d="M495.9 239.8c1.8-1.2 0.5-2.3-0.2-3.7 -1.9 1-2.3 2.2-1.4 3.5C494.5 239.9 495.5 240 495.9 239.8z"/><path d="M526.8 223.5c0.9-1.8 1.1-3-0.5-3.8 -0.4-0.2-1.4 0.2-1.6 0.6C523.9 222.1 525.1 222.8 526.8 223.5z"/><path d="M525.8 233.8c0-0.5-0.5-0.9-0.8-1.4 -0.4 0.4-1.1 0.7-1.1 1.1 -0.1 0.4 0.4 1 0.8 1.9C525.2 234.6 525.8 234.2 525.8 233.8z"/><path d="M528 202.7c1.3-2 1.3-2-0.7-3.8C525.5 201.4 525.5 201.4 528 202.7z"/><path d="M537.7 242.2c0.4 0.8 1.2 1.7 2 2.1 0.9 0.5 2.3 1.1 3 0.8 0.7-0.3 0.9-1.8 1-2.1 0-4.1-1.6-5.6-4.1-4.9C537.6 238.7 536.7 240.3 537.7 242.2z"/><path d="M527.6 233.8c0.1 0.6 0.6 1.2 1.2 2.1 0.6-0.8 1.2-1.3 1.2-1.6 -0.1-0.6-0.7-1.1-1.2-1.4C528.6 232.7 527.6 233.5 527.6 233.8z"/><path d="M521.1 141c0.3-0.7 0.9-1.4 0.8-2 -0.1-0.7-0.9-1.2-1.4-1.9 -0.5 0.5-1.2 0.9-1.3 1.5 -0.1 0.5 0.6 1.1 0.9 1.7C520.4 140.5 520.8 140.7 521.1 141z"/><path d="M531.6 191.8c0.4-0.1 0.7-0.4 1.1-0.7 -0.3-0.3-0.5-0.7-1-1.2 -0.4 0.5-0.7 0.9-0.8 1.2C530.8 191.3 531.4 191.8 531.6 191.8z"/><path d="M532.8 201.4c0.2 1 1.1 1.9 2.1 3.6 0.9-1.5 1.6-2.3 1.7-3 0.2-1.5-1.3-3.1-2.3-2.7C533.5 199.6 532.7 200.8 532.8 201.4z"/><path d="M537 142.9c-0.1 1.2-0.2 2-0.3 2.8C539 144.7 539 144.7 537 142.9z"/><path d="M515.9 195.8c0.4 0 1-0.7 1-1.1 0-0.4-0.6-0.9-0.9-1.3 -0.4 0.3-0.8 0.7-1.5 1.2C515.1 195.1 515.5 195.8 515.9 195.8z"/><path d="M531.5 241.7c0.5 0.1 1.2-0.6 1.8-0.9 -0.6-0.8-1.2-1.5-2.2-2.6C530.1 240.3 530 241.4 531.5 241.7z"/><path d="M534.3 89.1c0-0.3-0.5-0.9-0.9-0.9 -0.3-0.1-0.7 0.3-1.4 0.7 0.7 0.6 1 1 1.5 1.2C533.6 90.1 534.3 89.4 534.3 89.1z"/><path d="M519.3 268.3c0.3-0.3 0.5-0.6 0.8-0.9 -0.6-0.5-1.2-1.1-2-1.8 -0.2 0.7-0.5 1.2-0.4 1.3C518.2 267.5 518.8 267.9 519.3 268.3z"/><path d="M471.7 185.8c0.5-0.1 1.2-0.7 1.2-1.1 0-0.4-0.6-1.2-1-1.3 -0.3-0.1-0.9 0.6-1.6 1.2C470.9 185.2 471.4 185.9 471.7 185.8z"/><path d="M481.6 258.8c0.4-0.3 0.7-0.6 1.5-1.1 0.7 1.6 1.3 2.9 2 4.3 3.8 2 4.5-2.4 6.8-3.7 1.7 2 0 4.4 1.3 6.6 0.9 1.6-0.1 4.3 2.1 5.2 2.4-1.3 4.5-2.4 6.7-3.6 1.2 0.9 2.4 1.8 3.5 2.7 2.4-3.5 1.2-5.5-3.6-6.7 -1.2-2.5-1.1-6.1-4.8-6.5 -2.7-0.3-5.5-0.1-8.9-0.1 -0.5-0.5-1.4-1.7-2.5-2.9 -1.8 0.9-3.1 2.4-5.3 2 -0.7-0.2-1.9 0.9-2.5 1.7 -0.2 0.3 0.2 1.5 0.7 1.9C479.4 259.6 480.5 259.6 481.6 258.8z"/><path d="M484.7 223.5c1.6 0.2 3.1-1.1 3.2-2.6 0.1-1.6-1.5-3.6-2.8-3.5 -1.7 0.2-2.2 1.4-2.5 3C482.8 221.7 482.7 223.3 484.7 223.5z"/><path d="M510.8 240.2c1.5-0.5 2.9-1.1 4.8-1.7 -0.7-1.6-1.2-2.9-1.9-4.5C510.4 236.6 510.4 236.6 510.8 240.2z"/><path d="M477.1 92.2c0-0.4-0.7-1.1-1.1-1.1 -0.4 0-1.1 0.6-1.1 1 -0.1 0.4 0.6 0.9 1.1 1.6C476.5 93.1 477.1 92.6 477.1 92.2z"/><path d="M488.1 60.6c0-0.2-0.5-0.7-0.7-0.7 -0.4 0.1-0.8 0.5-1.4 0.9 0.6 0.4 1 0.9 1.4 0.8C487.7 61.7 488 61.1 488.1 60.6z"/><path d="M469.5 250.4c-1.1 0.6-2.1 1.8-2.4 3 -0.2 0.6 1 2.1 1.8 2.4 1.3 0.5 2.9 0.4 5 0.6 -0.2-1.9-0.1-3-0.5-4.1C472.9 250.7 470.9 249.6 469.5 250.4z"/><path d="M511.2 224.3c0.3-0.5 0.9-1.2 1-2 0.2-1.3-0.6-2.3-1.9-2.2 -0.6 0-1.4 0.9-1.6 1.6C508.4 223 509.5 224.3 511.2 224.3z"/><path d="M510.4 232.4c0.1-0.3-0.2-1.1-0.4-1.2 -1.2-0.3-1.8 0.4-2 1.6C509 233.8 509.8 233.5 510.4 232.4z"/><path d="M609.4 120.2c1.6-0.8 1-1.9 0.5-3.1 -1.6 0.2-2.3 0.8-1.8 2.2C608.3 119.7 609.2 120.3 609.4 120.2z"/><path d="M502.8 209c0.8-1.3 1.4-1.9 1.5-2.6 0.2-1.3-1.3-2.8-2.5-2.7 -1.2 0.2-1.8 1.1-1.4 2.1C500.8 206.8 501.8 207.6 502.8 209z"/><path d="M499.5 249.4c-1.1 2-0.5 4.8 1.5 5.5 1.5 0.5 3.1 0.5 5.1 0.7 -0.2-3 0.7-5.4-2-6.8C502.2 247.8 500.4 247.9 499.5 249.4z"/><path d="M476.6 268.5c-0.3 0.1-0.6 0.2-0.9 0.3 0 0.9 0 1.8 0 2.7h2.7c0-0.3-0.1-0.6-0.1-0.9C478.2 269.8 477.2 269.2 476.6 268.5z"/><path d="M596.6 216.5c0.3-1 0.5-1.9 1-3.4C594.3 214.5 594.3 214.7 596.6 216.5z"/><path d="M594.1 160.2c0.5 0 1.3-0.8 1.3-1.3 0-0.5-0.8-1-1.5-1.7 -0.6 0.8-1.3 1.4-1.2 1.8C592.8 159.5 593.6 160.2 594.1 160.2z"/><path d="M592 167.9c0.1-0.4-0.6-1.5-1-1.6 -1.7-0.3-2 0.9-2.1 2.3C590.2 169.3 591.4 169.5 592 167.9z"/><path d="M592.2 258.7c0.5 0.9 1.5 1.5 2.5 2.4 1.6-1.9 1.7-3.4 0.1-4.5 -0.5-0.4-1.8-0.4-2.2 0C592.1 256.9 591.9 258.2 592.2 258.7z"/><path d="M587.8 213.7c1.7-1 3.1-2.6 4.2-4.2 1-1.5-0.2-3.4-2-3.5 -1.5-0.1-5.7 2.3-6.3 3.6 -0.2 0.4-0.3 0.9-0.3 1.1C583.3 213.4 585.6 215 587.8 213.7z"/><path d="M583.6 225.6c0.1-0.6 0-1.1 0-1.7 -0.3 0-0.6 0-1 0 0.1 0.6 0.2 1.2 0.3 1.8C583.2 225.7 583.6 225.6 583.6 225.6z"/><path d="M611.6 192.6c0.1-1.3-0.6-1.9-1.8-2 -1.6-0.1-2.8 0.8-3 3 0.4 0.3 1.1 1.1 1.8 1.3C610 195.3 611.5 193.9 611.6 192.6z"/><path d="M607.6 217.9c0.1-0.1-0.5-0.7-0.7-0.7 -0.4 0-0.8 0.3-1.1 0.5 0.2 0.4 0.4 0.7 0.8 1.4C607.1 218.6 607.4 218.3 607.6 217.9z"/><path d="M600.9 205.4c0-1.5 0-2.5 0-3.8 -2.2 0.3-2.3 1.5-2 2.6C599 204.7 599.9 204.9 600.9 205.4z"/><path d="M586.2 245.3c0.1-0.4-0.8-1.5-1.4-1.7 -0.5-0.1-1.2 0.7-2.2 1.2 0.8 1 1.3 1.7 1.7 2.3C585 246.5 585.9 246 586.2 245.3z"/><path d="M604 199.2c-0.4-0.5-0.8-1.5-1.3-1.5 -0.7 0-1.3 0.6-2.5 1.2 1 0.8 1.6 1.5 2.1 1.4C602.9 200.2 603.4 199.6 604 199.2z"/><path d="M601 210.8c1.3 0.6 2.7 1.2 3.5-0.4 0.6-1.3-0.5-2.3-1.6-2.5C600.7 207.6 601.1 209.3 601 210.8z"/><path d="M556.6 194.2c0.6 0 1.3-0.8 2.3-1.6 -1-0.8-1.6-1.6-2.3-1.8 -1.3-0.2-1.9 0.8-1.7 1.9C555 193.4 556 194.2 556.6 194.2z"/><path d="M554 153c0.3-0.8 0.6-1.5 0.8-2.3 0-0.1-0.9-0.7-1.2-0.6 -1.5 0.5-1 1.6-0.7 2.6C553.3 152.9 553.6 153 554 153z"/><path d="M542.4 235.8c-0.1-0.4-0.1-1.3-0.2-1.3 -0.7-0.1-1.4 0-2.1 0.1 0.1 0.4 0.1 0.9 0.2 1.3C540.9 235.9 541.6 235.8 542.4 235.8z"/><path d="M551.7 216.1c-0.1-0.7-0.7-1.3-1.1-1.9 -0.2 0.1-0.5 0.2-0.7 0.2 0 0.9 0 1.7 0 3.2C550.7 216.9 551.7 216.4 551.7 216.1z"/><path d="M547.6 224.2c0.4-0.6 1.1-1.5 1.4-2.4 0.4-1.4-0.7-2.8-1.9-2.6 -0.8 0.1-1.8 1-2 1.7C544.6 222.2 545.8 224.1 547.6 224.2z"/><path d="M543.3 250.2c0 0.1 0.7-0.1 1-0.1 -0.1-0.6-0.3-1.3-0.4-1.9 -0.3 0.1-0.6 0.1-0.9 0.2C543 249 543.1 249.6 543.3 250.2z"/><path d="M570.7 214.5c-0.3 0.2-0.5 0.4-0.8 0.6 0.5 0.7 0.9 1.4 1.6 2.4C572.4 215.7 572.3 214.7 570.7 214.5z"/><path d="M575 166.3c0-0.5-0.6-1.5-1.1-1.6 -2-0.3-1.4 1.5-2.2 2.7C573.6 167.8 574.9 168.2 575 166.3z"/><path d="M557.2 233.8c1.1 1.2 2.1 2.5 3.3 3.7 1.2 1.2 2.8 1.7 4.1 0.7 0.9-0.6 1.2-2 1.9-3.4 -1.3-2.3-2.3-4.6-3.8-6.5 -1.4-1.7-3.9-1.1-6 1C555.1 230.9 555.3 231.8 557.2 233.8z"/><path d="M578 234.2c0.1 0 0.1-0.6 0.1-0.6 -0.7-0.2-1.3-0.4-2-0.6 -0.1 0.4-0.2 0.8-0.3 1.3C576.5 234.2 577.3 234.2 578 234.2z"/><path d="M581.9 267.9c1.2-1.4-0.1-2.2-1-3.5 -1.3 1.2-2.2 2.2-0.9 3.5C580.3 268.2 581.5 268.2 581.9 267.9z"/><path d="M567.9 169.5c0.5 0 1-0.8 1.5-1.2 -0.6-0.5-1.1-1.3-1.7-1.5 -0.4-0.2-1.1 0.4-1.9 0.8C567 168.7 567.4 169.5 567.9 169.5z"/><path d="M501.1 233.7c-0.5-1-1.3-1.9-2.2-3.1 -0.8 0.8-1.6 1.5-1.5 1.7 0.6 1 1.4 1.9 2.2 2.8C500.2 234.6 501.2 233.9 501.1 233.7z"/><path d="M265.4 265.3c0.5-0.1 1-0.5 1.4-0.7 -0.2-0.4-0.4-1-0.7-1.1 -0.5-0.1-1 0.3-1.9 0.5C264.9 264.7 265.2 265.3 265.4 265.3z"/><path d="M253.7 261.6c0.3 0.1 0.7-0.4 1-0.7 -0.4-0.4-0.7-0.9-1.3-1.6 -0.4 0.6-0.9 1.1-0.8 1.4C252.8 261.1 253.3 261.5 253.7 261.6z"/><path d="M335.6 250.5c0.5 0.1 1.7-0.5 1.7-0.9 0.2-1.5-0.8-2.3-2.8-2.3C334.4 248.6 333.9 250 335.6 250.5z"/><path d="M272.3 228.4c0.3-0.5 0.9-0.9 1-1.4 0-0.6-0.4-1.2-0.6-1.8 -0.3 0.2-0.7 0.4-1 0.6 -0.2 0.5-0.8 1.1-0.6 1.5C271.2 227.7 271.9 228 272.3 228.4z"/><path d="M264.1 219.4c0.1-0.4-0.6-1.3-0.9-1.3 -0.6 0.1-1.1 0.6-1.9 1.1 0.7 0.8 1.1 1.2 1.6 1.7C263.4 220.4 264 220 264.1 219.4z"/><path d="M263.8 187.3c0.1-0.9 0.2-1.7 0.4-3.2 -2.2 0.9-2.4 1.8-1.7 2.8C262.7 187.3 263.4 187.2 263.8 187.3z"/><path d="M274.2 233.9c1.7 0.7 2.5-0.3 2.8-2 -1.1-1.2-2.4-1.6-3.4-0.1C273.3 232.2 273.8 233.7 274.2 233.9z"/><path d="M334.7 246.2c0.7-1.2 0.2-1.9-0.7-2.6 -1.4 1-1.2 1.9-0.2 2.8C333.9 246.5 334.6 246.4 334.7 246.2z"/><path d="M291.7 227.8c-0.3-1-0.9-2.2-1.7-2.5 -1.3-0.6-2.5 0.4-3 1.6 -0.6 1.4-0.8 3-1.3 5.2 2.4-0.8 4-1.4 5.9-2.1C291.6 229.4 291.9 228.5 291.7 227.8z"/><path d="M326.4 219.8c0.7-0.2 1.6-0.8 1.7-1.4 0.1-0.5-0.7-1.2-1.2-1.8 -0.6 0.4-1.2 0.9-2.1 1.5C325.6 218.9 326.2 219.9 326.4 219.8z"/><path d="M467.6 199.4c0.6-0.4 1-1.1 1.5-1.7 -0.5-0.3-1-0.9-1.4-0.8 -0.6 0.2-1.1 0.8-1.8 1.4C466.7 198.8 467.5 199.5 467.6 199.4z"/><path d="M299.8 269.4c1.5 0 2.5-1.2 2.5-3.2 0-2.2-1.5-3.8-3.4-3.7 -1.7 0-2.6 1-2.6 2.6C296.3 267.1 298.2 269.4 299.8 269.4z"/><path d="M264.9 172.6c0.1-0.5-0.4-1.2-0.8-2.3 -0.8 1-1.5 1.5-1.5 2 0 0.6 0.6 1.1 1 1.7C264 173.5 264.8 173.1 264.9 172.6z"/><path d="M141.6 243.9c0.4-0.5 0.9-0.9 1.3-1.4 -0.3-0.2-0.5-0.4-1-0.8 -0.4 0.6-0.8 1-1 1.5C140.9 243.3 141.3 243.7 141.6 243.9z"/><path d="M164.9 234.6c1.2-0.4 1.6-1.4 1.4-2.7 -0.2-1.5-0.2-3-0.3-4.1 -1 0.7-2.2 1.5-3.2 2.3 -0.3 0.2-0.6 0.6-0.6 0.9 0 1.1 0 2.3 0.4 3.2C162.8 234.7 164.2 234.8 164.9 234.6z"/><path d="M823 234.3c-3.1 2.4-2.8 2.3-1.6 5.4 0.7 1.7 1.4 3 3.4 4.1 0.4-1 1.4-2.4 1-2.9C824.6 238.9 825.8 235.9 823 234.3z"/><path d="M178.7 202.2c0-0.4-0.6-0.9-1-1.3 -0.4 0.4-0.8 0.7-2.1 1.8 0.9 0.4 1.5 0.8 2 0.7C178.1 203.3 178.7 202.6 178.7 202.2z"/><path d="M90.7 147.7c-0.3-0.3-0.6-0.8-1-0.9 -0.3-0.1-0.7 0.3-1.4 0.7 0.5 0.6 0.8 1 1.1 1.3C89.9 148.5 90.3 148.1 90.7 147.7z"/><path d="M122 249.8c0-1.9-1.4-2.1-3.2-1.4 0 1 0 2 0 3C120.7 252 122 251.6 122 249.8z"/><path d="M230.2 177.3c-0.3-0.3-0.5-0.9-0.8-1 -0.3-0.1-0.8 0.3-1.4 0.6 0.6 0.5 0.9 0.9 1.3 1C229.5 178 229.9 177.6 230.2 177.3z"/><path d="M227.8 124.5c-0.6-1.6-0.9-2.5-1.2-3.4 -0.5 0.2-1.4 0.3-1.5 0.6C224.5 123.2 225.3 124 227.8 124.5z"/><path d="M206.2 106.7c0.1-0.1-0.4-0.7-0.7-0.8 -0.4-0.1-0.8 0.2-1.2 0.3 -0.2 0.3-0.4 0.6-0.5 0.9 0.5 0.2 1 0.5 1.4 0.4C205.6 107.5 206 107.1 206.2 106.7z"/><path d="M193.5 250.5c0.1-0.1-0.4-0.5-0.7-0.7 -0.5 0.5-1 1.1-1.5 1.6 0.4 0.3 0.7 0.6 1.1 0.9C192.8 251.6 193.2 251.1 193.5 250.5z"/><path d="M180.1 265.7c0.2-0.2 0.6-0.3 0.6-0.4 0-0.9 0-1.8 0-2.7 -0.6 0.2-1.6 0.3-1.8 0.7C178.1 264.5 178.7 265.3 180.1 265.7z"/><path d="M205.2 219.8c-0.1-0.3-0.7-0.5-1-0.8 -0.2 0.3-0.6 0.6-0.5 0.9 0.1 0.4 0.5 0.8 1 1.5C204.9 220.6 205.3 220.1 205.2 219.8z"/><path d="M299.2 106.2c0-0.1-0.6-0.3-0.9-0.4 -0.1 0.6-0.2 1.3-0.4 1.9 0.2 0.1 0.5 0.1 0.7 0.2C298.8 107.3 299 106.7 299.2 106.2z"/><path d="M444 216.5c-0.6-0.3-1.2-0.5-1.8-0.8 -0.1 0.3-0.3 0.9-0.3 0.9 0.5 0.3 1.1 0.5 1.7 0.7C443.7 217 443.9 216.7 444 216.5z"/><path d="M441.5 264.9c0.1 0-0.1-0.6-0.1-1 -0.7 0.1-1.4 0.2-2 0.3 0.1 0.4 0.2 0.7 0.3 1.1C440.3 265.2 440.9 265.1 441.5 264.9z"/><path d="M446.7 239c0.1-0.3-0.4-0.9-0.7-1 -0.3-0.1-0.7 0.4-1.4 0.7 0.5 0.6 0.8 0.9 1.1 1.2C446.2 239.6 446.7 239.4 446.7 239z"/><path d="M432.8 258.6c3.1 0.3 5.1-0.6 5.6-2.6 0.3-1.4-0.8-3.4-2.3-3.9 -2.9-1.1-3.5 1.7-4.9 3.1C431.8 256.4 432.3 257.5 432.8 258.6z"/><path d="M448.2 185.4c0.3 0 0.7-0.7 1.1-1.1 -0.4-0.4-0.8-0.9-1.3-1.1 -0.2-0.1-0.7 0.5-1.3 0.9C447.4 184.8 447.8 185.4 448.2 185.4z"/><path d="M435.6 247.4c-0.3-0.2-0.6-0.6-0.8-0.6 -0.3 0.1-0.5 0.4-0.9 0.8 0.3 0.3 0.7 0.7 0.8 0.7C435 248 435.3 247.7 435.6 247.4z"/><path d="M448.4 260.1c2.8-1.6 4-3.8 3.5-6 -0.4-1.8-0.9-2.1-3.8-2.1C447.9 254.6 447.4 257.2 448.4 260.1z"/><path d="M467.6 187.1c-0.1-1.3-0.2-2.7-0.3-4.3 -2.4 0.1-2.5 1.6-2.5 2.9C464.8 187.2 465.7 187.8 467.6 187.1z"/><path d="M460.3 271.5c0.1-0.2 0.1-0.5 0.1-0.9 -1.3-0.5-1.8 0-2.3 0.9H460.3z"/><path d="M449.3 142.8c0.1-0.4-0.2-0.8-0.6-1.6 -0.6 0.7-1.1 1.1-1.1 1.4 0 0.4 0.5 0.7 0.8 1.1C448.7 143.4 449.2 143.2 449.3 142.8z"/><path d="M430.1 148c0.1 0 0.7-0.5 0.6-0.7 -0.1-0.4-0.4-0.7-0.8-1.4 -0.4 0.7-0.9 1.1-0.8 1.4C429.2 147.6 429.7 147.9 430.1 148z"/><path d="M445 243.9c0 2.6 1.2 4.3 3.3 4.3 1.6 0 2.7-1.2 2.8-3 0.1-2.6-1.4-4.1-3.8-4.2C445.4 241 444.9 242 445 243.9z"/><path d="M392 259c-0.3-0.5-0.5-1.1-0.9-1.4 -0.2-0.1-0.8 0.3-1.6 0.6 0.7 0.6 1.1 1 1.6 1.3C391.3 259.5 391.7 259.2 392 259z"/><path d="M393 248c1.7 0 2.8-1.2 2.8-2.9 0-1.6-1.2-2.9-2.9-3 -1.4-0.1-3.4 1.8-3.2 3.2C389.9 246.7 391.5 248 393 248z"/><path d="M370.4 211.1c0.8-0.2 2-1.3 1.9-1.7 -0.2-1-1.1-1.9-2.2-3.6 -0.9 1.6-1.7 2.4-1.8 3.3C368.1 210.5 369.2 211.4 370.4 211.1z"/><path d="M343.6 231.1c-0.6-0.1-1.3-0.2-1.9-0.3 0 0.3-0.1 0.6-0.1 0.9 0.6 0.1 1.2 0.2 1.8 0.3C343.4 232 343.5 231.4 343.6 231.1z"/><path d="M352.1 222.3c0.1 0.3 0.6 0.6 0.9 0.9 0.2-0.4 0.6-0.8 0.6-1.1 0-0.3-0.5-0.6-1-1.3C352.4 221.6 352 222 352.1 222.3z"/><path d="M352.9 195.6c0-1.5-1.1-1.3-3-0.7 0.7 1 1.2 1.8 1.8 2.5C352.1 196.8 352.9 196.2 352.9 195.6z"/><path d="M407.9 259c0.8 0.8 1.8 1.4 3.1 2.5 1.4-1.3 2.7-2.3 3.7-3.5 1.7-2.3 1.3-5.1-0.8-6.7 -2.2-1.7-4.6-1.2-6.5 1.3C405.3 255.2 405.4 256.7 407.9 259z"/><path d="M415.8 238.8c2.2 0.2 3.1-0.5 2.7-2.3 -0.1-0.5-1.2-1.4-1.5-1.3C415.3 235.7 415.4 237.1 415.8 238.8z"/><path d="M395.8 220.1c0.4-2.2 0.3-4.1-2-6.1C393.4 219 393.4 219 395.8 220.1z"/><path d="M414.3 227c-0.3 1.3-0.6 2.3-1 3.9C416.4 229.2 416.4 229.2 414.3 227z"/><path d="M427.6 234.1c1.9 0.9 3-0.5 4.1-2.2 -0.9-1.9-2.1-3.4-4.1-2.8 -0.8 0.2-1.8 1.6-1.8 2.5C425.9 232.4 426.8 233.7 427.6 234.1z"/><path d="M403.1 241.9c1.4 0.1 2.5-0.5 2.6-2 0.2-1.5-1.2-3-2.7-3.1 -1.4-0.1-2.6 1.1-2.7 2.6C400.3 240.7 401.5 241.8 403.1 241.9z"/><path d="M126.5 267.8c0.8-0.2 1.9-1.2 1.9-1.8 0-0.8-1-1.6-2.1-3.2 -0.8 1.6-1.4 2.3-1.5 3.1C124.6 267.2 125.4 268.1 126.5 267.8z"/><path d="M757 186.7c-0.3-0.1-0.6-0.3-1-0.4 -0.2 0.6-0.4 1.3-0.6 2 0 0 0.6 0.3 0.6 0.3C756.4 187.9 756.7 187.3 757 186.7z"/><path d="M756.9 238.5c1.6-1.1 2.5-1.7 3.4-2.3C758.4 234.3 758.4 234.3 756.9 238.5z"/><path d="M757.8 231.5c0.9-0.5 1.6-1.1 2.4-1.7 -0.1-0.2-0.2-0.5-0.4-0.7 -1 0.2-2.1 0.4-3.6 0.6C757 230.6 757.6 231.5 757.8 231.5z"/><path d="M757.4 223.3c0.2-1.4 1.2-3-1.1-3.3 -1.1-0.1-2.5 0.2-2.3 1.8C754.3 223.9 756 223.3 757.4 223.3z"/><path d="M742 242.6c-0.3 0.2-0.3 1.8 0 2 0.7 0.5 2.3 1 2.6 0.6 2.4-3.1 5.6-5.4 8.3-8.1 0.5-0.5-0.2-2.2-0.5-3.6 -2.1 0.4-3.4 0.6-5 0.9C746.2 237.4 745.3 240.8 742 242.6z"/><path d="M741.7 193.7c-0.3 0.8-0.8 1.5-0.6 1.9 0.3 0.7 1 1.1 1.5 1.7 0.5-0.5 1.3-1 1.3-1.5C743.9 195.4 743 195 741.7 193.7z"/><path d="M763.9 137.4c0.4-0.2 0.7-1.9 0.3-2.5 -1-1.6-2-0.7-3 0.4C761.8 136.5 761.9 138.2 763.9 137.4z"/><path d="M764.3 200.3c0-0.5-1.1-1.3-1.6-1.3 -0.6 0-1.2 0.8-1.8 1.3 0.5 0.6 1 1.2 1.8 2.2C763.4 201.5 764.3 200.9 764.3 200.3z"/><path d="M747.9 232.6c0.7-1.4 0-2.3-2.5-3.1 -0.7 2.5-0.4 3.7 1 3.9C746.9 233.5 747.7 233 747.9 232.6z"/><path d="M762.2 251.1c1.5-0.3 2.9-0.7 4.2-0.8 1.5-0.2 0.2-2.8 2.9-2 0.3 0.9 0.6 2.2 1 3.6 1 0.2 1.9 0.4 2.7 0.5 2-1.5 0.4-2.8 0.2-4.6 1.6 0.4 3 0.8 4.4 1.1 2.2-3.2 1.9-5.8-1-8 -1.4-1.1-3.4-1-4.5 0.7 -1.9 2.9-4.6 2.9-7.4 2.3 -1.5-0.3-3.4-1.2-4 0.5 -0.6 1.5-0.2 3.4 0 5.1C760.8 250.2 761.7 250.7 762.2 251.1z"/><path d="M765.3 254c-0.9 1.4-0.9 3.4-1.3 5.4 0.8 0.1 1.4 0.2 2.1 0.2 4.1-0.1 4.6-0.8 3.9-4.8 -0.2-0.9 0.2-1.8 0.3-2.7C768.2 251.6 766.3 252.5 765.3 254z"/><path d="M770.2 251.9C770.2 251.9 770.2 251.9 770.2 251.9 770.3 252 770.3 252 770.2 251.9 770.3 252 770.3 251.9 770.2 251.9 770.3 251.9 770.3 251.9 770.2 251.9 770.2 251.9 770.2 251.9 770.2 251.9z"/><path d="M716.5 222.7c0.4 1.1 0.7 2 1.1 3 -0.5 0.4-1.1 0.8-1.7 1.2 -1.1 0.9-1.3 1.9-0.2 2.9 1 1 1.7 1.9 1.8 3.5 0.1 2.2 2.1 2.5 3.9 2.5 1.3-2.2 0.1-3.7-1.2-5.1 -2-2.3-1.9-3 1-4.4C720.2 224.3 720.1 224.3 716.5 222.7z"/><path d="M721.2 226.4l0.1-0.1C721.2 226.3 721.2 226.3 721.2 226.4 721.2 226.4 721.2 226.4 721.2 226.4z"/><path d="M749.3 147.3c0.9-1.2 0.9-2.3-0.6-2.7 -0.5-0.1-1.6 0.5-1.7 1C746.6 147.6 748.5 146.8 749.3 147.3z"/><path d="M723.8 180c-0.3 1.1-0.1 2.4 1.4 2.7 1.4 0.3 2.1-0.6 2.2-1.9 0.1-0.7 0-1.5 0.3-2.2 1.3-3 1.3-3-2.1-3.9C724.9 176.6 724.2 178.3 723.8 180z"/><path d="M724.1 227.4c-1.1-0.3-1.9-0.6-2.8-0.9C721.8 228.5 721.9 228.5 724.1 227.4z"/><path d="M721.3 226.5c0-0.1 0-0.1 0-0.2 0 0-0.1 0.1-0.1 0.1C721.2 226.4 721.3 226.4 721.3 226.5z"/><path d="M732.1 183.1c-0.2-1.2-0.4-2.5-0.6-3.7 -0.2 0-0.5 0.1-0.7 0.1 0.2 1.2 0.4 2.5 0.6 3.7C731.6 183.2 731.9 183.2 732.1 183.1z"/><path d="M764.8 243c0.6-0.7 1.5-1.3 1.7-2.1 0.1-0.5-0.9-1.2-1.8-2.4 -0.7 1.3-1.4 2.1-1.4 2.9C763.2 241.9 764.2 242.5 764.8 243z"/><path d="M744.3 138.6c-0.3-0.6-0.5-1-0.8-1.3 -0.3-0.3-0.8-0.4-1.8-0.8C742.1 138.4 742.6 139.2 744.3 138.6z"/><path d="M747 158.6c1.2 1.9 2.8 2.5 4.6 0.7 0-0.4 0-0.8-0.1-1.2 -0.5-2.2-2.9-0.6-3.6-1.8 -0.7-1.3-1.3-2.4-2.8-2.9 -2.2-0.7-5.4 1.8-5.2 4.1 0.1 1.2 0.5 2.4 0.8 3.6C744 161.4 744 161.4 747 158.6z"/><path d="M741.6 199.2c-1.1-0.9-1.8-1.8-2.4-1.8 -1.4 0.1-1.8 1.2-1.3 3C739 200 739.9 199.7 741.6 199.2z"/><path d="M732.9 229.5c0.4-1.4 0.7-2.5 1.3-4.2 -1.3 1.2-2 1.8-2.9 2.7C731.9 228.6 732.3 229 732.9 229.5z"/><path d="M725.6 173.6c3.2-1.7-0.1-4 0.7-5.8C725.8 169.7 723.3 171.3 725.6 173.6z"/><path d="M735.5 237.8c0.6 0.3 1.8 0.3 2.4-0.1 1.5-0.9 2.8-2.2 4.9-3.9 -2.9-0.9-5.1-1.6-7.6-2.4 -0.3 1.2-0.7 2.7-0.8 4.3C734.3 236.4 734.9 237.4 735.5 237.8z"/><path d="M814.6 201c1.2 0.1 2.9-2 2.6-3.2 -0.1-0.5-0.7-0.9-0.9-1.1 -1.6 0.1-3.3 2.1-3 3.3C813.4 200.4 814.1 201 814.6 201z"/><path d="M816.4 210.5c0.7 0.1 1.5-0.1 2.4-0.1 0.3-0.8 1-1.6 0.9-2.4 -0.1-1.3-0.3-3.2-1.2-3.7 -1.4-0.8-3.3-0.7-5-0.8 -0.3 0-0.8 0.6-1 1C811.6 206.9 813.7 210.3 816.4 210.5z"/><path d="M801.2 237.1c2.1 0 2.6-1.1 1.9-4.2 -1.2 0.5-2.2 0.8-3 1.3 -0.5 0.4-1.1 1.5-0.9 1.7C799.6 236.4 800.5 237.1 801.2 237.1z"/><path d="M815.8 242.7c1.6-0.3 2.8-1.6 2.6-3.6 -3.3-1.7-3.3-1.7-6.9 1.5C812.2 242.9 814.1 243.1 815.8 242.7z"/><path d="M806.4 218.5c0.4 0.9 1.6 1.5 2.5 2.3 0.6-0.8 1.6-1.5 1.6-2.3 0-0.9-1-1.7-2-3.2C807.4 216.9 806.2 218 806.4 218.5z"/><path d="M806.5 200.1c1.1 0.7 2.5 1 3.8-0.6 -0.8-0.4-1.5-0.7-2-1.1 -0.5-0.3-0.9-0.7-1.5-1.1C805.2 198.6 805.6 199.6 806.5 200.1z"/><path d="M808.8 238c0.3 0.3 0.7 0.8 1 0.8 0.3 0 0.7-0.5 0.9-0.9 0.1-0.1-0.4-0.5-0.7-0.9C809.5 237.4 809.2 237.7 808.8 238z"/><path d="M825.1 205.7c-0.6-0.1-1.1-0.2-1.7-0.3 0 0.3-0.1 0.6-0.1 0.9 0.6 0 1.2 0 1.8 0C825 206.2 825.1 205.9 825.1 205.7z"/><path d="M815.8 175.9c-0.2-0.2-0.5-0.7-0.7-0.7 -0.4 0-0.7 0.4-1.2 0.7 0.5 0.4 0.8 0.8 1 0.8C815.2 176.6 815.4 176.2 815.8 175.9z"/><path d="M823.4 221.7c0.1-2.1-1.1-2.2-2.7-2.3C820.6 221.7 821.7 222 823.4 221.7z"/><path d="M815.5 192.8c2.1-1.2 2.4-2.2-0.2-2.8C815.4 191.1 815.5 191.9 815.5 192.8z"/><path d="M820.1 216.3c1.2-1.2 1.4-2.1-1.2-3.1C819.4 214.6 819.7 215.4 820.1 216.3z"/><path d="M790 271.5h5.3c0-0.9-0.5-1.7-1.7-2C791.8 269 790.8 269.9 790 271.5z"/><path d="M775.2 112.6c0.7 0.2 1.6 0.1 3 0.1 -0.7-1-0.9-1.9-1.3-2 -0.6-0.2-1.4 0.1-2.1 0.2C775 111.5 774.9 112.5 775.2 112.6z"/><path d="M769.2 223.7c-0.3 0.5-0.3 1.5 0 2 0.8 1.7 2.2 2.6 4.2 2 0.2-3.6-0.2-4.5-2.2-4.7C770.5 222.9 769.5 223.2 769.2 223.7z"/><path d="M808.4 243.6c-2.3-1.7-4.2-3.2-6.2-4.7 -3.4 2.9-3.8 3.7-2.4 5.6C803 248.7 805.2 244.6 808.4 243.6z"/><path d="M770.4 150.1c-0.2 1.1-0.4 1.8-0.5 2.6C772.3 152.6 771.3 151.5 770.4 150.1z"/><path d="M772.3 193.7c0.8-1.5 0.4-3.2-1.1-4.2 -3.3 2.2-3.3 2.2-2 6.1C770.4 194.9 771.8 194.6 772.3 193.7z"/><path d="M780.7 199.5c2.2 0 4.4 0.1 6.4-0.1 0.5 0 1-1 1.3-1.6 0.1-0.2-0.2-1-0.3-1 -0.7 0-1.3 0.1-2 0.3 -0.3 0.1-0.6 0.4-0.7 0.5 -1.4-1.2-2.3-2.2-3.5-2.9 -1.3-0.8-2.7 0.1-2.4 1.6C779.9 197.4 780.4 198.4 780.7 199.5z"/><path d="M787 160.3c1.3 0.5 2.9-1.4 3-3.1 0-1.3-0.3-2.3-1.8-2.3 -1.9-0.1-3.3 1-3.3 3.1C785.4 158.5 786 159.9 787 160.3z"/><path d="M796 179.4c-0.3-2.1-1.3-2.1-3.1-1.2 0.8 0.6 1.2 1 1.7 1.2C795 179.6 795.5 179.4 796 179.4z"/><path d="M608.5 180.3c0.9 2 2.3 1.4 3.7 0.7 0.1-2-0.6-3.2-2.5-3C608.6 178 608 179.2 608.5 180.3z"/><path d="M769.1 218.5c0.7-0.3 1.3-0.9 2.3-1.6 -0.9-0.6-1.6-1.2-1.8-1.1 -0.6 0.4-1.1 1.1-1.5 1.8C768 217.7 768.9 218.6 769.1 218.5z"/><path d="M788.6 173.7c-0.2 1.1 0.5 2.1 1.7 2 1.1-0.1 2.3-0.5 2.2-2 -0.1-1.3-0.8-2.1-2.8-2C789.3 172.2 788.7 172.9 788.6 173.7z"/><path d="M794 225.6c3-0.1 3-0.1 4.6-2.2 -0.7-1.2-1.7-2.3-3.2-1.9C793.7 222.1 794 223.8 794 225.6z"/><path d="M644.1 220.2c-1.3 1-2.2 1.8-3.5 2.8C644.1 224.8 644.4 224.5 644.1 220.2z"/><path d="M643.2 242.9c0.9 0.8 1.6 1.7 2.6 2.3 0.5 0.3 1.3 0 2 0 0-0.8 0.2-1.8-0.2-2.3C646.3 241.4 644.8 241.6 643.2 242.9z"/><path d="M652.1 268.1c-0.2 0.4-0.5 0.7-0.5 1.1 0 0.2 0.4 0.4 0.9 0.9 0.2-0.7 0.4-1.1 0.3-1.4C652.8 268.5 652.3 268.3 652.1 268.1z"/><path d="M652.7 118.9c-0.6-0.5-1.2-1.4-1.9-1.4 -0.6-0.1-1.3 0.7-2.5 1.5 1.2 0.7 1.9 1.5 2.6 1.5C651.5 120.3 652.1 119.4 652.7 118.9z"/><path d="M646.4 205.6c0.5-1.5 1.2-2.7 1-3.7 -0.2-0.6-1.7-1-2.7-1.3 -1.2-0.3-2.4-0.2-4.1-0.4C641.5 203.6 644.2 203.7 646.4 205.6z"/><path d="M663.3 267.6c-0.4 1.5 0.6 2.6 1.9 2.6 1.5 0 2-1 2.1-2.2 0-1.1-0.3-2.3-2.5-2.4C664.4 266.1 663.5 266.7 663.3 267.6z"/><path d="M659.8 241.6c-4.3-0.6-4.8-0.2-4.1 3.7C659.6 246.1 660.1 245.7 659.8 241.6z"/><path d="M663.7 207.6c-1.5-0.1-2.8-0.1-4.4-0.2 0 1.4 0 2.6 0 3.8 1.6 0 2.8 0 4.4 0C663.7 210 663.7 209 663.7 207.6z"/><path d="M658.6 260.6c0.2-0.6-0.9-1.8-1.6-2.6 -0.7-0.7-1.7-1.1-2.7-1.7 -2 3 0.4 4.3 1.6 6.6C657 262.1 658.3 261.5 658.6 260.6z"/><path d="M664.4 215.7c0.3-0.4 0.7-0.8 0.7-0.9 -0.2-0.4-0.6-0.6-0.9-0.9 -0.2 0.3-0.5 0.6-0.4 0.9C663.7 215.1 664.1 215.3 664.4 215.7z"/><path d="M635 246.1c0.5 2.5-1.1 4.3-1.4 6.4 -0.1 0.9-0.6 1.8-0.4 2.5 0.2 0.7 1 1.6 1.6 1.7 0.6 0.1 1.7-0.7 1.9-1.3 0.6-1.9 0.8-3.9 1.2-6.4 0.5-0.3 1.4-0.7 1.6-1.2 0.4-1 0.6-2.2 0.3-3.2 -0.2-0.4-1.7-0.6-2.6-0.6C635.9 244.1 634.7 244.9 635 246.1z"/><path d="M658.5 220c0.9-1.5 1.6-2.4 1.9-3.4 0.1-0.2-1.4-1.3-2.2-1.3 -1.5-0.1-1.7 1.3-1.6 2.4C656.8 218.4 657.6 218.9 658.5 220z"/><path d="M643.6 255.7c1.9-0.1 3.9 0.4 5.1-1.6 0.8-1.3 0.9-2.6-0.7-3.6 -0.8-0.5-1.3-1.3-2.1-2 -1.8 1.4-3.7 2.9-5.7 4.5C640.7 255.3 641.8 255.8 643.6 255.7z"/><path d="M617.5 259c0.3-0.3 0.4-1.3 0.2-1.6 -1.1-1.3-1.9-0.3-3 0.5C615.5 259.3 616.3 260 617.5 259z"/><path d="M616 230.4c0-0.2 0-0.4-0.1-0.6 -0.7 0-1.4 0-2.1 0 0 0.3 0 0.6 0 0.9C614.6 230.6 615.3 230.5 616 230.4z"/><path d="M622.5 251.5c-0.2-0.3-0.3-0.7-0.6-0.9 -1-0.9-2-2.4-3.5-1.5 -1.5 0.9-0.8 2.4-0.1 3.9C619.8 252.9 621.7 254.2 622.5 251.5z"/><path d="M610.2 202.3c1.5-0.7 1-1.9 0.6-3.4 -1.9 0.3-2.6 1.2-2 2.7C608.9 202 609.9 202.5 610.2 202.3z"/><path d="M608.2 240c0 1.6 0 3.3 1.9 3.7 1.8 0.4 3.7 1.8 5.7 0.5 -0.4-1.1-0.7-2.1-1.2-3 -0.3-0.8-0.6-1.9-1.2-2.3 -1.1-0.7-2.4-1.4-3.7-1.5C608.3 237.4 608.2 238.9 608.2 240z"/><path d="M626.1 238.9c1.1-1.4 2.2-2.9 3.5-4.5 -1.5-1-2.5-2.7-4.3-0.7C623.6 235.8 623.6 236.6 626.1 238.9z"/><path d="M628.1 246.7c2 2.5 2.6 2.5 5-0.1C631.2 245.2 629.8 246.6 628.1 246.7z"/><path d="M636 201.3c0.3-0.3 0.8-0.6 0.9-1 0-0.4-0.4-0.8-0.8-1.5 -0.5 0.7-0.9 1.1-0.9 1.5C635.2 200.7 635.7 201 636 201.3z"/><path d="M629.2 190.3c-1.3-0.9-1.7-0.5-1.4 1.8C628.2 191.5 628.7 190.9 629.2 190.3z"/><path d="M634 158.1c0.4 0.2 1.6-0.1 1.8-0.5 0.7-1.4 0.2-2.4-1.6-2.5C633.5 156 632.4 157 634 158.1z"/><path d="M637.5 225.8c0.4-0.1 0.7-0.5 1-0.7 -0.3-0.3-0.5-0.6-0.8-1 -0.4 0.3-0.7 0.6-1.2 1C637 225.5 637.3 225.9 637.5 225.8z"/><path d="M632.2 201.6c-0.2-0.7-1-1.1-1.6-1.7 -0.4 0.5-1.3 1-1.2 1.5 0.1 0.7 0.7 1.3 1.4 2.3C631.6 202.7 632.4 202 632.2 201.6z"/><path d="M716.2 177.7c1.5 0.1 2-0.9 2-2.2 0.1-1.3-0.4-2.3-1.9-2.3 -1.5 0-2.3 0.9-2.4 2.4C714 177.1 715 177.6 716.2 177.7z"/><path d="M703 171.9c1.7-0.1 3-1.8 2.9-3.8 -0.1-1.4-1.3-2.7-2.7-2.7 -1.6 0-3 1.7-2.9 3.4C700.4 170.6 701.6 172 703 171.9z"/><path d="M707.7 104.1c-0.3 0.1-0.6 0.1-0.9 0.2 0.3 0.8 0.5 1.6 0.9 2.7C707.7 105.9 707.7 105 707.7 104.1z"/><path d="M705.8 231.2c-1.7 1-3.1 1.8-4.5 2.6 -0.7 2.8-0.5 5.4 0.5 7.9 0.1 0.2 0 0.6 0.2 0.7 0.7 0.6 1.8 1.8 2.2 1.6 2.4-1.1 5.4 1.4 7.4-1.3 0.1-0.2 0.3-0.5 0.3-0.7 -0.6-2.7-0.8-5.5-1.9-7.9C709.4 232.7 707.2 232.1 705.8 231.2z"/><path d="M700.1 231.5c0.5 0.1 1.3-0.8 2-1.2 -0.1-0.3-0.2-0.6-0.3-0.9 -0.8-0.2-1.6-0.3-2.3-0.5C698.7 230.3 698.9 231.3 700.1 231.5z"/><path d="M706.5 215.2c1.1 1 1.7 1.6 2.5 2.3C709.7 214.7 709.7 214.7 706.5 215.2z"/><path d="M704.9 224.4c0 0.5 0.4 1 0.8 1.8 0.6-0.6 1.1-1 1.1-1.3 -0.1-0.5-0.5-0.9-0.9-1.3C705.8 223.5 704.9 224.1 704.9 224.4z"/><path d="M703.7 217.1c-2 0.2-2.7 1.4-2.4 3.6C704.6 221 704.8 220.7 703.7 217.1z"/><path d="M712.4 219.9c0 0-0.6-0.7-0.6-0.7 -0.5 0.4-1 0.8-1.5 1.2 0.3 0.3 0.5 0.6 0.8 0.8C711.6 220.8 712 220.4 712.4 219.9z"/><path d="M674.6 235.2c0.9-1 0.6-1.8-0.3-2.5 -1.3-1.1-1.8-0.9-3.5 1.5C672.7 236.2 673.4 236.4 674.6 235.2z"/><path d="M721.4 186.4c0.1-1.1 0.2-2.1 0.4-3.6C719.1 184.5 719.1 184.5 721.4 186.4z"/><path d="M714.6 254.2c1.1-0.9 1.9-1.7 2.8-2.2 0.7-0.4 1.6-0.7 2.4-0.7 1 0 2.1 0.9 2.8 0.6 2.1-0.9 4-2.2 6.2-3.5 -2-1.9-3.8-3.4-5.5-5 -1.1-1.1-2.1-1.2-3.2 0.1 -1.6 1.9-3.2 3.8-4.9 5.6 -0.4 0.4-0.8 0.9-1.2 1.2C712 252 712 252.1 714.6 254.2z"/><path d="M724.4 128.3c0.6-0.2 1-1 1.5-1.6 -0.5-0.4-1.1-1.1-1.6-1.1 -0.6 0-1.1 0.7-1.9 1.4C723.4 127.6 724.1 128.5 724.4 128.3z"/><path d="M719.5 206.5c0.3-0.6 0.6-1.2 0.9-1.8 -0.3-0.2-0.6-0.3-0.9-0.5 -0.3 0.6-0.6 1.2-0.9 1.8C718.6 206.1 719.2 206.4 719.5 206.5z"/><path d="M680 117c-3 0.9-3.1 1.3-0.9 4C680.5 119.1 680.5 119.1 680 117z"/><path d="M679.3 248.4c1.8-1 3.1-1.7 4.6-2.5 0.3 0.2 0.7 0.5 1.1 0.8 0.8 0.7 1.8 0.7 2.2-0.3 0.2-0.6-0.2-1.8-0.8-2.2 -1.7-1.2-3.5-2.2-5.5-3.4C680 243.1 677.9 245 679.3 248.4z"/><path d="M675.6 221.4c-1.4 0.1-2.6 0.5-2.6 2.2 0 1.5 1.3 2.9 2.5 2.8 1.4-0.1 2.8-1.8 2.6-3.3C677.9 221.7 676.8 221.4 675.6 221.4z"/><path d="M674.8 144.8c0.1-0.2-0.9-1.4-1.3-1.3 -0.7 0.2-1.2 0.9-2.1 1.6 0.8 0.7 1.6 1.6 1.8 1.5C673.9 146.1 674.5 145.5 674.8 144.8z"/><path d="M674.6 195.4c0.7-0.1 1.6-0.8 1.7-1.4 0.1-0.6-0.7-1.4-1.4-2.7 -0.9 1.3-1.6 2-1.7 2.9C673.1 194.5 674.2 195.5 674.6 195.4z"/><path d="M699.5 203.6c0.2-2 0.5-3.8 0.7-6 -1.3 0.4-2.2 0.7-3.6 1.1C698.5 200 696.1 202.9 699.5 203.6z"/><path d="M700.9 181.4c-0.3-0.3-0.5-0.9-0.9-1 -0.3-0.1-0.8 0.3-1.6 0.7 0.7 0.5 1 1 1.3 1C700.1 182 700.5 181.6 700.9 181.4z"/><path d="M691 222c1.4 0.1 1.7-1.3 0.7-4.6 -2.9 0.5-4.2 1.7-3.4 3C688.7 221.3 690 221.9 691 222z"/><path d="M699.6 247.9c0.4-0.7 0.7-1.2 1-1.7 -2.8-3.1-3.4-3.1-5.6 0.4C696.6 247 698.1 247.4 699.6 247.9z"/><path d="M695.9 171c-0.2-0.1-0.5-0.2-0.7-0.3 -0.4 0.8-0.8 1.7-1.2 2.5 0.3 0.1 0.6 0.3 0.9 0.4C695.2 172.7 695.6 171.8 695.9 171z"/><path d="M691.2 203.6c0.6-1.4 1.2-2.9 1.9-4.5 -2-0.6-2.7 0.4-3.1 1.6C689.6 201.9 689.2 203 691.2 203.6z"/><rect x="282.5" y="271.5" width="706.8" height="0.7"/><path d="M282.3 291.5h18.8c21.5 0 28.8 9 28.8 24.8 0 14.9-9 23.6-27.8 23.6h-19.8V291.5zM289.3 334.4h13.1c15.9 0 20.2-9.2 20.2-18.7 0-12.5-5.6-18.7-21.8-18.7h-11.5V334.4z"/><path d="M342.2 291.5h36.2v5.5h-29.2v15.3h27.3v5.5h-27.3v16.6h30v5.5h-37V291.5z"/><path d="M425.7 304.4c-0.7-6.8-7.6-8.6-15.4-8.6 -6.9 0-12.7 3.4-12.7 8.8 0 2.6 1.6 5.3 7.6 6.3l18 3.1c7.8 1.3 11.5 5.8 11.5 11.8 0 9.6-8.6 15.5-23 15.5 -13.7 0-21.7-5.1-22.6-15.7h7.4c0.2 6.5 6.4 10.3 15.6 10.3 10 0 15.6-4 15.6-9.2 0-13.4-37.1-1.3-37.1-21.5 0-9.3 7.9-14.7 21.1-14.7 10 0 20.7 3 21.4 14.1H425.7z"/><path d="M445.6 291.5h7v48.4h-7V291.5z"/><path d="M494 314.7h22.4v21.8c-8.1 3.3-15.7 4.7-23.3 4.7 -19.6 0-28.5-11.9-28.5-25.5 0-12.1 7.6-25.5 27.6-25.5 13.6 0 22.2 4 23.8 13.8h-7.4c-1.7-6.2-7.9-8.3-15.7-8.3 -13.6 0-20.9 8.9-20.9 19.9 0 10.7 7.4 20 21.4 20 5.3 0 11.4-1.2 16.1-3.1v-12.5H494V314.7z"/><path d="M569.3 291.5h7v48.4h-9.5l-29.6-41.3H537v41.3h-7v-48.4h9.5l29.6 41.3h0.1V291.5z"/><path d="M608.5 291.5h7.7l19 42.5 18.9-42.5h7.4l-22.2 48.4h-8.5L608.5 291.5z"/><path d="M692.8 290.3c20.3 0 27.2 13.9 27.2 25.5s-6.9 25.5-27.2 25.5 -27.2-13.9-27.2-25.5S672.5 290.3 692.8 290.3zM692.8 335.7c11.7 0 19.8-8 19.8-20s-8.1-20-19.8-20 -19.8 8-19.8 20S681.1 335.7 692.8 335.7z"/><path d="M745.1 339.9v-20.2l-23-28.2h9l17.5 22.4 17.5-22.4h9l-23 28.2v20.2H745.1z"/><path d="M813.7 327.3H784l-6.2 12.6H770l24.9-48.4h8.2l24.9 48.4h-8L813.7 327.3zM811 321.8l-12.1-24.4 -12.1 24.4H811z"/><path d="M862 314.7h22.4v21.8c-8.1 3.3-15.7 4.7-23.3 4.7 -19.6 0-28.5-11.9-28.5-25.5 0-12.1 7.6-25.5 27.6-25.5 13.6 0 22.2 4 23.8 13.8h-7.4c-1.7-6.2-7.9-8.3-15.7-8.3 -13.6 0-20.9 8.9-20.9 19.9 0 10.7 7.4 20 21.4 20 5.3 0 11.4-1.2 16.1-3.1v-12.5H862V314.7z"/><path d="M898.7 291.5h36.2v5.5h-29.2v15.3H933v5.5h-27.3v16.6h30v5.5h-37V291.5z"/><path d="M954.4 339.9h-7v-48.4h23.8c14.9 0 18.3 5 18.3 12.8 0 5.9-4.3 10.3-11.1 11.3v0.1c6.5 0.8 8.2 3.4 9.5 11.6 0.8 5.2 1.4 9.4 2.7 12.6h-7.4c-1.3-3.4-2-10.2-3.3-15.6 -0.8-3.5-3.1-6-12.2-6h-13.5V339.9zM954.4 312.9h15.9c7.4 0 11.9-1.7 11.9-7.9 0-5.9-3.2-7.9-11.7-7.9h-16V312.9z"/><path d="M843.9 206l-1.2-13.2c-0.5-3-1.3-5.9-1.7-8.8 -0.4-3.7-0.5-7.4-0.6-11.1 -0.1-1.9-0.2-3.9 0-5.8l-1.8-20.3c-0.5-1.7-0.4-3.6-1-5.2 -0.8-2.2-0.4-4.4-0.1-6.5 0 0 0 0 0 0l-4.1-46.4c-0.2-0.2-0.4-0.5-0.8-0.6 0 0 0-0.4 0.1-0.5 0.2-0.2 0.4-0.4 0.5-0.6l-1.9-22c0-0.1-0.1-0.2-0.1-0.2 -0.3-0.9-0.7-2-0.6-2.9 0.1-0.7 0.2-1.4 0.2-2l-1.2-13.1c-0.2-0.4-0.4-0.8-0.6-1.2 -0.4-0.7-1.1-1.4-1-2.1 0.1-1.2-0.5-1.7-1.3-2.3 -0.3-0.3-0.4-0.8-0.7-1.1 -1.5-1.6-2.8-3.4-4.5-4.7 -0.9-0.7-1.9-1.7-3.5-1.4 -0.7 0.1-1.5-0.8-2.3-1.1 -0.5-0.2-1-0.3-1.6-0.3 -0.8-0.1-1.7 0-2.6-0.1 -1.3-0.2-2.6-0.5-3.9-0.7 -1.2-0.1-2.4 0.1-3.1-0.6 -1.3 0.2-2.5 0.5-4.2 0.8 -1.4 1.1-2 1.3-2.9 0.2 -0.4 0.4-1.2 1.2-1.3 1.1 -1-0.7-0.9 0.2-1.3 0.7 -0.9 1.3-2.9 2-4.1 1.4 0 1.5-1.1 1.9-2.1 2.4 -0.9 0.4-1.8 0.9-2.4 1.6 -0.8 1.1-1.4 2.3-2 3.6 -0.3 0.5-0.7 1.4-0.5 1.6 0.9 1.1-0.2 1.3-0.7 1.8 0.9 1.2-0.1 4.8-1.5 5.8 0 0.5 0.3 1.2 0.1 1.3 -1.5 1 0.2 2.9-1.2 4.1 -0.5 0.4-0.2 1.8-0.4 2.7 -0.2 1.2 0.4 2.3 0.1 3.5 -0.4 1.5-0.4 3.1-0.5 4.6 0 0.8 0.1 1.6 0.1 2.4 -0.4 1.1-0.8 2.2-1 3.4 -0.2 1.6-0.2 3.2-0.3 4.8 -0.2 2.3-0.5 4.5-0.6 6.7 0 1.6 0.4 3.2-0.4 4.7 -0.2 0.3-0.2 1 0 1.3 0.8 0.9 0.1 1.6-0.1 2.4 -0.2 1.3-0.4 2.6-0.5 4 -0.3 2.8-0.8 5.6-0.9 8.4 -0.1 2-0.1 4.1-0.5 6.1 -0.7 3.3-1.3 6.6-1.8 10 -0.2 1.1 0 2.2-0.1 3.3 -0.1 2.8-0.1 5.7-0.3 8.5 -0.2 4-0.4 7.9-0.7 11.9 0 0.3-0.5 0.8-0.9 0.9 -0.8 0.2-1.7 0.3-2.6 0.3 -3.1 0.1-6.2 0.2-9.5 0.4 0 1.3-0.2 2.5 0 3.7 0.2 1.2 0.8 2.4 1.2 3.7 -1.4 0.6-2.8 1.3-4.4 2 0.5 0.3 0.9 0.6 1 0.6 0.9-0.5 1.1 0.1 1.3 0.7 0.2 0.4 0.3 1 0.6 1.3 0.7 0.6 1.5 1.6 2.3 1.6 3 0.1 5.9-0.1 8.9-0.2 0.8 0 1.2 0.3 1.1 1.1 -0.1 1.3-0.2 2.5-0.3 3.8 -0.3 6-0.1 12-1.7 17.9 -0.6 2.3-1 4.7-1.2 7 -0.4 3.7-0.7 7.5-0.9 11.3 -0.1 1.8 0 3.7 0 5.5 0.1 2.3 0.9 3 3.2 2.6 0.4-0.1 1.2 0.1 1.3 0.3 0.6 1.2 1.6 0.8 2.5 0.7 0.5-0.1 1-0.1 1.5 0 1.4 0.2 2.9-0.6 3.5-1.7 0.7 0.1 1.5 0.3 2.1 0.2 1.1-0.3 2.5-0.2 2.7-1.9 0.2-1.6 0.4-3.3 0.5-4.9 0.2-2.3 0.2-4.5 0.4-6.8 0.1-1.4 0.5-2.7 0.5-4 0-2-0.2-4-0.2-6 -0.1-2.4-0.1-4.8-0.1-7.3 0-1.7 0.3-3.4 0.1-5 -0.4-2.8 0-5.5 0.4-8.2 0.1-0.9 0.3-1.9 0.3-2.8 0-0.8 0.9-2.5 1.6-2.5 1.2-0.1 2.5-0.1 3.8-0.2 0.9-0.1 1.8-0.4 2.7-0.5 0.4-0.1 0.8 0.3 1.3 0.4 2.1 0.2 4.3 0.2 6.5 0.3 2.1 0.1 4.2 0.2 6.3 0.1 1.7-0.1 3.5-0.3 5.5-0.6 0 0 0.5 0.5 0.7 0.4 1.7-0.6 3.2 0.3 4.8 0.2 1-0.1 1.1 0.4 1.2 1 0.2 2.3 0.4 4.5 0.5 6.8 0.2 3.2 0.2 6.4 0.4 9.7 0.2 2.5 0.7 5.1 1 7.6 0.4 3.5 0.7 7 1.1 10.4 0.5 4.5 1.2 9 1.8 13.5 0.3 2 1.7 3.1 3.6 2.4 1.4-0.5 2.8-1 4.2-0.1 1.7 1 3.5 0.3 5.2 0.2 1.8 0 3.5-0.9 5.1-1.4 0.1-1.3 0.2-2.5 0.1-3.6C844 206.6 843.9 206.3 843.9 206zM820.1 129.7c-0.1 1.3 0.1 2.5 0.2 3.8 0 1.1 0 2.2 0 3.3 0 2.3 0.1 4.6 0.2 7 0.1 1.2-0.4 1.9-1.6 1.9 -1.2 0.1-2.3 0.2-3.5 0.2 -2.7 0.1-5.4 0.3-8.1 0.4 -0.9 0-1.8-0.3-2.7-0.3 -1.9 0.1-3.9 0.4-5.8 0.4 -2.9 0-5.8-0.2-8.7-0.4 -0.3 0-0.7-0.5-0.7-0.8 -0.1-0.5 0-1.1 0-1.6 0.1 0 0.2 0 0.3 0 0.1-3.3 0.3-6.6 0.3-9.9 0-2.4-0.5-4.8-0.4-7.2 0.1-2.9 0.5-5.8 0.7-8.7 0.2-2.7 0.4-5.4 0.6-8.1 0.4-4.1 1-8.2 1.3-12.3 0.2-2.9 0-5.8 0.1-8.8 0-1.8 0.2-3.6 0.5-5.4 0.4-2.2 1.1-4.3 1.3-6.5 0.2-2.3 0-4.7 0.1-7 0.1-5.3 0.6-10.5 3.1-15.4 1.4-2.7 3.3-4.9 5.8-6.5 1.8-1.2 6.6-0.2 8 1.2 1.7 1.7 2.6 3.6 2.9 5.9 0.5 3.9 1.2 7.7 1.8 11.5 0.2 1.3 0.2 2.7 0.4 4 0.6 4.9 1.3 9.8 1.8 14.8 0.3 3 0 6 0.2 8.9 0.1 2.4 0.6 4.7 0.9 7.1 0.4 3.2 0.9 6.4 1.4 9.6 0.3 2 0.6 4.1 0.6 6.1C820.8 121.2 820.3 125.5 820.1 129.7z"/></svg>