<?xml version="1.0" encoding="utf-8"?>
<!-- Generator: Adobe Illustrator 21.0.2, SVG Export Plug-In . SVG Version: 6.00 Build 0)  -->
<svg version="1.1" id="Layer_1" xmlns="http://www.w3.org/2000/svg" xmlns:xlink="http://www.w3.org/1999/xlink" x="0px" y="0px"
	 viewBox="0 0 304 647" style="enable-background:new 0 0 304 647;" xml:space="preserve">
<style type="text/css">
	.st0{fill:url(#SVGID_1_);}
	.st1{display:none;clip-path:url(#SVGID_3_);fill:#ABBACD;}
	.st2{clip-path:url(#SVGID_3_);fill:#161F26;}
	.st3{clip-path:url(#SVGID_3_);fill:#596066;}
	.st4{clip-path:url(#SVGID_3_);fill:url(#SVGID_4_);}
	.st5{clip-path:url(#SVGID_3_);}
	.st6{fill:#161F26;}
	.st7{display:none;clip-path:url(#SVGID_3_);fill:#161F26;}
	.st8{clip-path:url(#SVGID_3_);fill:#461211;}
	.st9{display:none;clip-path:url(#SVGID_6_);fill:#ABBACD;}
	.st10{clip-path:url(#SVGID_6_);fill:#596066;}
	.st11{clip-path:url(#SVGID_6_);}
	.st12{clip-path:url(#SVGID_6_);fill:#161F26;}
	.st13{display:none;clip-path:url(#SVGID_8_);fill:#ABBACD;}
	.st14{clip-path:url(#SVGID_8_);fill:#596066;}
	.st15{clip-path:url(#SVGID_8_);fill:#161F26;}
	.st16{fill:#596066;}
	.st17{fill:#461211;}
</style>
<linearGradient id="SVGID_1_" gradientUnits="userSpaceOnUse" x1="152.239" y1="30.6166" x2="152.239" y2="644.5398">
	<stop  offset="0" style="stop-color:#ABBACD"/>
	<stop  offset="1" style="stop-color:#9A90AC"/>
</linearGradient>
<path class="st0" d="M303,298c-3-7-5-25-5-30s-2-44-2-52s-1-33-2-41s-2-28-3-38s1-16,0-21s-4-6-4-10s3-5-3-5s-8-1-16-1s-19,0-11-2
	s17-2,19-2s6-1,7-4s4,0,3-14s-2-26-2-34s0-16-4-18s-9-7-11-9s-3-4-16-4s-41,3-48,4s-15,1-18,1c-13-11-40-31-82-4c-6,1-12,2-8,6
	c2,2,0,3-3,7s-7,12-6,14s1,5,1,6s0,1-2,0s-2-1-5-1s-9,0-13,2c-3-1-5-2-13,2c-3,0-10,2-15,12c-3,3-9,10-11,12s0,7,0,8s-1,4-2,5
	c-1-2-1-4-1-6s-1-2-2-1s-2,3-2,6s-1,4-3,8s-4,6-6,13S3,123,2,127s-3,12,0,22s5,15,10,18s3,3,8,5s11,4,15,4s5,1,10,3s14,2,18,4
	s6,1,10,3s4,0,11,2s10,7,10,14s2,12,1,14s-1,4,0,8s-1,6-3,9s-7,10-8,14s-3,14-4,16s-1,5-4,6s-8,5-9,8s-4,4-4,7s0,5,1,5s1,2,0,4
	s0,2,2,2s4,0,6,1s3,2,5,2s6-5,7-7s5-12,5-15s0-4,3-8s4-7,8-9s9-7,11-2s1,9,3,12s4,7,4,10s0,6-1,8c-0.8,1.7-3.1,3.4-3.8,5.1
	c-2.2,2.8,1,3.5-1.2,6c-2.4,2.7-6.5,10.2-8,14c-1.5,3.8-5.6,4.3-4.2,8.5s-5.2,8.4-7.5,10.1s-5.5,3.3-5.9,6.2c-0.4,3,1.2,6.2-2,12.6
	s-2.7,6.9-5.8,7.5s-5.5,3.3-8,7c-2.5,3.7-3.8,5.5-8.3,8.9s-4.8,12.5-4.9,20.5c-0.1,8.1,2.7,9.5,5.3,12.9s-3.2,8.6-4.8,12.5
	c-1.5,3.8-3.6,18.7-3.7,26.7c-0.1,8.1-2.7,4.7-4.2,1.4c-1.6-3.2-11.6-40-11-43.9c0.6-4-0.6-3.1-1.6-3.2c-1-0.1-1.7-2.3-3.3-5.5
	c-1.6-3.2-1.3-5.2-2.1-6.4s-3.1,0.6-5.2,1.3c-2.1,0.7-0.6,4,0.2,6.1c0.7,2.1,1.6,3.2-0.1,8.1s-0.7,5,1.2,6.2
	c1.8,1.3,7.4,26.3,8,29.4s2.1,6.4,0.7,9.2c-1.4,2.8-2.3,1.7-2.9,6.7s-0.6,4,1,7.2c1.6,3.2,2.3,5.4,1.6,10.3
	c-0.7,5-5.7,40.6-5.7,40.6s10.9,8.6,13.6,11c2.7,2.4,3.5,3.5,2.1,6.4c-1.4,2.8-7.9,13-10.3,15.7c-2.4,2.7-0.1,1-0.7,5
	c-0.6,4-10.3,8.7-12.4,9.4c-2.1,0.7-3.1,0.6-4.4,2.4c-1.3,1.8-2.7,4.7-5.8,5.3c-3.1,0.6-6.3,9.2-7.7,19.1
	c-1.4,9.9,3.4,11.6,9.1,14.4s16,1.2,23.2,0.2c7.2-1,17-5.7,22.9-4.9c5.9,0.8,11,0.5,16.3-0.8c5.2-1.3,6.4-2.1,8.2-7.9
	c1.8-5.8,2.2-8.8,6.3-16.3s8.8-27,11.8-40.8c2.9-13.7,4.6-18.5,8.3-23.1s2.1-19.8,5.9-27.5c1.4-2.8,11.1-7.5,16.1-21
	c2.3-6.4,12.7-27.9,20.8-46.3c1.3,3.8,2.2,7.3,2.3,10.3c0.4,13.1,5.6,42,6.7,46.9c1.2,4.9-0.6,6.3,4.3,9.3c4.8,3,3.3,5.4,6.9,11.7
	c3.6,6.3,5.9,11.9,7.1,16.8c1.2,4.9,2.6,6.6,3.3,9.5s2.1,4.6,5.2,9c3.1,4.4,7.2,8.6,9.8,11c2.6,2.5-1,4.4-1,4.4l3.6,6.3
	c3.2,0.3,5.1,3.9,7.2,8.6s2.1,4.6,5.5,5.9c3.4,1.2,2.6,2.5,3.8,7.3c1.2,4.9,1.2,4.9-1.5,6.5c-2.7,1.7-1,4.4-0.1,8.2
	c0.9,3.9,4.8,7.1,6.2,12.9c1.4,5.8,1.9,3.7,6.5,5.6c4.6,2,0.7,7-1.1,8.5c-1.7,1.4-2.7,5.8-0.3,7.3s4.3,5.1,2.8,7.5
	c-1.5,2.4,0.2,5.1,2.3,13.8c2.1,8.8,5.5,5.9,10.6,5.7c3.2-0.1,5.6-0.1,9.2-0.8c0.4,0.3,1.1,0.4,1.9,0.2c2.9-0.7,6.8-1.6,10.5-3.5
	s23.7-17,26.2-19.6c2.5-2.6,2.5-2.6,1.8-5.6s-0.4-6.1-1.3-10c-0.9-3.9-2.1-8.8-3.5-14.6c-1.4-5.8-3.7-15.6-7.5-22.9
	s-2.8-7.5-2.8-11.7s0.5-2.2-3.6-6.3c-4.1-4.2-1.6-10.9-0.1-13.3s4.4-3.1,1.8-5.6c-2.6-2.5-8.6-10.3-9.3-13.2
	c-0.7-2.9-7.6-14.6-9.5-18.3c-1.9-3.7-1.6-6.8-3.1-8.5c-1.4-1.7-5-8.1-5.4-14.1c-0.4-6.1-1.6-6.8-4-12.4s-5.1-3.9-2.8-7.5
	c2.2-3.6-0.7-7-1.6-10.9s1-4.4,2.7-5.8c1.7-1.4,2.5-2.6,3.5-7c1-4.4-0.8-16.3,0.7-18.7s2-4.6,1.3-7.5c-0.7-2.9-2.2-18-0.5-23.5
	c1.2-3.7,0.8-10.1-0.2-17.7c0-5.3,0-4.6,1-10.4c1-6,0-9,0-14s0-5,1-10s4-7,12-8s18-3,23-5s11-7,14-8S306,305,303,298z M92,110
	c-1,1-1,4-1,8s-2,2-4,2s-5,1-8,1s-4,1-6,2s-3,1-5,2s-4-1-6-2s0-3,1-4s2-2,2-4s1-1,2-2s2-4,2-6s0-2,1-3s4-2,5-5s6-10,8-12
	s3.4-1.1,4,3c0.4,2.8,2.9,11.1,5,15C93.5,107.8,93,109,92,110z"/>
<g id="torso_1_">
	<defs>
		<path id="SVGID_2_" d="M303,298c-3-7-5-25-5-30s-2-44-2-52s-1-33-2-41s-2-28-3-38s1-16,0-21s-4-6-4-10s3-5-3-5s-8-1-16-1
			s-19,0-11-2s17-2,19-2s6-1,7-4s4,0,3-14s-2-26-2-34s0-16-4-18s-9-7-11-9s-3-4-16-4s-41,3-48,4s-15,1-18,1c-13-11-40-31-82-4
			c-6,1-12,2-8,6c2,2,0,3-3,7s-7,12-6,14s1,5,1,6s0,1-2,0s-2-1-5-1s-9,0-13,2c-3-1-5-2-13,2c-3,0-10,2-15,12c-3,3-9,10-11,12
			s0,7,0,8s-1,4-2,5c-1-2-1-4-1-6s-1-2-2-1s-2,3-2,6s-1,4-3,8s-4,6-6,13S3,123,2,127s-3,12,0,22s5,15,10,18s3,3,8,5s11,4,15,4
			s5,1,10,3s14,2,18,4s6,1,10,3s4,0,11,2s10,7,10,14s2,12,1,14s-1,4,0,8s-1,6-3,9s-7,10-8,14s-3,14-4,16s-1,5-4,6s-8,5-9,8s-4,4-4,7
			s0,5,1,5s1,2,0,4s0,2,2,2s4,0,6,1s3,2,5,2s6-5,7-7s5-12,5-15s0-4,3-8s4-7,8-9s9-7,11-2s1,9,3,12s4,7,4,10s0,6-1,8s-4,4-4,6
			s3,4,1,9s-7,14-7,18s-3,3,0,9s26,45,34,49s20,4,36,6s65,1,68-4s3-12,3-12c0-6,0-5,1-11s0-9,0-14s0-5,1-10s4-7,12-8s18-3,23-5
			s11-7,14-8S306,305,303,298z M92,110c-1,1-1,4-1,8s-2,2-4,2s-5,1-8,1s-4,1-6,2s-3,1-5,2s-4-1-6-2s0-3,1-4s2-2,2-4s1-1,2-2s2-4,2-6
			s0-2,1-3s4-2,5-5s6-10,8-12s3.4-1.1,4,3c0.4,2.8,2.9,11.1,5,15C93.5,107.8,93,109,92,110z"/>
	</defs>
	<clipPath id="SVGID_3_">
		<use xlink:href="#SVGID_2_"  style="overflow:visible;"/>
	</clipPath>
	<path class="st1" d="M303,298c-3-7-5-25-5-30s-2-44-2-52s-1-33-2-41s-2-28-3-38s1-16,0-21s-4-6-4-10s3-5-3-5s-8-1-16-1s-19,0-11-2
		s17-2,19-2s6-1,7-4s4,0,3-14s-2-26-2-34s0-16-4-18s-9-7-11-9s-3-4-16-4s-41,3-48,4s-15,1-18,1c-13-11-40-31-82-4c-6,1-12,2-8,6
		c2,2,0,3-3,7s-7,12-6,14s1,5,1,6s0,1-2,0s-2-1-5-1s-9,0-13,2c-3-1-5-2-13,2c-3,0-10,2-15,12c-3,3-9,10-11,12s0,7,0,8s-1,4-2,5
		c-1-2-1-4-1-6s-1-2-2-1s-2,3-2,6s-1,4-3,8s-4,6-6,13S3,123,2,127s-3,12,0,22s5,15,10,18s3,3,8,5s11,4,15,4s5,1,10,3s14,2,18,4
		s6,1,10,3s4,0,11,2s10,7,10,14s2,12,1,14s-1,4,0,8s-1,6-3,9s-7,10-8,14s-3,14-4,16s-1,5-4,6s-8,5-9,8s-4,4-4,7s0,5,1,5s1,2,0,4
		s0,2,2,2s4,0,6,1s3,2,5,2s6-5,7-7s5-12,5-15s0-4,3-8s4-7,8-9s9-7,11-2s1,9,3,12s4,7,4,10s0,6-1,8s-4,4-4,6s3,4,1,9s-7,14-7,18
		s-3,3,0,9s26,45,34,49s20,4,36,6s65,1,68-4s3-12,3-12c0-6,0-5,1-11s0-9,0-14s0-5,1-10s4-7,12-8s18-3,23-5s11-7,14-8
		S306,305,303,298z"/>
	<path class="st2" d="M171,60c-7.2-9.9-22.5-31.8-46.2-32.9C101,26,92,41,90,62s14,49,17,53s8,11,13,13s14,7,37-11S179,71,171,60z"
		/>
	<path class="st2" d="M88,133c-3.8,5.1-11,8-14,9s-3,2-8,0s-7-3-10-3s-8,21-11,24s-4,9-12,9s-12-1-13,2s5,3,13,4s9,7,13,5s10-6,11-9
		s-1-5,6-1s7,1,12,6s6,0,9,4s7,7,8,5s2-3,3,3s2,19,3,22s4,3,2,5s-1,0-3,3s-1,3-4,7s-6,23-16,32s-21,21-21,30s4,12,9,12s20-1,21-2
		s7-7,2-6s-15,3-14-1s5-7,6-11s1-8,5-17s8-11,8-16s4-11,4-12s-2-9,0-6s5,7,4,3s-4-7-1-6s6,1,6-1s-2-3,0-3s3,0,3-2s-2-2-2-6s4,1,5-2
		s1-7-2-8s-4-2-5-8s-4-13-6-17s-6-9,0-11s12-3,14-3s4-2,8-2s9,1,11-1s2-5,6-4s5,4,7,2s5-4,7-5s3-3-2-2s-6,1-8-3s-4-8-4-10s-7-2-6,1
		s3,6,3,8s1,5-4,4s-5-1-9-3s-5-1-7-5s-3-9-3-10s-4-3,1-1s23,1,32-5c4-2,6-2,9-2s6-2,7-4s1-4,4-8s7-10,9-9s2-1,2-4s2-8,2-13
		s-1-24-3-16s-4,17-3,21s3,6,0,10s-21,27-41,28s-27-8-29-13s-6-6-6-2s-4,2,0,8s3,7,6,7s1,1,2,4s8,11,2,9s-9-3-10-5s-2-5-3-2
		s-3,3-4,2s-3-2-3,1s-1,10-3,6s-4-6-1-8s8-2,8-5S91,129,88,133z"/>
	<path class="st3" d="M88,297c-2-12,0-23,4-29s5-13,5-18s-1-9,6-13s9-6,9-12s0-8,6-8s16-1,19,2s4,4,8,4s9,0-2,6s-12,11-5,16
		s7,7,18,12s18,8,23,10s-17-3-28-4s-15-5-16,3s0,11,9,12s14,6,21,7s4,4,12,1s8-1,8-1c-9,9-11,9-14,20s-5,10-26,3s-26-13-37-14
		S88,297,88,297z"/>
	<path class="st3" d="M13,172c4-1,8-2,8-2c-7-4-14-9-16-19s-2-14-1-20s4-11,6-13s2-4,5,0s3,7,8,10s6,6,7,7s3,4,0,3s-5,3-3,6s0,4,0,7
		s-2,5,1,5s6,1,5-4s1-3,2-6s1-3,4-3s4,2,7,0s3-3,3-6s-2-2,2-5s7-4,7-5s-1-2-3-2s-1-2-4,1s-7,8-19,1s-12-9-13-16s1-16,2-24l-27,38
		l-6,26l18,22L13,172z"/>
	<path class="st3" d="M164,158c7.8-5.2,12-10,15-10s4-3,5-6s5-9,0-6s-11,6-13,6s-2-4,6-7s8,0,13-7s8-11,12-11s1,6,4,3s3-3,5-1
		s-2,5,2,4s12-4,1,2s-3,4,0,3s9-2,8-3s-3-1,0-2s3,2,6,2s4,1,4,1s-2,1-3,2s-3,4,2,3s2,2,5,2s11,0,15,3s5,5,7,3s3-6,6-6s3,2,2,6
		s-2,12-1,13s-1-1-3-1s-4-3-2,2s4,8,4,10s2,4-3,3s-6-3-9-3s-5-4-2-4s7-4,3-4s-9,1-6-1s3-2-2-3s1-4-7-4s-6,3-11,5s-12,0-12-1
		s-2-1,3-2s13-3,9-4s-5.3-3.7-13.2-3.4C206,142,202,143,201,143s-1-1,1-3s3-5-2,0s-6,6-7,8s-4,6-4,1s3-6,4-8s2-5-3,1s-7,7-7,10
		s-1,3-3,1s-2-3-7,1s-8,6-8,6S161,160,164,158z"/>
	<path class="st3" d="M192,73c-2-6-6-17-9-20s-4-6-5-4s-1,2-6-3s-12-10-14-11s-3-5-1-5s-2-5-6-7s-3-2,0-3s0-2,4-7
		s12.3-10.3,0.7-10.7C144,2,133,6,129,13l-13-1c4-3,14.3-8,7.7-6.5S112,5,112,5l23-9l32,4l16,9c0,0-1,3,4,9s11,10,13,15
		c-5-3-8-8-17-7s-9,3-4,2s10,0,12,2s8,6,8,12s0,7-2,7s-3-1-2,2s4,5,2,7s-6,2-5,6s1,4,2,7S194,79,192,73z"/>
	<path class="st3" d="M233,267l10-38c4,0,4-3,0-3s-2-9,1-10s7-4,4-5s-4,1-3-4s9-8-2-8s-13,2-19-1c-2-1-2,0-4,1s-4-1,0-3s7-3,15-5
		s9-5,15-4s10,1,13,7s4,6,4,10s1,4,2,12s1,20,0,23s-1,5-1,9s-1,5,1,4s3-1,3,2s0,10,0,12s-1,3,2,2s4,1,1,2s-6,4-5-2s1-12-1-9
		s-7,13-9,13s-3,0-3-6s2-4,3-7s2-6,3-10s3-4-1-5s2-2-3-4s-1,1-1,6s3,24-4,8s-5-9-5-1s-1,28-2,29S233,267,233,267z"/>
	<path class="st3" d="M249,350c-7,2-6,4-11,4s-8,0-10,0s0,3-5,1s-7-3-2-3s7,0,11-1s7-1,12-2s7-3,7-3l1,4H249z"/>
	<path class="st3" d="M247,335c-3,4-14,6-21,5s-10-1-3-2s14-1,18-3s8-4,7-2S247,335,247,335z"/>
	<path class="st3" d="M30,121c-4.5-2.2-5-5-6-8s-2-5-2-8s1-11,1-7s3,10,6,13s4,4,6,4s3,0,3-4s-1-3,0-7s1-9,6-9s11,2,17,4s6-1,11,2
		s7,5,3,8s-5,7-10,6s-3-3-6-4s-6,1-9-1s-3-3-4,2S32,122,30,121z"/>
	<linearGradient id="SVGID_4_" gradientUnits="userSpaceOnUse" x1="134.653" y1="33" x2="134.653" y2="123">
		<stop  offset="0" style="stop-color:#9A90AC"/>
		<stop  offset="1" style="stop-color:#161F26"/>
	</linearGradient>
	<path class="st4" d="M108,105c-3-4-7-6-2-9s7-2,5-5s-2-6,1-7s5-5,3-6s-2-3-1-4s2,0,1-7s-1-9,1-9s2,2,2-3s2-6,0-9s-3-5-10-3
		s-11,3-8-1s2.5-4.3,7.8-6.6C113,33,118,33,123,33l2,1l6,2l1-2c8,3,21,12,19,20s-7,12-3,17s3,6,6,6s4,0,0,2s-1.4,3.2,1.3,3.1
		C158,82,163,85,157,87s-2,4,1,4s3,0,2,4s0,5,1,6s3-1,5,0s1,0,3,1s2,3-2,3s-5-2-7,0s-3,2-6,2s-5-1-3-2s0-2-5-2s-7,3-4,5s6,4,7,6
		s3,4,5,4s-2-1-6,1s-5,2-8,0s-7-3-7-1s2,2-4,3s-8,2-11,2s-8-7-7-8s5,4,8,4s2,0-1-4S108,105,108,105z"/>
	<path class="st2" d="M70,103c-2.5-1.9-21-8-23-9s-4-4-5-5s-1-2,0-3s3-2,2-3s-2-3-1-4s1,0,2-1s1-2,1-3s2-1,3-1s7,0,7,0s4-3,2-5
		s-4-4-5-5s-3-3-1-3s1-1,2,1s2-1,3-1s2,1,3,0s2,0,2-3s0-4,2-4s1,0,4,1s4,1,5,1s2,0,2-2s0-2,2-1s4,1,5,1s2,0,3-4s5-2,6-5s7-10,11-13
		s10-5,20-5s23,4,32,11s8,6,8,6v2l10,9h2c1,1,3,3,3,8s-1,25-1,29s-0.8,6.3-2.4,8.2C172,102,168,107,167,108s0-2,1-3s1-3,1-5
		s1-11,1-15s0-8-2-9s-2-1-3,0s-2,1-4-1s-2-1-3-1s-1-2-3-3s-4-1-9-3s-4-1-9,0s-6,1-9,2s-6,1-4,2s0,4-2,4s-5-1-5-3s2,0,2-3s-3-2-2-5
		s2-4,2-7s0-3,2-2s4-1,1-2s-5-1-3-2s3.7-2.3,2.8-4.2C121,46,119,45,122,44s6-5,9-5s3-1,1-1s-6-2-3-2s7-1,11,1s8,4,9,6s3,2,5,3
		s4,2,3,4s3,6,5,7s4,2,2-2s-4-5-4-7s0-2-3-4s-8-6-10-8s-11-8-25-8s-20,6-22,9s-6,10-2,6s5-6,7-7s3-1,0,2s-6,9-7,9s-2,2-1,3s2,1,2,2
		s1,2,3,2s5,2,2,5s-3,6-1,5s2,0,3,2s1,3,3,4s4,7,1,7s-12-1-11,3s1,6-1,7s-2,0-1,4s9,22,22,30c3,2,4,4,5,4s4,0,4,1s0,3,2,3s2-1,4-1
		s1,1,4,0s8-3,10-5s5-3,5-5s1,0,2-1s2-1,3-1s-6,6-10,8s-8,5-14,6s-2,3-6,3s-13,1-16-2s-5-1-7-5s-4-8-5-10s-2-4-2-7s0-7-2-9s-5-4-6-7
		s-2-6-2-7s-4-3-5,2S74,106,70,103z"/>
	<g class="st5">
		<path class="st6" d="M174,55h-2l-10-9v-2c-0.2-0.1-1.4-0.9-8-6c-9-7-22-11-32-11s-16,2-20,5S92,42,91,45c-0.5,1.6-1.9,1.8-3.3,2.2
			c2.6,0.1,5.6,0.8,9.3,2.8c-1-1,0-3,1-3s4-6,7-9s2-3,0-2s-3,3-7,7s0-3,2-6s8-9,22-9s23,6,25,8s7,6,10,8s3,2,3,4s2,3,4,7s0,3-2,2
			s-6-5-5-7s-1-3-3-4s-4-1-5-3s-5-4-9-6s-8-1-11-1s1,2,3,2s2,1-1,1s-6,4-9,5s-1,2-0.2,3.8c0.8,1.8-0.8,3.2-2.8,4.2s0,1,3,2s1,3-1,2
			s-2-1-2,2s-1,4-2,7s2,2,2,5s-2,1-2,3s3,3,5,3s4-3,2-4s1-1,4-2s4-1,9-2s4-2,9,0s7,2,9,3s2,3,3,3s1-1,3,1s3,2,4,1s1-1,3,0s2,5,2,9
			s-1,13-1,15s0,4-1,5s-2,4-1,3s5-6,6.6-7.8c1.6-1.8,2.4-4.2,2.4-8.2s1-24,1-29S175,56,174,55z"/>
		<path class="st6" d="M155,117c-1,1-2-1-2,1s-3,3-5,5s-7,4-10,5s-2,0-4,0s-2,1-4,1s-2-2-2-3s-3-1-4-1s-2-2-5-4c-13-8-21-26-22-30
			c-0.6-2.5-0.9-3-0.5-3.3c-3.3-0.9-7-2.3-9.1-2.4c0.3,0.2,0.5,0.5,0.5,0.7c0,1,1,4,2,7s4,5,6,7s2,6,2,9s1,5,2,7s3,6,5,10s4,2,7,5
			s12,2,16,2s0-2,6-3s10-4,14-6s11-8,10-8S156,116,155,117z"/>
		<path class="st6" d="M102.5,54c1,0.9,1.9,1.8,2.7,2.7C105.4,55.2,103.9,54.3,102.5,54z"/>
		<path class="st6" d="M162,44L162,44C162.1,44.1,162,44,162,44z"/>
	</g>
	<path class="st3" d="M198,81c8.1,8.1,14,19,16,24s4,14,8,14s8,2,5-2s-7-8-7-11s-2-11-7-16s-8-9-10-12s-3-3-4-1S196,79,198,81z"/>
	<path class="st3" d="M269,329c7-5,9-14,8-23s-4-26-5-31s0-6-3-2s-10,13-14,15s-9,3-7,10s3,25,2,35S269,329,269,329z"/>
	<path class="st3" d="M277,324c5-5,11-7,11-11s1-15,1-18s-2-4-4-5s-3-1-3-5s0-5,2-8s1-6,1-12s2-10,1-21s-4-10-3-17s-3-13-3-17
		s1-5,2-8s1-6,1-9s-1-13-2-17s-1-4-3-5s-3-3-2-5s1-3,0-5s-3-2-2-5s1-4,3-4s6-1,6,3s2,20,3,27s1,13,1,18s1,18,2,30s2,14,2,21
		s2,9.3,2,14.2c0,4.8,0,8.8,1,11.8s0,3,0,6s0,5,0,8s1,6,1,9s-4,4.7-2,7.3c2,2.7,3,7.7,2,11.7S277,324,277,324z"/>
	<path class="st3" d="M247,183c3.9,1.3,10.7,1.3,16.8,6.2c6.2,4.8,6.2,2.8,2.2-2.2s-8-8-9-11C254,179,244,182,247,183z"/>
	<path class="st3" d="M178,175c4,2,6,4,11,6s7,4,7,6s1,3,2,3s3,0,2,6s0,10,2,16s3,7,4,7s2,0,1,3s2,1,0,7s-3,13-6,17s-5,8-4,12
		s3,4-1,8s-10,10-9,12s2,5,0,6s-7,3-7-1s-3-8,0-8s6,2,7,0s9-10,7-14s0-5-4-6s-8-4-11-5s-3,0-6-2s-7-6-7-9s-1-4-10-6s-11-4-11-7
		s8,0,10-3s4-4,5-4s2,0,1-7s-2-15-2-18s-1-5-2-8s-1-5-1-7s0-3,3-3s6-1,7-2s2,3,5,2S176,174,178,175z"/>
	<path class="st3" d="M191,108c4.5-4.5,7-8,8-13s2-6,4,0s7,8,0,11s-9,3-11,5S187,112,191,108z"/>
	<path class="st3" d="M248,18c-2,4-3,9-3,12s3,5-2,6s-9,6-2,5s16-3,19,3s6,8,4,11s-1,10-1,19s-4,15-1,17s4,2,7,1s7-3,5-12s-5-8-3-14
		s8-12,3-20s-5-11-5-16s3-4-3-2s-11,3-11-4S251,12,248,18z"/>
	<path class="st2" d="M148,21c3,0,4,1,6-2s4-9,6-11s6-4,7-5s17,10,18,11s0,2,1,4s3,4,4,5s1,1-1,1s-31,0-33,0s-2,2-3,1s-3-3-4-3
		S147,21,148,21z"/>
	<path class="st7" d="M127,121c-2,0-4,0-4-2s0-4,1-4s1-1,0-3s0-2-2-3s-3,0-3-2s-1-5,0-6s1-1,3-1s3,1,4,0s2-2,3-1s1,3,4,3s4,1,6,0
		s4-2,0-3s-7-1-10-3s-2-1-4-3s0-2,1-1s2-3,3-1s2,4,5,5s4,0,7,2s3,1,6,1s5,1,5,2s2,2-1,1s-5-2-8,1s-3,5-1,6s4,2,4,5s-2,3-3,1
		s-5-3-5-4s-2,0-1,2s4,5,1,5s-3-2-5,0S134,121,127,121z"/>
	<path class="st2" d="M40,97c-1,2-1,2,0,3s5,4,7,5s3,1,5,2s4,3,6,3s2,0,3,1s4,3,4,1s3-3,1-5s-5-2-7-3s-8-6-9-6s-4-2-6-3s-2,0-3,1
		S40,97,40,97z"/>
	<path class="st2" d="M158,166c2,3,3,4,4,4s2,0,1,2s-6,1-6,6s-2,9,2,11s9,5,12,3s6-3,3-4s-5-3-1-3s6-3,5-6s-2-4-5-4s-4,1-2-6
		s9-17,18-27s18-18,21-20s-1-4-8,2s-30,40-32,43s-3,4-5,2s-4-4-7-5S156,163,158,166z"/>
	<path class="st2" d="M238,264c-2-3-5-4-8,0s-7,7-9,10s1,5-3,5s-10,0-13,0s-1,1,2,1s5,1,4,3s-1,5-1,6s-2,4-4,3s-3-2-4-3s-2,0,0,2
		s4,4,3,5s-2,2-3,0s-3-6-4-3s-3,1-4,3s-11,14-12,15s0,2,2,4s9,1,6,4s-5,5-3,5s4-2,5,0s4,6,7,4s3-3,4-1s3,3,7,1s9-6,10-5s1,2,3-1
		s3-5,5-6s2-4,4-5s11-8,11-13s-2-6,0-8s2-1,2,0s0,2,0,2l1,1v1l1-1l-1-2l1-3c0-4,1-11-4-15S238,264,238,264z"/>
	<path class="st2" d="M117,175c-0.4,1.3-1,0-1,4s3,8,3,14s-1,9,1,9s4,1,2-4s-2-9-2-11s2-6,0-7s-3-2-2-4S118,172,117,175z"/>
	<path class="st2" d="M110,173c0,7,2,26,5,31l1-1l-4-14L110,173z"/>
	<path class="st2" d="M37,97c1-1,3-3,3-3s0-2-1-1s-2,2-3,3S36,98,37,97z"/>
	<path class="st2" d="M291.1,132.6C286,133,283,133,278,134s-6,1-9,1s-2-1,1-1s6-3,6-5s1-6,1-8s-1-4,1-4s3,0,3,3s0,5,1,8s0,4,2,4
		s8-0.5,8-0.5L291.1,132.6z"/>
	<path class="st2" d="M277,281c-1,1,0,2,0,5s1,4,1,6s0,5,2,4s2,0,1-3s0-6-1-8s0-4-1-4S277,281,277,281z"/>
	<path class="st2" d="M248,189c-3,0-5,0-3,4s2,6,6,6s4,1,6,3s5,1,6,0s4-3-1-7S253,189,248,189z"/>
	<path class="st2" d="M247,206c2.5-1.3,1-4,4-4s5,1,7,3s4,4,6,5s5,5,5,10s0,6,0,11s0,9-1,11s-1,2-3,1s-2,2-4-2s-2-2-3-6s-1-5,1-3
		s4,5,4,2s2-2,0-6s-1-4-3-3s-3-1-1-3s3-1,3-3s0-4-1-6s0-4-2-4s-4-1-4,1s-2,3,0,5s5,6,2,5s-3-2-4,0s-3,4-1,5s4,3,0,3s-6-1-5-2
		s-1-1-2-2s0-3,1-4s1-1,3-1s2-1,1-2s0-2-2-2s-2-2-1-2s2,0,2-2s0-1-2-2S245,207,247,206z"/>
	<path class="st2" d="M241,237c7,5,14,11,15,19s2,0,1-5s-2-10-8-15s-7-7-7-4S239.8,236.2,241,237z"/>
	<path class="st2" d="M258,265c0-2,1-4,2-5s2-1,3,0s2,1,2-1s1-2,2-3s0-2,2-3s3,0,3,3s0,10,0,11s-0.3,2.6,1,2c4-2,5-1,2,0s-4,4-4-1
		s1-14-2-10s-7,7-8,10s-3,4-3,2S258,267,258,265z"/>
	<path class="st2" d="M256,288c-1,1-3,4-5,4s-5,1-3,5s4,7,4,9s-1,4,0,7s0,6,1,4s1-4,3-4s2-2,1-2s-1-1,0-1s2,0,1-2s-2,0,0-3s3-4,5-8
		s3-10,3-13s-1-6-3-4S258,286,256,288z"/>
	<path class="st8" d="M248,178c1-1,3-3,3-4s1-3-1-2s-2,1-5,0s-3-1-1,1s2,3,2,4S246,180,248,178z"/>
	<path class="st2" d="M130,257c-4-1-7-2-11-1s-6-3-2-4s5,0,6-4s0-6-2-6s-2-1-2-3s-1-3-4-3s-4,0-4-2s-2-1.8,0-4.4s2-5.6,5-4.6
		s3,0,3-2s1-7,2-4s0,9,3,8s6-2,8,0s3,1,2,5s1,6-2,6s-5,0-5,4s-1,6,1,6s2,0,5,3s5,5,2,5S134,258,130,257z"/>
	<path class="st2" d="M131,221c4.1,0,10.2,2,8.1,0s-4.3-5.4-6.2-3.7C131,219,127,221,131,221z"/>
	<path class="st3" d="M240,321c-3,3-21,15-67,14c-4,0-7-1,0-1s30,0,39-3s16-7,22-9S242,319,240,321z"/>
	<path class="st7" d="M252,173c-1,2-3,4-4,5s-2,3-2,0s1-5-4-6s-8-3-4-2s9,3,11,3s2-1,3-2S253,171,252,173z"/>
	<path class="st7" d="M154,87c-2.1,0.7-3,0-5,0s-2,1-4,1s-4,0-5,1s-5,1-6,0s-4-5-6-5s-3,1-2-2s1-2,2-4s2-4,3-3s2,0,2,3s-2,3,0,5
		s2,2,2,3s1,1,1,0s2-1,3,0s1,1,4,1s4-2,6-2s3,0,5,0S157,86,154,87z"/>
</g>
<g id="right_leg_1_">
	<defs>
		<path id="SVGID_5_" d="M231,357.5c-10.1,1.3-36.8-18.1-44.4-14.6c-9.3,4.3-12.9,6.2-18.8,7.6c-5.8,1.4-6.8,1.6-13.7,11.5
			c-6.9,9.9,1.5,48.4,1.8,61.5c0.4,13.1,5.6,42,6.7,46.9c1.2,4.9-0.6,6.3,4.3,9.3c4.8,3,3.3,5.4,6.9,11.7s5.9,11.9,7.1,16.8
			c1.2,4.9,2.6,6.6,3.3,9.5c0.7,2.9,2.1,4.6,5.2,9c3.1,4.4,7.2,8.6,9.8,11c2.6,2.5-1,4.4-1,4.4l3.6,6.3c3.2,0.3,5.1,3.9,7.2,8.6
			c2.1,4.6,2.1,4.6,5.5,5.9c3.4,1.2,2.6,2.5,3.8,7.3c1.2,4.9,1.2,4.9-1.5,6.5c-2.7,1.7-1,4.4-0.1,8.2c0.9,3.9,4.8,7.1,6.2,12.9
			c1.4,5.8,1.9,3.7,6.5,5.6c4.6,2,0.7,7-1.1,8.5c-1.7,1.4-2.7,5.8-0.3,7.3c2.4,1.5,4.3,5.1,2.8,7.5s0.2,5.1,2.3,13.8
			c2.1,8.8,5.5,5.9,10.6,5.7c3.2-0.1,5.6-0.1,9.2-0.8c0.4,0.3,1.1,0.4,1.9,0.2c2.9-0.7,6.8-1.6,10.5-3.5c3.7-1.9,23.7-17,26.2-19.6
			c2.5-2.6,2.5-2.6,1.8-5.6s-0.4-6.1-1.3-10c-0.9-3.9-2.1-8.8-3.5-14.6c-1.4-5.8-3.7-15.6-7.5-22.9c-3.8-7.3-2.8-7.5-2.8-11.7
			s0.5-2.2-3.6-6.3c-4.1-4.2-1.6-10.9-0.1-13.3c1.5-2.4,4.4-3.1,1.8-5.6c-2.6-2.5-8.6-10.3-9.3-13.2c-0.7-2.9-7.6-14.6-9.5-18.3
			c-1.9-3.7-1.6-6.8-3.1-8.5s-5-8.1-5.4-14.1c-0.4-6.1-1.6-6.8-4-12.4c-2.4-5.6-5.1-3.9-2.8-7.5c2.2-3.6-0.7-7-1.6-10.9
			c-0.9-3.9,1-4.4,2.7-5.8c1.7-1.4,2.5-2.6,3.5-7s-0.8-16.3,0.7-18.7s2-4.6,1.3-7.5c-0.7-2.9-2.2-18-0.5-23.5
			c1.8-5.6-0.1-17.5-2.1-30.3C246.1,354.8,242.9,354.9,231,357.5z"/>
	</defs>
	<clipPath id="SVGID_6_">
		<use xlink:href="#SVGID_5_"  style="overflow:visible;"/>
	</clipPath>
	<path class="st9" d="M231,357.5c-10.1,1.3-16-9.5-27-10.5c-10.2-0.9-26.2,0.6-32,2s-19.1,18.1-26,28s9.5,33.3,9.9,46.4
		c0.4,13.1,5.6,42,6.7,46.9c1.2,4.9-0.6,6.3,4.3,9.3c4.8,3,3.3,5.4,6.9,11.7s5.9,11.9,7.1,16.8c1.2,4.9,2.6,6.6,3.3,9.5
		c0.7,2.9,2.1,4.6,5.2,9c3.1,4.4,7.2,8.6,9.8,11c2.6,2.5-1,4.4-1,4.4l3.6,6.3c3.2,0.3,5.1,3.9,7.2,8.6c2.1,4.6,2.1,4.6,5.5,5.9
		c3.4,1.2,2.6,2.5,3.8,7.3c1.2,4.9,1.2,4.9-1.5,6.5c-2.7,1.7-1,4.4-0.1,8.2c0.9,3.9,4.8,7.1,6.2,12.9c1.4,5.8,1.9,3.7,6.5,5.6
		c4.6,2,0.7,7-1.1,8.5c-1.7,1.4-2.7,5.8-0.3,7.3c2.4,1.5,4.3,5.1,2.8,7.5s0.2,5.1,2.3,13.8c2.1,8.8,5.5,5.9,10.6,5.7
		c3.2-0.1,5.6-0.1,9.2-0.8c0.4,0.3,1.1,0.4,1.9,0.2c2.9-0.7,6.8-1.6,10.5-3.5c3.7-1.9,23.7-17,26.2-19.6c2.5-2.6,2.5-2.6,1.8-5.6
		s-0.4-6.1-1.3-10c-0.9-3.9-2.1-8.8-3.5-14.6c-1.4-5.8-3.7-15.6-7.5-22.9c-3.8-7.3-2.8-7.5-2.8-11.7s0.5-2.2-3.6-6.3
		c-4.1-4.2-1.6-10.9-0.1-13.3c1.5-2.4,4.4-3.1,1.8-5.6c-2.6-2.5-8.6-10.3-9.3-13.2c-0.7-2.9-7.6-14.6-9.5-18.3
		c-1.9-3.7-1.6-6.8-3.1-8.5s-5-8.1-5.4-14.1c-0.4-6.1-1.6-6.8-4-12.4c-2.4-5.6-5.1-3.9-2.8-7.5c2.2-3.6-0.7-7-1.6-10.9
		c-0.9-3.9,1-4.4,2.7-5.8c1.7-1.4,2.5-2.6,3.5-7s-0.8-16.3,0.7-18.7s2-4.6,1.3-7.5c-0.7-2.9-2.2-18-0.5-23.5
		c1.8-5.6-0.1-17.5-2.1-30.3C246.1,354.8,242.9,354.9,231,357.5z"/>
	<path class="st10" d="M219.6,360.1c-21.4,5.1-48.5,24.9-37.6,23.4c10.9-1.6,38.8-1,39.7,2.9c0.9,3.9,0.7,7-1.1,8.5
		c-1.7,1.4-4.4-1-7.7-2.3c-3.4-1.2-2.8,9.9-2.8,14s3.9,16.5,1.5,19.2c-2.5,2.6-3.1,17.2-4.1,30.1s1.5,10.6,5.1,12.8s-2,4.6-3.4,2.9
		c-1.4-1.7-7.8,1.9-13.6,3.2c-5.8,1.4-3.2,3.8-0.3,3.2c2.9-0.7,4.9-1.2,4.9-1.2c8.2,0.1-1,4.4-8.8,6.2s-1.5,2.4,0.5,1.9
		c1.9-0.5,3.2,0.3,15.8-2.7c12.6-3,0.9,3.9-4.9,5.3c-5.8,1.4-5.8,1.4-3.7,6c2.1,4.6-1.8,5.6-1.8,5.6c-7.8,6,10.4,0.6,16.3-0.8
		c5.8-1.4,8.2,0.1,0.7,2.9c-7.5,2.8,3.6,2.2-4.2,4.1s-4.6,2.1-2.7,1.7c1.9-0.5,3.6,2.2,0.7,2.9s-2.7,1.7,2.4,1.5
		c5.1-0.2,4.8,3,0.9,3.9s-10,1.3-16.8,3c-6.8,1.6,0.9,8,3,12.6c2.1,4.6,2.9,3.4,5.5,5.9s2.6,2.5,5.8,2.7c3.2,0.3,0.2,1,4.4,1
		c4.1,0,4.8,3,1.9,3.7c-2.9,0.7,6.4,3.1,10.5,3.1c4.1,0,14.8,1.6,21.3,3.1s1.7,2.7-1.2,3.4s-4.7,6.3-4.2,8.2c0.5,1.9,2.5,4,8.3,2.6
		c0,0-4.9,1.2-9.3,4.3c-4.4,3.1,1.4,1.7,7.5,1.3c6.1-0.4-0.3,3.2-6.6,6.7c-6.3,3.6,3.2,0.3,7-0.7s1.9-0.5,3.6,2.2
		c1.7,2.7,2.2,0.5,4.1,0c1.9-0.5,1.7-1.4,3.4,1.2s-1.8,5.6,2.6,6.6c4.4,1,2.9-0.7,1.7,2.7c-1.2,3.4-3.7,1.9-7.5,2.8
		c-3.9,0.9-3.4,2.9-3.4,2.9s0,0-4.4,3.1c-4.4,3.1,0.5,1.9,5.3,0.8c4.9-1.2,3.6,2.2,0.7,2.9c-2.9,0.7-2.7,1.7-6.8,1.6
		c-4.1,0-2.9,0.7-4.4,3.1s-7.1,4.8-11,9.8c-3.9,5.1,0.5,1.9,1.9-0.5s1-0.2,4.4-3.1c3.4-2.9,2.7-1.7,6.6-2.6s9.5-3.3,16.1-5.9
		c6.6-2.6,5.3,0.8,9.2,4c3.8,3.2,2.1,4.6-2.2,3.6c-4.4-1-4.6,2.1-6.3,3.6s-9.3,4.3-11.2,4.7c-1.9,0.5,2.6,10.7,4.7,15.3
		c2.1,4.6,3.6,6.3-0.3,7.3s-3.2,3.8-0.3,3.2s6.8-1.6,10.5-3.5c3.7-1.9,23.7-17,26.2-19.6c2.5-2.6,2.5-2.6,1.8-5.6s-0.4-6.1-1.3-10
		c-0.9-3.9-2.1-8.8-3.5-14.6c-1.4-5.8-3.7-15.6-7.5-22.9c-3.8-7.3-2.8-7.5-2.8-11.7s0.5-2.2-3.6-6.3c-4.1-4.2-1.6-10.9-0.1-13.3
		c1.5-2.4,4.4-3.1,1.8-5.6c-2.6-2.5-8.6-10.3-9.3-13.2c-0.7-2.9-7.6-14.6-9.5-18.3c-1.9-3.7-1.6-6.8-3.1-8.5s-5-8.1-5.4-14.1
		c-0.4-6.1-1.6-6.8-4-12.4c-2.4-5.6-5.1-3.9-2.8-7.5c2.2-3.6-0.7-7-1.6-10.9c-0.9-3.9,1-4.4,2.7-5.8c1.7-1.4,2.5-2.6,3.5-7
		s-0.8-16.3,0.7-18.7s2-4.6,1.3-7.5c-0.7-2.9-2.2-18-0.5-23.5c1.8-5.6-0.1-17.5-2.1-30.3C246.1,354.8,241,355,219.6,360.1z
		 M231.7,516c-2.9,0.7-3.9,0.9-6.3,3.6c-2.5,2.6-5.1,4.3-4.4,7.2s2.6,2.5,0.2,5.1s-3.2,3.8-6.1,4.5c-3.9,0.9-6.8,1.6-9.5-0.8
		c-2.6-2.5-2.2-0.5-4.5-6.1s-6.5-5.6-5-8.1c1.5-2.4,6.3-3.6,10.5-3.5c4.1,0,19.5-4.6,22.4-5.3C231.7,511.9,234.6,515.3,231.7,516z"
		/>
	<g class="st11">
		<path class="st6" d="M215.2,544.1c-2,0.5,1.7,1.7,5.6,2.5c3.7-2.2,9.9-5.9,11.3-7.1c1.7-1.4,1.5-2.4,2.2-3.6
			c0.7-1.2,0.5-2.2-1.9-3.7c-2.4-1.5-1.2-0.7-1.7-2.7c-0.5-1.9-1.2-0.7-1.7-2.7c-0.5-1.9,2.9-0.7,3.2,0.3s3.4,1.2,5.6,1.8
			c2.2,0.5,1.2,0.7,0.7,2.9c-0.5,2.2,2.6,2.5,3.6,2.2c1-0.2,1.7-1.4,1.5-2.4c-0.2-1-1.4-1.7-1.7-2.7s-1.4-1.7-3.8-3.2s0.3-3.2,1-4.4
			c0.7-1.2,1.9-0.5,1.5-2.4c-0.5-1.9-1.7,1.4-1.2-0.7c0.5-2.2-0.5-1.9,2-4.6c2.5-2.6,3-4.8,1.2-3.4c-1.7,1.4-0.7,1.2-2.5,2.6
			c-1.7,1.4-2.7,1.7-4.9,1.2c-2.2-0.5-1.2-0.7-0.7-2.9s0.7-1.2,2.7-1.7c1.9-0.5,6.6-6.7,10-9.6c3.4-2.9,3.2-3.8,3.9-5.1
			c0.7-1.2,1.5-2.4,0.5-2.2c-1,0.2-1.5,2.4-5.1,4.3c-3.7,1.9-4.6,2.1-8.1,5c-3.4,2.9-6.3,3.6-9.3,4.3c-2.9,0.7-1.2-0.7-0.5-1.9
			c0.7-1.2,1.5-2.4,0.8-5.3c-0.7-2.9,1.7-1.4,3.9-0.9c2.2,0.5-0.5-1.9,2.7-1.7c3.2,0.3,3.7-1.9,5.6-2.4c1.9-0.5,0.2,1,0.5,1.9
			c0.2,1,1.2,0.7,2.9-0.7c1.7-1.4,3.7-6,4.2-8.2c0.5-2.2-0.7-2.9-1.7-2.7c-1,0.2,0.7-1.2,0-4.1s-0.7-2.9-1-1c-0.3,1.9,0,1.3-0.5,3.5
			c-0.5,2.2-3.2,3.8-5.6,6.5c-2.5,2.6-1.2-0.7-0.7-2.9c0.5-2.2,3-4.8,4.4-7.2s1.8-5.6,1-4.4s-6,7.1-8.7,8.8s-3.2-0.3-0.5-1.9
			c2.4-1.5,7.7-7.7,10.4-11.6c-0.5-1-1.1-2.2-1.7-3.8c-2.4-5.6-5.1-3.9-2.8-7.5c0.1-0.2,0.3-0.5,0.4-0.7
			c-7.9,7.3-17.3,17.1-24.8,18.9c-8.8,2.1-3.4-1.2-5.3-0.8s-6.1,0.4-1.4-1.7c4.6-2.1,9-5.2,9-5.2l-12.4-12.9
			c-1,12.6,1.6,10.3,5.1,12.5c3.6,2.2-2,4.6-3.4,2.9c-1.4-1.7-7.8,1.9-13.6,3.2c-5.8,1.4-3.2,3.8-0.3,3.2c2.9-0.7,4.9-1.2,4.9-1.2
			c8.2,0.1-1,4.4-8.8,6.2s-1.5,2.4,0.5,1.9c1.9-0.5,3.2,0.3,15.8-2.7c11.3-2.7,3.2,2.5-2.9,4.7c3.8,2.3,7.2,5.8,6.6,6.8
			c-0.5,0.9,0.9,3.4,2.1,4.6c5.8-1.4,8.2,0.1,0.7,2.9c-7.5,2.8,3.6,2.2-4.2,4.1s-4.6,2.1-2.7,1.7c1.9-0.5,3.6,2.2,0.7,2.9
			s-2.7,1.7,2.4,1.5c5.1-0.2,4.8,3,0.9,3.9s-10,1.3-16.8,3c-6.8,1.6,0.9,8,3,12.6c2.1,4.6,2.9,3.4,5.5,5.9s2.6,2.5,5.8,2.7
			c3.2,0.3,0.2,1,4.4,1C217.4,540.5,218.1,543.4,215.2,544.1z M205.5,535.6c-2.6-2.5-2.2-0.5-4.5-6.1s-6.5-5.6-5-8.1
			c1.5-2.4,6.3-3.6,10.5-3.5c4.1,0,19.5-4.6,22.4-5.3c2.9-0.7,5.8,2.7,2.9,3.4s-3.9,0.9-6.3,3.6c-2.5,2.6-5.1,4.3-4.4,7.2
			s2.6,2.5,0.2,5.1s-3.2,3.8-6.1,4.5C211,537.4,208.1,538.1,205.5,535.6z"/>
		<path class="st6" d="M280.9,569.6c-3.8-7.3-2.8-7.5-2.8-11.7s0.5-2.2-3.6-6.3c-1.5-1.5-2.1-3.5-2.2-5.4c-1.9,0.1-3.9-0.2-6.8-0.2
			c-4.1,0-1.4-1.7-3.3-5.4c-1.9-3.7-2.1-4.6-2.8-7.5s4.9-1.2,1.5-2.4c-3.4-1.2-1.9,0.5-5.6,2.4s-1.2,3.4,0.4,6.1
			c1.7,2.7,1.4,1.7-0.3,3.2c-1.7,1.4,0.5,1.9,2.4,1.5c1.9-0.5,0.5,1.9-0.5,2.2c-1,0.2-0.7,1.2,1.2,4.9c1.9,3.7,0.5,1.9-1.7,1.4
			c-2.2-0.5-2.4-1.5-4.8-3c-2.4-1.5-5.1-3.9-4.8-7.1s-0.2-1,2.5-2.6c2.7-1.7-0.5-1.9-2.4-1.5c-1.9,0.5-2.2-0.5-0.5-1.9
			c1.7-1.4,3.7-6,1-4.4c-2.3,1.4-14,10.3-20.6,15.6c4.8,0.3,14,1.7,19.9,3.1c6.5,1.5,1.7,2.7-1.2,3.4s-4.7,6.3-4.2,8.2
			c0.5,1.9,2.5,4,8.3,2.6c0,0-4.9,1.2-9.3,4.3c-4.4,3.1,1.4,1.7,7.5,1.3c6.1-0.4-0.3,3.2-6.6,6.7c-6.3,3.6,3.2,0.3,7-0.7
			s1.9-0.5,3.6,2.2c1.7,2.7,2.2,0.5,4.1,0c1.9-0.5,1.7-1.4,3.4,1.2s-1.8,5.6,2.6,6.6c4.4,1,2.9-0.7,1.7,2.7
			c-1.2,3.4-3.7,1.9-7.5,2.8c-3.9,0.9-3.4,2.9-3.4,2.9s0,0-4.4,3.1c-4.4,3.1,0.5,1.9,5.3,0.8c4.9-1.2,3.6,2.2,0.7,2.9
			c-2.9,0.7-2.7,1.7-6.8,1.6c-4.1,0-2.9,0.7-4.4,3.1s-7.1,4.8-11,9.8c-3.9,5.1,0.5,1.9,1.9-0.5s1-0.2,4.4-3.1
			c3.4-2.9,2.7-1.7,6.6-2.6s9.5-3.3,16.1-5.9c6.6-2.6,5.3,0.8,9.2,4c3.8,3.2,2.1,4.6-2.2,3.6c-4.4-1-4.6,2.1-6.3,3.6
			s-9.3,4.3-11.2,4.7c-1.9,0.5,2.6,10.7,4.7,15.3c2.1,4.6,3.6,6.3-0.3,7.3s-3.2,3.8-0.3,3.2s6.8-1.6,10.5-3.5
			c3.7-1.9,23.7-17,26.2-19.6c2.5-2.6,2.5-2.6,1.8-5.6s-0.4-6.1-1.3-10c-0.9-3.9-2.1-8.8-3.5-14.6
			C287,586.6,284.7,576.9,280.9,569.6z"/>
	</g>
	<path class="st12" d="M224.7,407.2c0.5-2.2,1.1-8.5-1.4-1.7l-0.5,2.2L224.7,407.2z"/>
	<path class="st12" d="M227.2,422c1.7-1.4,2.5-2.6,1.2-3.4s-2.2-0.5-0.5-1.9c1.7-1.4,2.9-0.7,3.4,1.2c0.5,1.9,3.4,1.2,0.7,2.9
		s-0.3,3.2-2.2,3.6c-1.9,0.5-3.4-1.2-4.1,0c-0.7,1.2-2.9,0.7-1.2-0.7C226.2,422.2,227.2,422,227.2,422z"/>
	<path class="st12" d="M224.3,470c-0.2-5.1-1.9-7.8,0.1-8.2c1.9-0.5,2.9-0.7,3.2,0.3c0.2,1,0.7,2.9,1.4,1.7c0.7-1.2,0.5-2.2,0.3-3.2
		c-0.2-1-1.7,1.4-3.4-1.2c-1.7-2.7-2.4-5.6-2.6-2.5s-3.9,0.9-3,4.8c0.9,3.9,1.9-0.5,1.9,3.7c0,4.1,1.2,4.9,0.2,5.1
		c-1,0.2,0.5,1.9,1.2,0.7C224.3,470,224.3,470,224.3,470z"/>
	<path class="st12" d="M235.1,459.2c1.9-0.5,2.7-1.7,1.5-2.4s-1.4-1.7-1.2-4.9s-0.7-2.9-1.4-5.8c-0.7-2.9-3.6-6.3-1.4-5.8
		c2.2,0.5,6.3,0.6,4.4-3.1c-1.9-3.7-0.4-6.1-4.3-5.1c-3.9,0.9-3.2-0.3-3.2,3.8s0.2,5.1,0.9,8c0.7,2.9,0.2,5.1-1.2,3.4
		s-2.9-3.4-4.6-2c-1.7,1.4-1.5,2.4-1,4.4c0.5,1.9,1.9,3.7,3.8,3.2c1.9-0.5,5.1-0.2,4.9-1.2c-0.2-1,1.2-3.4,1-0.2s-0.3,3.2,0,4.1
		c0.2,1,0.9,3.9-0.7,1.2c-1.7-2.7-2.4-1.5-1.9,0.5c0.5,1.9-0.3,3.2,1.7,2.7C234.1,459.4,235.1,459.2,235.1,459.2z"/>
	<path class="st12" d="M246.1,529.1c2.5-6.8,5-9.4,6.2-12.8c1.2-3.4,3-4.8,3.5-7s3-4.8-0.3,3.2c-3.2,8-5.2,12.6-6.7,15
		C247.3,529.8,243.8,535.1,246.1,529.1z"/>
	<path class="st12" d="M162.9,460.5c3.2-3.8,4.7-10.4,4.3-12.3c-0.5-1.9-1.3-1.7-1.7,1.4C164.6,454.9,162,461.6,162.9,460.5z"/>
	<path class="st12" d="M177.9,488.8c-0.7-3.1-3.3-5.4-2.6-2.5c0.7,2.9,2.4,5.6,2.6,6.6c0.2,1,1.4,1.7,1.9,3.7
		c0.5,1.9,1.7,2.7,0.9,3.9c-0.7,1.2-0.5,2.2,0.9,3.9s1.4,1.7,1.7,2.7c0.2,1,1.7,2.7,2.9,3.4c1.2,0.7,2.4,1.5,2.6,2.5
		c0.2,1,1.4,1.7,2.6,2.5c1.2,0.7-1.7-2.7-3.1-4.4s-4.3-5.1-4.5-6.1c-0.2-1-1.4-1.7-0.7-2.9c0.7-1.2-0.5-1.9-0.9-3.9
		c-0.5-1.9-1.9-3.7-2.1-4.6c-0.2-1,0.5-2.2-0.7-2.9C178.1,489.8,178.1,489.8,177.9,488.8z"/>
</g>
<g id="left_leg_1_">
	<defs>
		<path id="SVGID_7_" d="M116.8,480.5c-3.8,7.7-2.2,22.9-5.9,27.5c-3.7,4.5-5.3,9.4-8.3,23.1c-2.9,13.7-7.7,33.3-11.8,40.8
			c-4.1,7.5-4.5,10.5-6.3,16.3c-1.8,5.8-2.9,6.7-8.2,7.9c-5.2,1.3-10.3,1.6-16.3,0.8s-15.7,3.9-22.9,4.9c-7.2,1-17.5,2.6-23.2-0.2
			S3.6,596.9,5,587c1.4-9.9,4.6-18.5,7.7-19.1s4.5-3.4,5.8-5.3c1.3-1.8,2.3-1.7,4.4-2.4c2.1-0.7,11.9-5.4,12.4-9.4s-1.7-2.3,0.7-5
			c2.4-2.7,8.9-12.9,10.3-15.7s0.6-4-2.1-6.4c-2.7-2.4-13.6-11-13.6-11s5-35.7,5.7-40.6c0.7-5,0-7.1-1.6-10.3
			c-1.6-3.2-1.7-2.3-1-7.2c0.7-5,1.5-3.8,2.9-6.7c1.4-2.8-0.2-6.1-0.7-9.2s-6.2-28.1-8-29.4c-1.8-1.3-2.8-1.4-1.2-6.2
			c1.7-4.8,0.8-5.9,0.1-8.1c-0.7-2.1-2.3-5.4-0.2-6.1s4.4-2.4,5.2-1.3s0.6,3.1,2.1,6.4c1.6,3.2,2.3,5.4,3.3,5.5
			c1,0.1,2.1-0.7,1.6,3.2c-0.6,4,9.5,40.7,11,43.9c1.6,3.2,4.1,6.6,4.2-1.4c0.1-8.1,2.2-22.9,3.7-26.7s7.3-9.1,4.8-12.5
			c-2.6-3.4-5.4-4.8-5.3-12.9c0.1-8.1,0.4-17.1,4.9-20.5c4.5-3.4,5.8-5.3,8.3-8.9c2.5-3.7,4.9-6.4,8-7s2.7-1.1,5.8-7.5
			s1.6-9.6,2-12.6c0.4-3,3.7-4.5,5.9-6.2c2.3-1.7,8.9-5.8,7.5-10.1s2.7-4.7,4.2-8.5c1.5-3.8,5.6-11.3,8-14c2.4-2.7-1.6-3.2,2-6.8
			s2.7-4.7,5.4-2.3c2.7,2.4,4,7.6,15.7,10.3c11.7,2.7,12.6,3.8,22.6,4.2c10,0.4,23.3-0.8,15.3,13.2c-8,14-8.8,58.1-18,71.3
			c-9,13-18.6,61.7-22.2,71.5C127.9,472.9,118.2,477.6,116.8,480.5z"/>
	</defs>
	<clipPath id="SVGID_8_">
		<use xlink:href="#SVGID_7_"  style="overflow:visible;"/>
	</clipPath>
	<path class="st13" d="M116.8,480.5c-3.8,7.7-2.2,22.9-5.9,27.5c-3.7,4.5-5.3,9.4-8.3,23.1c-2.9,13.7-7.7,33.3-11.8,40.8
		c-4.1,7.5-4.5,10.5-6.3,16.3c-1.8,5.8-2.9,6.7-8.2,7.9c-5.2,1.3-10.3,1.6-16.3,0.8s-15.7,3.9-22.9,4.9c-7.2,1-17.5,2.6-23.2-0.2
		S3.6,596.9,5,587c1.4-9.9,4.6-18.5,7.7-19.1s4.5-3.4,5.8-5.3c1.3-1.8,2.3-1.7,4.4-2.4c2.1-0.7,11.9-5.4,12.4-9.4s-1.7-2.3,0.7-5
		c2.4-2.7,8.9-12.9,10.3-15.7s0.6-4-2.1-6.4c-2.7-2.4-13.6-11-13.6-11s5-35.7,5.7-40.6c0.7-5,0-7.1-1.6-10.3c-1.6-3.2-1.7-2.3-1-7.2
		c0.7-5,1.5-3.8,2.9-6.7c1.4-2.8-0.2-6.1-0.7-9.2s-6.2-28.1-8-29.4c-1.8-1.3-2.8-1.4-1.2-6.2c1.7-4.8,0.8-5.9,0.1-8.1
		c-0.7-2.1-2.3-5.4-0.2-6.1s4.4-2.4,5.2-1.3s0.6,3.1,2.1,6.4c1.6,3.2,2.3,5.4,3.3,5.5c1,0.1,2.1-0.7,1.6,3.2
		c-0.6,4,9.5,40.7,11,43.9c1.6,3.2,4.1,6.6,4.2-1.4c0.1-8.1,2.2-22.9,3.7-26.7s7.3-9.1,4.8-12.5c-2.6-3.4-5.4-4.8-5.3-12.9
		c0.1-8.1,0.4-17.1,4.9-20.5c4.5-3.4,5.8-5.3,8.3-8.9c2.5-3.7,4.9-6.4,8-7s2.7-1.1,5.8-7.5s1.6-9.6,2-12.6c0.4-3,3.7-4.5,5.9-6.2
		c2.3-1.7,8.9-5.8,7.5-10.1s2.7-4.7,4.2-8.5c1.5-3.8,5.6-11.3,8-14c2.4-2.7-1.6-3.2,2-6.8s2.7-4.7,5.4-2.3c2.7,2.4,4,7.6,15.7,10.3
		c11.7,2.7,12.6,3.8,22.6,4.2c10,0.4,23.3-0.8,15.3,13.2c-8,14-5.8,56.8-10,72.3s-26.6,60.7-30.2,70.5
		C127.9,472.9,118.2,477.6,116.8,480.5z"/>
	<path class="st14" d="M60.4,407c2.8,1.4,2.4,4.4,0.9,8.2c-1.5,3.8-5.3,9.4-3.9,13.6c1.4,4.2,6.8,9,6.5,11c-0.3,2,3.7,2.5,8.5,4.2
		c4.8,1.7,6.7,2.9,8.5,4.2s4.5,3.7,5.9,0.8c1.4-2.8,3.7-4.5,3.9-6.5c0.3-2-4.8-1.7-4.4-4.7s1.5-3.8-1-7.2c-2.6-3.4-3.7-2.5-2.3-5.4
		c1.4-2.8,3.4-2.6,0.4-3c-3-0.4-2.8-1.4-1.7-2.3c1.1-0.9,2.1-0.7-0.7-2.1c-2.8-1.4-4.5-3.7-5.3-5.8c-0.7-2.1-6.8-9-7.5-11.1
		s-1.3-5.2-2-7.3s-2.3-5.4,0.4-10c2.7-4.7,3.5-3.5,5.5-3.3s2.1-0.7,5,0.7s4.8,1.7,5.9,0.8s1.1-0.9,3.1-0.6c2,0.3,2.8,1.4,4.1-0.4
		c1.3-1.8,1.3-1.8,1.8,1.3c0.6,3.1,0.3,5.1,0.6,10.2s-0.7,5,1.9,8.3c2.6,3.4,3.4,4.5,1.8,1.3c-1.6-3.2-1.4-4.2-0.3-5.1
		c1.1-0.9,1,0.1,1.8,1.3s1.6,3.2,2.7,2.4s1.3-1.8-0.6-3.1c-1.8-1.3-1.4-4.2-2.4-4.4s-1.7-2.3,0.1-1s3.5,3.5,5.5,3.8s3,0.4,3.7,2.5
		s0.6,3.1,2.6,3.4s4,0.6,2.3-1.7c-1.7-2.3-3.3-5.5-3.8-8.6s-0.3-5.1-2.1-6.4s-1.7-2.3-0.6-3.1c1.1-0.9,2,0.3,3,0.4
		c1,0.1,1.1-0.9,0.6-4s-2.4-4.4-0.3-5.1c2.1-0.7,5.2-1.3,5.5-3.3s-0.6-3.1,1.5-3.8c2.1-0.7,4.1-0.4,4.2-1.4s0.3-2-2.7-2.4
		c-3-0.4-6.7-2.9-2.7-2.4c4,0.6,5.9,0.8,7.8,2.1c1.8,1.3,3.8,1.5,4.8,1.7s2.1-0.7-0.7-2.1c-2.8-1.4-4.3-5.6-7-8
		c-2.7-2.4-0.6-3.1,1.5-3.8c2.1-0.7,3.1-0.6,4,0.6s2.4,4.4,5.1,6.8c2.7,2.4,4.4,4.7,4,0.6c-0.4-4.1-3-0.4-6.2-5.9s0.1-1,2,0.3
		c1.8,1.3,2.8,1.4,1.3-1.8s-3.3-5.5-4.1-6.6s-2.6-3.4,0.3-2c2.8,1.4,1.6,3.2,5.5,3.8s4,0.6,6.9,1c3,0.4,3.1-0.6-1.7-2.3
		c-4.8-1.7-8.6-3.2-10.3-5.5c-1.7-2.3-2.1-6.4-3.1-6.5s-2.4-4.4-1.3-5.2s2.3-1.7,5,0.7c2.7,2.4,7.2,6.1,9.4,5.3s5.2-1.3,5.5-3.3
		c0.3-2-0.3-5.1,2.4-2.7s8.6,3.2,9.8,2.4s2.4-2.7-1.4-4.2c-3.8-1.5-6.5-3.9-11.5-4.6c-5-0.7-5.7-2.8-8.6-3.2c-3-0.4-7.5-4.1-2.7-2.4
		c4.8,1.7,9.9,1.4,3.2-1.6c-6.7-2.9-9.1-7.3-3.5-3.5c5.5,3.8,14.3,6,18.4,5.6c4.1-0.4,7.3-2,11.2-0.5c3.8,1.5,13.6,3.9,14,0.9
		c0.4-3,3.2-8.6,3.2-8.6l0.3-9.1l-59.9-19.5l-34.6,59.8L55.6,376L54.4,399L60.4,407z"/>
	<path class="st14" d="M141.5,433.4c-10.3,8.7-25.2,21.7-32.2,20.7s-14-0.9-17-1.4c-3-0.4-5.2,1.3-5.5,3.3s-2.3,1.7-1.8-1.3
		s-0.4-4.1-3.5-3.5s-1.3,1.8-0.3,2s1.7,2.3-0.3,2c-2-0.3-2.7-2.4-2.3,1.7s2,7.3-1,6.9c-3-0.4-4.8-1.7-5.1,0.3c-0.3,2,0.4,4.1-0.6,4
		c-1-0.1-4.4,2.4-0.4,3s8.1,0.1,9.9,1.4c1.8,1.3,3.7,2.5,0.6,3.1c-3.1,0.6-15.8,19-18.3,22.7S61,504,60,510.9s-1.5,18-1.9,20.9
		c-0.4,3-2.7,4.7,1.4,4.2c4.1-0.4,6.4-2.1,7.2-1s4.4,4.7,4.3,5.6c-0.1,1,0.7,2.1-0.4,3c-1.1,0.9-4.9,6.4-0.7,5s23.6,4.3,29.2,15.2
		c5.5,10.9,13.2-29.5,13.2-29.5s12.5-67.9,15.3-73.6S141.5,433.4,141.5,433.4z"/>
	<path class="st15" d="M21.7,604.5c-1.8-1.3-7-8-3-7.5c4,0.6,4.1-0.4,1.3-1.8s-1-7.2,1.7-11.9c2.7-4.7,8.2-7.9,11.3-8.5
		c3.1-0.6,6.1-0.2,7.8,2.1c1.7,2.3,3.7,2.5,4,0.6s-0.4-4.1,0.6-4c1,0.1,1.1-0.9-2.6-3.4c-3.7-2.5-0.4-4.1-3.4-4.5
		c-3-0.4,0.6-4,2.4-2.7c1.8,1.3-1.3,1.8,1.6,3.2s4.7,2.7,5.5,3.8c0.9,1.1,0.7,2.1,3,0.4c2.3-1.7,3,0.4,4.7-4.4s3.8-5.5,4.9-6.4
		c1.1-0.9,2,0.3,2.7,2.4c0.7,2.1,1.6,3.2,3.4,4.5c1.8,1.3,1.4,4.2,5,0.7s4.8-5.4,6.3-9.2c1.5-3.8,3.7-4.5,1-6.9
		c-2.7-2.4-3.4-4.5-6.5-3.9c-3.1,0.6-3.1,0.6-5.1,0.3c-2-0.3-5.1,0.3-6.9-1c-1.8-1.3-3.4-4.5-0.6-3.1s4.7,2.7,6.7,2.9
		c2,0.3,1.3-1.8,3.4-2.6c2.1-0.7,5.1-0.3,3.2-1.6c-1.8-1.3-3.4-4.5-4.3-5.6s-3.8-1.5-2.6-3.4c1.3-1.8,3.4-2.6,5.4-2.3
		c2,0.3,5.9,0.8,6.4-2.1c0.4-3,3.1-14.7,3.6-18.7c0.6-4,0.4-10,1.4-9.9s1.1-0.9,1.4-2.8s0.4-3,1.4-2.8c1,0.1,1.3-1.8,0.4-3
		s1,0.1,1.3-1.8s0.4-3-1.6-3.2c-2-0.3-0.7-2.1-1.4-4.2c-0.7-2.1-3.3-5.5-2-7.3c1.3-1.8,2.3-1.7-1.7-2.3c-4-0.6-8.9-1.2-9.8-2.4
		c-0.9-1.1,0.4-3,2.3-1.7s0.9,1.1,2.1-0.7c1.3-1.8,1.4-2.8,0.4-3c-1-0.1,1,0.1,2,0.3s1.1-0.9,1.3-1.8c0.1-1,0.1-1,2.1-0.7
		c2,0.3-0.3,2,1.7,2.3c2,0.3,3,0.4,7.9,1.1s9.8,2.4,4.8,1.7s-9.2,0.7-10.2,0.6c-1-0.1-3.5,3.5-0.4,3c3.1-0.6,7.1,0,11.2-0.5
		s4,0.6,6.2-1.2c2.3-1.7,2.3-1.7,4.2-1.4s4.8,1.7,7.1,0c2.3-1.7,6.5-3.1,3.1-0.6s-6.5,3.1-8.5,2.9c-2-0.3-3.2,1.6-6.4,2.1
		s-7.2,1-10.2,0.6c-3-0.4-5.2,1.3-3.4,2.6s0.7,2.1,5.7,2.8c5,0.7,8.1,0.1,6.9,1c-1.1,0.9-2.3,1.7-4.2,1.4c-2-0.3-0.9-1.1-2.4,2.7
		c-1.5,3.8-2.9,6.7-1.2,8.9s1.6,3.2,3.4,4.5c1.8,1.3,2.7,2.4,3.8,1.5c1.1-0.9,1.4-2.8,2.1-0.7c0.7,2.1,0.7,2.1-1.4,2.8
		c-2.1,0.7-4.2,1.4-5-0.7c-0.7-2.1-0.6-3.1-2.4-4.4c-1.8-1.3-3.5-3.5-4-0.6c-0.4,3-2.8,19.8-4.3,23.6c-1.5,3.8-2.5,3.7-2,6.8
		c0.6,3.1-2,6.8,2.3,5.4s0.9,1.1,3.5-3.5s-1.7,4.8,3.1-7.6c4.8-12.5,7.3-16.1,5.5-10.3c-1.8,5.8-3.4,9.6-1.7,11.9
		c1.7,2.3,2.6,3.4,3.1-0.6c0.6-4,1.3-1.8,2.9-6.7c1.7-4.8,1.5-3.8,3.2-8.6c1.7-4.8,3.7-4.5,1.7-4.8c-2-0.3-4.1,0.4-3.7-2.5
		c0.4-3,1.5-3.8,3.4-2.6c1.8,1.3,1,0.1,2.4-2.7c1.4-2.8,1.7-4.8,2-6.8s-1.4-4.2-0.3-5.1c1.1-0.9,2.4-2.7-0.7-2.1
		c-3.1,0.6-8.3,1.9-5-0.7c3.4-2.6,4.2-1.4,5.4-2.3c1.1-0.9,0.6-4,2.5-3.7c2,0.3,2.1-0.7,3.5,3.5c1.4,4.2,1.6,3.2,0.9,8.2
		c-0.7,5-6,28.4-6,28.4l-7.3,23.2l-15.7,54.4l-4.6,11.5L53.9,605L21.7,604.5z"/>
	<path class="st15" d="M70.1,532.5c-2-0.3-5.9-0.8-9.1-0.3s-0.6-3.1-0.2-6.1c0.4-3,2.2-15.8,2.6-18.8c0.4-3,1.8-5.8,2.1-7.8
		s9-13.9,11.7-18.6c2.7-4.7-0.9-1.1-2.3,1.7c-1.4,2.8-6.1,7.2-10,13.7s-3.7,4.5-4.5,10.5c-0.7,4.9-2.3,21.5-2.8,27l1.9,1.5l11.4-1.8
		C74.1,533.1,72.1,532.8,70.1,532.5z"/>
	<path class="st15" d="M67.8,469.6c-4.7-2.7-7.5-4.1-9.9-8.5c-2.4-4.4-4.4-4.7-4.8-8.8c-0.4-4.1,0-7.1,0-7.1s-2.4-4.4-3.5-3.5
		c-1.1,0.9-2.4,2.7-3.4,2.6c-1-0.1-1-0.1-1-0.1s-0.4,3,0.6,3.1c1,0.1,0.9,1.1-0.3,2c-1.1,0.9-1-0.1,0.7,2.1c1.7,2.3,2.6,3.4,5.1,6.8
		s4.1,6.6,7,8c2.8,1.4,3.7,2.5,6.5,3.9C67.5,471.6,69.7,470.8,67.8,469.6"/>
	<path class="st15" d="M59.5,405.8c2.7,2.4,5.4,4.8,2.7,9.5c-2.7,4.7-6.2,8.2-4.8,12.5c1.4,4.2,4.8,8.8,5.5,10.9
		c0.7,2.1,5.5,3.8,11.3,5.6c5.8,1.8,12.3,5.8,8.1,0.1c-4.3-5.6-3.8-8.6-5.7-9.9c-1.8-1.3-1.3-5.2,0.4-3s2.1-0.7,2.4-2.7
		c0.3-2,2.5-3.7,0.8-5.9c-1.7-2.3-0.4-4.1-3.8-8.6c-3.4-4.5-7.9-8.2-9.9-15.5s-2.7-9.5-1-14.3c1.7-4.8,0.8-5.9,5.8-5.3
		s6.2-1.2,7.9,1.1c1.7,2.3,1,0.1,4.1-0.4c3.1-0.6,6.7,2.9,5.4-2.3c-1.3-5.2,0.1-8.1-1.6-10.3c-1.7-2.3,2.3-1.7,3.4,4.5
		c1.2,6.2,4.6,10.7,4.8,8.8s0.6-4-0.2-6.1s-5.3-5.8-1.4-4.2s6.7,2.9,6.2,5.9s-1.4,2.8,1.4,4.2c2.8,1.4,2.4,2.2,3.3-3.2
		s-0.8-7.6,3.3-8s2.3-1.7,5.5-3.3c3.2-1.6,6.2-1.2,2.4-2.7c-3.8-1.5-5.4-4.8-6.8-2c-1.4,2.8-2,6.8-4.4,2.4c-2.4-4.4-0.9-8.2-5-7.8
		s-1.3,1.8-5.9-0.8c-4.7-2.7-6.8-2-3.3-5.5c3.5-3.5,0.8-5.9,5.4-2.3c4.5,3.7,4.5,3.7,10.2,6.5s7.9,1.1,11.6,3.6
		c3.7,2.5,3,0.4-4.3-5.6s-10.6-10.6-14.6-11.1s-10.5-4.5-5.3-5.8s5.8,1.8,8.9,1.2s6.5,3.9,3.4-2.6c-3.1-6.5-4.6-10.7-8.4-12.3
		c-3.8-1.5-20.2,14.3-20.2,14.3l-17.3,29.9l-8.9,12.9l1.9,22.5L59.5,405.8z"/>
	<path class="st15" d="M49.7,454.9c-1.8-1.3-4.8-1.7-5.5-3.8c-0.7-2.1,1.3-1.8-0.2-6.1s-3.4-11.6-4.6-17.8
		c-1.2-6.2-2.2-13.4-2.9-15.5c-0.7-2.1-1.6-3.2-3.5-3.5s-8.1-0.1-4.8-1.7s4.7-4.4,6.6-4.1s2,0.3,5,0.7c3,0.4,1.6,3.2,2,7.3
		c0.4,4.1,6.7,24.2,6.7,24.2l4.4,11.7L49.7,454.9z"/>
	<path class="st15" d="M34.8,395.3c-0.6,4-1,6.9-2.5,3.7c-1.6-3.2-2.4-4.4-2.1-6.4c0.3-2,1.4-2.8,2.1-0.7S34.8,395.3,34.8,395.3z"/>
</g>
<path class="st16" d="M159,354c11.4,0,31-7,38-7s15-3,14,3s3,13-5,13s-6-2-13,2s-10,6-8,2s-1-5-5-6s-7-3-15,0S157,354,159,354z"/>
<path class="st16" d="M143,345c-3.2,0-7,11,0,9s33-6,38-7s13-2-3-2S151,345,143,345z"/>
<path class="st6" d="M240,147c3,1,4,1,6,1c0.7,0,1.5,0,2.4,0.1c3.5-0.8,6.2-0.7,8.3-0.2c0-0.2,0.4-0.2,1.3,0.1c3,1,6,3,3-1
	s-12-13-24-13c-3,0-4,1-4-1s-1-1-3-1s-3,1-2-1s0-2-1-4s-4-3-5,0s-4,4-8,5s-8,2-8,4s-1,4,1,4s1,2,4,1s5-3,2-4s0-2,4-3s5-3,3,0
	s-2,3-3,4s-5.4,4.6-2.2,3.3c3.2-1.3,6.2,0.7,4.2,1.7s-3,2-2,2s2-3,5-2s8,0,6,2s-6,2-10,3s-2,4,1,3s9-2,10-3s4-2,5-2S237,146,240,147
	z"/>
<path class="st6" d="M110,259c2,1,7,2,6,5s0,6,2,9s4,5,5,5s4,1,2,2s-7,1-4,3s3,2,5,2s2,2,0,2s-4-2-5-2s-1,0-1,3s0.8,4.3,3.9,6.1
	c3.1,1.9,4.1,2.9,4.1,3.9s2,4,3,4s2,1,2-2s-1-2,1-2s17,3,19,2s3-1,3,1s-1.2,3.8,0.9,2.4c2.1-1.4,7.1-0.4,7.1-1.4s0-5,2-5s3-1,4,2
	s0.2,5.2,1.1,7.1c0.9,1.9,1.9,4.9-1.1,4.9s-1-2-4-2s-4,0-7-1s-3-2-5-1s-4,1-5,3s-2,2-7,2s-10-2-13-4s-2-4-5-2s-3,1-4,0s-1,0-1-3
	s2-4,2-6s0-4-1-4s-2-1-2,1s2,2,1,4s0,2-2,2s-3,0-3,1s1,0,2,1s-1.6,0.8-2.8,1.9C112,305,111,305,112,302s0-6-1-8s4-13,4-13l-3-18
	L110,259z"/>
<path class="st17" d="M278,165c-2,1-3,3-6-2s-4-8-5-9s-5-4-1,3s3,3,5,7s5,7,7,7S278,165,278,165z"/>
</svg>
