<?xml version="1.0" encoding="utf-8"?>
<!-- Generator: Adobe Illustrator 21.0.2, SVG Export Plug-In . SVG Version: 6.00 Build 0)  -->
<svg version="1.1" id="concept_2" xmlns="http://www.w3.org/2000/svg" xmlns:xlink="http://www.w3.org/1999/xlink" x="0px" y="0px"
	 viewBox="0 0 2000 1445" style="enable-background:new 0 0 2000 1445;" xml:space="preserve">
<style type="text/css">
	.st0{fill:none;}
	.st1{fill:#161F26;}
	.st2{fill:url(#SVGID_1_);}
	.st3{fill:url(#SVGID_2_);}
	.st4{opacity:0.7;fill:url(#SVGID_15_);enable-background:new    ;}
	.st5{fill:url(#SVGID_16_);}
	.st6{opacity:0.8;fill:url(#SVGID_17_);enable-background:new    ;}
	.st7{opacity:0.6;fill:url(#SVGID_18_);enable-background:new    ;}
	.st8{opacity:0.5;fill:url(#SVGID_19_);enable-background:new    ;}
	.st9{opacity:0.4;fill:url(#SVGID_20_);enable-background:new    ;}
	.st10{opacity:0.3;fill:url(#SVGID_21_);enable-background:new    ;}
	.st11{opacity:0.3;fill:url(#SVGID_22_);enable-background:new    ;}
	.st12{opacity:0.2;fill:url(#SVGID_23_);enable-background:new    ;}
	.st13{opacity:0.2;fill:url(#SVGID_24_);enable-background:new    ;}
</style>
<pattern  y="1445" width="30.4" height="30.4" patternUnits="userSpaceOnUse" id="SVGID_10_" viewBox="0 -30.4 30.4 30.4" style="overflow:visible;">
	<g>
		<rect y="-30.4" class="st0" width="30.4" height="30.4"/>
		<g>
			<rect y="-30.4" class="st0" width="30.4" height="30.4"/>
			<circle class="st1" cx="15.2" cy="-15.2" r="5.5"/>
			<g>
				<path class="st1" d="M30.4-5.5V0h-5.5C24.9-3,27.4-5.5,30.4-5.5z"/>
				<path class="st1" d="M5.5,0H0v-5.5C3-5.5,5.5-3,5.5,0z"/>
				<path class="st1" d="M30.4-24.9c-3,0-5.5-2.5-5.5-5.5h5.5V-24.9z"/>
				<path class="st1" d="M0-24.9v-5.5h5.5C5.5-27.4,3-24.9,0-24.9z"/>
			</g>
		</g>
	</g>
</pattern>
<pattern  y="1445" width="30.4" height="30.4" patternUnits="userSpaceOnUse" id="SVGID_11_" viewBox="0 -30.4 30.4 30.4" style="overflow:visible;">
	<g>
		<rect y="-30.4" class="st0" width="30.4" height="30.4"/>
		<g>
			<rect y="-30.4" class="st0" width="30.4" height="30.4"/>
			<circle class="st1" cx="15.2" cy="-15.2" r="5.5"/>
			<g>
				<path class="st1" d="M30.4-5.5V0h-5.5C24.9-3,27.4-5.5,30.4-5.5z"/>
				<path class="st1" d="M5.5,0H0v-5.5C3-5.5,5.5-3,5.5,0z"/>
				<path class="st1" d="M30.4-24.9c-3,0-5.5-2.5-5.5-5.5h5.5V-24.9z"/>
				<path class="st1" d="M0-24.9v-5.5h5.5C5.5-27.4,3-24.9,0-24.9z"/>
			</g>
		</g>
	</g>
</pattern>
<pattern  y="1445" width="30.4" height="30.4" patternUnits="userSpaceOnUse" id="SVGID_12_" viewBox="0 -30.4 30.4 30.4" style="overflow:visible;">
	<g>
		<rect y="-30.4" class="st0" width="30.4" height="30.4"/>
		<g>
			<rect y="-30.4" class="st0" width="30.4" height="30.4"/>
			<circle class="st1" cx="15.2" cy="-15.2" r="5.5"/>
			<g>
				<path class="st1" d="M30.4-5.5V0h-5.5C24.9-3,27.4-5.5,30.4-5.5z"/>
				<path class="st1" d="M5.5,0H0v-5.5C3-5.5,5.5-3,5.5,0z"/>
				<path class="st1" d="M30.4-24.9c-3,0-5.5-2.5-5.5-5.5h5.5V-24.9z"/>
				<path class="st1" d="M0-24.9v-5.5h5.5C5.5-27.4,3-24.9,0-24.9z"/>
			</g>
		</g>
	</g>
</pattern>
<pattern  y="1445" width="30.4" height="30.4" patternUnits="userSpaceOnUse" id="SVGID_13_" viewBox="0 -30.4 30.4 30.4" style="overflow:visible;">
	<g>
		<rect y="-30.4" class="st0" width="30.4" height="30.4"/>
		<g>
			<rect y="-30.4" class="st0" width="30.4" height="30.4"/>
			<circle class="st1" cx="15.2" cy="-15.2" r="5.5"/>
			<g>
				<path class="st1" d="M30.4-5.5V0h-5.5C24.9-3,27.4-5.5,30.4-5.5z"/>
				<path class="st1" d="M5.5,0H0v-5.5C3-5.5,5.5-3,5.5,0z"/>
				<path class="st1" d="M30.4-24.9c-3,0-5.5-2.5-5.5-5.5h5.5V-24.9z"/>
				<path class="st1" d="M0-24.9v-5.5h5.5C5.5-27.4,3-24.9,0-24.9z"/>
			</g>
		</g>
	</g>
</pattern>
<pattern  y="1445" width="30.4" height="30.4" patternUnits="userSpaceOnUse" id="SVGID_14_" viewBox="0 -30.4 30.4 30.4" style="overflow:visible;">
	<g>
		<rect y="-30.4" class="st0" width="30.4" height="30.4"/>
		<g>
			<rect y="-30.4" class="st0" width="30.4" height="30.4"/>
			<circle class="st1" cx="15.2" cy="-15.2" r="5.5"/>
			<g>
				<path class="st1" d="M30.4-5.5V0h-5.5C24.9-3,27.4-5.5,30.4-5.5z"/>
				<path class="st1" d="M5.5,0H0v-5.5C3-5.5,5.5-3,5.5,0z"/>
				<path class="st1" d="M30.4-24.9c-3,0-5.5-2.5-5.5-5.5h5.5V-24.9z"/>
				<path class="st1" d="M0-24.9v-5.5h5.5C5.5-27.4,3-24.9,0-24.9z"/>
			</g>
		</g>
	</g>
</pattern>
<pattern  y="1445" width="30.4" height="30.4" patternUnits="userSpaceOnUse" id="SVGID_3_" viewBox="0 -30.4 30.4 30.4" style="overflow:visible;">
	<g>
		<rect y="-30.4" class="st0" width="30.4" height="30.4"/>
		<g>
			<rect y="-30.4" class="st0" width="30.4" height="30.4"/>
			<circle class="st1" cx="15.2" cy="-15.2" r="5.5"/>
			<g>
				<path class="st1" d="M30.4-5.5V0h-5.5C24.9-3,27.4-5.5,30.4-5.5z"/>
				<path class="st1" d="M5.5,0H0v-5.5C3-5.5,5.5-3,5.5,0z"/>
				<path class="st1" d="M30.4-24.9c-3,0-5.5-2.5-5.5-5.5h5.5V-24.9z"/>
				<path class="st1" d="M0-24.9v-5.5h5.5C5.5-27.4,3-24.9,0-24.9z"/>
			</g>
		</g>
	</g>
</pattern>
<pattern  y="1445" width="30.4" height="30.4" patternUnits="userSpaceOnUse" id="SVGID_4_" viewBox="0 -30.4 30.4 30.4" style="overflow:visible;">
	<g>
		<rect y="-30.4" class="st0" width="30.4" height="30.4"/>
		<g>
			<rect y="-30.4" class="st0" width="30.4" height="30.4"/>
			<circle class="st1" cx="15.2" cy="-15.2" r="5.5"/>
			<g>
				<path class="st1" d="M30.4-5.5V0h-5.5C24.9-3,27.4-5.5,30.4-5.5z"/>
				<path class="st1" d="M5.5,0H0v-5.5C3-5.5,5.5-3,5.5,0z"/>
				<path class="st1" d="M30.4-24.9c-3,0-5.5-2.5-5.5-5.5h5.5V-24.9z"/>
				<path class="st1" d="M0-24.9v-5.5h5.5C5.5-27.4,3-24.9,0-24.9z"/>
			</g>
		</g>
	</g>
</pattern>
<pattern  y="1445" width="30.4" height="30.4" patternUnits="userSpaceOnUse" id="SVGID_5_" viewBox="0 -30.4 30.4 30.4" style="overflow:visible;">
	<g>
		<rect y="-30.4" class="st0" width="30.4" height="30.4"/>
		<g>
			<rect y="-30.4" class="st0" width="30.4" height="30.4"/>
			<circle class="st1" cx="15.2" cy="-15.2" r="5.5"/>
			<g>
				<path class="st1" d="M30.4-5.5V0h-5.5C24.9-3,27.4-5.5,30.4-5.5z"/>
				<path class="st1" d="M5.5,0H0v-5.5C3-5.5,5.5-3,5.5,0z"/>
				<path class="st1" d="M30.4-24.9c-3,0-5.5-2.5-5.5-5.5h5.5V-24.9z"/>
				<path class="st1" d="M0-24.9v-5.5h5.5C5.5-27.4,3-24.9,0-24.9z"/>
			</g>
		</g>
	</g>
</pattern>
<pattern  y="1445" width="30.4" height="30.4" patternUnits="userSpaceOnUse" id="SVGID_6_" viewBox="0 -30.4 30.4 30.4" style="overflow:visible;">
	<g>
		<rect y="-30.4" class="st0" width="30.4" height="30.4"/>
		<g>
			<rect y="-30.4" class="st0" width="30.4" height="30.4"/>
			<circle class="st1" cx="15.2" cy="-15.2" r="5.5"/>
			<g>
				<path class="st1" d="M30.4-5.5V0h-5.5C24.9-3,27.4-5.5,30.4-5.5z"/>
				<path class="st1" d="M5.5,0H0v-5.5C3-5.5,5.5-3,5.5,0z"/>
				<path class="st1" d="M30.4-24.9c-3,0-5.5-2.5-5.5-5.5h5.5V-24.9z"/>
				<path class="st1" d="M0-24.9v-5.5h5.5C5.5-27.4,3-24.9,0-24.9z"/>
			</g>
		</g>
	</g>
</pattern>
<pattern  y="1445" width="30.4" height="30.4" patternUnits="userSpaceOnUse" id="SVGID_7_" viewBox="0 -30.4 30.4 30.4" style="overflow:visible;">
	<g>
		<rect y="-30.4" class="st0" width="30.4" height="30.4"/>
		<g>
			<rect y="-30.4" class="st0" width="30.4" height="30.4"/>
			<circle class="st1" cx="15.2" cy="-15.2" r="5.5"/>
			<g>
				<path class="st1" d="M30.4-5.5V0h-5.5C24.9-3,27.4-5.5,30.4-5.5z"/>
				<path class="st1" d="M5.5,0H0v-5.5C3-5.5,5.5-3,5.5,0z"/>
				<path class="st1" d="M30.4-24.9c-3,0-5.5-2.5-5.5-5.5h5.5V-24.9z"/>
				<path class="st1" d="M0-24.9v-5.5h5.5C5.5-27.4,3-24.9,0-24.9z"/>
			</g>
		</g>
	</g>
</pattern>
<pattern  y="1445" width="30.4" height="30.4" patternUnits="userSpaceOnUse" id="SVGID_8_" viewBox="0 -30.4 30.4 30.4" style="overflow:visible;">
	<g>
		<rect y="-30.4" class="st0" width="30.4" height="30.4"/>
		<g>
			<rect y="-30.4" class="st0" width="30.4" height="30.4"/>
			<circle class="st1" cx="15.2" cy="-15.2" r="5.5"/>
			<g>
				<path class="st1" d="M30.4-5.5V0h-5.5C24.9-3,27.4-5.5,30.4-5.5z"/>
				<path class="st1" d="M5.5,0H0v-5.5C3-5.5,5.5-3,5.5,0z"/>
				<path class="st1" d="M30.4-24.9c-3,0-5.5-2.5-5.5-5.5h5.5V-24.9z"/>
				<path class="st1" d="M0-24.9v-5.5h5.5C5.5-27.4,3-24.9,0-24.9z"/>
			</g>
		</g>
	</g>
</pattern>
<pattern  y="1445" width="30.4" height="30.4" patternUnits="userSpaceOnUse" id="SVGID_9_" viewBox="0 -30.4 30.4 30.4" style="overflow:visible;">
	<g>
		<rect y="-30.4" class="st0" width="30.4" height="30.4"/>
		<g>
			<rect y="-30.4" class="st0" width="30.4" height="30.4"/>
			<circle class="st1" cx="15.2" cy="-15.2" r="5.5"/>
			<g>
				<path class="st1" d="M30.4-5.5V0h-5.5C24.9-3,27.4-5.5,30.4-5.5z"/>
				<path class="st1" d="M5.5,0H0v-5.5C3-5.5,5.5-3,5.5,0z"/>
				<path class="st1" d="M30.4-24.9c-3,0-5.5-2.5-5.5-5.5h5.5V-24.9z"/>
				<path class="st1" d="M0-24.9v-5.5h5.5C5.5-27.4,3-24.9,0-24.9z"/>
			</g>
		</g>
	</g>
</pattern>
<pattern  id="SVGID_1_" xlink:href="#SVGID_3_" patternTransform="matrix(0.6 0 0 -0.6 -5753.8105 -11163.4404)">
</pattern>
<polygon class="st2" points="2000,1040.2 2000,0 737.3,0 1401.9,921 "/>
<pattern  id="SVGID_2_" xlink:href="#SVGID_4_" patternTransform="matrix(0.3 0 0 -0.3 -10045.4805 -6667.4126)">
</pattern>
<polygon class="st3" points="1962,1445 2000,1445 2000,1085.3 1425.8,961.7 "/>
<pattern  id="SVGID_15_" xlink:href="#SVGID_5_" patternTransform="matrix(0.6 0 0 -0.6 -5768.5132 -11152.5742)">
</pattern>
<polygon class="st4" points="678.4,0 340.6,0 1293.9,832.9 "/>
<pattern  id="SVGID_16_" xlink:href="#SVGID_6_" patternTransform="matrix(0.5 0 0 -0.5 -7187.8042 -9655.5713)">
</pattern>
<polygon class="st5" points="1180.7,1445 1939.4,1445 1313.2,891.9 "/>
<pattern  id="SVGID_17_" xlink:href="#SVGID_7_" patternTransform="matrix(0.3 0 0 -0.3 -10074.5703 -6678.3364)">
</pattern>
<polygon class="st6" points="418.7,1445 1163.6,1445 1293.9,891.9 "/>
<pattern  id="SVGID_18_" xlink:href="#SVGID_8_" patternTransform="matrix(0.4 0 0 -0.4 -8628.1797 -8167.8911)">
</pattern>
<polygon class="st7" points="1288.6,868 310.4,0 285.5,0 1011.5,1042.6 "/>
<pattern  id="SVGID_19_" xlink:href="#SVGID_9_" patternTransform="matrix(0.5 0 0 -0.5 -7179.8306 -9670.2373)">
</pattern>
<polygon class="st8" points="675.8,611.6 334.7,1445 383,1445 994.6,1058.4 "/>
<pattern  id="SVGID_20_" xlink:href="#SVGID_10_" patternTransform="matrix(0.7 0 0 -0.7 -4333.2231 -12681.6045)">
</pattern>
<polygon class="st9" points="428.2,239.6 654.6,567.3 318.3,1423 "/>
<pattern  id="SVGID_21_" xlink:href="#SVGID_11_" patternTransform="matrix(0.5 0 0 -0.5 -7202.8301 -9680.2812)">
</pattern>
<polygon class="st10" points="0,942.7 0,1290.5 205.4,1445 294.9,1445 362.6,715.5 "/>
<pattern  id="SVGID_22_" xlink:href="#SVGID_12_" patternTransform="matrix(0.6 0 0 -0.6 -5751.9297 -11169.6367)">
</pattern>
<polygon class="st11" points="399.6,218.1 258.3,0 171.4,0 366.4,600 "/>
<pattern  id="SVGID_23_" xlink:href="#SVGID_13_" patternTransform="matrix(0.4 0 0 -0.4 -8625.6396 -8166.7637)">
</pattern>
<polygon class="st12" points="0,394.1 0,908 354.7,676 "/>
<pattern  id="SVGID_24_" xlink:href="#SVGID_14_" patternTransform="matrix(0.5 0 0 -0.5 -7184.8364 -9663.2119)">
</pattern>
<polygon class="st13" points="158.1,0 0,0 0,361.1 354.1,634.3 "/>
</svg>
